<?xml version="1.0" encoding="UTF-8"?>
<svg width="217px" height="39px" viewBox="0 0 217 39" version="1.1" xmlns="http://www.w3.org/2000/svg" xmlns:xlink="http://www.w3.org/1999/xlink">
    <!-- Generator: Sketch 57.1 (83088) - https://sketch.com -->
    <title>Group 24</title>
    <desc>Created with Sketch.</desc>
    <defs>
        <polygon id="path-1" points="0 0.41379661 39.9588712 0.41379661 39.9588712 38.3229203 0 38.3229203"></polygon>
        <polygon id="path-3" points="0.625388136 0.429925424 27.5915746 0.429925424 27.5915746 38.3389831 0.625388136 38.3389831"></polygon>
        <polygon id="path-5" points="0.100474576 0.41379661 27.066 0.41379661 27.066 38.322722 0.100474576 38.322722"></polygon>
    </defs>
    <g id="Page-1-Copy-2" stroke="none" stroke-width="1" fill="none" fill-rule="evenodd">
        <g id="1-copy-10" transform="translate(-591.000000, -90.000000)">
            <g id="Group-24" transform="translate(591.000000, 90.000000)">
                <g id="Group-23">
                    <g id="Group-3" transform="translate(0.000000, 0.247353)">
                        <mask id="mask-2" fill="white">
                            <use xlink:href="#path-1"></use>
                        </mask>
                        <g id="Clip-2"></g>
                        <path d="M19.9789729,29.614022 C25.8706169,29.614022 29.968922,25.5157169 29.968922,19.3682593 C29.968922,13.2208017 25.8706169,9.12249661 19.9789729,9.12249661 C14.0879898,9.12249661 9.98968475,13.2208017 9.98968475,19.3682593 C9.98968475,25.5157169 14.0879898,29.614022 19.9789729,29.614022 M19.9789729,0.413598305 C31.7616,0.413598305 39.9588712,9.12249661 39.9588712,19.3682593 C39.9588712,29.614022 31.7616,38.3229203 19.9789729,38.3229203 C8.19700678,38.3229203 -0.00026440678,29.614022 -0.00026440678,19.3682593 C-0.00026440678,9.12249661 8.19700678,0.413598305 19.9789729,0.413598305" id="Fill-1" fill="#1FBBBB" mask="url(#mask-2)"></path>
                    </g>
                    <path d="M78.1284356,18.0787475 C81.2021644,18.0787475 82.9948424,16.2860695 82.9948424,14.2369169 C82.9948424,12.1871034 81.2021644,10.3944254 78.1284356,10.3944254 L69.9324864,10.3944254 L69.9324864,18.0787475 L78.1284356,18.0787475 Z M60.4548254,1.68552712 L78.3849102,1.68552712 C87.0938085,1.68552712 92.728978,7.32069661 92.728978,14.2369169 C92.728978,19.6156119 89.3987746,22.9451542 85.5562831,24.9943068 L92.9847915,37.5456966 L82.7390288,37.5456966 L76.3357576,26.7876458 L69.9324864,26.7876458 L69.9324864,37.5456966 L60.4548254,37.5456966 L60.4548254,1.68552712 Z" id="Fill-4" fill="#1FBBBB"></path>
                    <polygon id="Fill-6" fill="#1FBBBB" points="183.253068 1.68565932 192.730729 1.68565932 192.730729 15.0051508 196.828373 15.0051508 205.537271 1.68565932 216.295322 1.68565932 205.025644 18.5911678 217.063424 37.5458288 206.306034 37.5458288 197.340661 23.7140492 192.730729 23.7140492 192.730729 37.5458288 183.253068 37.5458288"></polygon>
                    <path d="M136.133995,12.0044644 C134.386927,10.3400237 131.97752,9.38617627 129.147046,9.38617627 C127.984317,9.38617627 126.894961,9.55143051 125.889554,9.85549831 C124.121334,12.7335661 123.141046,16.0902102 123.141046,19.631939 C123.141046,23.1736678 124.121995,26.5309729 125.890215,29.4090407 C126.895622,29.7124475 127.984317,29.8777017 129.147046,29.8777017 C131.97752,29.8777017 134.386927,28.9238542 136.133995,27.2594136 C134.244147,25.4588034 133.130995,22.8259729 133.130995,19.631939 C133.130995,16.4379051 134.244147,13.8044136 136.133995,12.0044644" id="Fill-8" fill="#1FBBBB"></path>
                    <g id="Group-12" transform="translate(135.508475, 0.247353)">
                        <mask id="mask-4" fill="white">
                            <use xlink:href="#path-3"></use>
                        </mask>
                        <g id="Clip-11"></g>
                        <path d="M7.61167627,0.429925424 C5.1051,0.429925424 2.76311695,0.82719661 0.625388136,1.54638305 C5.06279492,3.03962034 8.61047288,5.93090847 10.8698288,9.60814576 C14.9582186,10.8422644 17.6016254,14.4507559 17.6016254,19.3845864 C17.6016254,24.3184169 14.9582186,27.9269085 10.8698288,29.1610271 C8.61047288,32.8382644 5.06279492,35.7295525 0.625388136,37.2221288 C2.76311695,37.9413153 5.1051,38.3392475 7.61167627,38.3392475 C19.3943034,38.3392475 27.5915746,29.6303492 27.5915746,19.3845864 C27.5915746,9.13882373 19.3943034,0.429925424 7.61167627,0.429925424" id="Fill-10" fill="#1FBBBB" mask="url(#mask-4)"></path>
                    </g>
                    <g id="Group-17" transform="translate(125.593220, 1.569386)" fill="#A39A39">
                        <path d="M20.7848847,27.8464627 C19.779478,28.1498695 18.690122,28.3151237 17.5267322,28.3151237 C14.6969186,28.3151237 12.2875119,27.3619373 10.5404441,25.6974966 C8.79337627,27.3619373 6.38463051,28.3151237 3.55415593,28.3151237 C2.39142712,28.3151237 1.30207119,28.1498695 0.296664407,27.8464627 C2.55602034,31.5237 6.10369831,34.4143271 10.5404441,35.9075644 C14.9778508,34.4143271 18.5255288,31.5237 20.7848847,27.8464627" id="Fill-13"></path>
                        <path d="M20.7850831,8.29331695 C18.5257271,4.61607966 14.9780492,1.72479153 10.5406424,0.231554237 C6.10323559,1.72479153 2.55555763,4.61607966 0.296862712,8.29331695 C1.30226949,7.98991017 2.39162542,7.82399492 3.55435424,7.82399492 C6.3841678,7.82399492 8.79357458,8.77784237 10.5406424,10.4422831 C12.2877102,8.77784237 14.6971169,7.82399492 17.5269305,7.82399492 C18.6903203,7.82399492 19.7796763,7.98991017 20.7850831,8.29331695" id="Fill-15"></path>
                    </g>
                    <g id="Group-20" transform="translate(109.067797, 0.247353)">
                        <mask id="mask-6" fill="white">
                            <use xlink:href="#path-5"></use>
                        </mask>
                        <g id="Clip-19"></g>
                        <path d="M16.8222203,29.1451627 C12.7338305,27.9110441 10.0897627,24.3025525 10.0897627,19.368061 C10.0897627,14.4342305 12.7338305,10.825739 16.8222203,9.59162034 C19.0809153,5.91438305 22.6285932,3.02309492 27.066,1.53051864 C24.9282712,0.811332203 22.5862881,0.4134 20.0797119,0.4134 C8.29774576,0.4134 0.100474576,9.12295932 0.100474576,19.368061 C0.100474576,29.6138237 8.29774576,38.322722 20.0797119,38.322722 C22.5862881,38.322722 24.9282712,37.9254508 27.066,37.2062644 C22.6285932,35.7130271 19.0815763,32.821739 16.8222203,29.1451627" id="Fill-18" fill="#FBB216" mask="url(#mask-6)"></path>
                    </g>
                    <path d="M136.133995,12.0001017 C138.023842,13.8000508 139.137656,16.4335424 139.137656,19.6275763 C139.137656,22.8216102 138.023842,25.4544407 136.133995,27.2550508 C137.881063,28.9194915 140.289808,29.873339 143.120283,29.873339 C144.283012,29.873339 145.372368,29.7080847 146.378436,29.4040169 C148.146656,26.5259492 149.126944,23.1686441 149.126944,19.6275763 C149.126944,16.0858475 148.146656,12.7292034 146.378436,9.85113559 C145.373029,9.54772881 144.283012,9.38181356 143.120283,9.38181356 C140.289808,9.38181356 137.881063,10.335661 136.133995,12.0001017" id="Fill-21" fill="#FBB216"></path>
                </g>
            </g>
        </g>
    </g>
</svg>