<?xml version="1.0" encoding="UTF-8"?>
<svg width="18px" height="18px" viewBox="0 0 18 18" version="1.1" xmlns="http://www.w3.org/2000/svg" xmlns:xlink="http://www.w3.org/1999/xlink">
    <!-- Generator: Sketch 57.1 (83088) - https://sketch.com -->
    <title>Group 7</title>
    <desc>Created with Sketch.</desc>
    <g id="Page-1-Copy-2" stroke="none" stroke-width="1" fill="none" fill-rule="evenodd" opacity="0.252278646">
        <g id="1-copy-4" transform="translate(-1241.000000, -21.000000)" stroke="#000000">
            <g id="Group-7" transform="translate(1242.000000, 22.000000)">
                <path d="M16,8 C16,12.4184348 12.4184348,16 8,16 C3.58156522,16 0,12.4184348 0,8 C0,3.58156522 3.58156522,0 8,0 C12.4184348,0 16,3.58156522 16,8 Z" id="Stroke-1"></path>
                <path d="M10.4325217,4.53686957 C10.4926957,3.16226087 9.34382609,2.08713043 8.00052174,2.08713043 C6.65756522,2.08713043 5.492,3.17130435 5.56886957,4.53686957 C5.58417391,4.81130435 5.83913043,6.17026087 5.83913043,6.17026087 C6.04921739,7.34973913 6.80678261,8.348 8.00052174,8.348 C9.1946087,8.348 9.93721739,7.36469565 10.1622609,6.17026087 C10.1622609,6.17026087 10.4203478,4.81165217 10.4325217,4.53686957 Z" id="Stroke-3"></path>
                <path d="M2.08695652,13.3913043 L2.08695652,13.1572174 C2.08695652,12.069913 2.89321739,11.2873043 3.96208696,11.0191304 L8,10.2608696 L12.0525217,11.016 C13.0886957,11.3412174 13.9130435,12.066087 13.9130435,13.1544348 L13.9130435,13.3913043" id="Stroke-5"></path>
            </g>
        </g>
    </g>
</svg>