<?xml version="1.0" encoding="UTF-8"?>
<svg width="35px" height="30px" viewBox="0 0 35 30" version="1.1" xmlns="http://www.w3.org/2000/svg" xmlns:xlink="http://www.w3.org/1999/xlink">
    <!-- Generator: Sketch 57.1 (83088) - https://sketch.com -->
    <title>Group 9</title>
    <desc>Created with Sketch.</desc>
    <g id="Page-1-Copy-2" stroke="none" stroke-width="1" fill="none" fill-rule="evenodd">
        <g id="1-copy-3" transform="translate(-950.000000, -173.000000)" stroke="#FBB216">
            <g id="Group-9" transform="translate(951.000000, 174.000000)">
                <path d="M22.1722421,7.36842105 L33.9617158,7.36842105" id="Stroke-1"></path>
                <path d="M28.0669789,13.2631579 L28.0669789,1.47368421" id="Stroke-3"></path>
                <path d="M19.1989368,5.47827368 C19.3359895,2.40416842 16.7275684,-0.000147368421 13.6792526,-0.000147368421 C10.6309368,-0.000147368421 7.98493684,2.4248 8.15956842,5.47827368 C8.19493684,6.09206316 8.77262105,9.1308 8.77262105,9.1308 C9.25009474,11.7679579 10.9698842,13.9998526 13.6792526,13.9998526 C16.3886211,13.9998526 18.0745158,11.8018526 18.5858842,9.1308 C18.5858842,9.1308 19.1716737,6.0928 19.1989368,5.47827368 Z" id="Stroke-5"></path>
                <path d="M27.2885789,28 L0.0666842105,28 L0.527947368,22.7131579 C0.779947368,20.7008421 2.78931579,19.3192632 4.86647368,18.9154737 L13.6776316,17.752 L22.5838421,18.9434737 C24.8901579,19.3531579 26.8346842,20.6301053 26.9842632,22.9555789 L27.2885789,28 Z" id="Stroke-7"></path>
            </g>
        </g>
    </g>
</svg>