<?xml version="1.0" encoding="UTF-8"?>
<svg width="18px" height="18px" viewBox="0 0 18 18" version="1.1" xmlns="http://www.w3.org/2000/svg" xmlns:xlink="http://www.w3.org/1999/xlink">
    <!-- Generator: Sketch 57.1 (83088) - https://sketch.com -->
    <title>Group 11</title>
    <desc>Created with Sketch.</desc>
    <g id="Page-1-Copy-2" stroke="none" stroke-width="1" fill="none" fill-rule="evenodd">
        <g id="1-copy-26" transform="translate(-711.000000, -21.000000)" stroke="#FBB216">
            <g id="Group-11" transform="translate(712.000000, 22.000000)">
                <path d="M16,8 C16,12.4184348 12.4184348,16 8,16 C3.58156522,16 0,12.4184348 0,8 C0,3.58156522 3.58156522,0 8,0 C12.4184348,0 16,3.58156522 16,8 Z" id="Stroke-1"></path>
                <path d="M0,8 L16,8" id="Stroke-3"></path>
                <path d="M1.95603478,2.72692174 C2.83916522,3.27092174 4.06073043,4.18187826 7.99986087,4.18187826 C11.9393391,4.18187826 12.9758609,3.29874783 14.0144696,2.72726957" id="Stroke-5"></path>
                <path d="M14.1096348,13.1648 C13.2265043,12.6208 11.9099826,11.6361043 7.97050435,11.6361043 C4.03102609,11.6361043 2.90824348,12.5686261 1.86928696,13.1397565" id="Stroke-7"></path>
                <path d="M11.4545391,8 C11.4545391,12.4184348 9.9394087,16 8.07053913,16 C6.20132174,16 4.6861913,12.4184348 4.6861913,8 C4.6861913,3.58156522 6.20132174,0 8.07053913,0 C9.9394087,0 11.4545391,3.58156522 11.4545391,8 Z" id="Stroke-9"></path>
            </g>
        </g>
    </g>
</svg>