<?xml version="1.0" encoding="UTF-8"?>
<svg width="21px" height="16px" viewBox="0 0 21 16" version="1.1" xmlns="http://www.w3.org/2000/svg" xmlns:xlink="http://www.w3.org/1999/xlink">
    <!-- Generator: Sketch 57.1 (83088) - https://sketch.com -->
    <title>Group 9</title>
    <desc>Created with Sketch.</desc>
    <g id="Page-1-Copy-2" stroke="none" stroke-width="1" fill="none" fill-rule="evenodd" opacity="0.252278646">
        <g id="1-copy-4" transform="translate(-360.000000, -22.000000)" stroke="#000000">
            <g id="Group-9" transform="translate(360.000000, 23.000000)">
                <polygon id="Stroke-1" points="10.2506727 6.8108303 0.0688545455 3.41689091 10.2506727 0.0229515152 20.4324909 3.41689091"></polygon>
                <path d="M15.7947576,4.96278788 L14.9174242,9.35624242 C14.9174242,9.35624242 13.644697,11.0532121 10.2507576,11.0532121 C6.85681818,11.0532121 5.58409091,9.35624242 5.58409091,9.35624242 L4.74493939,4.97551515" id="Stroke-3"></path>
                <polyline id="Stroke-5" points="10.2506727 3.41689091 18.7355212 5.96234545 18.7355212 9.35628485"></polyline>
                <path d="M19.5840061,13.5987091 L17.8870364,13.5987091 L17.5896424,10.6226485 C17.5217636,9.94470909 18.0541879,9.35628485 18.7355212,9.35628485 L18.7355212,9.35628485 C19.4168545,9.35628485 19.9492788,9.94470909 19.8814,10.6226485 L19.5840061,13.5987091 Z" id="Stroke-7"></path>
            </g>
        </g>
    </g>
</svg>