<?xml version="1.0" encoding="UTF-8"?>
<svg width="21px" height="20px" viewBox="0 0 21 20" version="1.1" xmlns="http://www.w3.org/2000/svg" xmlns:xlink="http://www.w3.org/1999/xlink">
    <!-- Generator: Sketch 61.2 (89653) - https://sketch.com -->
    <title>Group 13 Copy</title>
    <desc>Created with Sketch.</desc>
    <g id="Page-1-Copy-2" stroke="none" stroke-width="1" fill="none" fill-rule="evenodd">
        <g id="1-copy-43" transform="translate(-982.000000, -468.000000)">
            <g id="Group-13-Copy" transform="translate(983.000000, 469.000000)">
                <path d="M4.24989231,10.1369538 L0.1632,14.2236462 L3.75304615,17.8134923 L8.57289231,12.9938769 C6.76435385,12.6795692 5.21358462,11.6175692 4.24989231,10.1369538" id="Fill-1" fill="#FFFFFF"></path>
                <path d="M4.24989231,10.1369538 L0.1632,14.2236462 L3.75304615,17.8134923 L8.57289231,12.9938769 C6.76435385,12.6795692 5.21358462,11.6175692 4.24989231,10.1369538 Z" id="Stroke-3" stroke="#9B9B9B"></path>
                <path d="M15.1307769,10.1369538 C14.1670846,11.6175692 12.6163154,12.6795692 10.8077769,12.9938769 L15.6276231,17.8134923 L19.2174692,14.2236462 L15.1307769,10.1369538 Z" id="Fill-5" fill="#FFFFFF"></path>
                <path d="M15.1307769,10.1369538 C14.1670846,11.6175692 12.6163154,12.6795692 10.8077769,12.9938769 L15.6276231,17.8134923 L19.2174692,14.2236462 L15.1307769,10.1369538 Z" id="Stroke-7" stroke="#9B9B9B"></path>
                <path d="M16.1784692,6.60353077 C16.1784692,10.1869154 13.2735462,13.0916077 9.69039231,13.0916077 C6.10700769,13.0916077 3.20208462,10.1869154 3.20208462,6.60353077 C3.20208462,3.02014615 6.10700769,0.115453846 9.69039231,0.115453846 C13.2735462,0.115453846 16.1784692,3.02014615 16.1784692,6.60353077" id="Fill-9" fill="#FFFFFF"></path>
                <path d="M16.1784692,6.60353077 C16.1784692,10.1869154 13.2735462,13.0916077 9.69039231,13.0916077 C6.10700769,13.0916077 3.20208462,10.1869154 3.20208462,6.60353077 C3.20208462,3.02014615 6.10700769,0.115453846 9.69039231,0.115453846 C13.2735462,0.115453846 16.1784692,3.02014615 16.1784692,6.60353077 Z" id="Stroke-11" stroke="#9B9B9B"></path>
            </g>
        </g>
    </g>
</svg>