<?xml version="1.0" encoding="UTF-8"?>
<svg width="17px" height="17px" viewBox="0 0 17 17" version="1.1" xmlns="http://www.w3.org/2000/svg" xmlns:xlink="http://www.w3.org/1999/xlink">
    <!-- Generator: Sketch 57.1 (83088) - https://sketch.com -->
    <title>Group 11</title>
    <desc>Created with Sketch.</desc>
    <g id="Page-1-Copy-2" stroke="none" stroke-width="1" fill="none" fill-rule="evenodd" opacity="0.252278646">
        <g id="1-copy-4" transform="translate(-888.000000, -22.000000)" stroke="#000000">
            <g id="Group-11" transform="translate(889.000000, 23.000000)">
                <path d="M11.8085106,14.6813936 L2.87234043,14.6813936" id="Stroke-1"></path>
                <path d="M2.87234043,14.6813936 C5.90648936,14.6813936 7.20989362,10.642883 7.33117021,10.2449043 C7.33404255,10.2350106 7.34680851,10.2350106 7.34968085,10.2449043 C7.47095745,10.642883 8.7743617,14.6813936 11.8085106,14.6813936" id="Stroke-3"></path>
                <path d="M7.34042553,10.2133085 L7.34042553,10.2133085 C4.71510638,10.2133085 3.05393617,7.29915957 2.5487234,4.32309574 L1.91489362,0.321925532 L7.34042553,0.000542553191 L12.7659574,0.321925532 L12.1321277,4.32309574 C11.6757447,7.2152234 9.96574468,10.2133085 7.34042553,10.2133085 Z" id="Stroke-5"></path>
                <path d="M7.34042553,10.2133085 L7.65957447,10.2133085 C11.537234,10.2133085 14.6808511,7.06969149 14.6808511,3.19203191 L14.6808511,3.19203191 L12.287234,3.19203191" id="Stroke-7"></path>
                <path d="M7.34042553,10.2133085 L7.0212766,10.2133085 C3.14361702,10.2133085 0,7.06969149 0,3.19203191 L0,3.19203191 L2.39361702,3.19203191" id="Stroke-9"></path>
            </g>
        </g>
    </g>
</svg>