<?xml version="1.0" encoding="UTF-8"?>
<svg width="18px" height="18px" viewBox="0 0 18 18" version="1.1" xmlns="http://www.w3.org/2000/svg" xmlns:xlink="http://www.w3.org/1999/xlink">
    <!-- Generator: Sketch 57.1 (83088) - https://sketch.com -->
    <title>Group 2</title>
    <desc>Created with Sketch.</desc>
    <g id="Page-1-Copy-2" stroke="none" stroke-width="1" fill="none" fill-rule="evenodd">
        <g id="1-copy-41" transform="translate(-20.000000, -230.000000)" stroke="#FBB216">
            <g id="Group-2" transform="translate(21.000000, 231.000000)">
                <path d="M11.3012522,3.26643478 C11.3829913,1.4333913 9.82368696,3.17079696e-13 8.00073043,3.17079696e-13 C6.17812174,3.17079696e-13 4.5962087,1.44556522 4.70055652,3.26643478 C4.72142609,3.63234783 5.06716522,5.44417391 5.06716522,5.44417391 C5.35238261,7.01704348 6.38055652,8.34782609 8.00073043,8.34782609 C9.62125217,8.34782609 10.6289043,7.03721739 10.9346435,5.44417391 C10.9346435,5.44417391 11.2849043,3.63269565 11.3012522,3.26643478 Z" id="Stroke-1"></path>
                <path d="M16,15.9998957 L0,15.9998957 L0.384347826,13.1494609 C0.545391304,12.2179826 1.38956522,11.633287 2.31373913,11.4402435 L8,10.4346783 L13.6838261,11.4343304 C14.6233043,11.6465043 15.4546087,12.2047652 15.6156522,13.1445913 L16,15.9998957 Z" id="Stroke-3"></path>
            </g>
        </g>
    </g>
</svg>