<?xml version="1.0" encoding="UTF-8"?>
<svg width="24px" height="26px" viewBox="0 0 24 26" version="1.1" xmlns="http://www.w3.org/2000/svg" xmlns:xlink="http://www.w3.org/1999/xlink">
    <!-- Generator: Sketch 57.1 (83088) - https://sketch.com -->
    <title>Group 5</title>
    <desc>Created with Sketch.</desc>
    <g id="Page-1-Copy-2" stroke="none" stroke-width="1" fill="none" fill-rule="evenodd">
        <g id="1-copy-52" transform="translate(-1291.000000, -15.000000)" stroke="#1FBBBB">
            <g id="Group-5" transform="translate(1292.000000, 16.000000)">
                <path d="M21.9130435,17.8132696 L21.9130435,19.8261391 L0,19.8261391 L0,17.8132696 C0,16.4296174 0.549913043,15.102313 1.52817391,14.1240522 L3.68921739,11.9630087 C4.66747826,10.9842261 5.2173913,9.65744348 5.2173913,8.2737913 L5.2173913,5.73918261 C5.2173913,2.56961739 7.78695652,5.2173913e-05 10.9565217,5.2173913e-05 L10.9565217,5.2173913e-05 C14.126087,5.2173913e-05 16.6956522,2.56961739 16.6956522,5.73918261 L16.6956522,8.2737913 C16.6956522,9.65744348 17.2455652,10.9842261 18.2238261,11.9630087 L20.3848696,14.1240522 C21.3631304,15.102313 21.9130435,16.4296174 21.9130435,17.8132696 Z" id="Stroke-1"></path>
                <path d="M7.82608696,19.826087 L7.82608696,20.8695652 C7.82608696,22.5986087 9.22747826,24 10.9565217,24 L10.9565217,24 C12.6855652,24 14.0869565,22.5986087 14.0869565,20.8695652 L14.0869565,19.826087" id="Stroke-3"></path>
            </g>
        </g>
    </g>
</svg>