<?xml version="1.0" encoding="UTF-8"?>
<svg width="26px" height="26px" viewBox="0 0 26 26" version="1.1" xmlns="http://www.w3.org/2000/svg" xmlns:xlink="http://www.w3.org/1999/xlink">
    <!-- Generator: Sketch 57.1 (83088) - https://sketch.com -->
    <title>Group 7</title>
    <desc>Created with Sketch.</desc>
    <g id="Page-1-Copy-2" stroke="none" stroke-width="1" fill="none" fill-rule="evenodd">
        <g id="1-copy-52" transform="translate(-1343.000000, -15.000000)" stroke="#1FBBBB">
            <g id="Group-7" transform="translate(1344.000000, 16.000000)">
                <path d="M24,12 C24,18.6276522 18.6276522,24 12,24 C5.37234783,24 0,18.6276522 0,12 C0,5.37234783 5.37234783,0 12,0 C18.6276522,0 24,5.37234783 24,12 Z" id="Stroke-1"></path>
                <path d="M15.6487826,6.80530435 C15.7390435,4.7433913 14.0157391,3.13069565 12.0007826,3.13069565 C9.98634783,3.13069565 8.238,4.75695652 8.35330435,6.80530435 C8.37626087,7.21695652 8.75869565,9.2553913 8.75869565,9.2553913 C9.07382609,11.0246087 10.2101739,12.522 12.0007826,12.522 C13.791913,12.522 14.9058261,11.0470435 15.2433913,9.2553913 C15.2433913,9.2553913 15.6305217,7.21747826 15.6487826,6.80530435 Z" id="Stroke-3"></path>
                <path d="M3.13043478,20.0869565 L3.13043478,19.7358261 C3.13043478,18.1048696 4.33982609,16.9309565 5.94313043,16.5286957 L12,15.3913043 L18.0787826,16.524 C19.6330435,17.0118261 20.8695652,18.0991304 20.8695652,19.7316522 L20.8695652,20.0869565" id="Stroke-5"></path>
            </g>
        </g>
    </g>
</svg>