<?xml version="1.0" encoding="UTF-8"?>
<svg width="212px" height="185px" viewBox="0 0 212 185" version="1.1" xmlns="http://www.w3.org/2000/svg" xmlns:xlink="http://www.w3.org/1999/xlink">
    <!-- Generator: Sketch 57.1 (83088) - https://sketch.com -->
    <title>Group 292</title>
    <desc>Created with Sketch.</desc>
    <defs>
        <polygon id="path-1" points="0 0.535974998 211.451 0.535974998 211.451 111 0 111"></polygon>
        <polygon id="path-3" points="0.765 0.36 48.386 0.36 48.386 90.77315 0.765 90.77315"></polygon>
        <polygon id="path-5" points="0.765 0.36 48.386 0.36 48.386 90.77315 0.765 90.77315"></polygon>
        <path d="M0.586,1.534 L0.587,62.587 C0.587,63.833 1.461,65.346 2.539,65.969 L2.539,65.969 L75.56,108.128 C76.639,108.751 77.512,108.246 77.512,107.001 L77.512,107.001 L77.512,45.947 C77.512,44.702 76.639,43.188 75.56,42.565 L75.56,42.565 L2.539,0.407 C2.226,0.226 1.929,0.14 1.667,0.14 L1.667,0.14 C1.026,0.14 0.586,0.651 0.586,1.534" id="path-7"></path>
        <linearGradient x1="0.00033525726%" y1="49.9998034%" x2="100.000755%" y2="49.9998034%" id="linearGradient-9">
            <stop stop-color="#023366" offset="0%"></stop>
            <stop stop-color="#1562B0" offset="100%"></stop>
        </linearGradient>
        <path d="M0.995,1.58 L75.967,44.866 C77.047,45.488 77.921,47.003 77.921,48.248 L77.921,48.248 L77.921,111.556 L79.753,110.498 L79.752,47.19 C79.752,45.946 78.878,44.431 77.8,43.809 L77.8,43.809 L2.825,0.523 L0.995,1.58 Z" id="path-10"></path>
        <path d="M0.055,1.615 L74.967,44.866 C75.507,45.177 75.995,45.712 76.348,46.324 L76.348,46.324 L78.18,45.266 C77.827,44.654 77.339,44.119 76.8,43.809 L76.8,43.809 L1.945,0.592 L0.055,1.615 Z" id="path-12"></path>
        <linearGradient x1="0.000449664%" y1="49.9987158%" x2="99.9998637%" y2="49.9987158%" id="linearGradient-14">
            <stop stop-color="#023366" offset="0%"></stop>
            <stop stop-color="#1562B0" offset="100%"></stop>
        </linearGradient>
        <path d="M6.21,0.337 L1.257,3.196 L0.432,2.946 L0.432,4.003 C0.432,4.208 0.566,4.411 0.836,4.567 L0.836,4.567 L2.547,5.555 C3.086,5.865 3.96,5.865 4.499,5.555 L4.499,5.555 L9.873,2.452 C10.142,2.296 10.277,2.092 10.277,1.888 L10.277,1.888 L10.277,0.831 L9.452,1.081 L8.162,0.337 C7.893,0.181 7.539,0.104 7.186,0.104 L7.186,0.104 C6.833,0.104 6.48,0.181 6.21,0.337" id="path-15"></path>
        <linearGradient x1="-0.00256576943%" y1="49.9984781%" x2="100.003501%" y2="49.9984781%" id="linearGradient-17">
            <stop stop-color="#FDC900" offset="0%"></stop>
            <stop stop-color="#FC9600" offset="100%"></stop>
        </linearGradient>
        <path d="M6.252,0.961 L1.299,3.82 L0.474,3.569 L0.474,4.627 C0.474,4.831 0.609,5.035 0.878,5.19 L0.878,5.19 L2.589,6.178 C3.128,6.49 4.002,6.49 4.541,6.178 L4.541,6.178 L9.915,3.075 C10.184,2.92 10.319,2.716 10.319,2.512 L10.319,2.512 L10.319,1.454 L9.494,1.705 L8.204,0.961 C7.935,0.805 7.581,0.728 7.228,0.728 L7.228,0.728 C6.875,0.728 6.522,0.805 6.252,0.961" id="path-18"></path>
        <linearGradient x1="0.000455053327%" y1="49.9896587%" x2="100.006057%" y2="49.9896587%" id="linearGradient-20">
            <stop stop-color="#FDC900" offset="0%"></stop>
            <stop stop-color="#FC9600" offset="100%"></stop>
        </linearGradient>
        <path d="M0.938,0.965 L9.687,48.449 C9.8,49.059 10.331,49.811 10.867,50.122 L10.867,50.122 L66.671,82.339 L57.718,33.747 C57.605,33.138 57.074,32.385 56.537,32.075 L56.537,32.075 L1.71,0.421 C1.552,0.33 1.411,0.286 1.292,0.286 L1.292,0.286 C1.009,0.286 0.859,0.535 0.938,0.965" id="path-21"></path>
        <linearGradient x1="-0.000186518361%" y1="50.0005811%" x2="99.9999615%" y2="50.0005811%" id="linearGradient-23">
            <stop stop-color="#FDC900" offset="0%"></stop>
            <stop stop-color="#FC9600" offset="100%"></stop>
        </linearGradient>
        <path d="M0.22,4.14 C0.22,6.014 1.739,7.533 3.613,7.533 L3.613,7.533 C5.488,7.533 7.007,6.014 7.007,4.14 L7.007,4.14 C7.007,2.265 5.488,0.746 3.613,0.746 L3.613,0.746 C1.739,0.746 0.22,2.265 0.22,4.14" id="path-24"></path>
        <linearGradient x1="-0.00470310888%" y1="50.0015132%" x2="100.009484%" y2="50.0015132%" id="linearGradient-26">
            <stop stop-color="#101519" offset="0%"></stop>
            <stop stop-color="#223137" offset="100%"></stop>
        </linearGradient>
        <linearGradient x1="0.0213132581%" y1="49.9945406%" x2="100.011054%" y2="49.9945406%" id="linearGradient-27">
            <stop stop-color="#FCCEAC" offset="0%"></stop>
            <stop stop-color="#F7A977" offset="100%"></stop>
        </linearGradient>
        <polygon id="path-28" points="0.943 0.101 1.063 4.433 3.452 4.35 3.452 0.019"></polygon>
        <linearGradient x1="0.0131088083%" y1="49.9913117%" x2="100.012324%" y2="49.9913117%" id="linearGradient-30">
            <stop stop-color="#FCCEAC" offset="0%"></stop>
            <stop stop-color="#F7A977" offset="100%"></stop>
        </linearGradient>
        <path d="M1.402,0.491 C1.402,0.491 0.576,17.267 0.608,18.91 L0.608,18.91 C0.635,20.351 1.843,34.219 1.843,34.219 L1.843,34.219 C3.479,34.772 4.604,34.009 4.604,34.009 L4.604,34.009 C4.604,34.009 5.524,24.281 5.636,22.709 L5.636,22.709 C5.78,20.678 5.34,18.91 5.34,18.91 L5.34,18.91 L6.636,9.233 C6.636,9.233 7.269,17.286 7.644,20.251 L7.644,20.251 C8.072,23.646 10.182,37.667 10.182,37.667 L10.182,37.667 C11.683,38.293 12.843,37.615 12.843,37.615 L12.843,37.615 C12.843,37.615 13.236,27.062 13.418,23.635 L13.418,23.635 C13.551,21.112 12.935,19.9 12.879,19.243 L12.879,19.243 C12.879,19.243 12.584,2.774 12.584,0.491 L12.584,0.491 L1.402,0.491 Z" id="path-31"></path>
        <linearGradient x1="-0.00410192747%" y1="50.0004316%" x2="99.9989932%" y2="50.0004316%" id="linearGradient-33">
            <stop stop-color="#101519" offset="0%"></stop>
            <stop stop-color="#223137" offset="100%"></stop>
        </linearGradient>
        <path d="M6.883,5.687 C6.883,5.687 6.203,9.497 5.854,11.516 L5.854,11.516 C5.548,13.289 4.527,16.481 3.94,17.875 L3.94,17.875 C3.837,18.123 3.324,18.457 3.081,18.573 L3.081,18.573 C2.433,18.882 2.144,19.243 1.633,19.669 L1.633,19.669 C1.234,20.002 0.919,20.06 0.953,20.184 L0.953,20.184 C0.995,20.344 1.222,20.621 1.675,20.537 L1.675,20.537 C1.902,20.495 2.207,20.355 2.587,20.169 L2.587,20.169 C2.587,20.169 2.249,20.885 1.535,21.581 L1.535,21.581 C0.567,22.525 0.457,23.161 2.17,23.371 L2.17,23.371 C3.243,23.504 4.176,22.938 5.254,20.663 L5.254,20.663 C5.565,20.008 6.052,18.973 6.313,18.091 L6.313,18.091 C6.99,15.795 7.953,12.705 8.289,11.296 L8.289,11.296 C9.399,6.639 9.762,1.983 9.952,0.781 L9.952,0.781 L6.883,5.687 Z" id="path-34"></path>
        <linearGradient x1="-0.00124127761%" y1="49.9990717%" x2="99.9983324%" y2="49.9990717%" id="linearGradient-36">
            <stop stop-color="#FCCEAC" offset="0%"></stop>
            <stop stop-color="#F7A977" offset="100%"></stop>
        </linearGradient>
        <path d="M4.298,1.01 C3.853,1.489 3.391,2.28 2.618,7.054 L2.618,7.054 C1.946,11.202 0.031,18.052 0.031,18.052 L0.031,18.052 C0.031,18.052 1.039,19.278 2.641,18.994 L2.641,18.994 L6.013,6.587 L6.752,0.322 C6.477,0.278 6.224,0.252 5.989,0.252 L5.989,0.252 C5.339,0.252 4.817,0.45 4.298,1.01" id="path-37"></path>
        <linearGradient x1="0.00281208154%" y1="50.0020898%" x2="100.004227%" y2="50.0020898%" id="linearGradient-39">
            <stop stop-color="#023366" offset="0%"></stop>
            <stop stop-color="#1562B0" offset="100%"></stop>
        </linearGradient>
        <path d="M0.607,5.05 L0.607,20.533 C1.449,21.193 3.247,21.527 3.247,21.527 L3.247,21.527 C3.247,21.527 3.304,4.584 3.654,3.067 L3.654,3.067 C4.004,1.55 5.298,0.523 5.298,0.523 L5.298,0.523 C4.749,0.384 4.264,0.32 3.836,0.32 L3.836,0.32 C0.983,0.32 0.607,3.123 0.607,5.05" id="path-40"></path>
        <linearGradient x1="-0.00873374547%" y1="49.9998562%" x2="99.9809891%" y2="49.9998562%" id="linearGradient-42">
            <stop stop-color="#023366" offset="0%"></stop>
            <stop stop-color="#1562B0" offset="100%"></stop>
        </linearGradient>
        <path d="M0.94,7.531 C0.899,12.604 0.813,21.5 0.813,21.5 L0.813,21.5 C0.813,21.5 4.338,22.217 6.852,20.715 L6.852,20.715 C6.852,20.715 6.568,8.007 6.52,6.102 L6.52,6.102 C6.465,3.921 7.102,2.068 5.876,1.453 L5.876,1.453 C4.649,0.837 2.986,0.382 2.986,0.382 L2.986,0.382 C2.984,0.382 0.981,2.46 0.94,7.531" id="path-43"></path>
        <linearGradient x1="0.000564663024%" y1="49.9984865%" x2="100.003148%" y2="49.9984865%" id="linearGradient-45">
            <stop stop-color="#023366" offset="0%"></stop>
            <stop stop-color="#1562B0" offset="100%"></stop>
        </linearGradient>
        <path d="M0.072,2.289 L0.033,4.107 C0.033,4.107 0.49,3.986 0.71,3.561 L0.71,3.561 C0.931,3.136 1.481,0.553 1.481,0.553 L1.481,0.553 L0.072,2.289 Z" id="path-46"></path>
        <linearGradient x1="0.0456422652%" y1="49.9893191%" x2="99.9657735%" y2="49.9893191%" id="linearGradient-48">
            <stop stop-color="#101519" offset="0%"></stop>
            <stop stop-color="#223137" offset="100%"></stop>
        </linearGradient>
        <path d="M0.79,0.851 L0.445,4.671 L1.481,4.553 C2.044,3.133 2.297,1.685 1.844,1.222 L1.844,1.222 C1.521,0.891 1.133,0.842 0.93,0.842 L0.93,0.842 C0.843,0.842 0.79,0.851 0.79,0.851" id="path-49"></path>
        <linearGradient x1="-0.0294686291%" y1="50.0089736%" x2="100.009727%" y2="50.0089736%" id="linearGradient-51">
            <stop stop-color="#223137" offset="0%"></stop>
            <stop stop-color="#101519" offset="100%"></stop>
        </linearGradient>
        <path d="M0.939,2.941 C0.594,5.794 0.749,6.965 1.155,8.415 L1.155,8.415 C1.409,9.319 1.933,9.977 2.768,10.106 L2.768,10.106 C3.269,10.184 4.298,10.027 4.298,10.027 L4.298,10.027 L4.294,11.273 C3.799,12.551 4.053,13.975 4.053,13.975 L4.053,13.975 L7.986,11.382 L8.072,7.289 C8.072,7.289 8.242,8.017 9.377,7.66 L9.377,7.66 C10.036,7.453 10.829,6.27 10.404,5.374 L10.404,5.374 C9.986,4.495 9.15,4.861 8.894,5.13 L8.894,5.13 C8.638,5.398 8.341,5.796 8.134,5.672 L8.134,5.672 C8.134,5.672 8.883,2.253 6.918,1.016 L6.918,1.016 C6.168,0.544 5.173,0.257 4.209,0.257 L4.209,0.257 C2.651,0.257 1.172,1.008 0.939,2.941" id="path-52"></path>
        <linearGradient x1="-0.0012570967%" y1="49.9990348%" x2="99.9977977%" y2="49.9990348%" id="linearGradient-54">
            <stop stop-color="#FCCEAC" offset="0%"></stop>
            <stop stop-color="#F7A977" offset="100%"></stop>
        </linearGradient>
        <path d="M0.93,1.282 C0.448,1.701 0.241,2.44 0.5,3.023 L0.5,3.023 C0.561,3.16 0.649,3.283 0.749,3.395 L0.749,3.395 C0.927,3.592 1.127,3.746 1.38,3.828 L1.38,3.828 C1.38,3.828 1.762,4.168 3.091,4.33 L3.091,4.33 C4.42,4.492 6.491,4.298 6.773,4.259 L6.773,4.259 C7.159,4.207 7.241,4.581 7.449,5.601 L7.449,5.601 C7.631,6.497 7.782,8.015 8.134,8.02200454 L8.134,8.02200454 C8.239,8.024 8.635,7.365 8.894,7.13 L8.894,7.13 C9.252,6.804 8.79,3.851 8.79,3.851 L8.79,3.851 C8.79,3.851 9.134,3.117 8.445,2.358 L8.445,2.358 C7.953,1.818 7.133,1.757 5.733,1.538 L5.733,1.538 C4.998,1.422 3.883,1.216 3.15,1.08 L3.15,1.08 C2.722,1 2.33,0.918 1.968,0.918 L1.968,0.918 C1.59,0.918 1.246,1.008 0.93,1.282" id="path-55"></path>
        <linearGradient x1="0.00266040909%" y1="50.0018107%" x2="100.003327%" y2="50.0018107%" id="linearGradient-57">
            <stop stop-color="#101519" offset="0%"></stop>
            <stop stop-color="#223137" offset="100%"></stop>
        </linearGradient>
        <path d="M1.094,0.092 C0.746,0.278 0.61,0.721 0.788,1.08 L0.788,1.08 L2.044,0.406 C1.919,0.154 1.673,0.01 1.418,0.01 L1.418,0.01 C1.309,0.01 1.198,0.036 1.094,0.092" id="path-58"></path>
        <linearGradient x1="0.0121226663%" y1="50.0233551%" x2="100.019488%" y2="50.0233551%" id="linearGradient-60">
            <stop stop-color="#223137" offset="0%"></stop>
            <stop stop-color="#101519" offset="100%"></stop>
        </linearGradient>
        <path d="M2.811,1.306 C2.16,1.653 0.298,2.027 0.298,2.027 L0.298,2.027 L0.298,2.523 C0.298,2.523 2.724,2.075 3.2,1.467 L3.2,1.467 C3.589,0.968 3.711,0.415 3.711,0.415 L3.711,0.415 C3.606,0.673 3.247,1.074 2.811,1.306" id="path-61"></path>
        <path d="M1.118,0.818 C0.912,0.819 0.745,0.993 0.745,1.207 L0.745,1.207 C0.745,1.421 0.912,1.594 1.118,1.594 L1.118,1.594 C1.324,1.593 1.491,1.419 1.491,1.205 L1.491,1.205 C1.491,0.991 1.325,0.818 1.12,0.818 L1.12,0.818 C1.119,0.818 1.119,0.818 1.118,0.818" id="path-63"></path>
        <linearGradient x1="12.67586%" y1="49.98182%" x2="87.33114%" y2="49.98182%" id="linearGradient-65">
            <stop stop-color="#101519" offset="0%"></stop>
            <stop stop-color="#223137" offset="100%"></stop>
        </linearGradient>
        <path d="M0.141,0.798 L0.939,1.238 C1.057,1.009 0.973,0.725 0.753,0.602 L0.753,0.602 C0.685,0.565 0.613,0.547 0.542,0.547 L0.542,0.547 C0.38,0.547 0.223,0.638 0.141,0.798" id="path-66"></path>
        <linearGradient x1="7.3911434%" y1="50.04672%" x2="92.5883034%" y2="50.04672%" id="linearGradient-68">
            <stop stop-color="#101519" offset="0%"></stop>
            <stop stop-color="#223137" offset="100%"></stop>
        </linearGradient>
        <path d="M0.613,1.105 C0.698,1.35 0.957,1.476 1.192,1.387 L1.192,1.387 C1.428,1.299 1.55,1.029 1.466,0.785 L1.466,0.785 L0.613,1.105 Z" id="path-69"></path>
        <path d="M0.511,0.45 C0.31,0.605 0.267,0.9 0.416,1.108 L0.416,1.108 L1.145,0.547 C1.056,0.423 0.919,0.358 0.781,0.358 L0.781,0.358 C0.687,0.358 0.592,0.388 0.511,0.45" id="path-71"></path>
        <linearGradient x1="9.14698834%" y1="49.99712%" x2="90.8202683%" y2="49.99712%" id="linearGradient-73">
            <stop stop-color="#101519" offset="0%"></stop>
            <stop stop-color="#223137" offset="100%"></stop>
        </linearGradient>
        <path d="M1.013,0.712 C0.807,0.712 0.641,0.887 0.641,1.101 L0.641,1.101 C0.641,1.315 0.807,1.488 1.013,1.488 L1.013,1.488 C1.219,1.487 1.387,1.313 1.387,1.099 L1.387,1.099 C1.387,0.885 1.22,0.712 1.015,0.712 L1.015,0.712 C1.014,0.712 1.014,0.712 1.013,0.712" id="path-74"></path>
        <linearGradient x1="12.62817%" y1="49.94949%" x2="87.28796%" y2="49.94949%" id="linearGradient-76">
            <stop stop-color="#101519" offset="0%"></stop>
            <stop stop-color="#223137" offset="100%"></stop>
        </linearGradient>
        <polygon id="path-77" points="0.247 2.592 1.419 2.992 1.542 0.747"></polygon>
        <path d="M6.741,0.139 C6.741,0.19 6.741,0.4 6.741,0.4 L6.741,0.4 C6.568,0.592 6.087,0.783 5.546,0.804 L5.546,0.804 C5.196,0.818 4.347,0.747 4.35,0.481 L4.35,0.481 L4.35,0.139 C4.122,0.239 3.59,2.267 2.642,3.132 L2.642,3.132 C1.888,3.819 0.859,4.614 0.597,5.381 L0.597,5.381 C0.325,6.178 2.03,6.618 2.735,6.494 L2.735,6.494 C3.553,6.349 4.972,5.772 5.328,5.238 L5.328,5.238 C5.684,4.704 5.851,3.915 6.14,3.524 L6.14,3.524 C6.43,3.132 7.097,2.695 7.254,2.242 L7.254,2.242 C7.339,1.993 7.237,1.448 7.117,0.987 L7.117,0.987 C7.01,0.581 6.895,0.137 6.759,0.137 L6.759,0.137 C6.753,0.137 6.747,0.137 6.741,0.139" id="path-79"></path>
        <linearGradient x1="0.00418404933%" y1="49.9975409%" x2="99.9992493%" y2="49.9975409%" id="linearGradient-81">
            <stop stop-color="#101519" offset="0%"></stop>
            <stop stop-color="#223137" offset="100%"></stop>
        </linearGradient>
        <path d="M8.452,0.54 L8.452,0.772 C8.165,1.207 6.682,1.384 6.05,1.064 L6.05,1.064 L6.038,0.695 C5.913,0.699 5.813,0.875 5.538,1.171 L5.538,1.171 C5.208,1.529 4.666,1.915 4.132,2.182 L4.132,2.182 C3.237,2.631 1.496,3.32 0.709,3.675 L0.709,3.675 C0.217,3.897 0.24,4.491 0.748,4.829 L0.748,4.829 C1.257,5.168 2.485,5.412 3.96,5.081 L3.96,5.081 C4.763,4.902 5.809,4.16 6.471,4.2 L6.471,4.2 C7.133,4.24 8.371,4.231 8.86,3.893 L8.86,3.893 C9.348,3.557 9.153,2.838 9.015,2.219 L9.015,2.219 C8.867,1.56 8.684,0.539 8.467,0.538 L8.467,0.538 C8.462,0.538 8.457,0.539 8.452,0.54" id="path-82"></path>
        <linearGradient x1="2.33958548e-05%" y1="49.9977945%" x2="100.000288%" y2="49.9977945%" id="linearGradient-84">
            <stop stop-color="#101519" offset="0%"></stop>
            <stop stop-color="#223137" offset="100%"></stop>
        </linearGradient>
        <path d="M2.859,2.646 L2.451,11.083 L3.636,2.233 C3.636,2.233 1.725,1.695 0.307,0.324 L0.307,0.324 C0.307,0.324 0.948,1.527 2.859,2.646" id="path-85"></path>
        <linearGradient x1="-0.015379994%" y1="49.9971168%" x2="99.9867528%" y2="49.9971168%" id="linearGradient-87">
            <stop stop-color="#101519" offset="0%"></stop>
            <stop stop-color="#223137" offset="100%"></stop>
        </linearGradient>
        <path d="M0.487,0.81 C0.505,1.153 0.56,1.582 0.715,1.888 L0.715,1.888 C0.715,1.888 1.272,1.754 1.712,1.976 L1.712,1.976 C1.712,1.976 2.106,1.445 2.206,0.598 L2.206,0.598 C2.073,0.274 1.604,0.124 1.163,0.116 L1.163,0.116 C1.159,0.116 1.155,0.116 1.151,0.116 L1.151,0.116 C0.773,0.116 0.466,0.43 0.487,0.81" id="path-88"></path>
        <linearGradient x1="-0.0327218946%" y1="50.0277634%" x2="100.033116%" y2="50.0277634%" id="linearGradient-90">
            <stop stop-color="#023366" offset="0%"></stop>
            <stop stop-color="#1562B0" offset="100%"></stop>
        </linearGradient>
        <path d="M1.715,0.888 C1.715,0.888 0.884,7.709 0.905,8.112 L0.905,8.112 C0.928,8.514 1.775,10.876 2.209,10.876 L2.209,10.876 C2.687,10.876 3.492,8.753 3.513,8.419 L3.513,8.419 C3.536,8.084 2.712,0.976 2.712,0.976 L2.712,0.976 C2.55,0.833 2.352,0.769 2.159,0.769 L2.159,0.769 C2.001,0.769 1.846,0.811 1.715,0.888" id="path-91"></path>
        <linearGradient x1="0.0208065015%" y1="49.997379%" x2="100.030347%" y2="49.997379%" id="linearGradient-93">
            <stop stop-color="#023366" offset="0%"></stop>
            <stop stop-color="#1562B0" offset="100%"></stop>
        </linearGradient>
        <path d="M12.819,0.238 L0.919,7.109 C0.743,7.21 0.601,7.456 0.601,7.66 L0.601,7.66 L0.601,17.609 C0.601,17.812 0.743,17.893 0.919,17.793 L0.919,17.793 L12.819,10.922 C12.994,10.82 13.136,10.574 13.136,10.371 L13.136,10.371 L13.136,0.422 C13.136,0.278 13.065,0.195 12.961,0.195 L12.961,0.195 C12.918,0.195 12.87,0.209 12.819,0.238" id="path-94"></path>
        <linearGradient x1="-0.00153809334%" y1="49.9993417%" x2="100.005871%" y2="49.9993417%" id="linearGradient-96">
            <stop stop-color="#FDC900" offset="0%"></stop>
            <stop stop-color="#FC9600" offset="100%"></stop>
        </linearGradient>
        <path d="M1.011,2.323 C1.011,2.323 0.65,2.834 0.586,3.259 L0.586,3.259 C0.521,3.683 0.513,4.203 0.436,4.61 L0.436,4.61 C0.361,5.016 0.436,5.351 0.436,5.351 L0.436,5.351 L1.247,4.883 C1.656,5.175 1.283,5.72 1.283,5.72 L1.283,5.72 L1.011,5.876 C1.011,5.876 1.424,6.122 1.571,6.107 L1.571,6.107 C1.789,6.084 2.266,5.64 2.54,5.513 L2.54,5.513 C3.181,5.212 3.567,4.655 3.507,4.376 L3.507,4.376 C3.513,3.604 3.176,2.263 3.161,2.006 L3.161,2.006 C3.146,1.751 3.161,1.158 3.161,1.158 L3.161,1.158 L0.876,0.983 L1.011,2.323 Z" id="path-97"></path>
        <linearGradient x1="0.0038461787%" y1="49.997628%" x2="100.007966%" y2="49.997628%" id="linearGradient-99">
            <stop stop-color="#FCCEAC" offset="0%"></stop>
            <stop stop-color="#F7A977" offset="100%"></stop>
        </linearGradient>
        <path d="M0.726,5.001 L3.24,11.544 L3.707,19.49 C5.267,20.157 6.359,19.32 6.359,19.32 L6.359,19.32 C6.359,19.32 6.79,11.393 6.676,10.64 L6.676,10.64 C6.564,9.887 3.645,1.518 3.143,1.116 L3.143,1.116 C2.52,0.618 1.126,0.114 1.126,0.114 L1.126,0.114 C-0.219,2.265 0.726,5.001 0.726,5.001" id="path-100"></path>
        <linearGradient x1="0.0027842636%" y1="50.0019866%" x2="100.003789%" y2="50.0019866%" id="linearGradient-102">
            <stop stop-color="#023366" offset="0%"></stop>
            <stop stop-color="#1562B0" offset="100%"></stop>
        </linearGradient>
    </defs>
    <g id="Page-1-Copy-2" stroke="none" stroke-width="1" fill="none" fill-rule="evenodd">
        <g id="1-copy-5" transform="translate(-46.000000, -304.000000)">
            <g id="Group-292" transform="translate(46.000000, 303.000000)">
                <g id="Group-56" transform="translate(0.000000, 0.640000)">
                    <g id="Group-3" transform="translate(0.000000, 74.000000)">
                        <mask id="mask-2" fill="white">
                            <use xlink:href="#path-1"></use>
                        </mask>
                        <g id="Clip-2"></g>
                        <path d="M30.9665,94.8226 C72.2545,116.3926 139.1965,116.3926 180.4845,94.8236 C221.7735,73.2536 221.7735,38.2826 180.4845,16.7136 C139.1965,-4.8564 72.2545,-4.8564 30.9665,16.7126 C-10.3225,38.2826 -10.3225,73.2536 30.9665,94.8226" id="Fill-1" fill="#E8E8E8" mask="url(#mask-2)"></path>
                    </g>
                    <path d="M143.1621,39.7158 L144.8731,38.7278 C145.4121,38.4168 146.2861,38.4168 146.8251,38.7278 L185.1671,60.8648 C185.7071,61.1768 186.1441,61.9338 186.1441,62.5558 L186.1441,111.0598 C186.1441,111.6818 185.7071,112.4388 185.1681,112.7498 L183.4571,113.7378 C182.9181,114.0488 182.0431,114.0488 181.5041,113.7378 L143.1571,91.6008 C142.6181,91.2898 142.1811,90.5328 142.1811,89.9098 L142.1861,41.4068 C142.1861,40.7838 142.6231,40.0268 143.1621,39.7158" id="Fill-4" fill="#E8E8E8"></path>
                    <path d="M186.144,86.8077 L186.144,62.5557 C186.144,62.2447 186.035,61.8997 185.858,61.5937 L180.649,64.6007 L180.649,113.2447 L181.504,113.7377 C182.044,114.0497 182.918,114.0497 183.457,113.7377 L185.168,112.7507 C185.707,112.4387 186.144,111.6817 186.144,111.0597 L186.144,86.8077 Z" id="Fill-6" fill="#D3D3D3"></path>
                    <path d="M143.1621,40.843 L181.5041,62.98 C182.0431,63.291 182.4801,64.048 182.4801,64.671 L182.4801,113.174 C182.4801,113.797 182.0431,114.049 181.5041,113.738 L143.1571,91.601 C142.6181,91.29 142.1811,90.533 142.1811,89.91 L142.1861,41.407 C142.1861,40.784 142.6231,40.532 143.1621,40.843" id="Fill-8" fill="#F5F5F5"></path>
                    <path d="M178.7545,64.5463 L145.9065,45.5823 C145.3675,45.2703 144.9305,45.5233 144.9305,46.1453 L144.9305,83.0173 C144.9305,83.6393 145.3675,84.3963 145.9075,84.7083 L178.7545,103.6723 C179.2935,103.9833 179.7305,103.7313 179.7305,103.1083 L179.7305,66.2373 C179.7305,65.6143 179.2935,64.8573 178.7545,64.5463" id="Fill-10" fill="#D9EEFF"></path>
                    <path d="M178.7545,64.5463 L145.9065,45.5823 C145.3675,45.2703 144.9305,45.5233 144.9305,46.1453 L144.9305,83.0173 C144.9305,83.6393 145.3675,84.3963 145.9075,84.7083 L178.7545,103.6723 C179.2935,103.9833 179.7305,103.7313 179.7305,103.1083 L179.7305,66.2373 C179.7305,65.6143 179.2935,64.8573 178.7545,64.5463" id="Fill-12" fill="#FBFBFB"></path>
                    <path d="M152.5355,53.8196 C154.2825,54.8286 155.6985,57.2816 155.6985,59.2986 C155.6985,61.3156 154.2825,62.1326 152.5355,61.1246 C150.7885,60.1156 149.3725,57.6626 149.3725,55.6456 C149.3725,53.6286 150.7885,52.8106 152.5355,53.8196" id="Fill-14" fill="#E2E2E2"></path>
                    <path d="M160.7502,76.2622 L154.8682,67.3982 C153.9162,65.9642 152.2722,65.8892 151.1952,67.2302 L144.9342,75.0222 L144.9342,83.0372 C144.9342,83.6592 145.3712,84.4162 145.9102,84.7282 L178.7542,103.6812 C179.2942,103.9922 179.7312,103.7392 179.7312,103.1172 L179.7312,82.3262 L171.5712,65.0542 C170.8362,63.4992 169.4592,63.3932 168.4952,64.8172 L160.7502,76.2622 Z" id="Fill-16" fill="#E2E2E2"></path>
                    <g id="Group-20" transform="translate(59.000000, 0.000000)">
                        <mask id="mask-4" fill="white">
                            <use xlink:href="#path-3"></use>
                        </mask>
                        <g id="Clip-19"></g>
                        <path d="M1.546,0.7024 L1.816,0.5464 C2.247,0.2974 2.946,0.2974 3.378,0.5464 L47.605,26.0814 C48.036,26.3304 48.386,26.9364 48.386,27.4344 L48.386,89.0784 C48.386,89.5764 48.037,90.1814 47.605,90.4304 L47.335,90.5864 C46.904,90.8354 46.205,90.8354 45.773,90.5864 L1.546,65.0514 C1.115,64.8024 0.765,64.1974 0.765,63.6994 L0.765,2.0554 C0.765,1.5574 1.115,0.9514 1.546,0.7024" id="Fill-18" fill="#D9EEFF" mask="url(#mask-4)"></path>
                    </g>
                    <g id="Group-23" transform="translate(59.000000, 0.000000)">
                        <mask id="mask-6" fill="white">
                            <use xlink:href="#path-5"></use>
                        </mask>
                        <g id="Clip-22"></g>
                        <path d="M1.546,0.7024 L1.816,0.5464 C2.247,0.2974 2.946,0.2974 3.378,0.5464 L47.605,26.0814 C48.036,26.3304 48.386,26.9364 48.386,27.4344 L48.386,89.0784 C48.386,89.5764 48.037,90.1814 47.605,90.4304 L47.335,90.5864 C46.904,90.8354 46.205,90.8354 45.773,90.5864 L1.546,65.0514 C1.115,64.8024 0.765,64.1974 0.765,63.6994 L0.765,2.0554 C0.765,1.5574 1.115,0.9514 1.546,0.7024" id="Fill-21" fill="#E8E8E8" mask="url(#mask-6)"></path>
                    </g>
                    <path d="M107.3862,58.2561 L107.3862,27.4341 C107.3862,27.1851 107.2982,26.9091 107.1572,26.6641 L104.6372,28.1201 L104.6372,90.5071 L104.7732,90.5861 C105.2052,90.8351 105.9042,90.8351 106.3352,90.5861 L106.6052,90.4311 C107.0362,90.1821 107.3862,89.5761 107.3862,89.0781 L107.3862,58.2561 Z" id="Fill-24" fill="#D3D3D3"></path>
                    <path d="M60.546,1.6042 L104.773,27.1392 C105.205,27.3882 105.554,27.9932 105.554,28.4912 L105.554,90.1352 C105.554,90.6332 105.205,90.8352 104.773,90.5862 L60.546,65.0512 C60.115,64.8022 59.765,64.1972 59.765,63.6992 L59.765,2.0552 C59.765,1.5572 60.115,1.3552 60.546,1.6042" id="Fill-26" fill="#F5F5F5"></path>
                    <path d="M66.0408,9.0064 L99.2788,28.1964 C99.7098,28.4454 100.0598,29.0514 100.0598,29.5494 L100.0598,31.9754 C100.0598,32.4734 99.7098,32.6754 99.2788,32.4264 L66.0408,13.2364 C65.6098,12.9874 65.2598,12.3814 65.2598,11.8834 L65.2598,9.4574 C65.2598,8.9594 65.6098,8.7574 66.0408,9.0064" id="Fill-28" fill="#E2E2E2"></path>
                    <path d="M69.8388,19.6589 C72.3678,21.1189 74.4178,24.6699 74.4178,27.5899 C74.4178,30.5099 72.3678,31.6939 69.8388,30.2339 C67.3098,28.7739 65.2598,25.2229 65.2598,22.3029 C65.2598,19.3829 67.3098,18.1989 69.8388,19.6589" id="Fill-30" fill="#E8E8E8"></path>
                    <path d="M69.8751,21.3566 C68.9881,20.8446 68.2681,21.2596 68.2681,22.2836 C68.2681,23.3086 68.9881,24.5546 69.8751,25.0666 C70.7621,25.5786 71.4821,25.1636 71.4821,24.1386 C71.4821,23.1146 70.7621,21.8686 69.8751,21.3566" id="Fill-32" fill="#FFFFFF"></path>
                    <path d="M70.2945,25.8215 L69.3835,25.2955 C67.9255,24.4535 66.7435,25.1365 66.7435,26.8195 L66.7435,27.0485 C67.5595,28.3845 68.6435,29.5435 69.8385,30.2335 C71.0335,30.9235 72.1185,31.0165 72.9335,30.6215 L72.9335,30.3925 C72.9335,28.7095 71.7515,26.6635 70.2945,25.8215" id="Fill-34" fill="#FFFFFF"></path>
                    <path d="M66.2362,32.3891 L73.4412,36.5491 C73.9812,36.8601 74.4182,37.5861 74.4182,38.1701 C74.4182,38.7541 73.9812,38.9751 73.4412,38.6641 L66.2362,34.5041 C65.6972,34.1931 65.2602,33.4671 65.2602,32.8831 C65.2602,32.2991 65.6972,32.0781 66.2362,32.3891" id="Fill-36" fill="#E2E2E2"></path>
                    <path d="M66.2362,36.6162 L73.4412,40.7762 C73.9812,41.0872 74.4182,41.8132 74.4182,42.3972 C74.4182,42.9812 73.9812,43.2022 73.4412,42.8912 L66.2362,38.7312 C65.6972,38.4202 65.2602,37.6942 65.2602,37.1102 C65.2602,36.5262 65.6972,36.3052 66.2362,36.6162" id="Fill-38" fill="#E2E2E2"></path>
                    <path d="M66.2362,40.8434 L73.4412,45.0034 C73.9812,45.3144 74.4182,46.0404 74.4182,46.6244 C74.4182,47.2084 73.9812,47.4294 73.4412,47.1184 L66.2362,42.9584 C65.6972,42.6474 65.2602,41.9214 65.2602,41.3374 C65.2602,40.7534 65.6972,40.5324 66.2362,40.8434" id="Fill-40" fill="#E2E2E2"></path>
                    <path d="M66.2362,45.0706 L73.4412,49.2306 C73.9812,49.5416 74.4182,50.2676 74.4182,50.8516 C74.4182,51.4356 73.9812,51.6566 73.4412,51.3456 L66.2362,47.1856 C65.6972,46.8746 65.2602,46.1486 65.2602,45.5646 C65.2602,44.9806 65.6972,44.7596 66.2362,45.0706" id="Fill-42" fill="#E2E2E2"></path>
                    <path d="M66.2363,51.4174 L73.4413,55.5774 C73.9813,55.8884 74.4183,56.6454 74.4183,57.2684 L74.4183,61.3584 C74.4183,61.9814 73.9813,62.2334 73.4423,61.9224 L66.2363,57.7624 C65.6973,57.4504 65.2603,56.6934 65.2603,56.0714 L65.2603,51.9814 C65.2603,51.3584 65.6973,51.1064 66.2363,51.4174" id="Fill-44" fill="#E2E2E2"></path>
                    <path d="M80.8887,23.9236 L99.0837,34.4286 C99.6227,34.7396 100.0597,35.4656 100.0597,36.0496 C100.0597,36.6336 99.6227,36.8546 99.0837,36.5436 L80.8887,26.0386 C80.3497,25.7276 79.9127,25.0016 79.9127,24.4176 C79.9127,23.8336 80.3497,23.6126 80.8887,23.9236" id="Fill-46" fill="#E2E2E2"></path>
                    <path d="M80.8887,28.1535 L99.0837,38.6585 C99.6227,38.9695 100.0597,39.6955 100.0597,40.2795 C100.0597,40.8635 99.6227,41.0845 99.0837,40.7735 L80.8887,30.2685 C80.3497,29.9575 79.9127,29.2315 79.9127,28.6475 C79.9127,28.0635 80.3497,27.8425 80.8887,28.1535" id="Fill-48" fill="#E2E2E2"></path>
                    <path d="M80.8887,32.3834 L99.0837,42.8884 C99.6227,43.1994 100.0597,43.9254 100.0597,44.5094 C100.0597,45.0934 99.6227,45.3144 99.0837,45.0034 L80.8887,34.4984 C80.3497,34.1874 79.9127,33.4614 79.9127,32.8774 C79.9127,32.2934 80.3497,32.0724 80.8887,32.3834" id="Fill-50" fill="#E2E2E2"></path>
                    <path d="M151.4651,149.1279 L162.2131,142.9229 C163.2911,142.2999 164.1651,140.7859 164.1651,139.5409 L164.1651,78.4879 C164.1651,77.2419 163.2911,75.7279 162.2121,75.1059 L89.1911,32.9469 C88.1131,32.3239 86.3651,32.3239 85.2861,32.9469 L74.5391,39.1519 C73.4601,39.7749 72.5861,41.2889 72.5861,42.5339 L72.5871,103.5869 C72.5871,104.8319 73.4611,106.3459 74.5391,106.9689 L147.5601,149.1279 C148.6381,149.7509 150.3871,149.7509 151.4651,149.1279" id="Fill-52" fill="#0069B2"></path>
                    <path d="M164.1651,78.4873 C164.1651,77.8643 163.9461,77.1753 163.5931,76.5633 L147.6811,85.7503 L147.6811,149.1853 C148.7641,149.7433 150.4231,149.7283 151.4631,149.1283 L162.2141,142.9213 C163.2921,142.2993 164.1651,140.7863 164.1651,139.5423 L164.1651,78.4873 Z" id="Fill-54" fill="#234290"></path>
                </g>
                <g id="Group-59" transform="translate(72.000000, 41.640000)">
                    <mask id="mask-8" fill="white">
                        <use xlink:href="#path-7"></use>
                    </mask>
                    <g id="Clip-58"></g>
                    <path d="M0.586,1.534 L0.587,62.587 C0.587,63.833 1.461,65.346 2.539,65.969 L2.539,65.969 L75.56,108.128 C76.639,108.751 77.512,108.246 77.512,107.001 L77.512,107.001 L77.512,45.947 C77.512,44.702 76.639,43.188 75.56,42.565 L75.56,42.565 L2.539,0.407 C2.226,0.226 1.929,0.14 1.667,0.14 L1.667,0.14 C1.026,0.14 0.586,0.651 0.586,1.534" id="Fill-57" fill="url(#linearGradient-9)" mask="url(#mask-8)"></path>
                </g>
                <g id="Group-62" transform="translate(78.000000, 35.640000)">
                    <mask id="mask-11" fill="white">
                        <use xlink:href="#path-10"></use>
                    </mask>
                    <g id="Clip-61"></g>
                    <path d="M0.995,1.58 L75.967,44.866 C77.047,45.488 77.921,47.003 77.921,48.248 L77.921,48.248 L77.921,111.556 L79.753,110.498 L79.752,47.19 C79.752,45.946 78.878,44.431 77.8,43.809 L77.8,43.809 L2.825,0.523 L0.995,1.58 Z" id="Fill-60" mask="url(#mask-11)"></path>
                </g>
                <g id="Group-65" transform="translate(79.000000, 35.640000)">
                    <mask id="mask-13" fill="white">
                        <use xlink:href="#path-12"></use>
                    </mask>
                    <g id="Clip-64"></g>
                    <path d="M0.055,1.615 L74.967,44.866 C75.507,45.177 75.995,45.712 76.348,46.324 L76.348,46.324 L78.18,45.266 C77.827,44.654 77.339,44.119 76.8,43.809 L76.8,43.809 L1.945,0.592 L0.055,1.615 Z" id="Fill-63" fill="url(#linearGradient-14)" mask="url(#mask-13)"></path>
                </g>
                <g id="Group-68" transform="translate(135.000000, 68.640000)">
                    <mask id="mask-16" fill="white">
                        <use xlink:href="#path-15"></use>
                    </mask>
                    <g id="Clip-67"></g>
                    <path d="M6.21,0.337 L1.257,3.196 L0.432,2.946 L0.432,4.003 C0.432,4.208 0.566,4.411 0.836,4.567 L0.836,4.567 L2.547,5.555 C3.086,5.865 3.96,5.865 4.499,5.555 L4.499,5.555 L9.873,2.452 C10.142,2.296 10.277,2.092 10.277,1.888 L10.277,1.888 L10.277,0.831 L9.452,1.081 L8.162,0.337 C7.893,0.181 7.539,0.104 7.186,0.104 L7.186,0.104 C6.833,0.104 6.48,0.181 6.21,0.337" id="Fill-66" fill="url(#linearGradient-17)" mask="url(#mask-16)"></path>
                </g>
                <path d="M144.8729,68.9071 L143.1619,67.9191 C142.6229,67.6081 141.7489,67.6081 141.2099,67.9191 L135.8359,71.0221 C135.2969,71.3331 135.2969,71.8381 135.8359,72.1491 L137.5469,73.1371 C138.0859,73.4481 138.9599,73.4481 139.4989,73.1371 L144.8729,70.0341 C145.4119,69.7231 145.4119,69.2181 144.8729,68.9071" id="Fill-69" fill="#FFDB4C"></path>
                <g id="Group-73" transform="translate(91.000000, 42.640000)">
                    <mask id="mask-19" fill="white">
                        <use xlink:href="#path-18"></use>
                    </mask>
                    <g id="Clip-72"></g>
                    <path d="M6.252,0.961 L1.299,3.82 L0.474,3.569 L0.474,4.627 C0.474,4.831 0.609,5.035 0.878,5.19 L0.878,5.19 L2.589,6.178 C3.128,6.49 4.002,6.49 4.541,6.178 L4.541,6.178 L9.915,3.075 C10.184,2.92 10.319,2.716 10.319,2.512 L10.319,2.512 L10.319,1.454 L9.494,1.705 L8.204,0.961 C7.935,0.805 7.581,0.728 7.228,0.728 L7.228,0.728 C6.875,0.728 6.522,0.805 6.252,0.961" id="Fill-71" fill="url(#linearGradient-20)" mask="url(#mask-19)"></path>
                </g>
                <g id="Group-127" transform="translate(91.000000, 36.640000)">
                    <path d="M9.9152,6.8908 L8.2042,5.9028 C7.6652,5.5918 6.7912,5.5918 6.2522,5.9028 L0.8782,9.0058 C0.3392,9.3168 0.3392,9.8218 0.8782,10.1328 L2.5892,11.1208 C3.1282,11.4318 4.0022,11.4318 4.5412,11.1208 L9.9152,8.0178 C10.4542,7.7068 10.4542,7.2018 9.9152,6.8908" id="Fill-74" fill="#FFDB4C"></path>
                    <path d="M23.712,7.4527 L23.712,13.7967 L20.051,15.9117 L20.051,6.2397 C20.051,5.7397 20.398,5.5407 20.831,5.7887 L23.712,7.4527 Z" id="Fill-76" fill="#042176"></path>
                    <path d="M42.9159,14.1801 L42.9159,25.9711 L40.1969,27.5451 L38.3659,26.4851 L38.3659,16.8131 C38.3659,16.3171 38.0149,15.7091 37.5859,15.4611 L23.7119,7.4531 L20.8309,5.7891 C20.3979,5.5411 20.0509,5.7391 20.0509,6.2401 L20.0509,15.9111 L18.2159,14.8521 L18.2159,3.0651 C18.2159,3.0161 18.2199,2.9621 18.2289,2.9121 C18.2879,2.4481 18.6129,1.9341 18.9999,1.7131 L20.1589,1.0411 C20.5879,0.7931 21.2859,0.7931 21.7189,1.0411 L42.1359,12.8271 C42.5689,13.0801 42.9159,13.6841 42.9159,14.1801" id="Fill-78" fill="#0069B2"></path>
                    <path d="M40.1971,15.7537 L40.1971,27.5447 L38.3661,26.4847 L38.3661,16.8137 C38.3661,16.3177 38.0151,15.7087 37.5861,15.4607 L23.7121,7.4527 L20.8311,5.7887 C20.3981,5.5407 20.0511,5.7397 20.0511,6.2397 L20.0511,15.9117 L18.2161,14.8517 L18.2161,3.0657 C18.2161,3.0157 18.2201,2.9617 18.2291,2.9117 C18.2971,2.5287 18.6171,2.3937 19.0001,2.6147 L39.4171,14.4007 C39.8451,14.6537 40.1971,15.2577 40.1971,15.7537" id="Fill-80" fill="#2343BA"></path>
                    <path d="M67.671,134.3393 L69.502,133.2813 L67.671,80.4783 C67.671,79.8583 67.232,79.0983 66.695,78.7883 L32.015,58.7653 C31.478,58.4553 30.873,57.7233 30.67,57.1373 L29.576,53.9803 C29.373,53.3943 28.765,52.6673 28.224,52.3643 L11.875,43.2203 C11.334,42.9183 10.892,43.1773 10.892,43.7973 L10.892,100.4303 C10.892,101.0503 11.331,101.8113 11.868,102.1213 L67.671,134.3393 Z" id="Fill-82" fill="#FFA900"></path>
                    <path d="M40.9783,44.9094 L79.7113,67.2714 C80.1423,67.5204 80.4923,68.1264 80.4923,68.6244 L80.4923,132.3834 C80.4923,132.8814 80.1423,133.0834 79.7113,132.8344 L40.9793,110.4714 C40.5473,110.2224 40.1983,109.6174 40.1983,109.1194 L40.1973,45.3604 C40.1973,44.8624 40.5473,44.6604 40.9783,44.9094" id="Fill-84" fill="#F5F5F5"></path>
                    <g id="Group-90" transform="translate(39.000000, 44.000000)">
                        <path d="M1.9783,0.9094 L40.7113,23.2714 C41.1423,23.5204 41.4923,24.1264 41.4923,24.6244 L41.4923,88.3834 C41.4923,88.8814 41.1423,89.0834 40.7113,88.8344 L1.9793,66.4714 C1.5473,66.2224 1.1983,65.6174 1.1983,65.1194 L1.1973,1.3604 C1.1973,0.8624 1.5473,0.6604 1.9783,0.9094" id="Fill-86" fill="#F5F5F5"></path>
                        <path d="M1.6301,1.028 C1.5951,1.028 1.5641,1.035 1.5381,1.05 C1.4651,1.093 1.4231,1.206 1.4231,1.36 L1.4231,65.119 C1.4231,65.537 1.7291,66.067 2.0911,66.276 L40.8231,88.639 C40.9571,88.715466 41.0771,88.737 41.1511,88.693 C41.2241,88.651 41.2661,88.538 41.2661,88.383 L41.2661,24.624 C41.2661,24.206 40.9601,23.676 40.5981,23.467 L1.8661,1.105 C1.7781,1.054 1.6971,1.028 1.6301,1.028 M41.0611,89.165 C40.9141,89.165 40.7551,89.12 40.5981,89.03 L1.8661,66.667 C1.3651,66.378 0.9721,65.698 0.9721,65.119 L0.9721,1.36 C0.9721,1.04 1.0961,0.785 1.3131,0.659 C1.5311,0.534 1.8141,0.554 2.0911,0.714 L40.8231,23.076 C41.3251,23.366 41.7171,24.046 41.7171,24.624 L41.7171,88.383 C41.7171,88.708 41.5961,88.957 41.3761,89.084 C41.2821,89.138 41.1751,89.165 41.0611,89.165" id="Fill-88" fill="#E8E8E8"></path>
                    </g>
                    <path d="M44.8367,53.482 L63.0317,63.987 C63.5707,64.298 64.0077,65.024 64.0077,65.608 C64.0077,66.192 63.5707,66.413 63.0317,66.102 L44.8367,55.597 C44.2977,55.286 43.8607,54.56 43.8607,53.976 C43.8607,53.392 44.2977,53.171 44.8367,53.482" id="Fill-91" fill="#ABD5FD"></path>
                    <path d="M44.8367,59.8267 L75.8527,77.7327 C76.3917,78.0437 76.8287,78.7697 76.8287,79.3537 C76.8287,79.9377 76.3917,80.1587 75.8527,79.8467 L44.8367,61.9417 C44.2977,61.6307 43.8607,60.9047 43.8607,60.3207 C43.8607,59.7367 44.2977,59.5157 44.8367,59.8267" id="Fill-93" fill="#D3D3D3"></path>
                    <path d="M44.8367,66.1717 L75.8527,84.0777 C76.3917,84.3887 76.8287,85.1147 76.8287,85.6987 C76.8287,86.2827 76.3917,86.5037 75.8527,86.1927 L44.8367,68.2867 C44.2977,67.9757 43.8607,67.2497 43.8607,66.6657 C43.8607,66.0817 44.2977,65.8607 44.8367,66.1717" id="Fill-95" fill="#D3D3D3"></path>
                    <path d="M44.8367,72.5168 L75.8527,90.4228 C76.3917,90.7338 76.8287,91.4598 76.8287,92.0438 C76.8287,92.6278 76.3917,92.8488 75.8527,92.5368 L44.8367,74.6318 C44.2977,74.3208 43.8607,73.5948 43.8607,73.0108 C43.8607,72.4268 44.2977,72.2058 44.8367,72.5168" id="Fill-97" fill="#D3D3D3"></path>
                    <path d="M44.8367,78.8618 L75.8527,96.7678 C76.3917,97.0788 76.8287,97.8048 76.8287,98.3888 C76.8287,98.9728 76.3917,99.1938 75.8527,98.8828 L44.8367,80.9768 C44.2977,80.6658 43.8607,79.9398 43.8607,79.3558 C43.8607,78.7718 44.2977,78.5508 44.8367,78.8618" id="Fill-99" fill="#D3D3D3"></path>
                    <path d="M44.8367,85.2068 L75.8527,103.1128 C76.3917,103.4238 76.8287,104.1498 76.8287,104.7338 C76.8287,105.3178 76.3917,105.5388 75.8527,105.2268 L44.8367,87.3218 C44.2977,87.0108 43.8607,86.2848 43.8607,85.7008 C43.8607,85.1168 44.2977,84.8958 44.8367,85.2068" id="Fill-101" fill="#D3D3D3"></path>
                    <path d="M44.8367,91.5518 L75.8527,109.4578 C76.3917,109.7688 76.8287,110.4948 76.8287,111.0788 C76.8287,111.6628 76.3917,111.8838 75.8527,111.5728 L44.8367,93.6668 C44.2977,93.3558 43.8607,92.6298 43.8607,92.0458 C43.8607,91.4618 44.2977,91.2408 44.8367,91.5518" id="Fill-103" fill="#D3D3D3"></path>
                    <path d="M44.8367,97.8969 L75.8527,115.8029 C76.3917,116.1139 76.8287,116.8399 76.8287,117.4239 C76.8287,118.0079 76.3917,118.2289 75.8527,117.9169 L44.8367,100.0119 C44.2977,99.7009 43.8607,98.9749 43.8607,98.3909 C43.8607,97.8069 44.2977,97.5859 44.8367,97.8969" id="Fill-105" fill="#D3D3D3"></path>
                    <path d="M35.483,48.0782 L74.216,70.4402 C74.647,70.6892 74.997,71.2952 74.997,71.7932 L74.997,135.5522 C74.997,136.0502 74.647,136.2522 74.216,136.0032 L35.484,113.6402 C35.052,113.3912 34.703,112.7862 34.703,112.2882 L34.702,48.5292 C34.702,48.0312 35.052,47.8292 35.483,48.0782" id="Fill-107" fill="#FFFFFF"></path>
                    <path d="M35.1348,48.1969 C35.0998,48.1969 35.0688,48.2039 35.0428,48.2189 C34.9698,48.2619 34.9278,48.3749 34.9278,48.5289 L34.9288,112.2879 C34.9288,112.7059 35.2348,113.2359 35.5968,113.4459 L74.3288,135.8079 C74.4628,135.8846 74.5808,135.9059 74.6558,135.8619 C74.7288,135.8199 74.7708,135.7069 74.7708,135.5519 L74.7708,71.7929 C74.7708,71.3759 74.4648,70.8449 74.1028,70.6359 L35.3708,48.2739 C35.2828,48.2229 35.2018,48.1969 35.1348,48.1969 M74.5668,136.3339 C74.4188,136.3339 74.2598,136.2889 74.1028,136.1979 L35.3708,113.8359 C34.8698,113.5469 34.4778,112.8659 34.4778,112.2879 L34.4768,48.5289 C34.4768,48.2089 34.6008,47.9539 34.8178,47.8279 C35.0348,47.7039 35.3188,47.7229 35.5958,47.8829 L74.3288,70.2459 C74.8298,70.5349 75.2218,71.2149 75.2218,71.7929 L75.2218,135.5519 C75.2218,135.8729 75.0978,136.1279 74.8808,136.2529 C74.7858,136.3079 74.6798,136.3339 74.5668,136.3339" id="Fill-109" fill="#E8E8E8"></path>
                    <path d="M39.3415,56.651 L57.5365,67.156 C58.0755,67.467 58.5125,68.193 58.5125,68.777 C58.5125,69.361 58.0755,69.582 57.5365,69.271 L39.3415,58.766 C38.8025,58.455 38.3655,57.729 38.3655,57.145 C38.3655,56.561 38.8025,56.34 39.3415,56.651" id="Fill-111" fill="#E8E8E8"></path>
                    <path d="M39.3415,62.9956 L70.3575,80.9016 C70.8965,81.2126 71.3335,81.9386 71.3335,82.5226 C71.3335,83.1066 70.8965,83.3276 70.3575,83.0166 L39.3415,65.1106 C38.8025,64.7996 38.3655,64.0736 38.3655,63.4896 C38.3655,62.9056 38.8025,62.6846 39.3415,62.9956" id="Fill-113" fill="#E8E8E8"></path>
                    <path d="M39.3415,69.3406 L70.3575,87.2466 C70.8965,87.5576 71.3335,88.2836 71.3335,88.8676 C71.3335,89.4516 70.8965,89.6726 70.3575,89.3616 L39.3415,71.4556 C38.8025,71.1446 38.3655,70.4186 38.3655,69.8346 C38.3655,69.2506 38.8025,69.0296 39.3415,69.3406" id="Fill-115" fill="#E8E8E8"></path>
                    <path d="M39.3415,75.6856 L70.3575,93.5916 C70.8965,93.9026 71.3335,94.6286 71.3335,95.2126 C71.3335,95.7966 70.8965,96.0176 70.3575,95.7066 L39.3415,77.8006 C38.8025,77.4896 38.3655,76.7636 38.3655,76.1796 C38.3655,75.5956 38.8025,75.3746 39.3415,75.6856" id="Fill-117" fill="#E8E8E8"></path>
                    <path d="M39.3415,82.0307 L70.3575,99.9367 C70.8965,100.2477 71.3335,100.9737 71.3335,101.5577 C71.3335,102.1417 70.8965,102.3627 70.3575,102.0517 L39.3415,84.1457 C38.8025,83.8347 38.3655,83.1087 38.3655,82.5247 C38.3655,81.9407 38.8025,81.7197 39.3415,82.0307" id="Fill-119" fill="#E8E8E8"></path>
                    <path d="M39.3415,88.3757 L70.3575,106.2817 C70.8965,106.5927 71.3335,107.3187 71.3335,107.9027 C71.3335,108.4867 70.8965,108.7077 70.3575,108.3967 L39.3415,90.4907 C38.8025,90.1797 38.3655,89.4537 38.3655,88.8697 C38.3655,88.2857 38.8025,88.0647 39.3415,88.3757" id="Fill-121" fill="#E8E8E8"></path>
                    <path d="M39.3415,94.7207 L70.3575,112.6267 C70.8965,112.9377 71.3335,113.6637 71.3335,114.2477 C71.3335,114.8317 70.8965,115.0527 70.3575,114.7417 L39.3415,96.8357 C38.8025,96.5247 38.3655,95.7987 38.3655,95.2147 C38.3655,94.6307 38.8025,94.4097 39.3415,94.7207" id="Fill-123" fill="#E8E8E8"></path>
                    <path d="M39.3415,101.0657 L70.3575,118.9717 C70.8965,119.2827 71.3335,120.0087 71.3335,120.5927 C71.3335,121.1767 70.8965,121.3977 70.3575,121.0867 L39.3415,103.1807 C38.8025,102.8697 38.3655,102.1437 38.3655,101.5597 C38.3655,100.9757 38.8025,100.7547 39.3415,101.0657" id="Fill-125" fill="#E8E8E8"></path>
                </g>
                <g id="Group-130" transform="translate(92.000000, 88.640000)">
                    <mask id="mask-22" fill="white">
                        <use xlink:href="#path-21"></use>
                    </mask>
                    <g id="Clip-129"></g>
                    <path d="M0.938,0.965 L9.687,48.449 C9.8,49.059 10.331,49.811 10.867,50.122 L10.867,50.122 L66.671,82.339 L57.718,33.747 C57.605,33.138 57.074,32.385 56.537,32.075 L56.537,32.075 L1.71,0.421 C1.552,0.33 1.411,0.286 1.292,0.286 L1.292,0.286 C1.009,0.286 0.859,0.535 0.938,0.965" id="Fill-128" fill="url(#linearGradient-23)" mask="url(#mask-22)"></path>
                </g>
                <g id="Group-173" transform="translate(21.000000, 47.640000)">
                    <path d="M69.9023,64.1912 L69.9023,95.7752 C69.9023,96.3982 70.3393,97.1552 70.8783,97.4662 L92.7363,110.0862 C93.2763,110.3972 94.1233,110.4132 94.6283,110.1212 C95.1343,109.8292 95.5443,109.0872 95.5443,108.4652 L95.5443,76.8812 C95.5443,76.2582 95.1073,75.5012 94.5683,75.1902 L72.7103,62.5702 C72.1713,62.2592 71.3243,62.2432 70.8183,62.5352 C70.3123,62.8272 69.9023,63.5682 69.9023,64.1912" id="Fill-131" fill="#D9EEFF"></path>
                    <path d="M95.5444,92.6728 L95.5444,76.8808 C95.5444,76.5698 95.4354,76.2248 95.2584,75.9188 L92.5104,77.5048 L92.5104,109.9558 L92.7364,110.0858 C93.2754,110.3968 94.1224,110.4128 94.6284,110.1208 L94.6294,110.1208 C95.1344,109.8288 95.5444,109.0878 95.5444,108.4648 L95.5444,92.6728 Z" id="Fill-133" fill="#ABD5FD"></path>
                    <path d="M70.8785,63.6276 L92.7365,76.2476 C93.2755,76.5586 93.7125,77.3156 93.7125,77.9386 L93.7125,109.5226 C93.7125,110.1446 93.2755,110.3976 92.7365,110.0856 L70.8785,97.4666 C70.3395,97.1546 69.9025,96.3976 69.9025,95.7756 L69.9025,64.1916 C69.9025,63.5686 70.3395,63.3166 70.8785,63.6276" id="Fill-135" fill="#C1E4FF"></path>
                    <path d="M72.7101,66.8 L90.9051,77.305 C91.4441,77.616 91.8811,78.373 91.8811,78.996 L91.8811,102.12 C91.8811,102.743 91.4441,102.995 90.9051,102.684 L72.7101,92.179 C72.1711,91.868 71.7341,91.111 71.7341,90.488 L71.7341,67.364 C71.7341,66.741 72.1711,66.489 72.7101,66.8" id="Fill-137" fill="#FFFFFF"></path>
                    <path d="M76.1353,72.197 C77.3303,72.887 78.2993,74.565 78.2993,75.945 C78.2993,77.325 77.3303,77.885 76.1353,77.195 C74.9403,76.505 73.9713,74.826 73.9713,73.446 C73.9713,72.066 74.9403,71.507 76.1353,72.197" id="Fill-139" fill="#FFDB4C"></path>
                    <path d="M85.3757,80.4196 L80.8917,87.0456 L77.4857,81.9136 C76.9347,81.0836 75.9827,81.0406 75.3587,81.8166 L71.7347,86.3276 L71.7347,90.4886 C71.7347,91.1106 72.1717,91.8676 72.7107,92.1786 L90.9057,102.6836 C91.4447,102.9946 91.8817,102.7426 91.8817,102.1206 L91.8817,90.5576 L87.1567,80.5566 C86.7317,79.6556 85.9337,79.5946 85.3757,80.4196" id="Fill-141" fill="#27DEBF"></path>
                    <path d="M1.0795,58.3831 C15.3545,49.7781 24.1125,34.3131 24.1125,17.6011 L24.1125,1.5831 C24.1125,1.0871 24.4645,0.8841 24.8935,1.1321 L65.4575,24.5521 C65.8875,24.8001 66.2395,25.4091 66.2395,25.9051 L66.2395,41.9231 C66.2395,58.5661 57.5525,73.9731 43.3815,82.5981 C42.7975,82.9541 42.0625,82.9511 41.4705,82.6101 L1.0835,59.2921 C0.6535,59.0441 0.6545,58.6391 1.0795,58.3831" id="Fill-143" fill="#FFFFFF"></path>
                    <path d="M1.196,58.5758 C1.062,58.6568 0.986,58.7538 0.986990255,58.8408 C0.988,58.9278 1.064,59.0208 1.196,59.0968 L41.583,82.4148 C42.11,82.7188 42.755,82.7158 43.264,82.4058 C57.297,73.8648 66.014,58.3528 66.014,41.9228 L66.014,25.9048 C66.014,25.4868 65.708,24.9568 65.345,24.7478 L24.781,1.3278 C24.647,1.2498 24.528,1.2318 24.455,1.2738 C24.38,1.3168 24.338,1.4298 24.338,1.5828 L24.338,17.6008 C24.338,34.2708 15.47,49.9718 1.196,58.5758 M42.422,83.0918 C42.056,83.0918 41.689,82.9958 41.357,82.8048 L0.971,59.4868 C0.692,59.3268 0.538,59.0988 0.535956425,58.8458 C0.533,58.5908 0.685,58.3578 0.963,58.1898 C15.103,49.6668 23.887,34.1138 23.887,17.6008 L23.887,1.5828 C23.887,1.2638 24.012,1.0088 24.229,0.8828 C24.447,0.7578 24.73,0.7778 25.006,0.9368 L65.571,24.3568 C66.072,24.6458 66.464,25.3258 66.464,25.9048 L66.464,41.9228 C66.464,58.5088 57.664,74.1688 43.499,82.7908 C43.17,82.9908 42.797,83.0918 42.422,83.0918" id="Fill-145" fill="#E8E8E8"></path>
                    <path d="M48.8991,21.3366 L59.7681,27.6116 C60.3071,27.9236 60.7441,28.6486 60.7441,29.2326 C60.7441,29.8166 60.3071,30.0386 59.7681,29.7266 L48.8991,23.4516 C48.3601,23.1406 47.9231,22.4146 47.9231,21.8306 C47.9231,21.2466 48.3601,21.0256 48.8991,21.3366" id="Fill-147" fill="#E8E8E8"></path>
                    <path d="M42.4269,27.116 C42.4269,27.7 41.9899,27.921 41.4509,27.61 L30.5839,21.338 C30.0449,21.026 29.6079,20.301 29.6079,19.717 C29.6079,19.133 30.0449,18.912 30.5839,19.223 L41.4509,25.495 C41.9899,25.806 42.4269,26.532 42.4269,27.116" id="Fill-149" fill="#E8E8E8"></path>
                    <path d="M60.2115,45.8391 C60.1295,46.3761 59.6155,46.5571 59.0765,46.2451 L29.8985,29.4001 C29.3595,29.0891 28.9975,28.4021 29.0775,27.8641 C29.1575,27.3261 29.6485,27.1411 30.1875,27.4521 L59.3735,44.3021 C59.9135,44.6131 60.2935,45.3021 60.2115,45.8391" id="Fill-151" fill="#E8E8E8"></path>
                    <path d="M59.0055,51.4919 C58.8655,51.9949 58.3035,52.1479 57.7645,51.8369 L28.5865,34.9869 C28.0475,34.6749 27.7325,34.0179 27.8725,33.5149 C28.0125,33.0119 28.5525,32.8539 29.0915,33.1649 L58.2735,50.0149 C58.8125,50.3259 59.1455,50.9889 59.0055,51.4919" id="Fill-153" fill="#E8E8E8"></path>
                    <path d="M57.1917,56.7886 C56.9987,57.2606 56.3957,57.3876 55.8567,57.0766 L26.6747,40.2306 C26.1357,39.9196 25.8667,39.2886 26.0597,38.8156 C26.2527,38.3416 26.8347,38.2056 27.3737,38.5166 L56.5557,55.3666 C57.0947,55.6786 57.3847,56.3166 57.1917,56.7886" id="Fill-155" fill="#E8E8E8"></path>
                    <path d="M54.8115,61.7599 C54.5665,62.2019 53.9205,62.3019 53.3815,61.9909 L24.2035,45.1499 C23.6645,44.8379 23.4345,44.2319 23.6775,43.7889 C23.9215,43.3449 24.5485,43.2329 25.0875,43.5449 L54.2695,60.3899 C54.8085,60.7009 55.0565,61.3179 54.8115,61.7599" id="Fill-157" fill="#E8E8E8"></path>
                    <path d="M37.9619,60.4937 C37.6499,60.8977 36.9529,60.9677 36.4139,60.6557 L20.0509,51.2097 C19.5119,50.8987 19.3359,50.3237 19.6489,49.9197 C19.9619,49.5147 20.6439,49.4327 21.1829,49.7447 L37.5459,59.1947 C38.0849,59.5067 38.2739,60.0897 37.9619,60.4937" id="Fill-159" fill="#E8E8E8"></path>
                    <path d="M31.9871,69.2341 C31.9871,69.2341 23.4071,74.8911 13.1231,75.2851 C15.2191,76.4951 19.9491,76.9971 23.6031,76.4951 C23.6031,76.4951 23.0921,78.6201 19.4111,81.3351 C19.4111,81.3351 25.4051,82.9511 36.1791,71.6541 L31.9871,69.2341 Z" id="Fill-161" fill="#0069B2"></path>
                    <path d="M41.0501,71.3607 C39.2141,73.2267 35.5121,73.3827 32.9821,71.9227 C30.4511,70.4617 30.0531,67.9397 31.8881,66.0747 C33.7241,64.2097 37.0891,63.7197 39.6191,65.1797 C42.1491,66.6387 42.8861,69.4947 41.0501,71.3607" id="Fill-163" fill="#FFC000"></path>
                    <path d="M41.0501,70.7957 C39.2141,72.6617 35.5121,72.8177 32.9821,71.3577 C30.4511,69.8967 30.0531,67.3747 31.8881,65.5097 C33.7241,63.6447 37.0891,63.1547 39.6191,64.6147 C42.1491,66.0737 42.8861,68.9297 41.0501,70.7957" id="Fill-165" fill="#FFDB4C"></path>
                    <path d="M36.7968,70.986 C35.6668,70.986 34.5518,70.702 33.6578,70.186 C32.7628,69.669 32.2158,68.991 32.1188,68.277 C32.0128,67.498 32.4598,66.858 32.8528,66.459 C33.6808,65.617 34.9888,65.115 36.3528,65.115 C37.2858,65.115 38.1818,65.347 38.9428,65.786 C39.9228,66.351 40.5788,67.214 40.6988,68.094 C40.7868,68.743 40.5748,69.35 40.0858,69.847 C39.3738,70.571 38.1748,70.986 36.7968,70.986" id="Fill-167" fill="#FFC000"></path>
                    <path d="M38.943,66.3548 C38.182,65.9158 37.286,65.6838 36.353,65.6838 C34.989,65.6838 33.681,66.1858 32.853,67.0268 C32.551,67.3338 32.22,67.7828 32.129,68.3258 C32.244,69.0218 32.783,69.6808 33.658,70.1858 C34.552,70.7018 35.666,70.9858 36.797,70.9858 C38.175,70.9858 39.374,70.5708 40.086,69.8468 C40.432,69.4958 40.636,69.0888 40.696,68.6518 C40.573,67.7758 39.919,66.9178 38.943,66.3548" id="Fill-169" fill="#FFC000"></path>
                    <path d="M38.943,66.3548 C38.182,65.9158 37.286,65.6838 36.353,65.6838 C34.989,65.6838 33.681,66.1858 32.853,67.0268 C32.551,67.3338 32.22,67.7828 32.129,68.3258 C32.244,69.0218 32.783,69.6808 33.658,70.1858 C34.552,70.7018 35.666,70.9858 36.797,70.9858 C38.175,70.9858 39.374,70.5708 40.086,69.8468 C40.432,69.4958 40.636,69.0888 40.696,68.6518 C40.573,67.7758 39.919,66.9178 38.943,66.3548" id="Fill-171" fill="#FFDB4C"></path>
                </g>
                <g id="Group-176" transform="translate(72.000000, 99.640000)">
                    <mask id="mask-25" fill="white">
                        <use xlink:href="#path-24"></use>
                    </mask>
                    <g id="Clip-175"></g>
                    <path d="M0.22,4.14 C0.22,6.014 1.739,7.533 3.613,7.533 L3.613,7.533 C5.488,7.533 7.007,6.014 7.007,4.14 L7.007,4.14 C7.007,2.265 5.488,0.746 3.613,0.746 L3.613,0.746 C1.739,0.746 0.22,2.265 0.22,4.14" id="Fill-174" fill="url(#linearGradient-26)" mask="url(#mask-25)"></path>
                </g>
                <path d="M67.5544,170.0863 C72.4904,172.4393 80.4944,172.4393 85.4304,170.0863 C90.3674,167.7343 90.3674,163.9193 85.4304,161.5663 C80.4944,159.2133 72.4904,159.2133 67.5544,161.5663 C62.6184,163.9193 62.6184,167.7343 67.5544,170.0863" id="Fill-177" fill="#E8E8E8"></path>
                <polygon id="Fill-179" fill="url(#linearGradient-27)" points="81.35 165.301 83.741 165.301 83.741 161.209 81.35 161.209"></polygon>
                <g id="Group-183" transform="translate(72.000000, 156.640000)">
                    <mask id="mask-29" fill="white">
                        <use xlink:href="#path-28"></use>
                    </mask>
                    <g id="Clip-182"></g>
                    <polygon id="Fill-181" fill="url(#linearGradient-30)" mask="url(#mask-29)" points="0.943 0.101 1.063 4.433 3.452 4.35 3.452 0.019"></polygon>
                </g>
                <g id="Group-186" transform="translate(71.000000, 125.640000)">
                    <mask id="mask-32" fill="white">
                        <use xlink:href="#path-31"></use>
                    </mask>
                    <g id="Clip-185"></g>
                    <path d="M1.402,0.491 C1.402,0.491 0.576,17.267 0.608,18.91 L0.608,18.91 C0.635,20.351 1.843,34.219 1.843,34.219 L1.843,34.219 C3.479,34.772 4.604,34.009 4.604,34.009 L4.604,34.009 C4.604,34.009 5.524,24.281 5.636,22.709 L5.636,22.709 C5.78,20.678 5.34,18.91 5.34,18.91 L5.34,18.91 L6.636,9.233 C6.636,9.233 7.269,17.286 7.644,20.251 L7.644,20.251 C8.072,23.646 10.182,37.667 10.182,37.667 L10.182,37.667 C11.683,38.293 12.843,37.615 12.843,37.615 L12.843,37.615 C12.843,37.615 13.236,27.062 13.418,23.635 L13.418,23.635 C13.551,21.112 12.935,19.9 12.879,19.243 L12.879,19.243 C12.879,19.243 12.584,2.774 12.584,0.491 L12.584,0.491 L1.402,0.491 Z" id="Fill-184" fill="url(#linearGradient-33)" mask="url(#mask-32)"></path>
                </g>
                <path d="M82.5635,113.1614 C82.5635,113.1614 83.4515,113.7014 83.4515,115.8704 L83.4515,120.5544 L83.5195,129.3994 C80.0885,131.2084 75.7555,131.3134 72.0945,128.6404 C72.0945,128.6404 72.2695,117.2714 72.2695,115.4084 C72.2695,113.5464 73.3075,111.1264 76.1645,110.9604 L79.8525,111.8164 L82.5635,113.1614 Z" id="Fill-187" fill="#FFFFFF"></path>
                <g id="Group-191" transform="translate(64.000000, 111.640000)">
                    <mask id="mask-35" fill="white">
                        <use xlink:href="#path-34"></use>
                    </mask>
                    <g id="Clip-190"></g>
                    <path d="M6.883,5.687 C6.883,5.687 6.203,9.497 5.854,11.516 L5.854,11.516 C5.548,13.289 4.527,16.481 3.94,17.875 L3.94,17.875 C3.837,18.123 3.324,18.457 3.081,18.573 L3.081,18.573 C2.433,18.882 2.144,19.243 1.633,19.669 L1.633,19.669 C1.234,20.002 0.919,20.06 0.953,20.184 L0.953,20.184 C0.995,20.344 1.222,20.621 1.675,20.537 L1.675,20.537 C1.902,20.495 2.207,20.355 2.587,20.169 L2.587,20.169 C2.587,20.169 2.249,20.885 1.535,21.581 L1.535,21.581 C0.567,22.525 0.457,23.161 2.17,23.371 L2.17,23.371 C3.243,23.504 4.176,22.938 5.254,20.663 L5.254,20.663 C5.565,20.008 6.052,18.973 6.313,18.091 L6.313,18.091 C6.99,15.795 7.953,12.705 8.289,11.296 L8.289,11.296 C9.399,6.639 9.762,1.983 9.952,0.781 L9.952,0.781 L6.883,5.687 Z" id="Fill-189" fill="url(#linearGradient-36)" mask="url(#mask-35)"></path>
                </g>
                <g id="Group-194" transform="translate(68.000000, 110.640000)">
                    <mask id="mask-38" fill="white">
                        <use xlink:href="#path-37"></use>
                    </mask>
                    <g id="Clip-193"></g>
                    <path d="M4.298,1.01 C3.853,1.489 3.391,2.28 2.618,7.054 L2.618,7.054 C1.946,11.202 0.031,18.052 0.031,18.052 L0.031,18.052 C0.031,18.052 1.039,19.278 2.641,18.994 L2.641,18.994 L6.013,6.587 L6.752,0.322 C6.477,0.278 6.224,0.252 5.989,0.252 L5.989,0.252 C5.339,0.252 4.817,0.45 4.298,1.01" id="Fill-192" fill="url(#linearGradient-39)" mask="url(#mask-38)"></path>
                </g>
                <g id="Group-197" transform="translate(71.000000, 110.640000)">
                    <mask id="mask-41" fill="white">
                        <use xlink:href="#path-40"></use>
                    </mask>
                    <g id="Clip-196"></g>
                    <path d="M0.607,5.05 L0.607,20.533 C1.449,21.193 3.247,21.527 3.247,21.527 L3.247,21.527 C3.247,21.527 3.304,4.584 3.654,3.067 L3.654,3.067 C4.004,1.55 5.298,0.523 5.298,0.523 L5.298,0.523 C4.749,0.384 4.264,0.32 3.836,0.32 L3.836,0.32 C0.983,0.32 0.607,3.123 0.607,5.05" id="Fill-195" fill="url(#linearGradient-42)" mask="url(#mask-41)"></path>
                </g>
                <g id="Group-200" transform="translate(77.000000, 111.640000)">
                    <mask id="mask-44" fill="white">
                        <use xlink:href="#path-43"></use>
                    </mask>
                    <g id="Clip-199"></g>
                    <path d="M0.94,7.531 C0.899,12.604 0.813,21.5 0.813,21.5 L0.813,21.5 C0.813,21.5 4.338,22.217 6.852,20.715 L6.852,20.715 C6.852,20.715 6.568,8.007 6.52,6.102 L6.52,6.102 C6.465,3.921 7.102,2.068 5.876,1.453 L5.876,1.453 C4.649,0.837 2.986,0.382 2.986,0.382 L2.986,0.382 C2.984,0.382 0.981,2.46 0.94,7.531" id="Fill-198" fill="url(#linearGradient-45)" mask="url(#mask-44)"></path>
                </g>
                <g id="Group-203" transform="translate(80.000000, 105.640000)">
                    <mask id="mask-47" fill="white">
                        <use xlink:href="#path-46"></use>
                    </mask>
                    <g id="Clip-202"></g>
                    <path d="M0.072,2.289 L0.033,4.107 C0.033,4.107 0.49,3.986 0.71,3.561 L0.71,3.561 C0.931,3.136 1.481,0.553 1.481,0.553 L1.481,0.553 L0.072,2.289 Z" id="Fill-201" fill="url(#linearGradient-48)" mask="url(#mask-47)"></path>
                </g>
                <g id="Group-206" transform="translate(80.000000, 101.640000)">
                    <mask id="mask-50" fill="white">
                        <use xlink:href="#path-49"></use>
                    </mask>
                    <g id="Clip-205"></g>
                    <path d="M0.79,0.851 L0.445,4.671 L1.481,4.553 C2.044,3.133 2.297,1.685 1.844,1.222 L1.844,1.222 C1.521,0.891 1.133,0.842 0.93,0.842 L0.93,0.842 C0.843,0.842 0.79,0.851 0.79,0.851" id="Fill-204" fill="url(#linearGradient-51)" mask="url(#mask-50)"></path>
                </g>
                <g id="Group-209" transform="translate(72.000000, 100.640000)">
                    <mask id="mask-53" fill="white">
                        <use xlink:href="#path-52"></use>
                    </mask>
                    <g id="Clip-208"></g>
                    <path d="M0.939,2.941 C0.594,5.794 0.749,6.965 1.155,8.415 L1.155,8.415 C1.409,9.319 1.933,9.977 2.768,10.106 L2.768,10.106 C3.269,10.184 4.298,10.027 4.298,10.027 L4.298,10.027 L4.294,11.273 C3.799,12.551 4.053,13.975 4.053,13.975 L4.053,13.975 L7.986,11.382 L8.072,7.289 C8.072,7.289 8.242,8.017 9.377,7.66 L9.377,7.66 C10.036,7.453 10.829,6.27 10.404,5.374 L10.404,5.374 C9.986,4.495 9.15,4.861 8.894,5.13 L8.894,5.13 C8.638,5.398 8.341,5.796 8.134,5.672 L8.134,5.672 C8.134,5.672 8.883,2.253 6.918,1.016 L6.918,1.016 C6.168,0.544 5.173,0.257 4.209,0.257 L4.209,0.257 C2.651,0.257 1.172,1.008 0.939,2.941" id="Fill-207" fill="url(#linearGradient-54)" mask="url(#mask-53)"></path>
                </g>
                <g id="Group-214" transform="translate(74.000000, 110.640000)" fill="#D9EEFF">
                    <path d="M2.053,3.9745 L5.999,0.7615 L6.009,0.2465 C6.009,0.2465 6.926,0.4295 7.044,1.7115 L4.649,5.3585 L3.636,3.4585 L2.053,3.9745 Z" id="Fill-210"></path>
                    <path d="M2.2971,0.0277 C2.2971,0.0277 1.4441,0.1407 1.0701,0.7617 C0.6951,1.3827 0.0141,3.9747 0.0141,3.9747 L1.2891,2.9907 L2.0531,3.9747 C1.9731,3.1847 2.0471,2.2877 2.2941,1.2737 L2.2971,0.0277 Z" id="Fill-212"></path>
                </g>
                <g id="Group-217" transform="translate(72.000000, 98.640000)">
                    <mask id="mask-56" fill="white">
                        <use xlink:href="#path-55"></use>
                    </mask>
                    <g id="Clip-216"></g>
                    <path d="M0.93,1.282 C0.448,1.701 0.241,2.44 0.5,3.023 L0.5,3.023 C0.561,3.16 0.649,3.283 0.749,3.395 L0.749,3.395 C0.927,3.592 1.127,3.746 1.38,3.828 L1.38,3.828 C1.38,3.828 1.762,4.168 3.091,4.33 L3.091,4.33 C4.42,4.492 6.491,4.298 6.773,4.259 L6.773,4.259 C7.159,4.207 7.241,4.581 7.449,5.601 L7.449,5.601 C7.631,6.497 7.782,8.015 8.134,8.02200454 L8.134,8.02200454 C8.239,8.024 8.635,7.365 8.894,7.13 L8.894,7.13 C9.252,6.804 8.79,3.851 8.79,3.851 L8.79,3.851 C8.79,3.851 9.134,3.117 8.445,2.358 L8.445,2.358 C7.953,1.818 7.133,1.757 5.733,1.538 L5.733,1.538 C4.998,1.422 3.883,1.216 3.15,1.08 L3.15,1.08 C2.722,1 2.33,0.918 1.968,0.918 L1.968,0.918 C1.59,0.918 1.246,1.008 0.93,1.282" id="Fill-215" fill="url(#linearGradient-57)" mask="url(#mask-56)"></path>
                </g>
                <g id="Group-220" transform="translate(80.000000, 101.640000)">
                    <mask id="mask-59" fill="white">
                        <use xlink:href="#path-58"></use>
                    </mask>
                    <g id="Clip-219"></g>
                    <path d="M1.094,0.092 C0.746,0.278 0.61,0.721 0.788,1.08 L0.788,1.08 L2.044,0.406 C1.919,0.154 1.673,0.01 1.418,0.01 L1.418,0.01 C1.309,0.01 1.198,0.036 1.094,0.092" id="Fill-218" fill="url(#linearGradient-60)" mask="url(#mask-59)"></path>
                </g>
                <g id="Group-223" transform="translate(76.000000, 108.640000)">
                    <mask id="mask-62" fill="white">
                        <use xlink:href="#path-61"></use>
                    </mask>
                    <g id="Clip-222"></g>
                    <path d="M2.811,1.306 C2.16,1.653 0.298,2.027 0.298,2.027 L0.298,2.027 L0.298,2.523 C0.298,2.523 2.724,2.075 3.2,1.467 L3.2,1.467 C3.589,0.968 3.711,0.415 3.711,0.415 L3.711,0.415 C3.606,0.673 3.247,1.074 2.811,1.306" id="Fill-221" mask="url(#mask-62)"></path>
                </g>
                <g id="Group-226" transform="translate(76.000000, 104.640000)">
                    <mask id="mask-64" fill="white">
                        <use xlink:href="#path-63"></use>
                    </mask>
                    <g id="Clip-225"></g>
                    <path d="M1.118,0.818 C0.912,0.819 0.745,0.993 0.745,1.207 L0.745,1.207 C0.745,1.421 0.912,1.594 1.118,1.594 L1.118,1.594 C1.324,1.593 1.491,1.419 1.491,1.205 L1.491,1.205 C1.491,0.991 1.325,0.818 1.12,0.818 L1.12,0.818 C1.119,0.818 1.119,0.818 1.118,0.818" id="Fill-224" fill="url(#linearGradient-65)" mask="url(#mask-64)"></path>
                </g>
                <g id="Group-229" transform="translate(77.000000, 103.640000)">
                    <mask id="mask-67" fill="white">
                        <use xlink:href="#path-66"></use>
                    </mask>
                    <g id="Clip-228"></g>
                    <path d="M0.141,0.798 L0.939,1.238 C1.057,1.009 0.973,0.725 0.753,0.602 L0.753,0.602 C0.685,0.565 0.613,0.547 0.542,0.547 L0.542,0.547 C0.38,0.547 0.223,0.638 0.141,0.798" id="Fill-227" fill="url(#linearGradient-68)" mask="url(#mask-67)"></path>
                </g>
                <g id="Group-232" transform="translate(75.000000, 107.640000)">
                    <mask id="mask-70" fill="white">
                        <use xlink:href="#path-69"></use>
                    </mask>
                    <g id="Clip-231"></g>
                    <path d="M0.613,1.105 C0.698,1.35 0.957,1.476 1.192,1.387 L1.192,1.387 C1.428,1.299 1.55,1.029 1.466,0.785 L1.466,0.785 L0.613,1.105 Z" id="Fill-230" mask="url(#mask-70)"></path>
                </g>
                <g id="Group-235" transform="translate(73.000000, 103.640000)">
                    <mask id="mask-72" fill="white">
                        <use xlink:href="#path-71"></use>
                    </mask>
                    <g id="Clip-234"></g>
                    <path d="M0.511,0.45 C0.31,0.605 0.267,0.9 0.416,1.108 L0.416,1.108 L1.145,0.547 C1.056,0.423 0.919,0.358 0.781,0.358 L0.781,0.358 C0.687,0.358 0.592,0.388 0.511,0.45" id="Fill-233" fill="url(#linearGradient-73)" mask="url(#mask-72)"></path>
                </g>
                <g id="Group-238" transform="translate(73.000000, 104.640000)">
                    <mask id="mask-75" fill="white">
                        <use xlink:href="#path-74"></use>
                    </mask>
                    <g id="Clip-237"></g>
                    <path d="M1.013,0.712 C0.807,0.712 0.641,0.887 0.641,1.101 L0.641,1.101 C0.641,1.315 0.807,1.488 1.013,1.488 L1.013,1.488 C1.219,1.487 1.387,1.313 1.387,1.099 L1.387,1.099 C1.387,0.885 1.22,0.712 1.015,0.712 L1.015,0.712 C1.014,0.712 1.014,0.712 1.013,0.712" id="Fill-236" fill="url(#linearGradient-76)" mask="url(#mask-75)"></path>
                </g>
                <g id="Group-241" transform="translate(74.000000, 104.640000)">
                    <mask id="mask-78" fill="white">
                        <use xlink:href="#path-77"></use>
                    </mask>
                    <g id="Clip-240"></g>
                    <polygon id="Fill-239" mask="url(#mask-78)" points="0.247 2.592 1.419 2.992 1.542 0.747"></polygon>
                </g>
                <g id="Group-244" transform="translate(77.000000, 163.640000)">
                    <mask id="mask-80" fill="white">
                        <use xlink:href="#path-79"></use>
                    </mask>
                    <g id="Clip-243"></g>
                    <path d="M6.741,0.139 C6.741,0.19 6.741,0.4 6.741,0.4 L6.741,0.4 C6.568,0.592 6.087,0.783 5.546,0.804 L5.546,0.804 C5.196,0.818 4.347,0.747 4.35,0.481 L4.35,0.481 L4.35,0.139 C4.122,0.239 3.59,2.267 2.642,3.132 L2.642,3.132 C1.888,3.819 0.859,4.614 0.597,5.381 L0.597,5.381 C0.325,6.178 2.03,6.618 2.735,6.494 L2.735,6.494 C3.553,6.349 4.972,5.772 5.328,5.238 L5.328,5.238 C5.684,4.704 5.851,3.915 6.14,3.524 L6.14,3.524 C6.43,3.132 7.097,2.695 7.254,2.242 L7.254,2.242 C7.339,1.993 7.237,1.448 7.117,0.987 L7.117,0.987 C7.01,0.581 6.895,0.137 6.759,0.137 L6.759,0.137 C6.753,0.137 6.747,0.137 6.741,0.139" id="Fill-242" fill="url(#linearGradient-81)" mask="url(#mask-80)"></path>
                </g>
                <g id="Group-247" transform="translate(67.000000, 159.640000)">
                    <mask id="mask-83" fill="white">
                        <use xlink:href="#path-82"></use>
                    </mask>
                    <g id="Clip-246"></g>
                    <path d="M8.452,0.54 L8.452,0.772 C8.165,1.207 6.682,1.384 6.05,1.064 L6.05,1.064 L6.038,0.695 C5.913,0.699 5.813,0.875 5.538,1.171 L5.538,1.171 C5.208,1.529 4.666,1.915 4.132,2.182 L4.132,2.182 C3.237,2.631 1.496,3.32 0.709,3.675 L0.709,3.675 C0.217,3.897 0.24,4.491 0.748,4.829 L0.748,4.829 C1.257,5.168 2.485,5.412 3.96,5.081 L3.96,5.081 C4.763,4.902 5.809,4.16 6.471,4.2 L6.471,4.2 C7.133,4.24 8.371,4.231 8.86,3.893 L8.86,3.893 C9.348,3.557 9.153,2.838 9.015,2.219 L9.015,2.219 C8.867,1.56 8.684,0.539 8.467,0.538 L8.467,0.538 C8.462,0.538 8.457,0.539 8.452,0.54" id="Fill-245" fill="url(#linearGradient-84)" mask="url(#mask-83)"></path>
                </g>
                <g id="Group-250" transform="translate(74.000000, 132.640000)">
                    <mask id="mask-86" fill="white">
                        <use xlink:href="#path-85"></use>
                    </mask>
                    <g id="Clip-249"></g>
                    <path d="M2.859,2.646 L2.451,11.083 L3.636,2.233 C3.636,2.233 1.725,1.695 0.307,0.324 L0.307,0.324 C0.307,0.324 0.948,1.527 2.859,2.646" id="Fill-248" fill="url(#linearGradient-87)" mask="url(#mask-86)"></path>
                </g>
                <g id="Group-253" transform="translate(75.000000, 113.640000)">
                    <mask id="mask-89" fill="white">
                        <use xlink:href="#path-88"></use>
                    </mask>
                    <g id="Clip-252"></g>
                    <path d="M0.487,0.81 C0.505,1.153 0.56,1.582 0.715,1.888 L0.715,1.888 C0.715,1.888 1.272,1.754 1.712,1.976 L1.712,1.976 C1.712,1.976 2.106,1.445 2.206,0.598 L2.206,0.598 C2.073,0.274 1.604,0.124 1.163,0.116 L1.163,0.116 C1.159,0.116 1.155,0.116 1.151,0.116 L1.151,0.116 C0.773,0.116 0.466,0.43 0.487,0.81" id="Fill-251" fill="url(#linearGradient-90)" mask="url(#mask-89)"></path>
                </g>
                <g id="Group-256" transform="translate(74.000000, 114.640000)">
                    <mask id="mask-92" fill="white">
                        <use xlink:href="#path-91"></use>
                    </mask>
                    <g id="Clip-255"></g>
                    <path d="M1.715,0.888 C1.715,0.888 0.884,7.709 0.905,8.112 L0.905,8.112 C0.928,8.514 1.775,10.876 2.209,10.876 L2.209,10.876 C2.687,10.876 3.492,8.753 3.513,8.419 L3.513,8.419 C3.536,8.084 2.712,0.976 2.712,0.976 L2.712,0.976 C2.55,0.833 2.352,0.769 2.159,0.769 L2.159,0.769 C2.001,0.769 1.846,0.811 1.715,0.888" id="Fill-254" fill="url(#linearGradient-93)" mask="url(#mask-92)"></path>
                </g>
                <g id="Group-263" transform="translate(79.000000, 132.640000)">
                    <path d="M2.2826,19.7924 L0.5316,18.7814 C0.3556,18.6794 0.2126,18.4334 0.2126,18.2304 L0.2126,8.2804 C0.2126,8.0784 0.3556,7.8314 0.5316,7.7294 L12.4306,0.8594 C12.6066,0.7584 12.8916,0.7584 13.0676,0.8594 L14.8186,1.8704 C14.9946,1.9724 15.1366,2.2194 15.1366,2.4214 L15.1366,12.3714 C15.1366,12.5744 14.9946,12.8204 14.8186,12.9224 L2.9186,19.7924 C2.7436,19.8934 2.4586,19.8934 2.2826,19.7924" id="Fill-257" fill="#FFDB4C"></path>
                    <path d="M0.213,8.2808 C0.213,8.1798 0.249,8.0668 0.306,7.9668 L2.899,9.4648 L2.899,19.8018 C2.723,19.8928 2.452,19.8908 2.283,19.7928 L0.531,18.7808 C0.355,18.6798 0.213,18.4328 0.213,18.2308 L0.213,8.2808 Z" id="Fill-259" fill="#F28F8F"></path>
                    <path d="M0.213,8.2808 C0.213,8.1798 0.249,8.0668 0.306,7.9668 L2.899,9.4648 L2.899,19.8018 C2.723,19.8928 2.452,19.8908 2.283,19.7928 L0.531,18.7808 C0.355,18.6798 0.213,18.4328 0.213,18.2308 L0.213,8.2808 Z" id="Fill-261" fill="#FFC000"></path>
                </g>
                <g id="Group-266" transform="translate(81.000000, 134.640000)">
                    <mask id="mask-95" fill="white">
                        <use xlink:href="#path-94"></use>
                    </mask>
                    <g id="Clip-265"></g>
                    <path d="M12.819,0.238 L0.919,7.109 C0.743,7.21 0.601,7.456 0.601,7.66 L0.601,7.66 L0.601,17.609 C0.601,17.812 0.743,17.893 0.919,17.793 L0.919,17.793 L12.819,10.922 C12.994,10.82 13.136,10.574 13.136,10.371 L13.136,10.371 L13.136,0.422 C13.136,0.278 13.065,0.195 12.961,0.195 L12.961,0.195 C12.918,0.195 12.87,0.209 12.819,0.238" id="Fill-264" fill="url(#linearGradient-96)" mask="url(#mask-95)"></path>
                </g>
                <g id="Group-285" transform="translate(80.000000, 133.640000)">
                    <path d="M0.8748,7.5055 C0.6988,7.6065 0.5568,7.8535 0.5568,8.0565 L0.5568,18.3735 L0.2578,18.2005 L0.2578,7.8845 C0.2578,7.6815 0.4008,7.4345 0.5768,7.3335 L12.7938,0.2795 L13.0928,0.4515 L0.8748,7.5055 Z" id="Fill-267" fill="#042176"></path>
                    <path d="M0.5763,7.3332 L12.7743,0.2902 L13.0823,0.4572 L0.8743,7.5052 C0.7873,7.5562 0.7073,7.6432 0.6503,7.7432 L0.3513,7.5702 C0.4093,7.4712 0.4883,7.3842 0.5763,7.3332" id="Fill-269" fill="#2460DA"></path>
                    <path d="M2.4256,5.748 L2.6356,5.627 C2.7236,5.576 2.8656,5.576 2.9536,5.627 L3.7606,6.093 L3.8956,6.052 L3.8956,6.224 C3.8956,6.257 3.8736,6.291 3.8296,6.316 L3.5506,6.477 C3.4626,6.528 3.3206,6.528 3.2326,6.477 L2.3566,5.971 C2.3126,5.946 2.2906,5.913 2.2906,5.879 L2.2906,5.707 L2.4256,5.748 Z" id="Fill-271" fill="#2343BA"></path>
                    <path d="M2.3569,5.6153 L2.6359,5.4543 C2.7239,5.4033 2.8659,5.4033 2.9539,5.4543 L3.8299,5.9603 C3.9179,6.0103 3.9179,6.0933 3.8299,6.1433 L3.5509,6.3043 C3.4629,6.3553 3.3209,6.3553 3.2329,6.3043 L2.3569,5.7993 C2.2689,5.7483 2.2689,5.6663 2.3569,5.6153" id="Fill-273" fill="#042176"></path>
                    <path d="M9.5889,1.6127 L9.7989,1.4917 C9.8869,1.4407 10.0289,1.4407 10.1169,1.4917 L10.9239,1.9577 L11.0589,1.9167 L11.0589,2.0887 C11.0589,2.1217 11.0369,2.1557 10.9929,2.1807 L10.7139,2.3417 C10.6259,2.3927 10.4839,2.3927 10.3959,2.3417 L9.5199,1.8357 C9.4759,1.8107 9.4539,1.7777 9.4539,1.7437 L9.4539,1.7437 L9.4539,1.5717 L9.5889,1.6127 Z" id="Fill-275" fill="#2343BA"></path>
                    <path d="M9.5203,1.48 L9.7993,1.319 C9.8873,1.268 10.0293,1.268 10.1173,1.319 L10.9933,1.825 C11.0803,1.875 11.0803,1.958 10.9933,2.008 L10.7143,2.169 C10.6263,2.22 10.4843,2.22 10.3963,2.169 L9.5203,1.664 C9.4323,1.613 9.4323,1.531 9.5203,1.48" id="Fill-277" fill="#042176"></path>
                    <path d="M7.2719,1.5716 L7.2719,2.6056 L7.8689,2.9496 L7.8689,1.3736 C7.8689,1.2926 7.8119,1.2596 7.7419,1.3006 L7.2719,1.5716 Z" id="Fill-279" fill="#042176"></path>
                    <path d="M4.1424,2.6678 L4.1424,4.5888 L4.5854,4.8458 L4.8834,4.6728 L4.8834,3.0968 C4.8834,3.0158 4.9414,2.9168 5.0114,2.8768 L7.2714,1.5718 L7.7414,1.3008 C7.8114,1.2598 7.8684,1.2918 7.8684,1.3738 L7.8684,2.9498 L8.1674,2.7768 L8.1674,0.8568 C8.1674,0.8488 8.1664,0.8398 8.1654,0.8318 C8.1554,0.7558 8.1024,0.6718 8.0394,0.6358 L7.8504,0.5268 C7.7814,0.4858 7.6674,0.4858 7.5964,0.5268 L4.2694,2.4478 C4.1994,2.4888 4.1424,2.5868 4.1424,2.6678" id="Fill-281" fill="#2460DA"></path>
                    <path d="M4.5855,2.9243 L4.5855,4.8453 L4.8835,4.6733 L4.8835,3.0973 C4.8835,3.0163 4.9415,2.9173 5.0105,2.8763 L7.2715,1.5713 L7.7415,1.3003 C7.8115,1.2603 7.8685,1.2923 7.8685,1.3743 L7.8685,2.9503 L8.1675,2.7773 L8.1675,0.8563 C8.1675,0.8483 8.1665,0.8393 8.1655,0.8313 C8.1545,0.7693 8.1025,0.7473 8.0395,0.7833 L4.7125,2.7043 C4.6425,2.7453 4.5855,2.8433 4.5855,2.9243" id="Fill-283" fill="#2343BA"></path>
                </g>
                <g id="Group-288" transform="translate(84.000000, 130.640000)">
                    <mask id="mask-98" fill="white">
                        <use xlink:href="#path-97"></use>
                    </mask>
                    <g id="Clip-287"></g>
                    <path d="M1.011,2.323 C1.011,2.323 0.65,2.834 0.586,3.259 L0.586,3.259 C0.521,3.683 0.513,4.203 0.436,4.61 L0.436,4.61 C0.361,5.016 0.436,5.351 0.436,5.351 L0.436,5.351 L1.247,4.883 C1.656,5.175 1.283,5.72 1.283,5.72 L1.283,5.72 L1.011,5.876 C1.011,5.876 1.424,6.122 1.571,6.107 L1.571,6.107 C1.789,6.084 2.266,5.64 2.54,5.513 L2.54,5.513 C3.181,5.212 3.567,4.655 3.507,4.376 L3.507,4.376 C3.513,3.604 3.176,2.263 3.161,2.006 L3.161,2.006 C3.146,1.751 3.161,1.158 3.161,1.158 L3.161,1.158 L0.876,0.983 L1.011,2.323 Z" id="Fill-286" fill="url(#linearGradient-99)" mask="url(#mask-98)"></path>
                </g>
                <g id="Group-291" transform="translate(81.000000, 112.640000)">
                    <mask id="mask-101" fill="white">
                        <use xlink:href="#path-100"></use>
                    </mask>
                    <g id="Clip-290"></g>
                    <path d="M0.726,5.001 L3.24,11.544 L3.707,19.49 C5.267,20.157 6.359,19.32 6.359,19.32 L6.359,19.32 C6.359,19.32 6.79,11.393 6.676,10.64 L6.676,10.64 C6.564,9.887 3.645,1.518 3.143,1.116 L3.143,1.116 C2.52,0.618 1.126,0.114 1.126,0.114 L1.126,0.114 C-0.219,2.265 0.726,5.001 0.726,5.001" id="Fill-289" fill="url(#linearGradient-102)" mask="url(#mask-101)"></path>
                </g>
            </g>
        </g>
    </g>
</svg>