<?xml version="1.0" encoding="UTF-8"?>
<svg width="227px" height="170px" viewBox="0 0 227 170" version="1.1" xmlns="http://www.w3.org/2000/svg" xmlns:xlink="http://www.w3.org/1999/xlink">
    <!-- Generator: Sketch 57.1 (83088) - https://sketch.com -->
    <title>Group 202</title>
    <desc>Created with Sketch.</desc>
    <defs>
        <polygon id="path-1" points="0.3467 0.977 93.2027 0.977 93.2027 129.3984 0.3467 129.3984"></polygon>
        <polygon id="path-3" points="0.553 0.977 93.408 0.977 93.408 129.3984 0.553 129.3984"></polygon>
        <polygon id="path-5" points="0 170 227.015 170 227.015 0.977 0 0.977"></polygon>
        <path d="M5.219,0.099 C4.057,0.099 2.982,0.719 2.4,1.727 L2.4,1.727 L0.593,4.858 C0.012,5.865 0.012,7.105 0.593,8.112 L0.593,8.112 L2.4,11.243 C2.982,12.249 4.057,12.869 5.219,12.869 L5.219,12.869 L8.835,12.869 C9.997,12.869 11.071,12.249 11.652,11.243 L11.652,11.243 L13.461,8.112 C14.041,7.105 14.041,5.865 13.461,4.858 L13.461,4.858 L11.652,1.727 C11.071,0.719 9.997,0.099 8.835,0.099 L8.835,0.099 L5.219,0.099 Z" id="path-7"></path>
        <linearGradient x1="-0.000781730507%" y1="50.0049084%" x2="100.000804%" y2="50.0049084%" id="linearGradient-9">
            <stop stop-color="#FDC900" offset="0%"></stop>
            <stop stop-color="#FC9600" offset="100%"></stop>
        </linearGradient>
        <path d="M28.753,0.959 L26.761,7.327 C26.761,7.327 26.761,7.327 26.76,7.327 L26.76,7.327 C26.151,7.557 25.555,7.808 24.963,8.074 L24.963,8.074 L19.051,4.978 L4.521,19.508 L7.617,25.421 C7.347,26.013 7.101,26.608 6.871,27.217 L6.871,27.217 C6.871,27.218 6.87,27.218 6.87,27.219 L6.87,27.219 L0.501,29.21 L0.501,49.759 L6.872,51.751 C7.101,52.358 7.352,52.958 7.617,53.548 L7.617,53.548 L4.521,59.461 L19.051,73.992 L24.962,70.896 L24.963,70.896 C25.555,71.161 26.151,71.413 26.76,71.643 L26.76,71.643 L26.761,71.643 L28.753,78.01 L49.302,78.01 L51.293,71.643 C51.902,71.413 52.499,71.161 53.09,70.896 L53.09,70.896 C53.09,70.896 53.091,70.896 53.092,70.896 L53.092,70.896 L59.004,73.992 L73.534,59.461 L70.437,53.547 C70.701,52.957 70.952,52.358 71.181,51.751 L71.181,51.751 L77.553,49.759 L77.553,29.21 L71.183,27.219 L71.182,27.217 C70.952,26.608 70.705,26.011 70.44,25.42 L70.44,25.42 L70.439,25.418 L73.534,19.508 L59.004,4.978 L53.091,8.074 L53.09,8.074 C52.499,7.808 51.902,7.557 51.293,7.328 L51.293,7.328 L49.302,0.959 L28.753,0.959 Z M23.734,39.482 C23.734,31.036 30.58,24.189 39.027,24.189 L39.027,24.189 C47.473,24.189 54.319,31.036 54.319,39.482 L54.319,39.482 C54.319,47.934 47.473,54.78 39.027,54.78 L39.027,54.78 C30.58,54.78 23.734,47.934 23.734,39.482 L23.734,39.482 Z" id="path-10"></path>
        <linearGradient x1="0.000538986658%" y1="50.0001646%" x2="99.9997791%" y2="50.0001646%" id="linearGradient-12">
            <stop stop-color="#FDC900" offset="0%"></stop>
            <stop stop-color="#FC9600" offset="100%"></stop>
        </linearGradient>
        <path d="M0.259,3.279 L4.204,8.627 C5.518,10.41 6.821,12.201 8.05,14.001 L8.05,14.001 C8.364,14.451 8.656,14.902 8.957,15.352 L8.957,15.352 C9.037,15.427 9.153,15.686 9.235,16.056 L9.235,16.056 C9.395,16.804 9.39,17.818 9.322,18.829 L9.322,18.829 C9.163,20.872 8.762,23.068 8.322,25.179 L8.322,25.179 L10.659,26.079 C11.768,23.976 12.637,21.839 13.211,19.447 L13.211,19.447 C13.481,18.241 13.694,16.996 13.59,15.507 L13.59,15.507 C13.529,14.767 13.371,13.912 12.88,13.015 L12.88,13.015 C12.594,12.508 12.313,11.993 12.018,11.497 L12.018,11.497 C10.847,9.498 9.6,7.586 8.314,5.706 L8.314,5.706 C7.015,3.829 5.688,2.006 4.268,0.198 L4.268,0.198 L0.259,3.279 Z" id="path-13"></path>
        <linearGradient x1="2.02128004e-05%" y1="50.0023148%" x2="99.9994071%" y2="50.0023148%" id="linearGradient-15">
            <stop stop-color="#FCCEAC" offset="0%"></stop>
            <stop stop-color="#F7A977" offset="100%"></stop>
        </linearGradient>
        <path d="M2.156,0.907 L0.949,3.069 L5.164,3.693 C5.164,3.693 5.598,1.856 4.557,0.621 L4.557,0.621 L2.156,0.907 Z" id="path-16"></path>
        <linearGradient x1="0.0199687516%" y1="50.0073763%" x2="100.002985%" y2="50.0073763%" id="linearGradient-18">
            <stop stop-color="#FCCEAC" offset="0%"></stop>
            <stop stop-color="#F7A977" offset="100%"></stop>
        </linearGradient>
        <path d="M0.471,0.992 C0.429,1.257 0.536,1.495 0.71,1.522 L0.71,1.522 C0.884,1.549 1.059,1.355 1.101,1.09 L1.101,1.09 C1.142,0.824 1.035,0.587 0.861,0.56 L0.861,0.56 C0.85,0.558 0.839,0.557 0.828,0.557 L0.828,0.557 C0.666,0.557 0.51,0.742 0.471,0.992" id="path-19"></path>
        <linearGradient x1="17.638448%" y1="49.9780359%" x2="82.352108%" y2="49.9780359%" id="linearGradient-21">
            <stop stop-color="#101519" offset="0%"></stop>
            <stop stop-color="#223137" offset="100%"></stop>
        </linearGradient>
        <path d="M0.283,2.627 C0.684,3.14 1.515,3.064 1.515,3.064 L1.515,3.064 L1.908,0.552 C1.908,0.552 1.064,1.992 0.283,2.627" id="path-22"></path>
        <path d="M1.042,1.034 C0.957,1.053 0.903,1.137 0.922,1.222 L0.922,1.222 C0.94,1.308 1.022,1.363 1.11,1.343 L1.11,1.343 C1.115,1.342 1.684,1.225 2.186,1.721 L2.186,1.721 C2.217,1.751 2.257,1.767 2.297,1.767 L2.297,1.767 C2.338,1.767 2.379,1.751 2.409,1.72 L2.409,1.72 C2.471,1.658 2.471,1.558 2.409,1.496 L2.409,1.496 C1.993,1.086 1.536,1.015 1.27,1.015 L1.27,1.015 C1.138,1.015 1.052,1.032 1.042,1.034" id="path-24"></path>
        <linearGradient x1="-0.0254994593%" y1="49.97394%" x2="99.9952644%" y2="49.97394%" id="linearGradient-26">
            <stop stop-color="#101519" offset="0%"></stop>
            <stop stop-color="#223137" offset="100%"></stop>
        </linearGradient>
        <path d="M3.315,3.993 C3.788,5.889 3.858,7.908 1.137,8.558 L1.137,8.558 C1.137,8.558 -1.465,11.033 3.52,11.033 L3.52,11.033 C8.054,11.033 8.721,8.558 8.721,8.558 L8.721,8.558 C7.014,6.93 7.492,2.458 7.97,0.018 L7.97,0.018 L3.315,3.993 Z" id="path-27"></path>
        <linearGradient x1="0.00129994298%" y1="49.9994916%" x2="100.003551%" y2="49.9994916%" id="linearGradient-29">
            <stop stop-color="#FCCEAC" offset="0%"></stop>
            <stop stop-color="#F7A977" offset="100%"></stop>
        </linearGradient>
        <path d="M0.726,1.908 C0.085,2.438 0.797,3.215 0.797,3.215 L0.797,3.215 L11.044,3.39 C10.988,3.313 10.948,3.223 10.922,3.125 L10.922,3.125 C10.541,1.68 8.936,0.547 6.856,0.492 L6.856,0.492 C6.672,0.487 6.486,0.484 6.298,0.484 L6.298,0.484 C4.254,0.484 2.069,0.799 0.726,1.908" id="path-30"></path>
        <polygon id="path-32" points="0.088 0.881 0.42 8.606 3.755 8.606 3.423 0.881"></polygon>
        <linearGradient x1="-0.00235887647%" y1="49.9995405%" x2="100.015465%" y2="49.9995405%" id="linearGradient-34">
            <stop stop-color="#FCCEAC" offset="0%"></stop>
            <stop stop-color="#F7A977" offset="100%"></stop>
        </linearGradient>
        <polygon id="path-35" points="0.1 2.252 6.485 7.17 9.189 5.218 2.806 0.3"></polygon>
        <linearGradient x1="0.00611068324%" y1="50.0001194%" x2="100.005142%" y2="50.0001194%" id="linearGradient-37">
            <stop stop-color="#FCCEAC" offset="0%"></stop>
            <stop stop-color="#F7A977" offset="100%"></stop>
        </linearGradient>
        <path d="M5.692,0.439 L3.097,3.143 C2.959,3.286 2.876,3.475 2.87,3.675 L2.87,3.675 C2.834,4.781 2.183,7.006 0.809,9.25 L0.809,9.25 C0.502,9.75 1.649,10.555 2.598,9.567 L2.598,9.567 C3.567,8.557 5.477,5.986 6.179,5.255 L6.179,5.255 C7.321,4.066 7.816,3.661 8.738,2.733 L8.738,2.733 C8.96,2.509 8.917,2.134 8.648,1.97 L8.648,1.97 L6.053,0.392 C6.006,0.363 5.954,0.35 5.902,0.35 L5.902,0.35 C5.825,0.35 5.748,0.38 5.692,0.439" id="path-38"></path>
        <linearGradient x1="-0.000961045121%" y1="49.995933%" x2="100.00183%" y2="49.995933%" id="linearGradient-40">
            <stop stop-color="#101519" offset="0%"></stop>
            <stop stop-color="#223137" offset="100%"></stop>
        </linearGradient>
        <path d="M8.442,0.22 C8.154,0.22 7.883,0.329 7.639,0.479 L7.639,0.479 C5.384,1.869 3.253,1.93 0.644,2.501 L0.644,2.501 C0.07,2.627 0.451,4.011 1.82,4.011 L1.82,4.011 C4.085,4.011 5.752,3.906 7.684,3.906 L7.684,3.906 C9.335,3.906 11.234,3.982 12.548,4.005 L12.548,4.005 C12.862,4.01 13.096,3.72 13.028,3.412 L13.028,3.412 L12.369,0.447 C12.339,0.314 12.221,0.22 12.085,0.22 L12.085,0.22 L8.442,0.22 Z" id="path-41"></path>
        <linearGradient x1="0.00205723959%" y1="49.9946294%" x2="99.9967733%" y2="49.9946294%" id="linearGradient-43">
            <stop stop-color="#101519" offset="0%"></stop>
            <stop stop-color="#223137" offset="100%"></stop>
        </linearGradient>
        <path d="M1.599,6.597 C2.067,7.438 2.567,8.251 3.062,9.008 L3.062,9.008 C3.915,10.321 4.741,11.456 5.336,12.237 L5.336,12.237 C5.867,12.941 6.208,13.354 6.208,13.354 L6.208,13.354 L12.927,8.773 C12.927,8.773 8.859,0.818 5.695,0.309 L5.695,0.309 C5.454,0.271 5.213,0.252 4.977,0.252 L4.977,0.252 C2.039,0.252 -0.354,3.11 1.599,6.597" id="path-44"></path>
        <path d="M7.137,0.556 C4.495,0.801 2.007,1.482 2.007,1.482 L2.007,1.482 C2.007,1.482 0.363,3.339 0.367988618,12.356 L0.367988618,12.356 C0.367988618,13.492 0.396,14.74 0.459,16.116 L0.459,16.116 C0.622,19.856 1.031,24.519 1.812,30.313 L1.812,30.313 L19.65,30.313 C19.773,27.576 18.053,14.213 20.695,1.309 L20.695,1.309 C20.695,1.309 17.635,0.696 14.72,0.556 L14.72,0.556 C13.444,0.495 11.847,0.445 10.337,0.445 L10.337,0.445 C9.151,0.445 8.019,0.476 7.137,0.556" id="path-46"></path>
        <path d="M19.914,1.725 C19.598,2.135 19.263,2.547 18.918,2.953 L18.918,2.953 C18.224,3.764 17.514,4.575 16.772,5.351 L16.772,5.351 C15.302,6.905 13.741,8.389 12.119,9.565 L12.119,9.565 C11.716,9.857 11.31,10.126 10.908,10.36 L10.908,10.36 L10.632,10.517 C10.598,10.53 10.585,10.558 10.526,10.575 L10.526,10.575 L10.452,10.61 L10.353,10.639 C10.292,10.662 10.206,10.676 10.125,10.697 L10.125,10.697 C9.435,10.845 8.418,10.784 7.418,10.657 L7.418,10.657 C5.392,10.379 3.21,9.815 1.123,9.223 L1.123,9.223 L0.048,11.485 C2.083,12.765 4.166,13.804 6.561,14.531 L6.561,14.531 C7.768,14.88 9.022,15.174 10.593,15.099 L10.593,15.099 C10.793,15.086 10.989,15.073 11.205,15.033 L11.205,15.033 L11.522,14.978 L11.856,14.892 C12.073,14.843 12.315,14.746 12.545,14.655 L12.545,14.655 C12.61,14.63 12.653,14.61 12.686,14.594 L12.686,14.594 L12.801,14.54 L13.029,14.433 C13.63,14.142 14.194,13.823 14.736,13.489 L14.736,13.489 C16.875,12.133 18.686,10.551 20.385,8.874 L20.385,8.874 C21.223,8.025 22.041,7.163 22.809,6.242 L22.809,6.242 C23.196,5.784 23.575,5.318 23.951,4.829 L23.951,4.829 C24.332,4.331 24.679,3.857 25.083,3.177 L25.083,3.177 L20.734,0.6 C20.551,0.889 20.219,1.325 19.914,1.725" id="path-48"></path>
        <linearGradient x1="-0.00117195926%" y1="49.9988921%" x2="100.000747%" y2="49.9988921%" id="linearGradient-50">
            <stop stop-color="#FCCEAC" offset="0%"></stop>
            <stop stop-color="#F7A977" offset="100%"></stop>
        </linearGradient>
        <path d="M0.53,3.694 L2.891,5.04 C2.891,5.04 4.802,5.934 6.29,5.424 L6.29,5.424 L6.615,3.829 L4.395,1.188 L1.145,0.618 L0.53,3.694 Z" id="path-51"></path>
        <path d="M6.346,2.501 C3.23,5.203 0.662,9.098 0.662,9.098 L0.662,9.098 L7.154,14.246 C7.154,14.246 14.364,7.535 14.761,4.371 L14.761,4.371 C15.057,2.019 13.562,0.299 11.264,0.299 L11.264,0.299 C9.851,0.299 8.136,0.948 6.346,2.501" id="path-53"></path>
        <path d="M4.534,0.495 L3.111,0.758 C2.83,0.81 2.693,1.127 2.843,1.37 L2.843,1.37 C7.082,8.271 8.168,14.427 8.414,16.349 L8.414,16.349 C8.077,19.494 6.594,26.821 0.116,26.821 L0.116,26.821 C0.229,28.486 0.637,30.015 0.377,32.202 L0.377,32.202 C3.294,33.409 8.396,34.425 18.634,32.76 L18.634,32.76 C19.147,29.053 18.92,26.291 18.92,26.291 L18.92,26.291 C18.92,26.291 14.088,24.791 13.689,16.096 L13.689,16.096 C14.849,13.752 17.858,6.366 17.635,1.037 L17.635,1.037 C17.627,0.836 17.467,0.675 17.266,0.655 L17.266,0.655 L15.74,0.509 C15.496,0.485 15.291,0.684 15.301,0.93 L15.301,0.93 C15.517,6.456 12.898,12.351 11.706,14.94 L11.706,14.94 L10.547,14.94 C10.13,12.216 8.855,6.921 4.954,0.681 L4.954,0.681 C4.879,0.561 4.746,0.489 4.607,0.489 L4.607,0.489 C4.583,0.489 4.558,0.491 4.534,0.495" id="path-55"></path>
        <path d="M4.602,0.502 C1.203,1.301 -0.002,6.076 0.24,9.119 L0.24,9.119 C0.509,12.499 4.304,14.625 7.178,12.493 L7.178,12.493 C9.09,11.076 9.342,9.148 10.054,5.915 L10.054,5.915 C10.687,3.038 8.529,0.373 5.688,0.373999719 L5.688,0.373999719 C5.335,0.373999719 4.971,0.415 4.602,0.502" id="path-57"></path>
        <linearGradient x1="0.00428230055%" y1="49.9999096%" x2="99.998112%" y2="49.9999096%" id="linearGradient-59">
            <stop stop-color="#FCCEAC" offset="0%"></stop>
            <stop stop-color="#F7A977" offset="100%"></stop>
        </linearGradient>
        <path d="M0.687,3.549 C0.944,5.409 1.219,6.261 2.861,7.811 L2.861,7.811 C2.749,11.151 3.635,14.54 6.747,14.753 L6.747,14.753 C9.252,14.924 11.703,11.797 12.982,8.949 L12.982,8.949 C13.826,7.074 12.19,6.29 12.19,6.29 L12.19,6.29 C13.609,5.469 14.779,3.976 11.941,3.898 L11.941,3.898 C7.62,1.116 4.789,0.035 3.038,0.035 L3.038,0.035 C0.968,0.035 0.41,1.548 0.687,3.549" id="path-60"></path>
        <linearGradient x1="-0.00234054053%" y1="49.998946%" x2="99.9983261%" y2="49.998946%" id="linearGradient-62">
            <stop stop-color="#101519" offset="0%"></stop>
            <stop stop-color="#223137" offset="100%"></stop>
        </linearGradient>
        <path d="M0.079,6.139 L14.743,9.883 C15.777,5.833 13.333,1.713 9.284,0.679 L9.284,0.679 C8.655,0.518 8.026,0.441 7.406,0.441 L7.406,0.441 C4.03,0.442 0.953,2.717 0.079,6.139" id="path-63"></path>
        <linearGradient x1="0.00160323647%" y1="50.0016437%" x2="100.001505%" y2="50.0016437%" id="linearGradient-65">
            <stop stop-color="#FDC900" offset="0%"></stop>
            <stop stop-color="#FC9600" offset="100%"></stop>
        </linearGradient>
        <path d="M0.824,1.338 C0.733,1.691 0.947,2.052 1.302,2.143 L1.302,2.143 C3.133,2.61 4.686,3.699 5.675,5.208 L5.675,5.208 C6.651,6.7 6.958,8.424 6.539,10.065 L6.539,10.065 C6.449,10.419 6.663,10.78 7.017,10.87 L7.017,10.87 C7.073,10.885 7.128,10.891 7.182,10.891 L7.182,10.891 C7.478,10.891 7.747,10.692 7.823,10.392 L7.823,10.392 C8.335,8.387 7.965,6.288 6.783,4.483 L6.783,4.483 C5.613,2.696 3.782,1.409 1.63,0.859 L1.63,0.859 C1.575,0.845 1.52,0.838 1.467,0.838 L1.467,0.838 C1.171,0.838 0.901,1.037 0.824,1.338" id="path-66"></path>
        <path d="M0.512,1.484 C0.417,1.856 0.645,2.24 1.017,2.335 L1.017,2.335 L18.266,6.739 C18.639,6.834 19.022,6.606 19.117,6.234 L19.117,6.234 C19.213,5.86 18.986,5.477 18.612,5.382 L18.612,5.382 L1.364,0.978 C1.307,0.963 1.249,0.956 1.193,0.956 L1.193,0.956 C0.88,0.956 0.593,1.168 0.512,1.484" id="path-68"></path>
        <path d="M2.071,0.305 C1.167,0.716 0.879,2.182 0.966,3.064 L0.966,3.064 C1.061,4.044 1.803,4.567 2.556,3.792 L2.556,3.792 C3.057,3.276 3.486,2.476 3.567,1.613 L3.567,1.613 C3.642,0.817 3.202,0.19 2.562,0.19 L2.562,0.19 C2.408,0.19 2.243,0.226 2.071,0.305" id="path-70"></path>
        <linearGradient x1="-0.0215497451%" y1="50.0072341%" x2="100.019671%" y2="50.0072341%" id="linearGradient-72">
            <stop stop-color="#FCCEAC" offset="0%"></stop>
            <stop stop-color="#F7A977" offset="100%"></stop>
        </linearGradient>
        <path d="M0.138,0.313 C0.138,0.313 -0.247,24.051 2.737,33.358 L2.737,33.358 C7.462,48.099 21.727,60.04 21.727,60.04 L21.727,60.04 L26.828,56.359 C26.828,56.359 14.954,46.272 12.775,33.855 L12.775,33.855 C10.818,22.699 11.65,9.425 11.65,0.313 L11.65,0.313 L0.138,0.313 Z" id="path-73"></path>
        <path d="M5.81,0.313 C5.81,0.313 0.786,21.607 0.432,31.779 L0.432,31.779 C0.035,43.187 4.017,70.094 4.017,70.094 L4.017,70.094 L9.667,70.094 C9.667,70.094 10.363,42.977 10.614,32.587 L10.614,32.587 C10.888,21.259 17.536,0.313 17.536,0.313 L17.536,0.313 L5.81,0.313 Z" id="path-75"></path>
    </defs>
    <g id="Page-1-Copy-2" stroke="none" stroke-width="1" fill="none" fill-rule="evenodd">
        <g id="1-copy-9" transform="translate(-38.000000, -305.000000)">
            <g id="Group-202" transform="translate(38.000000, 304.000000)">
                <g id="Group-201">
                    <path d="M52.3323,168.5618 C86.6413,170.5098 142.2683,170.5098 176.5773,168.5618 C210.8873,166.6138 210.8873,163.4548 176.5773,161.5068 C142.2683,159.5588 86.6413,159.5588 52.3323,161.5068 C18.0223,163.4548 18.0223,166.6138 52.3323,168.5618" id="Fill-1" fill="#E8E8E8"></path>
                    <polygon id="Fill-3" fill="#E8E8E8" points="0 149.784 227.015 149.784 227.015 149.671 0 149.671"></polygon>
                    <polygon id="Fill-4" fill="#E8E8E8" points="23.449 155.228 49.679 155.228 49.679 155.114 23.449 155.114"></polygon>
                    <polygon id="Fill-5" fill="#E8E8E8" points="95.048 152.762 107 152.762 107 152.649 95.048 152.649"></polygon>
                    <polygon id="Fill-6" fill="#E8E8E8" points="111.363 152.705 134.645 152.705 134.645 152.592 111.363 152.592"></polygon>
                    <polygon id="Fill-7" fill="#E8E8E8" points="173.292 154.067 178.963 154.067 178.963 153.954 173.292 153.954"></polygon>
                    <polygon id="Fill-8" fill="#E8E8E8" points="131.093 154.067 153.715 154.067 153.715 153.954 131.093 153.954"></polygon>
                    <polygon id="Fill-9" fill="#E8E8E8" points="54.076 155.228 58.571 155.228 58.571 155.114 54.076 155.114"></polygon>
                    <polygon id="Fill-10" fill="#E8E8E8" points="182.671 154.067 202.309 154.067 202.309 153.954 182.671 153.954"></polygon>
                    <g id="Group-85" transform="translate(0.000000, 0.023000)">
                        <g id="Group-13" transform="translate(17.000000, 0.000000)">
                            <mask id="mask-2" fill="white">
                                <use xlink:href="#path-1"></use>
                            </mask>
                            <g id="Clip-12"></g>
                            <path d="M2.9387,1.0904 C1.5727,1.0904 0.4607,2.2024 0.4607,3.5684 L0.4607,126.8064 C0.4607,128.1734 1.5727,129.2844 2.9387,129.2844 L90.6117,129.2844 C91.9777,129.2844 93.0887,128.1734 93.0887,126.8064 L93.0887,3.5684 C93.0887,2.2024 91.9777,1.0904 90.6117,1.0904 L2.9387,1.0904 Z M90.6117,129.3984 L2.9387,129.3984 C1.5097,129.3984 0.3467,128.2354 0.3467,126.8064 L0.3467,3.5684 C0.3467,2.1394 1.5097,0.9764 2.9387,0.9764 L90.6117,0.9764 C92.0397,0.9764 93.2027,2.1394 93.2027,3.5684 L93.2027,126.8064 C93.2027,128.2354 92.0397,129.3984 90.6117,129.3984 L90.6117,129.3984 Z" id="Fill-11" fill="#E8E8E8" mask="url(#mask-2)"></path>
                        </g>
                        <g id="Group-16" transform="translate(115.000000, 0.000000)">
                            <mask id="mask-4" fill="white">
                                <use xlink:href="#path-3"></use>
                            </mask>
                            <g id="Clip-15"></g>
                            <path d="M3.144,1.0904 C1.778,1.0904 0.666,2.2024 0.666,3.5684 L0.666,126.8064 C0.666,128.1734 1.778,129.2844 3.144,129.2844 L90.817,129.2844 C92.183,129.2844 93.295,128.1734 93.295,126.8064 L93.295,3.5684 C93.295,2.2024 92.183,1.0904 90.817,1.0904 L3.144,1.0904 Z M90.817,129.3984 L3.144,129.3984 C1.715,129.3984 0.553,128.2354 0.553,126.8064 L0.553,3.5684 C0.553,2.1394 1.715,0.9764 3.144,0.9764 L90.817,0.9764 C92.246,0.9764 93.408,2.1394 93.408,3.5684 L93.408,126.8064 C93.408,128.2354 92.246,129.3984 90.817,129.3984 L90.817,129.3984 Z" id="Fill-14" fill="#E8E8E8" mask="url(#mask-4)"></path>
                        </g>
                        <path d="M34.7857,38.1446 C32.8057,33.8666 34.3777,30.8216 39.2167,30.8216 C42.2507,30.8216 46.0137,32.0206 49.6777,33.9716 C50.0917,32.8596 51.2577,32.1926 53.1327,32.1926 C56.4337,32.1926 60.9837,34.2526 64.5527,37.1596 C65.4167,36.5116 66.6657,36.1146 68.2727,36.0506 C71.4307,35.9196 75.2577,37.1036 78.5837,39.0286 C78.8717,38.7066 79.3657,38.5046 80.0477,38.4746 C81.8687,38.3996 84.3327,39.5946 85.5567,41.1406 C85.6327,41.2386 85.7007,41.3316 85.7677,41.4256 L81.9867,41.4256 L78.9787,41.4256 L68.5287,41.4256 L63.3857,41.4256 L59.3877,41.4256 L53.2287,41.4256 L52.1107,41.4256 L36.8327,41.4256 L33.8247,41.4256 C33.6697,40.0776 33.9927,38.9496 34.7857,38.1446" id="Fill-17" fill="#F1F6FF"></path>
                        <path d="M93.6758,17.8058 C93.8338,17.7888 93.9948,17.7798 94.1578,17.7798 C94.0078,16.1098 94.8738,15.0438 96.7218,15.0438 C98.0558,15.0438 99.6928,15.5998 101.3608,16.5428 C100.8838,13.3008 102.4118,11.1928 105.8728,11.1928 C108.6658,11.1928 112.1998,12.5638 115.6918,14.7988 C115.9978,13.5278 117.0258,12.7648 118.7548,12.7648 C121.7908,12.7648 126.1058,15.1208 129.5648,18.4438 C129.5648,18.4438 129.5658,18.4478 129.5688,18.4438 C130.3168,17.7028 131.4398,17.2448 132.9158,17.1718 C135.8068,17.0218 139.3968,18.3758 142.5798,20.5808 C142.8218,20.2088 143.2628,19.9768 143.8938,19.9468 C145.4748,19.8658 147.6538,21.0818 148.9188,22.7098 L145.2308,22.7098 L142.7298,22.7098 L133.1148,22.7098 L128.6108,22.7098 L124.6008,22.7098 L118.9058,22.7098 L108.1448,22.7098 L103.9498,22.7098 L102.4578,22.7098 L96.4878,22.7098 L91.1308,22.7098 C89.7738,20.2428 90.8548,18.0838 93.6758,17.8058" id="Fill-19" fill="#F1F6FF"></path>
                        <path d="M171.1613,10.7173 C169.8913,7.9723 170.8993,6.0183 174.0043,6.0183 C175.9513,6.0183 178.3663,6.7873 180.7173,8.0403 C180.9823,7.3263 181.7303,6.8983 182.9343,6.8983 C185.0523,6.8983 187.9713,8.2203 190.2623,10.0853 C190.8163,9.6693 191.6183,9.4143 192.6493,9.3733 C194.6763,9.2893 197.1313,10.0493 199.2653,11.2843 C199.4503,11.0783 199.7673,10.9483 200.2053,10.9283 C201.3733,10.8803 202.9543,11.6473 203.7393,12.6403 C203.7883,12.7023 203.8323,12.7623 203.8753,12.8223 L201.4493,12.8223 L199.5193,12.8223 L192.8133,12.8223 L189.5133,12.8223 L186.9473,12.8223 L182.9953,12.8223 L182.2783,12.8223 L172.4753,12.8223 L169.5843,12.8223 C168.5003,11.8493 169.6983,10.7663 171.1613,10.7173" id="Fill-21" fill="#F1F6FF"></path>
                        <mask id="mask-6" fill="white">
                            <use xlink:href="#path-5"></use>
                        </mask>
                        <g id="Clip-24"></g>
                        <polygon id="Fill-23" fill="#E8E8E8" mask="url(#mask-6)" points="40.476 149.647 55.939 149.647 55.939 100.213 40.476 100.213"></polygon>
                        <polygon id="Fill-25" fill="#F5F5F5" mask="url(#mask-6)" points="50.885 149.648 76.244 149.648 76.244 83.009 50.885 83.009"></polygon>
                        <polygon id="Fill-26" fill="#E8E8E8" mask="url(#mask-6)" points="76.245 149.648 89.406 149.648 89.406 83.009 76.245 83.009"></polygon>
                        <polygon id="Fill-27" fill="#F1F6FF" mask="url(#mask-6)" points="54.297 83.009 76.244 83.009 76.244 76.386 54.297 76.386"></polygon>
                        <polygon id="Fill-28" fill="#E0ECFD" mask="url(#mask-6)" points="54.297 83.009 76.244 83.009 76.244 81.522 54.297 81.522"></polygon>
                        <polygon id="Fill-29" fill="#E0ECFD" mask="url(#mask-6)" points="76.245 83.009 85.994 83.009 85.994 76.386 76.245 76.386"></polygon>
                        <polygon id="Fill-30" fill="#F5F5F5" mask="url(#mask-6)" points="57.71 76.385 76.245 76.385 76.245 69.762 57.71 69.762"></polygon>
                        <polygon id="Fill-31" fill="#E0ECFD" mask="url(#mask-6)" points="57.71 76.385 76.245 76.385 76.245 74.898 57.71 74.898"></polygon>
                        <polygon id="Fill-32" fill="#E8E8E8" mask="url(#mask-6)" points="76.244 76.385 82.581 76.385 82.581 69.762 76.244 69.762"></polygon>
                        <polygon id="Fill-33" fill="#E8E8E8" mask="url(#mask-6)" points="69.53 69.762 70.761 69.762 70.761 60.506 69.53 60.506"></polygon>
                        <polygon id="Fill-34" fill="#F5F5F5" mask="url(#mask-6)" points="85.204 149.647 103.723 149.647 103.723 94.596 85.204 94.596"></polygon>
                        <polygon id="Fill-35" fill="#E8E8E8" mask="url(#mask-6)" points="103.723 149.647 113.334 149.647 113.334 94.596 103.723 94.596"></polygon>
                        <polygon id="Fill-36" fill="#F5F5F5" mask="url(#mask-6)" points="108.5286 110.3249 122.5726 122.3629 122.5726 149.6469 108.5286 149.6469"></polygon>
                        <polygon id="Fill-37" fill="#E8E8E8" mask="url(#mask-6)" points="122.573 149.647 129.861 149.647 129.861 122.363 122.573 122.363"></polygon>
                        <polygon id="Fill-38" fill="#F5F5F5" mask="url(#mask-6)" points="129.8606 122.3626 122.5726 122.3626 108.5286 110.3246 115.8166 110.3246"></polygon>
                        <path d="M195.6754,149.647 C195.6754,149.647 196.0084,146.371 199.6284,144.684 C198.1444,147.059 198.4674,149.647 198.4674,149.647 L195.6754,149.647 Z" id="Fill-39" fill="#E0ECFD" mask="url(#mask-6)"></path>
                        <path d="M64.7113,149.647 C64.7113,149.647 64.3783,146.371 60.7583,144.684 C62.2423,147.059 61.9193,149.647 61.9193,149.647 L64.7113,149.647 Z" id="Fill-40" fill="#E0ECFD" mask="url(#mask-6)"></path>
                        <path d="M32.2866,149.647 C32.2866,149.647 32.0636,143.835 29.6336,142.149 C30.6296,144.524 30.4126,149.647 30.4126,149.647 L32.2866,149.647 Z" id="Fill-41" fill="#E0ECFD" mask="url(#mask-6)"></path>
                        <path d="M31.3741,149.647 C31.3741,149.647 31.5971,146.31 34.0271,145.342 C33.0311,146.706 33.2481,149.647 33.2481,149.647 L31.3741,149.647 Z" id="Fill-42" fill="#E0ECFD" mask="url(#mask-6)"></path>
                        <path d="M66.7908,149.647 C66.7908,149.647 66.5488,144.145 62.1418,142.149 C64.1118,144.971 63.9988,149.647 63.9988,149.647 L66.7908,149.647 Z" id="Fill-43" fill="#E0ECFD" mask="url(#mask-6)"></path>
                        <path d="M164.712,141.31 L174.935,141.31 L174.935,131.087 L164.712,131.087 L164.712,141.31 Z M175.389,142.218 L164.258,142.218 C164.007,142.218 163.804,142.015 163.804,141.764 L163.804,130.633 C163.804,130.382 164.007,130.179 164.258,130.179 L175.389,130.179 C175.64,130.179 175.843,130.382 175.843,130.633 L175.843,141.764 C175.843,142.015 175.64,142.218 175.389,142.218 L175.389,142.218 Z" id="Fill-44" fill="#E8E8E8" mask="url(#mask-6)"></path>
                        <path d="M164.712,130.179 L174.935,130.179 L174.935,119.956 L164.712,119.956 L164.712,130.179 Z M175.389,131.087 L164.258,131.087 C164.007,131.087 163.804,130.884 163.804,130.633 L163.804,119.501 C163.804,119.251 164.007,119.047 164.258,119.047 L175.389,119.047 C175.64,119.047 175.843,119.251 175.843,119.501 L175.843,130.633 C175.843,130.884 175.64,131.087 175.389,131.087 L175.389,131.087 Z" id="Fill-45" fill="#E8E8E8" mask="url(#mask-6)"></path>
                        <path d="M175.3894,142.2181 C175.2734,142.2181 175.1574,142.1741 175.0684,142.0851 L163.9374,130.9541 C163.7594,130.7761 163.7594,130.4891 163.9374,130.3121 C164.1144,130.1341 164.4014,130.1341 164.5794,130.3121 L175.7104,141.4431 C175.8874,141.6201 175.8874,141.9081 175.7104,142.0851 C175.6214,142.1741 175.5054,142.2181 175.3894,142.2181" id="Fill-46" fill="#E8E8E8" mask="url(#mask-6)"></path>
                        <path d="M175.3894,131.0868 C175.2734,131.0868 175.1574,131.0428 175.0684,130.9538 L163.9374,119.8228 C163.7594,119.6448 163.7594,119.3578 163.9374,119.1808 C164.1144,119.0028 164.4014,119.0028 164.5794,119.1808 L175.7104,130.3118 C175.8874,130.4888 175.8874,130.7768 175.7104,130.9538 C175.6214,131.0428 175.5054,131.0868 175.3894,131.0868" id="Fill-47" fill="#E8E8E8" mask="url(#mask-6)"></path>
                        <path d="M164.712,119.047 L174.935,119.047 L174.935,108.824 L164.712,108.824 L164.712,119.047 Z M175.389,119.956 L164.258,119.956 C164.007,119.956 163.804,119.752 163.804,119.501 L163.804,108.371 C163.804,108.12 164.007,107.917 164.258,107.917 L175.389,107.917 C175.64,107.917 175.843,108.12 175.843,108.371 L175.843,119.501 C175.843,119.752 175.64,119.956 175.389,119.956 L175.389,119.956 Z" id="Fill-48" fill="#E8E8E8" mask="url(#mask-6)"></path>
                        <path d="M164.712,107.917 L174.935,107.917 L174.935,97.694 L164.712,97.694 L164.712,107.917 Z M175.389,108.825 L164.258,108.825 C164.007,108.825 163.804,108.622 163.804,108.371 L163.804,97.239 C163.804,96.988 164.007,96.785 164.258,96.785 L175.389,96.785 C175.64,96.785 175.843,96.988 175.843,97.239 L175.843,108.371 C175.843,108.622 175.64,108.825 175.389,108.825 L175.389,108.825 Z" id="Fill-49" fill="#E8E8E8" mask="url(#mask-6)"></path>
                        <path d="M175.3894,119.9555 C175.2734,119.9555 175.1574,119.9115 175.0684,119.8225 L163.9374,108.6915 C163.7594,108.5145 163.7594,108.2265 163.9374,108.0495 C164.1144,107.8725 164.4014,107.8725 164.5794,108.0495 L175.7104,119.1805 C175.8874,119.3575 175.8874,119.6455 175.7104,119.8225 C175.6214,119.9115 175.5054,119.9555 175.3894,119.9555" id="Fill-50" fill="#E8E8E8" mask="url(#mask-6)"></path>
                        <path d="M175.3894,108.8247 C175.2734,108.8247 175.1574,108.7807 175.0684,108.6917 L163.9374,97.5607 C163.7594,97.3827 163.7594,97.0957 163.9374,96.9187 C164.1144,96.7407 164.4014,96.7407 164.5794,96.9187 L175.7104,108.0497 C175.8874,108.2267 175.8874,108.5147 175.7104,108.6917 C175.6214,108.7807 175.5054,108.8247 175.3894,108.8247" id="Fill-51" fill="#E8E8E8" mask="url(#mask-6)"></path>
                        <path d="M164.712,96.785 L174.935,96.785 L174.935,86.562 L164.712,86.562 L164.712,96.785 Z M175.389,97.693 L164.258,97.693 C164.007,97.693 163.804,97.49 163.804,97.239 L163.804,86.108 C163.804,85.858 164.007,85.654 164.258,85.654 L175.389,85.654 C175.64,85.654 175.843,85.858 175.843,86.108 L175.843,97.239 C175.843,97.49 175.64,97.693 175.389,97.693 L175.389,97.693 Z" id="Fill-52" fill="#E8E8E8" mask="url(#mask-6)"></path>
                        <path d="M164.712,85.654 L174.935,85.654 L174.935,75.431 L164.712,75.431 L164.712,85.654 Z M175.389,86.562 L164.258,86.562 C164.007,86.562 163.804,86.359 163.804,86.108 L163.804,74.977 C163.804,74.726 164.007,74.523 164.258,74.523 L175.389,74.523 C175.64,74.523 175.843,74.726 175.843,74.977 L175.843,86.108 C175.843,86.359 175.64,86.562 175.389,86.562 L175.389,86.562 Z" id="Fill-53" fill="#E8E8E8" mask="url(#mask-6)"></path>
                        <path d="M175.3894,97.6934 C175.2734,97.6934 175.1574,97.6494 175.0684,97.5604 L163.9374,86.4294 C163.7594,86.2524 163.7594,85.9644 163.9374,85.7874 C164.1144,85.6104 164.4014,85.6104 164.5794,85.7874 L175.7104,96.9184 C175.8874,97.0954 175.8874,97.3834 175.7104,97.5604 C175.6214,97.6494 175.5054,97.6934 175.3894,97.6934" id="Fill-54" fill="#E8E8E8" mask="url(#mask-6)"></path>
                        <path d="M153.581,48.468 L163.804,48.468 L163.804,38.245 L153.581,38.245 L153.581,48.468 Z M164.258,49.376 L153.127,49.376 C152.876,49.376 152.673,49.173 152.673,48.922 L152.673,37.791 C152.673,37.54 152.876,37.337 153.127,37.337 L164.258,37.337 C164.509,37.337 164.712,37.54 164.712,37.791 L164.712,48.922 C164.712,49.173 164.509,49.376 164.258,49.376 L164.258,49.376 Z" id="Fill-55" fill="#E8E8E8" mask="url(#mask-6)"></path>
                        <path d="M175.3894,49.3763 L164.2584,49.3763 C164.0074,49.3763 163.8044,49.1733 163.8044,48.9223 C163.8044,48.6713 164.0074,48.4683 164.2584,48.4683 L174.9354,48.4683 L174.9354,26.6603 C174.9354,26.4093 175.1384,26.2063 175.3894,26.2063 C175.6404,26.2063 175.8434,26.4093 175.8434,26.6603 L175.8434,48.9223 C175.8434,49.1733 175.6404,49.3763 175.3894,49.3763" id="Fill-56" fill="#E8E8E8" mask="url(#mask-6)"></path>
                        <path d="M164.2577,49.3763 C164.1897,49.3763 164.1207,49.3613 164.0547,49.3283 C163.8307,49.2163 163.7397,48.9433 163.8517,48.7193 L174.9837,26.4573 C175.0957,26.2323 175.3677,26.1423 175.5927,26.2543 C175.8167,26.3663 175.9077,26.6393 175.7957,26.8633 L164.6647,49.1253 C164.5847,49.2843 164.4247,49.3763 164.2577,49.3763" id="Fill-57" fill="#E8E8E8" mask="url(#mask-6)"></path>
                        <path d="M142.45,48.468 L152.673,48.468 L152.673,38.245 L142.45,38.245 L142.45,48.468 Z M153.127,49.376 L141.996,49.376 C141.745,49.376 141.542,49.173 141.542,48.922 L141.542,37.791 C141.542,37.54 141.745,37.337 141.996,37.337 L153.127,37.337 C153.378,37.337 153.581,37.54 153.581,37.791 L153.581,48.922 C153.581,49.173 153.378,49.376 153.127,49.376 L153.127,49.376 Z" id="Fill-58" fill="#E8E8E8" mask="url(#mask-6)"></path>
                        <path d="M153.1273,49.3763 C153.0113,49.3763 152.8953,49.3323 152.8063,49.2433 C152.6293,49.0663 152.6293,48.7783 152.8063,48.6013 L163.9373,37.4703 C164.1143,37.2933 164.4013,37.2933 164.5793,37.4703 C164.7563,37.6473 164.7563,37.9353 164.5793,38.1123 L153.4483,49.2433 C153.3593,49.3323 153.2433,49.3763 153.1273,49.3763" id="Fill-59" fill="#E8E8E8" mask="url(#mask-6)"></path>
                        <path d="M175.843,48.468 L186.066,48.468 L186.066,38.245 L175.843,38.245 L175.843,48.468 Z M186.521,49.376 L175.389,49.376 C175.138,49.376 174.935,49.173 174.935,48.922 L174.935,37.791 C174.935,37.54 175.138,37.337 175.389,37.337 L186.521,37.337 C186.772,37.337 186.975,37.54 186.975,37.791 L186.975,48.922 C186.975,49.173 186.772,49.376 186.521,49.376 L186.521,49.376 Z" id="Fill-60" fill="#E8E8E8" mask="url(#mask-6)"></path>
                        <path d="M175.3894,49.3763 C175.2734,49.3763 175.1574,49.3323 175.0684,49.2433 C174.8914,49.0663 174.8914,48.7783 175.0684,48.6013 L186.1994,37.4703 C186.3774,37.2933 186.6644,37.2933 186.8414,37.4703 C187.0194,37.6473 187.0194,37.9353 186.8414,38.1123 L175.7104,49.2433 C175.6214,49.3323 175.5054,49.3763 175.3894,49.3763" id="Fill-61" fill="#E8E8E8" mask="url(#mask-6)"></path>
                        <path d="M108.6027,49.3763 C108.4867,49.3763 108.3707,49.3323 108.2817,49.2433 C108.1047,49.0663 108.1047,48.7783 108.2817,48.6013 L119.4127,37.4703 C119.4767,37.4073 119.5567,37.3633 119.6447,37.3463 L175.3007,26.2153 C175.4497,26.1853 175.6027,26.2323 175.7107,26.3393 L197.9727,48.6013 C198.1497,48.7783 198.1497,49.0663 197.9727,49.2433 C197.7947,49.4203 197.5077,49.4203 197.3307,49.2433 L175.2397,27.1533 L119.9577,38.2093 L108.9237,49.2433 C108.8347,49.3323 108.7187,49.3763 108.6027,49.3763" id="Fill-62" fill="#E8E8E8" mask="url(#mask-6)"></path>
                        <path d="M141.9961,49.3763 C141.8801,49.3763 141.7641,49.3323 141.6751,49.2433 C141.4981,49.0663 141.4981,48.7783 141.6751,48.6013 L152.8061,37.4703 C152.9841,37.2933 153.2711,37.2933 153.4481,37.4703 C153.6261,37.6473 153.6261,37.9353 153.4481,38.1123 L142.3171,49.2433 C142.2281,49.3323 142.1121,49.3763 141.9961,49.3763" id="Fill-63" fill="#E8E8E8" mask="url(#mask-6)"></path>
                        <path d="M131.319,48.468 L141.542,48.468 L141.542,38.245 L131.319,38.245 L131.319,48.468 Z M141.996,49.376 L130.865,49.376 C130.614,49.376 130.411,49.173 130.411,48.922 L130.411,37.791 C130.411,37.54 130.614,37.337 130.865,37.337 L141.996,37.337 C142.247,37.337 142.45,37.54 142.45,37.791 L142.45,48.922 C142.45,49.173 142.247,49.376 141.996,49.376 L141.996,49.376 Z" id="Fill-64" fill="#E8E8E8" mask="url(#mask-6)"></path>
                        <path d="M120.188,48.468 L130.411,48.468 L130.411,38.245 L120.188,38.245 L120.188,48.468 Z M130.865,49.376 L119.734,49.376 C119.483,49.376 119.28,49.173 119.28,48.922 L119.28,37.791 C119.28,37.54 119.483,37.337 119.734,37.337 L130.865,37.337 C131.116,37.337 131.319,37.54 131.319,37.791 L131.319,48.922 C131.319,49.173 131.116,49.376 130.865,49.376 L130.865,49.376 Z" id="Fill-65" fill="#E8E8E8" mask="url(#mask-6)"></path>
                        <path d="M130.8648,49.3763 C130.7488,49.3763 130.6328,49.3323 130.5438,49.2433 C130.3668,49.0663 130.3668,48.7783 130.5438,48.6013 L141.6748,37.4703 C141.8528,37.2933 142.1398,37.2933 142.3168,37.4703 C142.4948,37.6473 142.4948,37.9353 142.3168,38.1123 L131.1858,49.2433 C131.0968,49.3323 130.9808,49.3763 130.8648,49.3763" id="Fill-66" fill="#E8E8E8" mask="url(#mask-6)"></path>
                        <path d="M119.734,49.3763 C119.618,49.3763 119.502,49.3323 119.413,49.2433 C119.236,49.0663 119.236,48.7783 119.413,48.6013 L130.544,37.4703 C130.721,37.2933 131.008,37.2933 131.186,37.4703 C131.363,37.6473 131.363,37.9353 131.186,38.1123 L120.055,49.2433 C119.966,49.3323 119.85,49.3763 119.734,49.3763" id="Fill-67" fill="#E8E8E8" mask="url(#mask-6)"></path>
                        <path d="M119.734,49.3763 L108.603,49.3763 C108.352,49.3763 108.149,49.1733 108.149,48.9223 C108.149,48.6713 108.352,48.4683 108.603,48.4683 L119.28,48.4683 L119.28,37.7913 C119.28,37.5403 119.483,37.3373 119.734,37.3373 C119.985,37.3373 120.188,37.5403 120.188,37.7913 L120.188,48.9223 C120.188,49.1733 119.985,49.3763 119.734,49.3763" id="Fill-68" fill="#E8E8E8" mask="url(#mask-6)"></path>
                        <path d="M175.3894,86.5624 C175.2734,86.5624 175.1574,86.5184 175.0684,86.4294 L163.9374,75.2984 C163.7594,75.1204 163.7594,74.8334 163.9374,74.6564 C164.1144,74.4784 164.4014,74.4784 164.5794,74.6564 L175.7104,85.7874 C175.8874,85.9644 175.8874,86.2524 175.7104,86.4294 C175.6214,86.5184 175.5054,86.5624 175.3894,86.5624" id="Fill-69" fill="#E8E8E8" mask="url(#mask-6)"></path>
                        <path d="M164.712,74.523 L174.935,74.523 L174.935,64.3 L164.712,64.3 L164.712,74.523 Z M175.389,75.431 L164.258,75.431 C164.007,75.431 163.804,75.228 163.804,74.977 L163.804,63.846 C163.804,63.595 164.007,63.392 164.258,63.392 L175.389,63.392 C175.64,63.392 175.843,63.595 175.843,63.846 L175.843,74.977 C175.843,75.228 175.64,75.431 175.389,75.431 L175.389,75.431 Z" id="Fill-70" fill="#E8E8E8" mask="url(#mask-6)"></path>
                        <path d="M164.712,63.392 L174.935,63.392 L174.935,53.169 L164.712,53.169 L164.712,63.392 Z M175.389,64.3 L164.258,64.3 C164.007,64.3 163.804,64.097 163.804,63.846 L163.804,52.715 C163.804,52.464 164.007,52.261 164.258,52.261 L175.389,52.261 C175.64,52.261 175.843,52.464 175.843,52.715 L175.843,63.846 C175.843,64.097 175.64,64.3 175.389,64.3 L175.389,64.3 Z" id="Fill-71" fill="#E8E8E8" mask="url(#mask-6)"></path>
                        <path d="M175.3894,75.4311 C175.2734,75.4311 175.1574,75.3871 175.0684,75.2981 L163.9374,64.1671 C163.7594,63.9901 163.7594,63.7021 163.9374,63.5251 C164.1144,63.3481 164.4014,63.3481 164.5794,63.5251 L175.7104,74.6561 C175.8874,74.8331 175.8874,75.1211 175.7104,75.2981 C175.6214,75.3871 175.5054,75.4311 175.3894,75.4311" id="Fill-72" fill="#E8E8E8" mask="url(#mask-6)"></path>
                        <path d="M175.3894,64.3001 C175.2734,64.3001 175.1574,64.2561 175.0684,64.1671 L163.9374,53.0361 C163.7594,52.8591 163.7594,52.5711 163.9374,52.3941 C164.1144,52.2171 164.4014,52.2171 164.5794,52.3941 L175.7104,63.5251 C175.8874,63.7021 175.8874,63.9901 175.7104,64.1671 C175.6214,64.2561 175.5054,64.3001 175.3894,64.3001" id="Fill-73" fill="#E8E8E8" mask="url(#mask-6)"></path>
                        <polygon id="Fill-74" fill="#E8E8E8" mask="url(#mask-6)" points="197.6516 48.9224 108.6026 48.9224 119.7336 52.7154 197.6516 52.7154"></polygon>
                        <path d="M119.8094,52.261 L197.1974,52.261 L197.1974,49.376 L111.3434,49.376 L119.8094,52.261 Z M197.6514,53.169 L119.7344,53.169 C119.6844,53.169 119.6344,53.161 119.5874,53.145 L108.4564,49.352 C108.2464,49.28 108.1184,49.067 108.1554,48.848 C108.1914,48.629 108.3804,48.468 108.6024,48.468 L197.6514,48.468 C197.9024,48.468 198.1054,48.672 198.1054,48.922 L198.1054,52.715 C198.1054,52.966 197.9024,53.169 197.6514,53.169 L197.6514,53.169 Z" id="Fill-75" fill="#E8E8E8" mask="url(#mask-6)"></path>
                        <polygon id="Fill-76" fill="#E8E8E8" mask="url(#mask-6)" points="156.017 68.333 164.258 68.333 164.258 50.819 156.017 50.819"></polygon>
                        <polygon id="Fill-77" fill="#F5F5F5" mask="url(#mask-6)" points="152.183 68.333 156.017 68.333 156.017 50.819 152.183 50.819"></polygon>
                        <polygon id="Fill-78" fill="#E8E8E8" mask="url(#mask-6)" points="165.485 149.647 181.713 149.647 181.713 141.764 165.485 141.764"></polygon>
                        <polygon id="Fill-79" fill="#F9F9F9" mask="url(#mask-6)" points="157.934 149.647 165.484 149.647 165.484 141.764 157.934 141.764"></polygon>
                        <path d="M186.5207,68.4841 C186.2697,68.4841 186.0667,68.2811 186.0667,68.0301 L186.0667,50.8191 C186.0667,50.5681 186.2697,50.3641 186.5207,50.3641 C186.7717,50.3641 186.9747,50.5681 186.9747,50.8191 L186.9747,68.0301 C186.9747,68.2811 186.7717,68.4841 186.5207,68.4841" id="Fill-80" fill="#E8E8E8" mask="url(#mask-6)"></path>
                        <path d="M186.5207,68.4841 C186.1957,68.4841 185.9307,68.7491 185.9307,69.0741 C185.9307,69.4001 186.1957,69.6641 186.5207,69.6641 C186.8457,69.6641 187.1107,69.4001 187.1107,69.0741 C187.1107,68.7491 186.8457,68.4841 186.5207,68.4841 M186.5207,70.5721 C185.6947,70.5721 185.0227,69.9001 185.0227,69.0741 C185.0227,68.2481 185.6947,67.5761 186.5207,67.5761 C187.3467,67.5761 188.0187,68.2481 188.0187,69.0741 C188.0187,69.9001 187.3467,70.5721 186.5207,70.5721" id="Fill-81" fill="#E8E8E8" mask="url(#mask-6)"></path>
                        <path d="M121.1329,77.5195 C120.8819,77.5195 120.6789,77.3165 120.6789,77.0655 L120.6789,50.8185 C120.6789,50.5675 120.8819,50.3645 121.1329,50.3645 C121.3839,50.3645 121.5869,50.5675 121.5869,50.8185 L121.5869,77.0655 C121.5869,77.3165 121.3839,77.5195 121.1329,77.5195" id="Fill-82" fill="#E8E8E8" mask="url(#mask-6)"></path>
                        <path d="M125.3947,80.2386 C125.1717,80.2386 124.9857,80.0776 124.9477,79.8646 C124.6157,79.3346 121.6587,77.5876 121.1167,77.5186 C120.6067,77.5876 117.6507,79.3346 117.3177,79.8646 C117.2807,80.0776 117.0947,80.2386 116.8707,80.2386 C116.6197,80.2386 116.4167,80.0356 116.4167,79.7846 C116.4167,78.7646 120.5377,76.6116 121.1327,76.6116 C121.7287,76.6116 125.8487,78.7646 125.8487,79.7846 C125.8487,80.0356 125.6457,80.2386 125.3947,80.2386" id="Fill-83" fill="#CFE1FD" mask="url(#mask-6)"></path>
                        <path d="M126.09,102.1948 C123.351,104.9338 118.913,104.9338 116.175,102.1968 C113.438,99.4588 113.438,95.0218 116.177,92.2818 C118.915,89.5448 123.353,89.5448 126.09,92.2818 C128.827,95.0198 128.827,99.4578 126.09,102.1948 L126.09,102.1948 Z M130.289,113.0558 L136.949,106.3958 L135.53,103.6858 C135.53,103.6848 135.53,103.6848 135.53,103.6848 C135.653,103.4128 135.766,103.1398 135.872,102.8618 L135.873,102.8618 L138.791,101.9488 L138.791,92.5298 L135.871,91.6168 L135.871,91.6168 C135.765,91.3388 135.653,91.0648 135.53,90.7928 L136.949,88.0828 L130.289,81.4228 L127.58,82.8418 L127.58,82.8418 C127.308,82.7188 127.033,82.6068 126.755,82.5008 L125.842,79.5808 L116.424,79.5808 L115.511,82.5008 C115.232,82.6058 114.959,82.7188 114.687,82.8418 L114.687,82.8418 L111.977,81.4228 L105.317,88.0828 L106.736,90.7938 C106.613,91.0648 106.5,91.3398 106.395,91.6168 L103.475,92.5298 L103.475,101.9488 L106.394,102.8618 L106.394,102.8618 C106.5,103.1398 106.612,103.4138 106.735,103.6868 L106.735,103.6868 L105.317,106.3958 L111.977,113.0558 L114.686,111.6368 C114.958,111.7598 115.232,111.8718 115.51,111.9778 L115.511,111.9778 L116.424,114.8978 L125.842,114.8978 L126.755,111.9768 C127.032,111.8718 127.307,111.7588 127.578,111.6358 L130.289,113.0558 Z" id="Fill-84" fill="#DBDBDB" mask="url(#mask-6)"></path>
                    </g>
                    <g id="Group-88" transform="translate(70.000000, 50.023000)">
                        <mask id="mask-8" fill="white">
                            <use xlink:href="#path-7"></use>
                        </mask>
                        <g id="Clip-87"></g>
                        <path d="M5.219,0.099 C4.057,0.099 2.982,0.719 2.4,1.727 L2.4,1.727 L0.593,4.858 C0.012,5.865 0.012,7.105 0.593,8.112 L0.593,8.112 L2.4,11.243 C2.982,12.249 4.057,12.869 5.219,12.869 L5.219,12.869 L8.835,12.869 C9.997,12.869 11.071,12.249 11.652,11.243 L11.652,11.243 L13.461,8.112 C14.041,7.105 14.041,5.865 13.461,4.858 L13.461,4.858 L11.652,1.727 C11.071,0.719 9.997,0.099 8.835,0.099 L8.835,0.099 L5.219,0.099 Z" id="Fill-86" fill="url(#linearGradient-9)" mask="url(#mask-8)"></path>
                    </g>
                    <g id="Group-91" transform="translate(38.000000, 17.023000)">
                        <mask id="mask-11" fill="white">
                            <use xlink:href="#path-10"></use>
                        </mask>
                        <g id="Clip-90"></g>
                        <path d="M28.753,0.959 L26.761,7.327 C26.761,7.327 26.761,7.327 26.76,7.327 L26.76,7.327 C26.151,7.557 25.555,7.808 24.963,8.074 L24.963,8.074 L19.051,4.978 L4.521,19.508 L7.617,25.421 C7.347,26.013 7.101,26.608 6.871,27.217 L6.871,27.217 C6.871,27.218 6.87,27.218 6.87,27.219 L6.87,27.219 L0.501,29.21 L0.501,49.759 L6.872,51.751 C7.101,52.358 7.352,52.958 7.617,53.548 L7.617,53.548 L4.521,59.461 L19.051,73.992 L24.962,70.896 L24.963,70.896 C25.555,71.161 26.151,71.413 26.76,71.643 L26.76,71.643 L26.761,71.643 L28.753,78.01 L49.302,78.01 L51.293,71.643 C51.902,71.413 52.499,71.161 53.09,70.896 L53.09,70.896 C53.09,70.896 53.091,70.896 53.092,70.896 L53.092,70.896 L59.004,73.992 L73.534,59.461 L70.437,53.547 C70.701,52.957 70.952,52.358 71.181,51.751 L71.181,51.751 L77.553,49.759 L77.553,29.21 L71.183,27.219 L71.182,27.217 C70.952,26.608 70.705,26.011 70.44,25.42 L70.44,25.42 L70.439,25.418 L73.534,19.508 L59.004,4.978 L53.091,8.074 L53.09,8.074 C52.499,7.808 51.902,7.557 51.293,7.328 L51.293,7.328 L49.302,0.959 L28.753,0.959 Z M23.734,39.482 C23.734,31.036 30.58,24.189 39.027,24.189 L39.027,24.189 C47.473,24.189 54.319,31.036 54.319,39.482 L54.319,39.482 C54.319,47.934 47.473,54.78 39.027,54.78 L39.027,54.78 C30.58,54.78 23.734,47.934 23.734,39.482 L23.734,39.482 Z" id="Fill-89" fill="url(#linearGradient-12)" mask="url(#mask-11)"></path>
                    </g>
                    <path d="M105.7211,32.7578 C105.6921,32.7578 105.6631,32.7468 105.6411,32.7248 L96.7271,23.8108 L91.1891,26.7108 C91.1591,26.7268 91.1221,26.7278 91.0901,26.7138 L90.4871,26.4438 C89.8651,26.1648 89.3041,25.9318 88.7721,25.7318 L88.1511,25.4978 C88.1181,25.4848 88.0931,25.4588 88.0821,25.4248 L86.2171,19.4578 L67.8371,19.4578 L66.2311,24.5948 C66.2121,24.6538 66.1501,24.6878 66.0891,24.6688 C66.0291,24.6498 65.9961,24.5868 66.0141,24.5268 L67.6451,19.3098 C67.6601,19.2628 67.7041,19.2308 67.7541,19.2308 L86.3011,19.2308 C86.3501,19.2308 86.3941,19.2628 86.4091,19.3098 L88.2831,25.3048 L88.8521,25.5188 C89.3891,25.7208 89.9531,25.9558 90.5801,26.2368 L91.1321,26.4838 L96.6951,23.5708 C96.7401,23.5488 96.7941,23.5568 96.8281,23.5918 L105.8011,32.5638 C105.8461,32.6088 105.8461,32.6798 105.8011,32.7248 C105.7791,32.7468 105.7501,32.7578 105.7211,32.7578 M44.1911,36.8998 C44.1621,36.8998 44.1331,36.8888 44.1111,36.8668 C44.0661,36.8218 44.0661,36.7508 44.1111,36.7058 L57.2251,23.5918 C57.2601,23.5568 57.3131,23.5478 57.3581,23.5708 L62.9211,26.4838 L63.4741,26.2358 C64.0081,25.9968 64.4981,25.7908 64.9721,25.6068 C65.0311,25.5838 65.0971,25.6128 65.1191,25.6708 C65.1421,25.7298 65.1131,25.7948 65.0541,25.8178 C64.5841,26.0008 64.0981,26.2048 63.5671,26.4428 L62.9631,26.7138 C62.9321,26.7278 62.8951,26.7258 62.8651,26.7108 L57.3271,23.8108 L44.2711,36.8668 C44.2491,36.8888 44.2201,36.8998 44.1911,36.8998 M107.0771,42.2188 C107.0601,42.2188 107.0411,42.2148 107.0251,42.2058 C106.9691,42.1768 106.9481,42.1088 106.9771,42.0528 L109.7231,36.8078 L107.5321,34.6168 C107.4881,34.5718 107.4881,34.5008 107.5321,34.4558 C107.5771,34.4118 107.6491,34.4118 107.6931,34.4558 L109.9431,36.7058 C109.9781,36.7408 109.9861,36.7948 109.9631,36.8388 L107.1781,42.1578 C107.1581,42.1968 107.1181,42.2188 107.0771,42.2188 M46.1541,44.8138 C46.1401,44.8138 46.1271,44.8108 46.1131,44.8058 C46.0551,44.7838 46.0251,44.7188 46.0471,44.6598 C46.2671,44.0778 46.4981,43.5218 46.7531,42.9618 C46.7791,42.9048 46.8471,42.8798 46.9031,42.9058 C46.9611,42.9318 46.9861,42.9988 46.9601,43.0558 C46.7061,43.6118 46.4781,44.1628 46.2601,44.7398 C46.2431,44.7858 46.1991,44.8138 46.1541,44.8138 M46.1461,68.4068 C46.1011,68.4068 46.0571,68.3788 46.0401,68.3338 L45.8251,67.7638 L39.8291,65.8898 C39.7821,65.8748 39.7501,65.8308 39.7501,65.7808 L39.7501,47.2338 C39.7501,47.1848 39.7821,47.1408 39.8291,47.1258 L45.5631,45.3338 C45.6241,45.3148 45.6861,45.3488 45.7051,45.4078 C45.7241,45.4678 45.6901,45.5318 45.6311,45.5508 L39.9771,47.3178 L39.9771,65.6978 L45.9461,67.5638 C45.9791,67.5738 46.0061,67.5988 46.0181,67.6318 L46.2531,68.2528 C46.2751,68.3118 46.2451,68.3778 46.1871,68.3998 C46.1731,68.4048 46.1601,68.4068 46.1461,68.4068 M77.0271,73.2788 C67.7801,73.2788 60.2581,65.7548 60.2581,56.5048 C60.2581,56.4428 60.3091,56.3918 60.3721,56.3918 C60.4341,56.3918 60.4851,56.4428 60.4851,56.5048 C60.4851,65.6288 67.9061,73.0518 77.0271,73.0518 C86.1471,73.0518 93.5681,65.6288 93.5681,56.5048 C93.5681,47.3838 86.1471,39.9638 77.0271,39.9638 C76.9641,39.9638 76.9131,39.9128 76.9131,39.8498 C76.9131,39.7868 76.9641,39.7368 77.0271,39.7368 C86.2731,39.7368 93.7951,47.2588 93.7951,56.5048 C93.7951,65.7548 86.2731,73.2788 77.0271,73.2788 M65.0131,87.4168 C64.9991,87.4168 64.9861,87.4148 64.9721,87.4098 C64.5111,87.2308 64.0211,87.0248 63.4731,86.7798 C63.4161,86.7538 63.3901,86.6868 63.4161,86.6298 C63.4421,86.5728 63.5091,86.5458 63.5661,86.5728 C64.1101,86.8158 64.5971,87.0208 65.0541,87.1978 C65.1131,87.2208 65.1421,87.2858 65.1191,87.3448 C65.1011,87.3898 65.0581,87.4168 65.0131,87.4168 M57.3061,89.4568 C57.2771,89.4568 57.2481,89.4458 57.2251,89.4238 L44.1111,76.3098 C44.0761,76.2748 44.0681,76.2208 44.0901,76.1768 L47.0291,70.5648 C47.0581,70.5098 47.1271,70.4888 47.1821,70.5168 C47.2381,70.5458 47.2591,70.6148 47.2301,70.6708 L44.3301,76.2078 L57.3861,89.2628 C57.4301,89.3078 57.4301,89.3788 57.3861,89.4238 C57.3641,89.4458 57.3351,89.4568 57.3061,89.4568 M96.7491,89.4568 C96.7201,89.4568 96.6901,89.4458 96.6681,89.4238 C96.6241,89.3788 96.6241,89.3078 96.6681,89.2628 L109.7231,76.2078 L106.8241,70.6698 C106.8081,70.6388 106.8071,70.6028 106.8211,70.5708 L107.0901,69.9678 C107.3651,69.3518 107.5981,68.7908 107.8001,68.2538 L108.0341,67.6318 C108.0461,67.5998 108.0731,67.5738 108.1061,67.5638 L114.0771,65.6978 L114.0771,47.3178 L108.1901,45.4768 C108.1301,45.4588 108.0961,45.3948 108.1151,45.3348 C108.1341,45.2748 108.1971,45.2418 108.2571,45.2608 L114.2241,47.1258 C114.2721,47.1408 114.3041,47.1848 114.3041,47.2338 L114.3041,65.7808 C114.3041,65.8308 114.2721,65.8748 114.2241,65.8898 L108.2271,67.7638 L108.0121,68.3338 C107.8081,68.8748 107.5751,69.4398 107.2971,70.0608 L107.0501,70.6128 L109.9631,76.1768 C109.9861,76.2208 109.9781,76.2748 109.9431,76.3098 L96.8291,89.4238 C96.8071,89.4458 96.7781,89.4568 96.7491,89.4568 M86.3011,93.7848 L67.7541,93.7848 C67.7041,93.7848 67.6601,93.7518 67.6451,93.7048 L65.8541,87.9738 C65.8351,87.9138 65.8681,87.8508 65.9281,87.8318 C65.9891,87.8138 66.0511,87.8468 66.0701,87.9058 L67.8371,93.5578 L86.2171,93.5578 L88.0821,87.5918 C88.0931,87.5588 88.1181,87.5318 88.1511,87.5198 L88.7721,87.2848 C89.2971,87.0878 89.8581,86.8538 90.4871,86.5728 L91.0921,86.3018 C91.1481,86.2748 91.2161,86.3018 91.2411,86.3588 C91.2671,86.4158 91.2411,86.4838 91.1841,86.5088 L90.5801,86.7798 C89.9461,87.0628 89.3811,87.2978 88.8521,87.4968 L88.2831,87.7118 L86.4091,93.7048 C86.3941,93.7518 86.3501,93.7848 86.3011,93.7848" id="Fill-92" fill="#FFFFFF"></path>
                    <g id="Group-96" transform="translate(138.000000, 60.023000)">
                        <mask id="mask-14" fill="white">
                            <use xlink:href="#path-13"></use>
                        </mask>
                        <g id="Clip-95"></g>
                        <path d="M0.259,3.279 L4.204,8.627 C5.518,10.41 6.821,12.201 8.05,14.001 L8.05,14.001 C8.364,14.451 8.656,14.902 8.957,15.352 L8.957,15.352 C9.037,15.427 9.153,15.686 9.235,16.056 L9.235,16.056 C9.395,16.804 9.39,17.818 9.322,18.829 L9.322,18.829 C9.163,20.872 8.762,23.068 8.322,25.179 L8.322,25.179 L10.659,26.079 C11.768,23.976 12.637,21.839 13.211,19.447 L13.211,19.447 C13.481,18.241 13.694,16.996 13.59,15.507 L13.59,15.507 C13.529,14.767 13.371,13.912 12.88,13.015 L12.88,13.015 C12.594,12.508 12.313,11.993 12.018,11.497 L12.018,11.497 C10.847,9.498 9.6,7.586 8.314,5.706 L8.314,5.706 C7.015,3.829 5.688,2.006 4.268,0.198 L4.268,0.198 L0.259,3.279 Z" id="Fill-94" fill="url(#linearGradient-15)" mask="url(#mask-14)"></path>
                    </g>
                    <g id="Group-99" transform="translate(144.000000, 84.023000)">
                        <mask id="mask-17" fill="white">
                            <use xlink:href="#path-16"></use>
                        </mask>
                        <g id="Clip-98"></g>
                        <path d="M2.156,0.907 L0.949,3.069 L5.164,3.693 C5.164,3.693 5.598,1.856 4.557,0.621 L4.557,0.621 L2.156,0.907 Z" id="Fill-97" fill="url(#linearGradient-18)" mask="url(#mask-17)"></path>
                    </g>
                    <g id="Group-106" transform="translate(74.000000, 45.023000)">
                        <polygon id="Fill-100" fill="#FD897B" points="70.3136 44.9417 73.8216 45.2947 75.1646 42.6927 70.9496 42.0687"></polygon>
                        <path d="M81.7329,57.8375 L82.9839,51.1665 C83.2859,49.5575 84.8459,48.4905 86.4499,48.7915 L96.9679,50.7635 C95.5279,45.9385 91.5039,42.0705 86.2119,41.0785 C82.4189,40.3675 78.6979,41.2695 75.7539,43.2995 L28.0269,15.0485 C28.6109,8.0325 23.8029,1.5735 16.7319,0.2465 C11.4399,-0.7455 6.2879,1.4015 3.1969,5.3765 L13.7139,7.3495 C15.3189,7.6495 16.3859,9.2095 16.0839,10.8195 L14.8329,17.4905 C14.5309,19.0995 12.9709,20.1665 11.3669,19.8655 L0.8489,17.8925 C2.2899,22.7185 6.3139,26.5855 11.6059,27.5785 C15.4469,28.2985 19.2119,27.3625 22.1729,25.2785 L69.8049,53.4725 C69.1469,60.5415 73.9689,67.0755 81.0859,68.4095 C86.3779,69.4025 91.5299,67.2555 94.6209,63.2805 L84.1029,61.3075 C82.4979,61.0065 81.4309,59.4465 81.7329,57.8375" id="Fill-102" fill="#417BFD"></path>
                        <path d="M65.4962,47.5941 L29.3182,26.1791 C27.9192,25.3511 27.4562,23.5461 28.2842,22.1471 L28.3702,22.0011 C29.1982,20.6021 31.0042,20.1391 32.4032,20.9671 L68.5812,42.3821 C69.9802,43.2101 70.4432,45.0161 69.6152,46.4151 L69.5292,46.5601 C68.7012,47.9591 66.8952,48.4221 65.4962,47.5941" id="Fill-104" fill="#5790FD"></path>
                    </g>
                    <g id="Group-109" transform="translate(125.000000, 45.023000)">
                        <mask id="mask-20" fill="white">
                            <use xlink:href="#path-19"></use>
                        </mask>
                        <g id="Clip-108"></g>
                        <path d="M0.471,0.992 C0.429,1.257 0.536,1.495 0.71,1.522 L0.71,1.522 C0.884,1.549 1.059,1.355 1.101,1.09 L1.101,1.09 C1.142,0.824 1.035,0.587 0.861,0.56 L0.861,0.56 C0.85,0.558 0.839,0.557 0.828,0.557 L0.828,0.557 C0.666,0.557 0.51,0.742 0.471,0.992" id="Fill-107" fill="url(#linearGradient-21)" mask="url(#mask-20)"></path>
                    </g>
                    <g id="Group-112" transform="translate(124.000000, 46.023000)">
                        <mask id="mask-23" fill="white">
                            <use xlink:href="#path-22"></use>
                        </mask>
                        <g id="Clip-111"></g>
                        <path d="M0.283,2.627 C0.684,3.14 1.515,3.064 1.515,3.064 L1.515,3.064 L1.908,0.552 C1.908,0.552 1.064,1.992 0.283,2.627" id="Fill-110" mask="url(#mask-23)"></path>
                    </g>
                    <g id="Group-115" transform="translate(125.000000, 43.023000)">
                        <mask id="mask-25" fill="white">
                            <use xlink:href="#path-24"></use>
                        </mask>
                        <g id="Clip-114"></g>
                        <path d="M1.042,1.034 C0.957,1.053 0.903,1.137 0.922,1.222 L0.922,1.222 C0.94,1.308 1.022,1.363 1.11,1.343 L1.11,1.343 C1.115,1.342 1.684,1.225 2.186,1.721 L2.186,1.721 C2.217,1.751 2.257,1.767 2.297,1.767 L2.297,1.767 C2.338,1.767 2.379,1.751 2.409,1.72 L2.409,1.72 C2.471,1.658 2.471,1.558 2.409,1.496 L2.409,1.496 C1.993,1.086 1.536,1.015 1.27,1.015 L1.27,1.015 C1.138,1.015 1.052,1.032 1.042,1.034" id="Fill-113" fill="url(#linearGradient-26)" mask="url(#mask-25)"></path>
                    </g>
                    <g id="Group-118" transform="translate(127.000000, 49.023000)">
                        <mask id="mask-28" fill="white">
                            <use xlink:href="#path-27"></use>
                        </mask>
                        <g id="Clip-117"></g>
                        <path d="M3.315,3.993 C3.788,5.889 3.858,7.908 1.137,8.558 L1.137,8.558 C1.137,8.558 -1.465,11.033 3.52,11.033 L3.52,11.033 C8.054,11.033 8.721,8.558 8.721,8.558 L8.721,8.558 C7.014,6.93 7.492,2.458 7.97,0.018 L7.97,0.018 L3.315,3.993 Z" id="Fill-116" fill="url(#linearGradient-29)" mask="url(#mask-28)"></path>
                    </g>
                    <g id="Group-121" transform="translate(127.000000, 56.023000)">
                        <mask id="mask-31" fill="white">
                            <use xlink:href="#path-30"></use>
                        </mask>
                        <g id="Clip-120"></g>
                        <path d="M0.726,1.908 C0.085,2.438 0.797,3.215 0.797,3.215 L0.797,3.215 L11.044,3.39 C10.988,3.313 10.948,3.223 10.922,3.125 L10.922,3.125 C10.541,1.68 8.936,0.547 6.856,0.492 L6.856,0.492 C6.672,0.487 6.486,0.484 6.298,0.484 L6.298,0.484 C4.254,0.484 2.069,0.799 0.726,1.908" id="Fill-119" mask="url(#mask-31)"></path>
                    </g>
                    <g id="Group-130" transform="translate(120.000000, 148.023000)" fill="#417BFD">
                        <path d="M35.0331,1.7105 C34.6691,1.8045 34.0811,2.0045 33.9301,2.2595 C33.8941,2.3195 33.8861,2.3785 33.9051,2.4395 C33.9501,2.5805 34.0191,2.5885 34.0411,2.5905 C34.2671,2.6205 34.7481,2.1285 35.0331,1.7105 M34.0571,2.7495 C34.0461,2.7495 34.0341,2.7485 34.0231,2.7475 C33.9351,2.7375 33.8171,2.6845 33.7551,2.4855 C33.7221,2.3815 33.7351,2.2785 33.7941,2.1795 C34.0471,1.7495 35.1411,1.5215 35.1871,1.5115 C35.2191,1.5075 35.2491,1.5185 35.2681,1.5435 C35.2861,1.5685 35.2871,1.6025 35.2721,1.6295 C35.0991,1.9245 34.4791,2.7495 34.0571,2.7495" id="Fill-122"></path>
                        <path d="M34.0509,1.107 C34.0319,1.107 34.0129,1.108 33.9949,1.111 C33.9089,1.121 33.8429,1.157 33.7959,1.221 C33.7339,1.303 33.7609,1.342 33.7729,1.359 C33.9029,1.541 34.5949,1.618 35.0209,1.55 C34.8049,1.393 34.3669,1.107 34.0509,1.107 M34.6609,1.731 C34.2499,1.731 33.7859,1.65 33.6439,1.451 C33.6049,1.395 33.5549,1.279 33.6689,1.126 C33.7429,1.027 33.8459,0.97 33.9759,0.954 C34.4739,0.896 35.2219,1.502 35.2529,1.528 C35.2759,1.547 35.2859,1.576 35.2809,1.604 C35.2759,1.633 35.2549,1.656 35.2269,1.665 C35.0949,1.707 34.8859,1.731 34.6609,1.731" id="Fill-124"></path>
                        <path d="M0.5512,13.13 C0.4962,13.13 0.4442,13.136 0.3982,13.148 C0.3252,13.168 0.2752,13.204 0.2442,13.259 C0.1872,13.357 0.2082,13.405 0.2282,13.433 C0.3832,13.649 1.2272,13.654 1.8472,13.566 C1.5382,13.408 0.9412,13.13 0.5512,13.13 M1.0802,13.777 C0.6522,13.777 0.2382,13.718 0.1002,13.525 C0.0512,13.459 0.0132,13.344 0.1062,13.181 C0.1592,13.089 0.2432,13.027 0.3572,12.996 C0.9142,12.842 2.0782,13.509 2.1272,13.537 C2.1562,13.554 2.1712,13.586 2.1662,13.619 C2.1602,13.651 2.1362,13.677 2.1032,13.683 C1.8902,13.725 1.4792,13.777 1.0802,13.777" id="Fill-126"></path>
                        <path d="M1.2739,12.3327 C1.2579,12.3327 1.2419,12.3337 1.2269,12.3347 C1.0849,12.3497 1.0749,12.4057 1.0729,12.4237 C1.0359,12.6497 1.5779,13.2167 1.9889,13.4637 C1.9459,13.2017 1.8269,12.6637 1.5479,12.4357 C1.4649,12.3667 1.3739,12.3327 1.2739,12.3327 M2.0879,13.6847 C2.0769,13.6847 2.0659,13.6827 2.0559,13.6777 C1.6529,13.4967 0.8549,12.7757 0.9169,12.3987 C0.9309,12.3097 0.9939,12.1997 1.2109,12.1777 C1.3719,12.1617 1.5189,12.2067 1.6489,12.3137 C2.0729,12.6617 2.1629,13.5597 2.1669,13.5977 C2.1689,13.6257 2.1569,13.6537 2.1339,13.6697 C2.1199,13.6797 2.1039,13.6847 2.0879,13.6847" id="Fill-128"></path>
                    </g>
                    <g id="Group-133" transform="translate(122.000000, 153.023000)">
                        <mask id="mask-33" fill="white">
                            <use xlink:href="#path-32"></use>
                        </mask>
                        <g id="Clip-132"></g>
                        <polygon id="Fill-131" fill="url(#linearGradient-34)" mask="url(#mask-33)" points="0.088 0.881 0.42 8.606 3.755 8.606 3.423 0.881"></polygon>
                    </g>
                    <g id="Group-136" transform="translate(149.000000, 142.023000)">
                        <mask id="mask-36" fill="white">
                            <use xlink:href="#path-35"></use>
                        </mask>
                        <g id="Clip-135"></g>
                        <polygon id="Fill-134" fill="url(#linearGradient-37)" mask="url(#mask-36)" points="0.1 2.252 6.485 7.17 9.189 5.218 2.806 0.3"></polygon>
                    </g>
                    <g id="Group-139" transform="translate(152.000000, 146.023000)">
                        <mask id="mask-39" fill="white">
                            <use xlink:href="#path-38"></use>
                        </mask>
                        <g id="Clip-138"></g>
                        <path d="M5.692,0.439 L3.097,3.143 C2.959,3.286 2.876,3.475 2.87,3.675 L2.87,3.675 C2.834,4.781 2.183,7.006 0.809,9.25 L0.809,9.25 C0.502,9.75 1.649,10.555 2.598,9.567 L2.598,9.567 C3.567,8.557 5.477,5.986 6.179,5.255 L6.179,5.255 C7.321,4.066 7.816,3.661 8.738,2.733 L8.738,2.733 C8.96,2.509 8.917,2.134 8.648,1.97 L8.648,1.97 L6.053,0.392 C6.006,0.363 5.954,0.35 5.902,0.35 L5.902,0.35 C5.825,0.35 5.748,0.38 5.692,0.439" id="Fill-137" fill="url(#linearGradient-40)" mask="url(#mask-39)"></path>
                    </g>
                    <g id="Group-142" transform="translate(114.000000, 161.023000)">
                        <mask id="mask-42" fill="white">
                            <use xlink:href="#path-41"></use>
                        </mask>
                        <g id="Clip-141"></g>
                        <path d="M8.442,0.22 C8.154,0.22 7.883,0.329 7.639,0.479 L7.639,0.479 C5.384,1.869 3.253,1.93 0.644,2.501 L0.644,2.501 C0.07,2.627 0.451,4.011 1.82,4.011 L1.82,4.011 C4.085,4.011 5.752,3.906 7.684,3.906 L7.684,3.906 C9.335,3.906 11.234,3.982 12.548,4.005 L12.548,4.005 C12.862,4.01 13.096,3.72 13.028,3.412 L13.028,3.412 L12.369,0.447 C12.339,0.314 12.221,0.22 12.085,0.22 L12.085,0.22 L8.442,0.22 Z" id="Fill-140" fill="url(#linearGradient-43)" mask="url(#mask-42)"></path>
                    </g>
                    <g id="Group-145" transform="translate(136.000000, 58.023000)">
                        <mask id="mask-45" fill="white">
                            <use xlink:href="#path-44"></use>
                        </mask>
                        <g id="Clip-144"></g>
                        <path d="M1.599,6.597 C2.067,7.438 2.567,8.251 3.062,9.008 L3.062,9.008 C3.915,10.321 4.741,11.456 5.336,12.237 L5.336,12.237 C5.867,12.941 6.208,13.354 6.208,13.354 L6.208,13.354 L12.927,8.773 C12.927,8.773 8.859,0.818 5.695,0.309 L5.695,0.309 C5.454,0.271 5.213,0.252 4.977,0.252 L4.977,0.252 C2.039,0.252 -0.354,3.11 1.599,6.597" id="Fill-143" mask="url(#mask-45)"></path>
                    </g>
                    <path d="M139.0615,67.0318 C139.9155,68.3438 140.7415,69.4788 141.3365,70.2598 C141.2685,68.6978 140.9455,66.1688 139.7335,64.2488 C139.2885,64.6848 139.1115,65.8108 139.0615,67.0318" id="Fill-146" fill="#133A68"></path>
                    <g id="Group-150" transform="translate(121.000000, 57.023000)">
                        <mask id="mask-47" fill="white">
                            <use xlink:href="#path-46"></use>
                        </mask>
                        <g id="Clip-149"></g>
                        <path d="M7.137,0.556 C4.495,0.801 2.007,1.482 2.007,1.482 L2.007,1.482 C2.007,1.482 0.363,3.339 0.367988618,12.356 L0.367988618,12.356 C0.367988618,13.492 0.396,14.74 0.459,16.116 L0.459,16.116 C0.622,19.856 1.031,24.519 1.812,30.313 L1.812,30.313 L19.65,30.313 C19.773,27.576 18.053,14.213 20.695,1.309 L20.695,1.309 C20.695,1.309 17.635,0.696 14.72,0.556 L14.72,0.556 C13.444,0.495 11.847,0.445 10.337,0.445 L10.337,0.445 C9.151,0.445 8.019,0.476 7.137,0.556" id="Fill-148" mask="url(#mask-47)"></path>
                    </g>
                    <path d="M121.368,69.3791 C121.368,70.5141 121.395,71.7631 121.459,73.1381 C123.552,71.0951 123.693,66.9231 123.693,66.9231 L121.368,69.3791 Z" id="Fill-151" fill="#133A68"></path>
                    <g id="Group-155" transform="translate(100.000000, 61.023000)">
                        <mask id="mask-49" fill="white">
                            <use xlink:href="#path-48"></use>
                        </mask>
                        <g id="Clip-154"></g>
                        <path d="M19.914,1.725 C19.598,2.135 19.263,2.547 18.918,2.953 L18.918,2.953 C18.224,3.764 17.514,4.575 16.772,5.351 L16.772,5.351 C15.302,6.905 13.741,8.389 12.119,9.565 L12.119,9.565 C11.716,9.857 11.31,10.126 10.908,10.36 L10.908,10.36 L10.632,10.517 C10.598,10.53 10.585,10.558 10.526,10.575 L10.526,10.575 L10.452,10.61 L10.353,10.639 C10.292,10.662 10.206,10.676 10.125,10.697 L10.125,10.697 C9.435,10.845 8.418,10.784 7.418,10.657 L7.418,10.657 C5.392,10.379 3.21,9.815 1.123,9.223 L1.123,9.223 L0.048,11.485 C2.083,12.765 4.166,13.804 6.561,14.531 L6.561,14.531 C7.768,14.88 9.022,15.174 10.593,15.099 L10.593,15.099 C10.793,15.086 10.989,15.073 11.205,15.033 L11.205,15.033 L11.522,14.978 L11.856,14.892 C12.073,14.843 12.315,14.746 12.545,14.655 L12.545,14.655 C12.61,14.63 12.653,14.61 12.686,14.594 L12.686,14.594 L12.801,14.54 L13.029,14.433 C13.63,14.142 14.194,13.823 14.736,13.489 L14.736,13.489 C16.875,12.133 18.686,10.551 20.385,8.874 L20.385,8.874 C21.223,8.025 22.041,7.163 22.809,6.242 L22.809,6.242 C23.196,5.784 23.575,5.318 23.951,4.829 L23.951,4.829 C24.332,4.331 24.679,3.857 25.083,3.177 L25.083,3.177 L20.734,0.6 C20.551,0.889 20.219,1.325 19.914,1.725" id="Fill-153" fill="url(#linearGradient-50)" mask="url(#mask-49)"></path>
                    </g>
                    <g id="Group-158" transform="translate(95.000000, 67.023000)">
                        <mask id="mask-52" fill="white">
                            <use xlink:href="#path-51"></use>
                        </mask>
                        <g id="Clip-157"></g>
                        <path d="M0.53,3.694 L2.891,5.04 C2.891,5.04 4.802,5.934 6.29,5.424 L6.29,5.424 L6.615,3.829 L4.395,1.188 L1.145,0.618 L0.53,3.694 Z" id="Fill-156" mask="url(#mask-52)"></path>
                    </g>
                    <g id="Group-161" transform="translate(113.000000, 58.023000)">
                        <mask id="mask-54" fill="white">
                            <use xlink:href="#path-53"></use>
                        </mask>
                        <g id="Clip-160"></g>
                        <path d="M6.346,2.501 C3.23,5.203 0.662,9.098 0.662,9.098 L0.662,9.098 L7.154,14.246 C7.154,14.246 14.364,7.535 14.761,4.371 L14.761,4.371 C15.057,2.019 13.562,0.299 11.264,0.299 L11.264,0.299 C9.851,0.299 8.136,0.948 6.346,2.501" id="Fill-159" mask="url(#mask-54)"></path>
                    </g>
                    <g id="Group-164" transform="translate(122.000000, 57.023000)">
                        <mask id="mask-56" fill="white">
                            <use xlink:href="#path-55"></use>
                        </mask>
                        <g id="Clip-163"></g>
                        <path d="M4.534,0.495 L3.111,0.758 C2.83,0.81 2.693,1.127 2.843,1.37 L2.843,1.37 C7.082,8.271 8.168,14.427 8.414,16.349 L8.414,16.349 C8.077,19.494 6.594,26.821 0.116,26.821 L0.116,26.821 C0.229,28.486 0.637,30.015 0.377,32.202 L0.377,32.202 C3.294,33.409 8.396,34.425 18.634,32.76 L18.634,32.76 C19.147,29.053 18.92,26.291 18.92,26.291 L18.92,26.291 C18.92,26.291 14.088,24.791 13.689,16.096 L13.689,16.096 C14.849,13.752 17.858,6.366 17.635,1.037 L17.635,1.037 C17.627,0.836 17.467,0.675 17.266,0.655 L17.266,0.655 L15.74,0.509 C15.496,0.485 15.291,0.684 15.301,0.93 L15.301,0.93 C15.517,6.456 12.898,12.351 11.706,14.94 L11.706,14.94 L10.547,14.94 C10.13,12.216 8.855,6.921 4.954,0.681 L4.954,0.681 C4.879,0.561 4.746,0.489 4.607,0.489 L4.607,0.489 C4.583,0.489 4.558,0.491 4.534,0.495" id="Fill-162" mask="url(#mask-56)"></path>
                    </g>
                    <g id="Group-169" transform="translate(122.000000, 142.023000)" fill="#FF9F63">
                        <polygon id="Fill-165" points="0.0887 11.8835 0.2597 15.8645 3.5957 15.8645 3.4257 11.8835"></polygon>
                        <polygon id="Fill-167" points="29.8076 0.3008 27.1016 2.2538 30.3936 4.7878 33.0996 2.8348"></polygon>
                    </g>
                    <g id="Group-172" transform="translate(125.000000, 41.023000)">
                        <mask id="mask-58" fill="white">
                            <use xlink:href="#path-57"></use>
                        </mask>
                        <g id="Clip-171"></g>
                        <path d="M4.602,0.502 C1.203,1.301 -0.002,6.076 0.24,9.119 L0.24,9.119 C0.509,12.499 4.304,14.625 7.178,12.493 L7.178,12.493 C9.09,11.076 9.342,9.148 10.054,5.915 L10.054,5.915 C10.687,3.038 8.529,0.373 5.688,0.373999719 L5.688,0.373999719 C5.335,0.373999719 4.971,0.415 4.602,0.502" id="Fill-170" fill="url(#linearGradient-59)" mask="url(#mask-58)"></path>
                    </g>
                    <g id="Group-175" transform="translate(126.000000, 38.023000)">
                        <mask id="mask-61" fill="white">
                            <use xlink:href="#path-60"></use>
                        </mask>
                        <g id="Clip-174"></g>
                        <path d="M0.687,3.549 C0.944,5.409 1.219,6.261 2.861,7.811 L2.861,7.811 C2.749,11.151 3.635,14.54 6.747,14.753 L6.747,14.753 C9.252,14.924 11.703,11.797 12.982,8.949 L12.982,8.949 C13.826,7.074 12.19,6.29 12.19,6.29 L12.19,6.29 C13.609,5.469 14.779,3.976 11.941,3.898 L11.941,3.898 C7.62,1.116 4.789,0.035 3.038,0.035 L3.038,0.035 C0.968,0.035 0.41,1.548 0.687,3.549" id="Fill-173" fill="url(#linearGradient-62)" mask="url(#mask-61)"></path>
                    </g>
                    <g id="Group-178" transform="translate(125.000000, 35.023000)">
                        <mask id="mask-64" fill="white">
                            <use xlink:href="#path-63"></use>
                        </mask>
                        <g id="Clip-177"></g>
                        <path d="M0.079,6.139 L14.743,9.883 C15.777,5.833 13.333,1.713 9.284,0.679 L9.284,0.679 C8.655,0.518 8.026,0.441 7.406,0.441 L7.406,0.441 C4.03,0.442 0.953,2.717 0.079,6.139" id="Fill-176" fill="url(#linearGradient-65)" mask="url(#mask-64)"></path>
                    </g>
                    <g id="Group-181" transform="translate(130.000000, 34.023000)">
                        <mask id="mask-67" fill="white">
                            <use xlink:href="#path-66"></use>
                        </mask>
                        <g id="Clip-180"></g>
                        <path d="M0.824,1.338 C0.733,1.691 0.947,2.052 1.302,2.143 L1.302,2.143 C3.133,2.61 4.686,3.699 5.675,5.208 L5.675,5.208 C6.651,6.7 6.958,8.424 6.539,10.065 L6.539,10.065 C6.449,10.419 6.663,10.78 7.017,10.87 L7.017,10.87 C7.073,10.885 7.128,10.891 7.182,10.891 L7.182,10.891 C7.478,10.891 7.747,10.692 7.823,10.392 L7.823,10.392 C8.335,8.387 7.965,6.288 6.783,4.483 L6.783,4.483 C5.613,2.696 3.782,1.409 1.63,0.859 L1.63,0.859 C1.575,0.845 1.52,0.838 1.467,0.838 L1.467,0.838 C1.171,0.838 0.901,1.037 0.824,1.338" id="Fill-179" mask="url(#mask-67)"></path>
                    </g>
                    <g id="Group-184" transform="translate(122.000000, 39.023000)">
                        <mask id="mask-69" fill="white">
                            <use xlink:href="#path-68"></use>
                        </mask>
                        <g id="Clip-183"></g>
                        <path d="M0.512,1.484 C0.417,1.856 0.645,2.24 1.017,2.335 L1.017,2.335 L18.266,6.739 C18.639,6.834 19.022,6.606 19.117,6.234 L19.117,6.234 C19.213,5.86 18.986,5.477 18.612,5.382 L18.612,5.382 L1.364,0.978 C1.307,0.963 1.249,0.956 1.193,0.956 L1.193,0.956 C0.88,0.956 0.593,1.168 0.512,1.484" id="Fill-182" mask="url(#mask-69)"></path>
                    </g>
                    <g id="Group-187" transform="translate(127.000000, 45.023000)">
                        <mask id="mask-71" fill="white">
                            <use xlink:href="#path-70"></use>
                        </mask>
                        <g id="Clip-186"></g>
                        <path d="M2.071,0.305 C1.167,0.716 0.879,2.182 0.966,3.064 L0.966,3.064 C1.061,4.044 1.803,4.567 2.556,3.792 L2.556,3.792 C3.057,3.276 3.486,2.476 3.567,1.613 L3.567,1.613 C3.642,0.817 3.202,0.19 2.562,0.19 L2.562,0.19 C2.408,0.19 2.243,0.226 2.071,0.305" id="Fill-185" fill="url(#linearGradient-72)" mask="url(#mask-71)"></path>
                    </g>
                    <g id="Group-190" transform="translate(129.000000, 87.023000)">
                        <mask id="mask-74" fill="white">
                            <use xlink:href="#path-73"></use>
                        </mask>
                        <g id="Clip-189"></g>
                        <path d="M0.138,0.313 C0.138,0.313 -0.247,24.051 2.737,33.358 L2.737,33.358 C7.462,48.099 21.727,60.04 21.727,60.04 L21.727,60.04 L26.828,56.359 C26.828,56.359 14.954,46.272 12.775,33.855 L12.775,33.855 C10.818,22.699 11.65,9.425 11.65,0.313 L11.65,0.313 L0.138,0.313 Z" id="Fill-188" mask="url(#mask-74)"></path>
                    </g>
                    <g id="Group-195" transform="translate(129.000000, 89.023000)">
                        <path d="M3.469,2.3902 C4.1,6.6672 1.871,18.5762 1.099,22.4762 C0.291,15.1852 0.141,6.5352 0.127,1.8132 C1.762,0.7062 3.178,0.4202 3.469,2.3902" id="Fill-191" fill="#004DA8"></path>
                        <path d="M19.5545,56.9643 C19.5335,56.9793 21.6495,58.2133 21.6495,58.2133 L27.2235,54.1903 L25.3655,52.7713 L19.5545,56.9643 Z" id="Fill-193" fill="#75B0FA"></path>
                    </g>
                    <g id="Group-198" transform="translate(117.000000, 87.023000)">
                        <mask id="mask-76" fill="white">
                            <use xlink:href="#path-75"></use>
                        </mask>
                        <g id="Clip-197"></g>
                        <path d="M5.81,0.313 C5.81,0.313 0.786,21.607 0.432,31.779 L0.432,31.779 C0.035,43.187 4.017,70.094 4.017,70.094 L4.017,70.094 L9.667,70.094 C9.667,70.094 10.363,42.977 10.614,32.587 L10.614,32.587 C10.888,21.259 17.536,0.313 17.536,0.313 L17.536,0.313 L5.81,0.313 Z" id="Fill-196" mask="url(#mask-76)"></path>
                    </g>
                    <path d="M119.9291,154.8662 C119.9031,154.8662 120.2481,157.2122 120.2481,157.2122 L127.1211,157.2122 L127.3071,155.1182 L119.9291,154.8662 Z" id="Fill-199" fill="#75B0FA"></path>
                </g>
            </g>
        </g>
    </g>
</svg>