<?xml version="1.0" encoding="UTF-8"?>
<svg width="223px" height="166px" viewBox="0 0 223 166" version="1.1" xmlns="http://www.w3.org/2000/svg" xmlns:xlink="http://www.w3.org/1999/xlink">
    <!-- Generator: Sketch 57.1 (83088) - https://sketch.com -->
    <title>Group 234</title>
    <desc>Created with Sketch.</desc>
    <defs>
        <polygon id="path-1" points="0 166 222.614 166 222.614 0.017 0 0.017"></polygon>
        <linearGradient x1="-0.00366938861%" y1="50.0014078%" x2="100.000285%" y2="50.0014078%" id="linearGradient-3">
            <stop stop-color="#FDC900" offset="0%"></stop>
            <stop stop-color="#FC9600" offset="100%"></stop>
        </linearGradient>
        <linearGradient x1="0.000355320991%" y1="49.9987318%" x2="99.9996157%" y2="49.9987318%" id="linearGradient-4">
            <stop stop-color="#FDC900" offset="0%"></stop>
            <stop stop-color="#FC9600" offset="100%"></stop>
        </linearGradient>
        <polygon id="path-5" points="0.43 0.833 5.779 9.383 10.881 9.383 10.881 0.833"></polygon>
        <linearGradient x1="0.000952062004%" y1="50.005552%" x2="99.9956703%" y2="50.005552%" id="linearGradient-7">
            <stop stop-color="#FDC900" offset="0%"></stop>
            <stop stop-color="#FC9600" offset="100%"></stop>
        </linearGradient>
        <path d="M0.027,1.411 C0.135,1.807 0.225,2.094 0.33,2.424 L0.33,2.424 C0.432,2.742 0.546,3.054 0.66,3.365 L0.66,3.365 C0.889,3.986 1.135,4.598 1.4,5.205 L1.4,5.205 C1.934,6.416 2.541,7.602 3.256,8.748 L3.256,8.748 C3.967,9.895 4.773,11.01 5.731,12.042 L5.731,12.042 C6.678,13.079 7.784,14.04 9.078,14.802 L9.078,14.802 L9.588,15.092 C9.854,15.231 10.138,15.352 10.434,15.437 L10.434,15.437 C11.025,15.613 11.643,15.655 12.188,15.598 L12.188,15.598 C13.287,15.47 14.102,15.063 14.787,14.649 L14.787,14.649 C16.145,13.799 17.073,12.788 17.951,11.78 L17.951,11.78 C19.654,9.725 20.949,7.57 22.076,5.245 L22.076,5.245 L19.954,3.964 C19.218,4.867 18.44,5.809 17.645,6.678 L17.645,6.678 C16.852,7.557 16.043,8.407 15.203,9.161 L15.203,9.161 C14.382,9.919 13.487,10.597 12.709,10.974 L12.709,10.974 C12.329,11.159 11.98,11.231 11.85,11.206 L11.85,11.206 C11.783,11.197 11.779,11.177 11.785,11.167 L11.785,11.167 C11.787,11.164 11.79,11.155 11.787,11.149 L11.787,11.149 L11.51,10.959 C9.943,9.85 8.611,8.117 7.517,6.202 L7.517,6.202 C6.967,5.242 6.475,4.227 6.022,3.189 L6.022,3.189 C5.795,2.671 5.581,2.143 5.384,1.613 L5.384,1.613 L5.099,0.818 C5.009,0.566 4.909,0.268 4.849,0.073 L4.849,0.073 L0.027,1.411 Z" id="path-8"></path>
        <linearGradient x1="0.00197423919%" y1="50.0019231%" x2="99.9969559%" y2="50.0019231%" id="linearGradient-10">
            <stop stop-color="#FCCEAC" offset="0%"></stop>
            <stop stop-color="#F7A977" offset="100%"></stop>
        </linearGradient>
        <path d="M0.829,2.445 C0.112,4.533 2.881,9.502 4.555,12.223 L4.555,12.223 C4.853,12.703 5.112,13.113 5.312,13.424 L5.312,13.424 C5.589,13.847 5.757,14.092 5.757,14.092 L5.757,14.092 L11.452,10.94 C11.452,10.94 11.345,10.632 11.153,10.117 L11.153,10.117 C11.02,9.76 10.846,9.301 10.637,8.776 L10.637,8.776 C10.005,7.182 9.07,4.956 8.032,3.015 L8.032,3.015 C6.983,1.052 5.368,0.1 3.905,0.1 L3.905,0.1 C2.568,0.1 1.358,0.897 0.829,2.445" id="path-11"></path>
        <path d="M7.154,2.116 L1.312,5.424 C1.112,5.113 0.853,4.703 0.555,4.222 L6.637,0.776" id="path-13"></path>
        <linearGradient x1="0.00335808456%" y1="50.0032509%" x2="99.9932202%" y2="50.0032509%" id="linearGradient-15">
            <stop stop-color="#FC9600" offset="0%"></stop>
            <stop stop-color="#FC9600" offset="100%"></stop>
        </linearGradient>
        <path d="M0.743,0.817 C2.016,0.204 3.485,0.717 5.027,3.156 C6.549,5.57 7.887,9.672 8.031,10.834 L5.756,12.093" id="path-16"></path>
        <linearGradient x1="-0.000798357379%" y1="49.9974106%" x2="99.9967102%" y2="49.9974106%" id="linearGradient-18">
            <stop stop-color="#FDC900" offset="0%"></stop>
            <stop stop-color="#FC9600" offset="100%"></stop>
        </linearGradient>
        <path d="M6.227,0.435 C4.918,0.497 3.582,0.658 2.518,0.813 L2.518,0.813 C1.236,1.001 0.341,1.183 0.341,1.183 L0.341,1.183 C0.426,1.54 0.506,1.891 0.586,2.247 L0.586,2.247 C1.686,7.243 2.157,12.26 2.34,16.646 L2.34,16.646 C2.612,23.177 2.247,28.307 2.372,29.882 L2.372,29.882 L20.024,29.882 C23.083,11.321 18.84,1.352 18.84,1.352 L18.84,1.352 C18.84,1.352 18.057,1.138 16.908,0.907 L16.908,0.907 C16.008,0.733 14.883,0.542 13.729,0.435 L13.729,0.435 C12.854,0.357 11.732,0.327 10.558,0.327 L10.558,0.327 C9.065,0.327 7.488,0.375 6.227,0.435" id="path-19"></path>
        <path d="M2.34,14.647 C2.158,10.262 1.686,5.244 0.586,0.249 C1.766,0.146 3.783,0.262 4.117,2.168" id="path-21"></path>
        <linearGradient x1="-0.00317859551%" y1="50.0011364%" x2="99.9958475%" y2="50.0011364%" id="linearGradient-23">
            <stop stop-color="#FDC900" offset="0%"></stop>
            <stop stop-color="#FC9600" offset="100%"></stop>
        </linearGradient>
        <path d="M10.235,0.714 C10.235,0.714 14.432,24.481 15.669,35.814 L15.669,35.814 C16.947,47.513 0.346,75.612 0.346,75.612 L0.346,75.612 L4.742,79.749 C4.742,79.749 27.472,48.393 26.52,37.884 L26.52,37.884 C25.333,24.782 21.856,0.714 21.856,0.714 L21.856,0.714 L10.235,0.714 Z" id="path-24"></path>
        <path d="M0.186,0.714 C0.186,0.714 1.21,25.207 1.605,36.327 L1.605,36.327 C1.97,46.573 1.789,80.021 1.789,80.021 L1.789,80.021 L7.834,80.021 C7.834,80.021 10.77,45.738 11.357,35.389 L11.357,35.389 C11.892,25.938 11.577,0.714 11.577,0.714 L11.577,0.714 L0.186,0.714 Z" id="path-26"></path>
        <path d="M5.387,1.822 C5.096,2.329 4.813,2.838 4.539,3.352 L4.539,3.352 C3.992,4.382 3.481,5.432 3.012,6.507 L3.012,6.507 C2.083,8.665 1.272,10.904 0.805,13.34 L0.805,13.34 L0.76,13.567 L0.737,13.68 L0.706,13.866 C0.663,14.137 0.652,14.38 0.65,14.619 L0.65,14.619 C0.652,15.087 0.707,15.496 0.785,15.874 L0.785,15.874 C0.946,16.625 1.181,17.26 1.435,17.857 L1.435,17.857 C1.943,19.049 2.571,20.075 3.214,21.069 L3.214,21.069 C4.529,23.042 5.982,24.796 7.612,26.469 L7.612,26.469 L9.565,24.943 C8.484,23.062 7.412,21.114 6.513,19.203 L6.513,19.203 C6.059,18.251 5.665,17.281 5.385,16.379 L5.385,16.379 C5.247,15.93 5.152,15.492 5.123,15.142 L5.123,15.142 C5.107,14.968 5.107,14.819 5.122,14.728 L5.122,14.728 C5.131,14.687 5.138,14.652 5.147,14.648 L5.147,14.648 C5.148,14.645 5.148,14.646 5.149,14.646 L5.149,14.646 C5.149,14.647 5.149,14.648 5.155,14.627 L5.155,14.627 L5.181,14.537 L5.234,14.357 C5.492,13.398 5.863,12.427 6.236,11.461 L6.236,11.461 C6.628,10.496 7.067,9.534 7.522,8.577 L7.522,8.577 C7.988,7.622 8.479,6.673 8.985,5.731 L8.985,5.731 C9.236,5.259 9.494,4.79 9.76,4.327 L9.76,4.327 L10.542,2.977 L6.32,0.292 C5.971,0.831 5.679,1.306 5.387,1.822" id="path-28"></path>
        <linearGradient x1="-0.0046896482%" y1="50.0007316%" x2="99.9993712%" y2="50.0007316%" id="linearGradient-30">
            <stop stop-color="#FCCEAC" offset="0%"></stop>
            <stop stop-color="#F7A977" offset="100%"></stop>
        </linearGradient>
        <path d="M6.341,0.183 C4.11,0.508 1.835,6.172 0.723,9.346 L0.723,9.346 C0.535,9.884 0.384,10.352 0.268,10.709 L0.268,10.709 C0.117,11.18 0.032,11.461 0.032,11.461 L0.032,11.461 L6.719,15.165 C6.719,15.165 6.915,14.791 7.227,14.172 L7.227,14.172 C7.405,13.821 7.623,13.384 7.859,12.894 L7.859,12.894 C8.759,11.047 9.978,8.402 10.721,6.193 L10.721,6.193 C11.963,2.524 10.049,0.123 7.152,0.123 L7.152,0.123 C6.889,0.123 6.618,0.143 6.341,0.183" id="path-31"></path>
        <path d="M7.859,3.894 C7.623,4.384 7.405,4.82 7.227,5.172 L0.268,1.708 C0.384,1.352 0.535,0.885 0.722,0.346 L7.859,3.894 Z" id="path-33"></path>
        <linearGradient x1="-0.000532209195%" y1="50.0014795%" x2="100.001975%" y2="50.0014795%" id="linearGradient-35">
            <stop stop-color="#FC9600" offset="0%"></stop>
            <stop stop-color="#FC9600" offset="100%"></stop>
        </linearGradient>
        <path d="M14.779,3.004 C14.423,4.184 13.425,5.76 10.705,6.566 L9.993,6.78 L9.267,6.65 C3.679,5.649 1.622,2.652 1.266,2.06 L0.518,0.814 C1.582,0.658 2.918,0.497 4.227,0.435 C6.48,0.328 9.743,0.257 11.729,0.435 C12.882,0.542 14.009,0.734 14.908,0.907" id="path-36"></path>
        <linearGradient x1="0.000617759199%" y1="49.9978047%" x2="100.000099%" y2="49.9978047%" id="linearGradient-38">
            <stop stop-color="#FC9600" offset="0%"></stop>
            <stop stop-color="#FC9600" offset="100%"></stop>
        </linearGradient>
        <path d="M0.937,8.453 C0.937,8.453 2.338,10.779 6.815,11.581 L6.815,11.581 C10.179,10.581 8.373,8.408 8.373,8.408 L8.373,8.408 C6.191,7.892 5.808,6.543 5.955,5.06 L5.955,5.06 C5.986,4.699 6.049,4.326 6.129,3.956 L6.129,3.956 L3.395,1.685 L1.387,0.02 C1.944,2.438 2.572,6.841 0.937,8.453" id="path-39"></path>
        <linearGradient x1="0.00506049572%" y1="49.9996609%" x2="99.9980949%" y2="49.9996609%" id="linearGradient-41">
            <stop stop-color="#FCCEAC" offset="0%"></stop>
            <stop stop-color="#F7A977" offset="100%"></stop>
        </linearGradient>
        <path d="M0.43,1.728 C0.574,2.769 1.935,3.855 2.955,4.06 L2.955,4.06 C2.986,3.699 3.049,3.326 3.129,2.956 L3.129,2.956 L0.395,0.685 C0.368,0.957 0.377,1.336 0.43,1.728" id="path-42"></path>
        <path d="M0.298,3.701 C0.561,5.537 1.431,7.373 2.445,6.89 L2.445,6.89 C4.517,5.905 3.611,1.321 1.984,0.586 L1.984,0.586 C1.754,0.482 1.549,0.434 1.369,0.434 L1.369,0.434 C0.312,0.434 0.064,2.067 0.298,3.701" id="path-44"></path>
        <linearGradient x1="0.00361528639%" y1="49.9945184%" x2="100.004778%" y2="49.9945184%" id="linearGradient-46">
            <stop stop-color="#101519" offset="0%"></stop>
            <stop stop-color="#223137" offset="100%"></stop>
        </linearGradient>
        <path d="M0.559,5.544 C1.257,8.753 1.503,10.661 3.398,12.126 L3.398,12.126 C6.25,14.329 10.029,12.372 10.306,9.052 L10.306,9.052 C10.556,6.064 9.372,1.317 5.995,0.408 L5.995,0.408 C5.57,0.294 5.153,0.24 4.752,0.24 L4.752,0.24 C2.008,0.24 -0.05,2.743 0.559,5.544" id="path-47"></path>
        <linearGradient x1="0.0028197705%" y1="50.0003128%" x2="100.000099%" y2="50.0003128%" id="linearGradient-49">
            <stop stop-color="#FCCEAC" offset="0%"></stop>
            <stop stop-color="#F7A977" offset="100%"></stop>
        </linearGradient>
        <path d="M8.275,1.966 C6.755,3.632 1.391,1.072 1.833,6.358 L1.833,6.358 C0.275,7.051 1.159,9.188 2.22,10.546 L2.22,10.546 C3.694,12.434 5.253,13.316 6.315,12.445 L6.315,12.445 C7.269,11.967 7.896,9.16 7.064,7.427 L7.064,7.427 C8.532,6.464 11.573,7.655 12.521,6.082 L12.521,6.082 C13.469,4.509 14.145,4.65 15.816,5.682 L15.816,5.682 C17.487,6.713 18.822,2.633 14.472,1.873 L14.472,1.873 C16.877,2.952 16.323,5.061 14.564,2.901 L14.564,2.901 C13.759,1.912 12.224,0.857 10.68,0.857 L10.68,0.857 C9.842,0.857 9.003,1.167 8.275,1.966" id="path-50"></path>
        <linearGradient x1="-0.00133636842%" y1="49.9998289%" x2="99.9986415%" y2="49.9998289%" id="linearGradient-52">
            <stop stop-color="#101519" offset="0%"></stop>
            <stop stop-color="#223137" offset="100%"></stop>
        </linearGradient>
        <path d="M0.863,0.347 C0.69,0.368 0.583,0.599 0.624,0.861 L0.624,0.861 C0.664,1.125 0.837,1.321 1.01,1.301 L1.01,1.301 C1.183,1.281 1.29,1.05 1.249,0.788 L1.249,0.788 C1.211,0.537 1.052,0.346 0.888,0.346 L0.888,0.346 C0.88,0.346 0.871,0.346 0.863,0.347" id="path-53"></path>
        <linearGradient x1="17.833%" y1="50.0123632%" x2="82.12886%" y2="50.0123632%" id="linearGradient-55">
            <stop stop-color="#101519" offset="0%"></stop>
            <stop stop-color="#223137" offset="100%"></stop>
        </linearGradient>
        <path d="M0.851,0.993 C0.678,1.013 0.571,1.243 0.612,1.507 L0.612,1.507 C0.652,1.77 0.825,1.967 0.998,1.946 L0.998,1.946 C1.171,1.925 1.278,1.695 1.237,1.432 L1.237,1.432 C1.199,1.181 1.04,0.991 0.876,0.991 L0.876,0.991 C0.868,0.991 0.859,0.992 0.851,0.993" id="path-56"></path>
        <linearGradient x1="17.8535%" y1="49.9803086%" x2="82.15345%" y2="49.9803086%" id="linearGradient-58">
            <stop stop-color="#101519" offset="0%"></stop>
            <stop stop-color="#223137" offset="100%"></stop>
        </linearGradient>
        <path d="M1.065,3.238 C1.065,3.238 1.892,3.342 2.292,2.852 L2.292,2.852 C1.517,2.198 0.682,0.751 0.682,0.751 L0.682,0.751 L1.065,3.238 Z" id="path-59"></path>
        <linearGradient x1="-0.0118944099%" y1="49.9840027%" x2="99.9988323%" y2="49.9840027%" id="linearGradient-61">
            <stop stop-color="#F7A977" offset="0%"></stop>
            <stop stop-color="#E79D66" offset="100%"></stop>
        </linearGradient>
        <path d="M0.44,0.281 C0.408,0.309 0.405,0.359 0.433,0.391 L0.433,0.391 C0.46,0.422 1.046,1.075 2.095,1.075 L2.095,1.075 C2.194,1.075 2.298,1.07 2.405,1.057 L2.405,1.057 C2.447,1.052 2.479,1.013 2.473,0.97 L2.473,0.97 C2.468,0.928 2.429,0.895 2.386,0.902 L2.386,0.902 C1.225,1.04 0.557,0.295 0.551,0.288 L0.551,0.288 C0.535,0.27 0.514,0.261 0.492,0.261 L0.492,0.261 C0.473,0.261 0.455,0.268 0.44,0.281" id="path-62"></path>
        <linearGradient x1="-0.00642728256%" y1="50.05028%" x2="99.9903275%" y2="50.05028%" id="linearGradient-64">
            <stop stop-color="#101519" offset="0%"></stop>
            <stop stop-color="#223137" offset="100%"></stop>
        </linearGradient>
        <path d="M1.584,0.987 C1.553,0.988 0.829,1.032 0.414,1.779 L0.414,1.779 C0.373,1.854 0.4,1.949 0.475,1.991 L0.475,1.991 C0.5,2.005 0.526,2.011 0.551,2.011 L0.551,2.011 C0.606,2.011 0.659,1.982 0.688,1.93 L0.688,1.93 C1.015,1.339 1.576,1.301 1.599,1.299 L1.599,1.299 C1.686,1.294 1.751,1.222 1.748,1.135 L1.748,1.135 C1.744,1.053 1.676,0.986 1.596,0.986 L1.596,0.986 C1.592,0.986 1.588,0.986 1.584,0.987" id="path-65"></path>
        <linearGradient x1="-0.0110497736%" y1="49.9781268%" x2="99.9681825%" y2="49.9781268%" id="linearGradient-67">
            <stop stop-color="#101519" offset="0%"></stop>
            <stop stop-color="#223137" offset="100%"></stop>
        </linearGradient>
        <path d="M0.622,0.351 C0.536,0.351 0.465989267,0.421 0.465989267,0.507 L0.465989267,0.507 C0.465,0.593 0.534,0.663 0.622,0.663 L0.622,0.663 C0.627,0.663 1.208,0.674 1.609,1.262 L1.609,1.262 C1.639,1.306 1.688,1.33 1.738,1.33 L1.738,1.33 C1.768,1.33 1.8,1.321 1.827,1.303 L1.827,1.303 C1.898,1.255 1.916,1.158 1.867,1.086 L1.867,1.086 C1.411,0.417 0.748,0.35 0.638,0.35 L0.638,0.35 C0.629,0.35 0.623,0.351 0.622,0.351" id="path-68"></path>
        <linearGradient x1="-0.0128913037%" y1="50.0271%" x2="99.9965818%" y2="50.0271%" id="linearGradient-70">
            <stop stop-color="#101519" offset="0%"></stop>
            <stop stop-color="#223137" offset="100%"></stop>
        </linearGradient>
        <path d="M1.681,1.212 L0.419,2.88 C0.282,4.426 3.282,4.444 3.282,4.444 L3.282,4.444 L5.876,5.625 L7.42,2.551 L4.968,0.64 L1.681,1.212 Z" id="path-71"></path>
    </defs>
    <g id="Page-1-Copy-2" stroke="none" stroke-width="1" fill="none" fill-rule="evenodd">
        <g id="1-copy-15" transform="translate(-41.000000, -307.000000)">
            <g id="Group-234" transform="translate(41.000000, 306.000000)">
                <path d="M51.3357,165.5218 C84.8027,167.4698 139.0647,167.4698 172.5317,165.5218 C205.9987,163.5738 205.9987,160.4148 172.5317,158.4668 C139.0637,156.5188 84.8027,156.5188 51.3357,158.4668 C17.8687,160.4148 17.8687,163.5738 51.3357,165.5218" id="Fill-1" fill="#E8E8E8"></path>
                <polygon id="Fill-3" fill="#CFE1FD" points="0 146.9 222.614 146.9 222.614 146.789 0 146.789"></polygon>
                <polygon id="Fill-4" fill="#CFE1FD" points="150.421 151.87 155.088 151.87 155.088 151.759 150.421 151.759"></polygon>
                <polygon id="Fill-5" fill="#CFE1FD" points="28.91 149.644 46.832 149.644 46.832 149.532 28.91 149.532"></polygon>
                <polygon id="Fill-6" fill="#CFE1FD" points="55.736 149.972 82.073 149.972 82.073 149.86 55.736 149.86"></polygon>
                <polygon id="Fill-7" fill="#CFE1FD" points="112.183 149.972 119.766 149.972 119.766 149.86 112.183 149.86"></polygon>
                <polygon id="Fill-8" fill="#CFE1FD" points="174.282 150.677 198.592 150.677 198.592 150.565 174.282 150.565"></polygon>
                <polygon id="Fill-9" fill="#CFE1FD" points="91.816 152.51 101.858 152.51 101.858 152.399 91.816 152.399"></polygon>
                <polygon id="Fill-10" fill="#CFE1FD" points="201.189 150.733 207.56 150.733 207.56 150.621 201.189 150.621"></polygon>
                <g id="Group-42" transform="translate(0.000000, 0.983000)">
                    <path d="M19.5522,0.1286 C18.2122,0.1286 17.1222,1.2186 17.1222,2.5586 L17.1222,123.4076 C17.1222,124.7476 18.2122,125.8376 19.5522,125.8376 L105.5252,125.8376 C106.8652,125.8376 107.9552,124.7476 107.9552,123.4076 L107.9552,2.5586 C107.9552,1.2186 106.8652,0.1286 105.5252,0.1286 L19.5522,0.1286 Z M105.5252,125.9486 L19.5522,125.9486 C18.1512,125.9486 17.0112,124.8086 17.0112,123.4076 L17.0112,2.5586 C17.0112,1.1576 18.1512,0.0176 19.5522,0.0176 L105.5252,0.0176 C106.9262,0.0176 108.0662,1.1576 108.0662,2.5586 L108.0662,123.4076 C108.0662,124.8086 106.9262,125.9486 105.5252,125.9486 L105.5252,125.9486 Z" id="Fill-11" fill="#E8E8E8"></path>
                    <path d="M115.8538,0.1286 C114.5138,0.1286 113.4238,1.2186 113.4238,2.5586 L113.4238,123.4076 C113.4238,124.7476 114.5138,125.8376 115.8538,125.8376 L201.8268,125.8376 C203.1668,125.8376 204.2568,124.7476 204.2568,123.4076 L204.2568,2.5586 C204.2568,1.2186 203.1668,0.1286 201.8268,0.1286 L115.8538,0.1286 Z M201.8268,125.9486 L115.8538,125.9486 C114.4528,125.9486 113.3128,124.8086 113.3128,123.4076 L113.3128,2.5586 C113.3128,1.1576 114.4528,0.0176 115.8538,0.0176 L201.8268,0.0176 C203.2278,0.0176 204.3678,1.1576 204.3678,2.5586 L204.3678,123.4076 C204.3678,124.8086 203.2278,125.9486 201.8268,125.9486 L201.8268,125.9486 Z" id="Fill-13" fill="#E8E8E8"></path>
                    <mask id="mask-2" fill="white">
                        <use xlink:href="#path-1"></use>
                    </mask>
                    <g id="Clip-16"></g>
                    <polygon id="Fill-15" fill="#CFE1FD" mask="url(#mask-2)" points="32.418 79.034 93.094 79.034 93.094 8.333 32.418 8.333"></polygon>
                    <polygon id="Fill-17" fill="#F5F5F5" mask="url(#mask-2)" points="30.769 79.034 92.323 79.034 92.323 8.333 30.769 8.333"></polygon>
                    <polygon id="Fill-18" fill="#CFE1FD" mask="url(#mask-2)" points="32.418 82.995 93.094 82.995 93.094 79.034 32.418 79.034"></polygon>
                    <polygon id="Fill-19" fill="#F5F5F5" mask="url(#mask-2)" points="23.231 82.995 81.177 82.995 81.177 79.034 23.231 79.034"></polygon>
                    <polygon id="Fill-20" fill="#F5F5F5" mask="url(#mask-2)" points="33.078 76.035 90.015 76.035 90.015 11.332 33.078 11.332"></polygon>
                    <polygon id="Fill-21" fill="#FFFFFF" mask="url(#mask-2)" points="81.8231 76.0354 68.2721 11.3324 50.5091 11.3324 64.0601 76.0354"></polygon>
                    <polygon id="Fill-22" fill="#FFFFFF" mask="url(#mask-2)" points="61.1853 76.0354 47.6343 11.3324 39.6123 11.3324 53.1633 76.0354"></polygon>
                    <polygon id="Fill-23" fill="#CFE1FD" mask="url(#mask-2)" points="33.078 69.265 33.371 69.265 33.371 10.927 33.078 10.927"></polygon>
                    <path d="M94.8269,8.2316 L94.8269,33.4036 L88.1669,33.4036 C88.1669,33.4036 76.2009,25.5976 73.4809,9.5416 C73.2049,7.9106 74.4539,6.4196 76.1069,6.4196 L93.0149,6.4196 C94.0159,6.4196 94.8269,7.2306 94.8269,8.2316" id="Fill-24" fill="#E8E8E8" mask="url(#mask-2)"></path>
                    <path d="M94.8269,73.7559 L94.8269,35.4359 L88.1669,35.4359 C88.1669,35.4359 84.3379,43.1709 80.5199,52.0679 C76.1139,62.3319 83.6569,73.7559 94.8269,73.7559" id="Fill-25" fill="#E8E8E8" mask="url(#mask-2)"></path>
                    <path d="M88.7116,35.4357 L94.2326,35.4357 C94.7946,35.4357 95.2496,34.9807 95.2496,34.4197 C95.2496,33.8587 94.7946,33.4037 94.2326,33.4037 L88.7116,33.4037 C88.1506,33.4037 87.6956,33.8587 87.6956,34.4197 C87.6956,34.9807 88.1506,35.4357 88.7116,35.4357" id="Fill-26" fill="#F5F5F5" mask="url(#mask-2)"></path>
                    <path d="M28.8836,8.2316 L28.8836,33.4036 L35.5436,33.4036 C35.5436,33.4036 47.5096,25.5976 50.2296,9.5416 C50.5056,7.9106 49.2566,6.4196 47.6036,6.4196 L30.6956,6.4196 C29.6946,6.4196 28.8836,7.2306 28.8836,8.2316" id="Fill-27" fill="#E8E8E8" mask="url(#mask-2)"></path>
                    <path d="M28.8836,73.7559 L28.8836,35.4359 L35.5436,35.4359 C35.5436,35.4359 39.3726,43.1709 43.1916,52.0679 C47.5966,62.3319 40.0536,73.7559 28.8836,73.7559 Z" id="Fill-28" fill="#E8E8E8" mask="url(#mask-2)"></path>
                    <path d="M34.9989,35.4357 L29.4779,35.4357 C28.9159,35.4357 28.4609,34.9807 28.4609,34.4197 C28.4609,33.8587 28.9159,33.4037 29.4779,33.4037 L34.9989,33.4037 C35.5599,33.4037 36.0149,33.8587 36.0149,34.4197 C36.0149,34.9807 35.5599,35.4357 34.9989,35.4357" id="Fill-29" fill="#F1F6FF" mask="url(#mask-2)"></path>
                    <polygon id="Fill-30" fill="#F5F5F5" mask="url(#mask-2)" points="164.452 65.202 191.179 65.202 191.179 17.013 164.452 17.013"></polygon>
                    <polygon id="Fill-31" fill="#E8E8E8" mask="url(#mask-2)" points="161.457 65.202 190.495 65.202 190.495 17.013 161.457 17.013"></polygon>
                    <polygon id="Fill-32" fill="#FFFFFF" mask="url(#mask-2)" points="164.452 62.207 187.5 62.207 187.5 20.008 164.452 20.008"></polygon>
                    <polygon id="Fill-33" fill="#F5F5F5" mask="url(#mask-2)" points="172.504 34.761 179.447 34.761 179.447 28.522 172.504 28.522"></polygon>
                    <polygon id="Fill-34" fill="#F1F6FF" mask="url(#mask-2)" points="172.504 44.227 179.447 44.227 179.447 37.988 172.504 37.988"></polygon>
                    <polygon id="Fill-35" fill="#F1F6FF" mask="url(#mask-2)" points="172.504 53.693 179.447 53.693 179.447 47.453 172.504 47.453"></polygon>
                    <path d="M135.8659,53.9284 C143.9399,53.9284 150.4849,47.3834 150.4849,39.3094 C150.4849,31.2364 143.9399,24.6914 135.8659,24.6914 L134.9669,24.6914 L134.9669,53.9284 L135.8659,53.9284 Z" id="Fill-36" fill="#CFE1FD" mask="url(#mask-2)"></path>
                    <path d="M120.3481,39.3096 C120.3481,47.3836 126.8931,53.9286 134.9671,53.9286 C143.0401,53.9286 149.5851,47.3836 149.5851,39.3096 C149.5851,31.2356 143.0401,24.6906 134.9671,24.6906 C126.8931,24.6906 120.3481,31.2356 120.3481,39.3096" id="Fill-37" fill="#F1F6FF" mask="url(#mask-2)"></path>
                    <path d="M123.9447,39.3096 C123.9447,45.3966 128.8797,50.3316 134.9667,50.3316 C141.0537,50.3316 145.9887,45.3966 145.9887,39.3096 C145.9887,33.2226 141.0537,28.2876 134.9667,28.2876 C128.8797,28.2876 123.9447,33.2226 123.9447,39.3096" id="Fill-38" fill="#FFFFFF" mask="url(#mask-2)"></path>
                    <polygon id="Fill-39" fill="#CFE1FD" mask="url(#mask-2)" points="130.4076 43.4063 129.5486 42.1743 134.1316 38.9763 132.6196 31.6143 134.0916 31.3123 135.8016 39.6423"></polygon>
                    <polygon id="Fill-40" fill="#CFE1FD" mask="url(#mask-2)" points="63.89 147.383 82.995 147.383 82.995 95.764 63.89 95.764"></polygon>
                    <polygon id="Fill-41" fill="#F1F6FF" mask="url(#mask-2)" points="68.992 147.3831 63.89 147.3831 63.89 138.8341 74.341 138.8341"></polygon>
                </g>
                <polygon id="Fill-43" fill="url(#linearGradient-3)" points="178.429 148.366 197.533 148.366 197.533 96.746 178.429 96.746"></polygon>
                <polygon id="Fill-45" fill="url(#linearGradient-4)" points="63.89 145.424 182.881 145.424 182.881 96.748 63.89 96.748"></polygon>
                <g id="Group-49" transform="translate(172.000000, 138.983000)">
                    <mask id="mask-6" fill="white">
                        <use xlink:href="#path-5"></use>
                    </mask>
                    <g id="Clip-48"></g>
                    <polygon id="Fill-47" fill="url(#linearGradient-7)" mask="url(#mask-6)" points="0.43 0.833 5.779 9.383 10.881 9.383 10.881 0.833"></polygon>
                </g>
                <g id="Group-62" transform="translate(64.000000, 82.983000)">
                    <polygon id="Fill-50" fill="#E8E8E8" points="3.848 35.867 114.923 35.867 114.923 17.95 3.848 17.95"></polygon>
                    <polygon id="Fill-52" fill="#E8E8E8" points="3.848 58.112 114.923 58.112 114.923 40.195 3.848 40.195"></polygon>
                    <path d="M81.5631,4.7331 C81.5631,6.9361 83.3491,8.7211 85.5511,8.7211 C87.7541,8.7211 89.5391,6.9361 89.5391,4.7331 C89.5391,2.5301 87.7541,0.7451 85.5511,0.7451 C83.3491,0.7451 81.5631,2.5301 81.5631,4.7331" id="Fill-53" fill="#F1F6FF"></path>
                    <path d="M88.3646,6.6338 C88.3646,8.3558 89.7606,9.7518 91.4826,9.7518 C93.2036,9.7518 94.5996,8.3558 94.5996,6.6338 C94.5996,4.9118 93.2036,3.5158 91.4826,3.5158 C89.7606,3.5158 88.3646,4.9118 88.3646,6.6338" id="Fill-54" fill="#F1F6FF"></path>
                    <path d="M74.7366,6.6338 C74.7366,8.8368 76.5226,10.6218 78.7246,10.6218 C80.9276,10.6218 82.7126,8.8368 82.7126,6.6338 C82.7126,4.4308 80.9276,2.6458 78.7246,2.6458 C76.5226,2.6458 74.7366,4.4308 74.7366,6.6338" id="Fill-55" fill="#F1F6FF"></path>
                    <path d="M68.1965,5.4626 C68.1965,7.6656 69.9825,9.4506 72.1845,9.4506 C74.3875,9.4506 76.1725,7.6656 76.1725,5.4626 C76.1725,3.2596 74.3875,1.4746 72.1845,1.4746 C69.9825,1.4746 68.1965,3.2596 68.1965,5.4626" id="Fill-56" fill="#F1F6FF"></path>
                    <path d="M102.466,5.9831 C102.466,5.9831 101.918,13.7641 80.926,13.7641 C59.933,13.7641 59.385,5.9831 59.385,5.9831 L102.466,5.9831 Z" id="Fill-57" fill="#CFE1FD"></path>
                    <polygon id="Fill-58" fill="#CC7A63" points="2.9495 69.7994 5.5665 72.1414 10.5455 66.9554 7.9285 64.6134"></polygon>
                    <polygon id="Fill-59" fill="#CC7A63" points="11.9118 74.674 15.2128 74.674 15.6408 67.03 12.3408 67.03"></polygon>
                    <path d="M15.3855,74.2918 L11.6775,74.2918 C11.5425,74.2918 11.4405,74.3858 11.4325,74.5168 L11.2525,77.4508 C11.2345,77.7558 11.5195,78.0438 11.8305,78.0378 C13.1215,78.0158 13.7385,77.9398 15.3685,77.9398 C16.3725,77.9398 20.6375,78.0438 22.0225,78.0438 C23.3785,78.0438 23.3685,76.6738 22.7815,76.5498 C20.1495,75.9938 16.8855,75.2268 15.9535,74.4948 C15.7855,74.3628 15.5825,74.2918 15.3855,74.2918" id="Fill-60" fill="#10264C"></path>
                    <path d="M6.2881,71.2013 L3.1071,69.0593 C2.9881,68.9793 2.8371,68.9843 2.7431,69.0703 L0.3121,71.5243 C0.0951,71.7233 0.1661,72.0653 0.4291,72.2683 C2.4581,73.8313 3.9241,75.0103 5.0791,76.3103 C6.4301,77.8293 7.1381,78.0443 10.2551,78.0443 C11.6971,78.0443 12.5121,76.8303 11.9251,76.6443 C6.7301,74.9993 8.1191,74.2843 6.8571,71.8763 C6.7201,71.6143 6.5391,71.3703 6.2881,71.2013" id="Fill-61" fill="#10264C"></path>
                </g>
                <g id="Group-65" transform="translate(87.000000, 47.983000)">
                    <mask id="mask-9" fill="white">
                        <use xlink:href="#path-8"></use>
                    </mask>
                    <g id="Clip-64"></g>
                    <path d="M0.027,1.411 C0.135,1.807 0.225,2.094 0.33,2.424 L0.33,2.424 C0.432,2.742 0.546,3.054 0.66,3.365 L0.66,3.365 C0.889,3.986 1.135,4.598 1.4,5.205 L1.4,5.205 C1.934,6.416 2.541,7.602 3.256,8.748 L3.256,8.748 C3.967,9.895 4.773,11.01 5.731,12.042 L5.731,12.042 C6.678,13.079 7.784,14.04 9.078,14.802 L9.078,14.802 L9.588,15.092 C9.854,15.231 10.138,15.352 10.434,15.437 L10.434,15.437 C11.025,15.613 11.643,15.655 12.188,15.598 L12.188,15.598 C13.287,15.47 14.102,15.063 14.787,14.649 L14.787,14.649 C16.145,13.799 17.073,12.788 17.951,11.78 L17.951,11.78 C19.654,9.725 20.949,7.57 22.076,5.245 L22.076,5.245 L19.954,3.964 C19.218,4.867 18.44,5.809 17.645,6.678 L17.645,6.678 C16.852,7.557 16.043,8.407 15.203,9.161 L15.203,9.161 C14.382,9.919 13.487,10.597 12.709,10.974 L12.709,10.974 C12.329,11.159 11.98,11.231 11.85,11.206 L11.85,11.206 C11.783,11.197 11.779,11.177 11.785,11.167 L11.785,11.167 C11.787,11.164 11.79,11.155 11.787,11.149 L11.787,11.149 L11.51,10.959 C9.943,9.85 8.611,8.117 7.517,6.202 L7.517,6.202 C6.967,5.242 6.475,4.227 6.022,3.189 L6.022,3.189 C5.795,2.671 5.581,2.143 5.384,1.613 L5.384,1.613 L5.099,0.818 C5.009,0.566 4.909,0.268 4.849,0.073 L4.849,0.073 L0.027,1.411 Z" id="Fill-63" fill="url(#linearGradient-10)" mask="url(#mask-9)"></path>
                </g>
                <g id="Group-68" transform="translate(85.000000, 44.983000)">
                    <mask id="mask-12" fill="white">
                        <use xlink:href="#path-11"></use>
                    </mask>
                    <g id="Clip-67"></g>
                    <path d="M0.829,2.445 C0.112,4.533 2.881,9.502 4.555,12.223 L4.555,12.223 C4.853,12.703 5.112,13.113 5.312,13.424 L5.312,13.424 C5.589,13.847 5.757,14.092 5.757,14.092 L5.757,14.092 L11.452,10.94 C11.452,10.94 11.345,10.632 11.153,10.117 L11.153,10.117 C11.02,9.76 10.846,9.301 10.637,8.776 L10.637,8.776 C10.005,7.182 9.07,4.956 8.032,3.015 L8.032,3.015 C6.983,1.052 5.368,0.1 3.905,0.1 L3.905,0.1 C2.568,0.1 1.358,0.897 0.829,2.445" id="Fill-66" mask="url(#mask-12)"></path>
                </g>
                <g id="Group-83" transform="translate(69.000000, 46.983000)">
                    <g id="Group-71" transform="translate(20.000000, 6.000000)">
                        <mask id="mask-14" fill="white">
                            <use xlink:href="#path-13"></use>
                        </mask>
                        <g id="Clip-70"></g>
                        <path d="M7.154,2.116 L1.312,5.424 C1.112,5.113 0.853,4.703 0.555,4.222 L6.637,0.776 C6.846,1.301 7.02,1.76 7.154,2.116" id="Fill-69" fill="url(#linearGradient-15)" mask="url(#mask-14)"></path>
                    </g>
                    <g id="Group-74" transform="translate(16.000000, 0.000000)">
                        <mask id="mask-17" fill="white">
                            <use xlink:href="#path-16"></use>
                        </mask>
                        <g id="Clip-73"></g>
                        <path d="M0.743,0.817 C2.016,0.204 3.485,0.717 5.027,3.156 C6.549,5.57 7.887,9.672 8.031,10.834 L5.756,12.093 C5.756,12.093 0.274,4.063 0.743,0.817" id="Fill-72" fill="url(#linearGradient-18)" mask="url(#mask-17)"></path>
                    </g>
                    <path d="M37.577,5.5049 L38.712,1.8749 L41.66,4.0349 C41.66,4.0349 40.051,7.2699 38.959,6.9769 L37.577,5.5049 Z" id="Fill-75" fill="#CC7A63"></path>
                    <polygon id="Fill-77" fill="#CC7A63" points="41.8187 0.4851 43.4777 2.5191 41.6597 4.0351 38.7127 1.8751"></polygon>
                    <polygon id="Fill-79" fill="#BA6753" points="5.5438 102.9561 2.9778 105.6291 0.3598 103.2871 2.9258 100.6131"></polygon>
                    <polygon id="Fill-81" fill="#BA6753" points="7.3396 103.0323 10.6416 103.0323 10.4186 106.9723 7.1166 106.9723"></polygon>
                </g>
                <g id="Group-86" transform="translate(71.000000, 43.983000)">
                    <mask id="mask-20" fill="white">
                        <use xlink:href="#path-19"></use>
                    </mask>
                    <g id="Clip-85"></g>
                    <path d="M6.227,0.435 C4.918,0.497 3.582,0.658 2.518,0.813 L2.518,0.813 C1.236,1.001 0.341,1.183 0.341,1.183 L0.341,1.183 C0.426,1.54 0.506,1.891 0.586,2.247 L0.586,2.247 C1.686,7.243 2.157,12.26 2.34,16.646 L2.34,16.646 C2.612,23.177 2.247,28.307 2.372,29.882 L2.372,29.882 L20.024,29.882 C23.083,11.321 18.84,1.352 18.84,1.352 L18.84,1.352 C18.84,1.352 18.057,1.138 16.908,0.907 L16.908,0.907 C16.008,0.733 14.883,0.542 13.729,0.435 L13.729,0.435 C12.854,0.357 11.732,0.327 10.558,0.327 L10.558,0.327 C9.065,0.327 7.488,0.375 6.227,0.435" id="Fill-84" mask="url(#mask-20)"></path>
                </g>
                <g id="Group-89" transform="translate(71.000000, 45.983000)">
                    <mask id="mask-22" fill="white">
                        <use xlink:href="#path-21"></use>
                    </mask>
                    <g id="Clip-88"></g>
                    <path d="M2.34,14.647 C2.158,10.262 1.686,5.244 0.586,0.249 C1.766,0.146 3.783,0.262 4.117,2.168 C4.477,4.216 4.023,9.033 2.34,14.647" id="Fill-87" fill="url(#linearGradient-23)" mask="url(#mask-22)"></path>
                </g>
                <g id="Group-92" transform="translate(69.000000, 72.983000)">
                    <mask id="mask-25" fill="white">
                        <use xlink:href="#path-24"></use>
                    </mask>
                    <g id="Clip-91"></g>
                    <path d="M10.235,0.714 C10.235,0.714 14.432,24.481 15.669,35.814 L15.669,35.814 C16.947,47.513 0.346,75.612 0.346,75.612 L0.346,75.612 L4.742,79.749 C4.742,79.749 27.472,48.393 26.52,37.884 L26.52,37.884 C25.333,24.782 21.856,0.714 21.856,0.714 L21.856,0.714 L10.235,0.714 Z" id="Fill-90" mask="url(#mask-25)"></path>
                </g>
                <g id="Group-97" transform="translate(69.000000, 81.983000)">
                    <path d="M15.6673,26.8122 C15.0303,20.9752 13.6063,11.8302 12.3813,4.3412 C13.0223,3.0862 14.8203,0.5452 14.8203,0.5452 C16.4323,6.1152 19.9353,27.1102 14.9373,55.4672 C9.7283,63.8642 4.7413,70.7472 4.7413,70.7472 L4.0603,59.9192 C8.8733,50.8632 16.5533,34.9112 15.6673,26.8122" id="Fill-93" fill="#0C1B35"></path>
                    <polygon id="Fill-95" fill="#9DC4FD" points="0.0784 66.3608 5.0094 71.0008 6.5974 69.2958 0.9574 64.1568"></polygon>
                </g>
                <g id="Group-100" transform="translate(73.000000, 72.983000)">
                    <mask id="mask-27" fill="white">
                        <use xlink:href="#path-26"></use>
                    </mask>
                    <g id="Clip-99"></g>
                    <path d="M0.186,0.714 C0.186,0.714 1.21,25.207 1.605,36.327 L1.605,36.327 C1.97,46.573 1.789,80.021 1.789,80.021 L1.789,80.021 L7.834,80.021 C7.834,80.021 10.77,45.738 11.357,35.389 L11.357,35.389 C11.892,25.938 11.577,0.714 11.577,0.714 L11.577,0.714 L0.186,0.714 Z" id="Fill-98" mask="url(#mask-27)"></path>
                </g>
                <polygon id="Fill-101" fill="#9DC4FD" points="74.5456 153.0042 81.0786 153.0042 81.4406 150.7102 74.2306 151.0682"></polygon>
                <g id="Group-105" transform="translate(64.000000, 46.983000)">
                    <mask id="mask-29" fill="white">
                        <use xlink:href="#path-28"></use>
                    </mask>
                    <g id="Clip-104"></g>
                    <path d="M5.387,1.822 C5.096,2.329 4.813,2.838 4.539,3.352 L4.539,3.352 C3.992,4.382 3.481,5.432 3.012,6.507 L3.012,6.507 C2.083,8.665 1.272,10.904 0.805,13.34 L0.805,13.34 L0.76,13.567 L0.737,13.68 L0.706,13.866 C0.663,14.137 0.652,14.38 0.65,14.619 L0.65,14.619 C0.652,15.087 0.707,15.496 0.785,15.874 L0.785,15.874 C0.946,16.625 1.181,17.26 1.435,17.857 L1.435,17.857 C1.943,19.049 2.571,20.075 3.214,21.069 L3.214,21.069 C4.529,23.042 5.982,24.796 7.612,26.469 L7.612,26.469 L9.565,24.943 C8.484,23.062 7.412,21.114 6.513,19.203 L6.513,19.203 C6.059,18.251 5.665,17.281 5.385,16.379 L5.385,16.379 C5.247,15.93 5.152,15.492 5.123,15.142 L5.123,15.142 C5.107,14.968 5.107,14.819 5.122,14.728 L5.122,14.728 C5.131,14.687 5.138,14.652 5.147,14.648 L5.147,14.648 C5.148,14.645 5.148,14.646 5.149,14.646 L5.149,14.646 C5.149,14.647 5.149,14.648 5.155,14.627 L5.155,14.627 L5.181,14.537 L5.234,14.357 C5.492,13.398 5.863,12.427 6.236,11.461 L6.236,11.461 C6.628,10.496 7.067,9.534 7.522,8.577 L7.522,8.577 C7.988,7.622 8.479,6.673 8.985,5.731 L8.985,5.731 C9.236,5.259 9.494,4.79 9.76,4.327 L9.76,4.327 L10.542,2.977 L6.32,0.292 C5.971,0.831 5.679,1.306 5.387,1.822" id="Fill-103" fill="url(#linearGradient-30)" mask="url(#mask-29)"></path>
                </g>
                <g id="Group-108" transform="translate(65.000000, 44.983000)">
                    <mask id="mask-32" fill="white">
                        <use xlink:href="#path-31"></use>
                    </mask>
                    <g id="Clip-107"></g>
                    <path d="M6.341,0.183 C4.11,0.508 1.835,6.172 0.723,9.346 L0.723,9.346 C0.535,9.884 0.384,10.352 0.268,10.709 L0.268,10.709 C0.117,11.18 0.032,11.461 0.032,11.461 L0.032,11.461 L6.719,15.165 C6.719,15.165 6.915,14.791 7.227,14.172 L7.227,14.172 C7.405,13.821 7.623,13.384 7.859,12.894 L7.859,12.894 C8.759,11.047 9.978,8.402 10.721,6.193 L10.721,6.193 C11.963,2.524 10.049,0.123 7.152,0.123 L7.152,0.123 C6.889,0.123 6.618,0.143 6.341,0.183" id="Fill-106" mask="url(#mask-32)"></path>
                </g>
                <g id="Group-115" transform="translate(65.000000, 43.983000)">
                    <g id="Group-111" transform="translate(0.000000, 10.000000)">
                        <mask id="mask-34" fill="white">
                            <use xlink:href="#path-33"></use>
                        </mask>
                        <g id="Clip-110"></g>
                        <path d="M7.859,3.894 C7.623,4.384 7.405,4.82 7.227,5.172 L0.268,1.708 C0.384,1.352 0.535,0.885 0.722,0.346 L7.859,3.894 Z" id="Fill-109" fill="url(#linearGradient-35)" mask="url(#mask-34)"></path>
                    </g>
                    <g id="Group-114" transform="translate(8.000000, 0.000000)">
                        <mask id="mask-37" fill="white">
                            <use xlink:href="#path-36"></use>
                        </mask>
                        <g id="Clip-113"></g>
                        <path d="M14.779,3.004 C14.423,4.184 13.425,5.76 10.705,6.566 L9.993,6.78 L9.267,6.65 C3.679,5.649 1.622,2.652 1.266,2.06 L0.518,0.814 C1.582,0.658 2.918,0.497 4.227,0.435 C6.48,0.328 9.743,0.257 11.729,0.435 C12.882,0.542 14.009,0.734 14.908,0.907 C15.019,1.566 14.997,2.278 14.779,3.004" id="Fill-112" fill="url(#linearGradient-38)" mask="url(#mask-37)"></path>
                    </g>
                </g>
                <g id="Group-118" transform="translate(76.000000, 35.983000)">
                    <mask id="mask-40" fill="white">
                        <use xlink:href="#path-39"></use>
                    </mask>
                    <g id="Clip-117"></g>
                    <path d="M0.937,8.453 C0.937,8.453 2.338,10.779 6.815,11.581 L6.815,11.581 C10.179,10.581 8.373,8.408 8.373,8.408 L8.373,8.408 C6.191,7.892 5.808,6.543 5.955,5.06 L5.955,5.06 C5.986,4.699 6.049,4.326 6.129,3.956 L6.129,3.956 L3.395,1.685 L1.387,0.02 C1.944,2.438 2.572,6.841 0.937,8.453" id="Fill-116" fill="url(#linearGradient-41)" mask="url(#mask-40)"></path>
                </g>
                <g id="Group-121" transform="translate(79.000000, 36.983000)">
                    <mask id="mask-43" fill="white">
                        <use xlink:href="#path-42"></use>
                    </mask>
                    <g id="Clip-120"></g>
                    <path d="M0.43,1.728 C0.574,2.769 1.935,3.855 2.955,4.06 L2.955,4.06 C2.986,3.699 3.049,3.326 3.129,2.956 L3.129,2.956 L0.395,0.685 C0.368,0.957 0.377,1.336 0.43,1.728" id="Fill-119" mask="url(#mask-43)"></path>
                </g>
                <g id="Group-124" transform="translate(82.000000, 26.983000)">
                    <mask id="mask-45" fill="white">
                        <use xlink:href="#path-44"></use>
                    </mask>
                    <g id="Clip-123"></g>
                    <path d="M0.298,3.701 C0.561,5.537 1.431,7.373 2.445,6.89 L2.445,6.89 C4.517,5.905 3.611,1.321 1.984,0.586 L1.984,0.586 C1.754,0.482 1.549,0.434 1.369,0.434 L1.369,0.434 C0.312,0.434 0.064,2.067 0.298,3.701" id="Fill-122" fill="url(#linearGradient-46)" mask="url(#mask-45)"></path>
                </g>
                <g id="Group-127" transform="translate(76.000000, 26.983000)">
                    <mask id="mask-48" fill="white">
                        <use xlink:href="#path-47"></use>
                    </mask>
                    <g id="Clip-126"></g>
                    <path d="M0.559,5.544 C1.257,8.753 1.503,10.661 3.398,12.126 L3.398,12.126 C6.25,14.329 10.029,12.372 10.306,9.052 L10.306,9.052 C10.556,6.064 9.372,1.317 5.995,0.408 L5.995,0.408 C5.57,0.294 5.153,0.24 4.752,0.24 L4.752,0.24 C2.008,0.24 -0.05,2.743 0.559,5.544" id="Fill-125" fill="url(#linearGradient-49)" mask="url(#mask-48)"></path>
                </g>
                <g id="Group-130" transform="translate(71.000000, 22.983000)">
                    <mask id="mask-51" fill="white">
                        <use xlink:href="#path-50"></use>
                    </mask>
                    <g id="Clip-129"></g>
                    <path d="M8.275,1.966 C6.755,3.632 1.391,1.072 1.833,6.358 L1.833,6.358 C0.275,7.051 1.159,9.188 2.22,10.546 L2.22,10.546 C3.694,12.434 5.253,13.316 6.315,12.445 L6.315,12.445 C7.269,11.967 7.896,9.16 7.064,7.427 L7.064,7.427 C8.532,6.464 11.573,7.655 12.521,6.082 L12.521,6.082 C13.469,4.509 14.145,4.65 15.816,5.682 L15.816,5.682 C17.487,6.713 18.822,2.633 14.472,1.873 L14.472,1.873 C16.877,2.952 16.323,5.061 14.564,2.901 L14.564,2.901 C13.759,1.912 12.224,0.857 10.68,0.857 L10.68,0.857 C9.842,0.857 9.003,1.167 8.275,1.966" id="Fill-128" fill="url(#linearGradient-52)" mask="url(#mask-51)"></path>
                </g>
                <path d="M75.8197,35.8758 C76.3937,36.5658 77.1837,36.9728 77.8567,37.0868 C78.8687,37.2598 79.0967,36.3218 78.5827,35.4168 C78.1197,34.6008 77.0347,33.5288 76.1307,33.7678 C75.2407,34.0038 75.1637,35.0868 75.8197,35.8758" id="Fill-131" fill="#FFC79F"></path>
                <g id="Group-135" transform="translate(81.000000, 31.983000)">
                    <mask id="mask-54" fill="white">
                        <use xlink:href="#path-53"></use>
                    </mask>
                    <g id="Clip-134"></g>
                    <path d="M0.863,0.347 C0.69,0.368 0.583,0.599 0.624,0.861 L0.624,0.861 C0.664,1.125 0.837,1.321 1.01,1.301 L1.01,1.301 C1.183,1.281 1.29,1.05 1.249,0.788 L1.249,0.788 C1.211,0.537 1.052,0.346 0.888,0.346 L0.888,0.346 C0.88,0.346 0.871,0.346 0.863,0.347" id="Fill-133" fill="url(#linearGradient-55)" mask="url(#mask-54)"></path>
                </g>
                <g id="Group-138" transform="translate(84.000000, 30.983000)">
                    <mask id="mask-57" fill="white">
                        <use xlink:href="#path-56"></use>
                    </mask>
                    <g id="Clip-137"></g>
                    <path d="M0.851,0.993 C0.678,1.013 0.571,1.243 0.612,1.507 L0.612,1.507 C0.652,1.77 0.825,1.967 0.998,1.946 L0.998,1.946 C1.171,1.925 1.278,1.695 1.237,1.432 L1.237,1.432 C1.199,1.181 1.04,0.991 0.876,0.991 L0.876,0.991 C0.868,0.991 0.859,0.992 0.851,0.993" id="Fill-136" fill="url(#linearGradient-58)" mask="url(#mask-57)"></path>
                </g>
                <g id="Group-141" transform="translate(83.000000, 31.983000)">
                    <mask id="mask-60" fill="white">
                        <use xlink:href="#path-59"></use>
                    </mask>
                    <g id="Clip-140"></g>
                    <path d="M1.065,3.238 C1.065,3.238 1.892,3.342 2.292,2.852 L2.292,2.852 C1.517,2.198 0.682,0.751 0.682,0.751 L0.682,0.751 L1.065,3.238 Z" id="Fill-139" fill="url(#linearGradient-61)" mask="url(#mask-60)"></path>
                </g>
                <g id="Group-144" transform="translate(81.000000, 34.983000)">
                    <mask id="mask-63" fill="white">
                        <use xlink:href="#path-62"></use>
                    </mask>
                    <g id="Clip-143"></g>
                    <path d="M0.44,0.281 C0.408,0.309 0.405,0.359 0.433,0.391 L0.433,0.391 C0.46,0.422 1.046,1.075 2.095,1.075 L2.095,1.075 C2.194,1.075 2.298,1.07 2.405,1.057 L2.405,1.057 C2.447,1.052 2.479,1.013 2.473,0.97 L2.473,0.97 C2.468,0.928 2.429,0.895 2.386,0.902 L2.386,0.902 C1.225,1.04 0.557,0.295 0.551,0.288 L0.551,0.288 C0.535,0.27 0.514,0.261 0.492,0.261 L0.492,0.261 C0.473,0.261 0.455,0.268 0.44,0.281" id="Fill-142" fill="url(#linearGradient-64)" mask="url(#mask-63)"></path>
                </g>
                <g id="Group-147" transform="translate(80.000000, 29.983000)">
                    <mask id="mask-66" fill="white">
                        <use xlink:href="#path-65"></use>
                    </mask>
                    <g id="Clip-146"></g>
                    <path d="M1.584,0.987 C1.553,0.988 0.829,1.032 0.414,1.779 L0.414,1.779 C0.373,1.854 0.4,1.949 0.475,1.991 L0.475,1.991 C0.5,2.005 0.526,2.011 0.551,2.011 L0.551,2.011 C0.606,2.011 0.659,1.982 0.688,1.93 L0.688,1.93 C1.015,1.339 1.576,1.301 1.599,1.299 L1.599,1.299 C1.686,1.294 1.751,1.222 1.748,1.135 L1.748,1.135 C1.744,1.053 1.676,0.986 1.596,0.986 L1.596,0.986 C1.592,0.986 1.588,0.986 1.584,0.987" id="Fill-145" fill="url(#linearGradient-67)" mask="url(#mask-66)"></path>
                </g>
                <g id="Group-150" transform="translate(84.000000, 29.983000)">
                    <mask id="mask-69" fill="white">
                        <use xlink:href="#path-68"></use>
                    </mask>
                    <g id="Clip-149"></g>
                    <path d="M0.622,0.351 C0.536,0.351 0.465989267,0.421 0.465989267,0.507 L0.465989267,0.507 C0.465,0.593 0.534,0.663 0.622,0.663 L0.622,0.663 C0.627,0.663 1.208,0.674 1.609,1.262 L1.609,1.262 C1.639,1.306 1.688,1.33 1.738,1.33 L1.738,1.33 C1.768,1.33 1.8,1.321 1.827,1.303 L1.827,1.303 C1.898,1.255 1.916,1.158 1.867,1.086 L1.867,1.086 C1.411,0.417 0.748,0.35 0.638,0.35 L0.638,0.35 C0.629,0.35 0.623,0.351 0.622,0.351" id="Fill-148" fill="url(#linearGradient-70)" mask="url(#mask-69)"></path>
                </g>
                <g id="Group-159" transform="translate(70.000000, 153.983000)" fill="#417BFD">
                    <path d="M9.8874,3.6375 C10.4774,3.7545 10.9124,3.7365 11.0664,3.5835 C11.1304,3.5205 11.1484,3.4305 11.1214,3.3085 C11.1084,3.2525 11.0814,3.2175 11.0364,3.2005 C10.8194,3.1175 10.2704,3.3935 9.8874,3.6375 M10.5554,3.8665 C10.2504,3.8665 9.9134,3.8045 9.6754,3.7485 C9.6464,3.7415 9.6234,3.7185 9.6174,3.6885 C9.6124,3.6585 9.6244,3.6285 9.6494,3.6115 C9.7544,3.5375 10.6914,2.9015 11.0924,3.0575 C11.1854,3.0935 11.2474,3.1685 11.2714,3.2745 C11.3104,3.4495 11.2784,3.5905 11.1754,3.6925 C11.0444,3.8225 10.8114,3.8665 10.5554,3.8665" id="Fill-151"></path>
                    <path d="M10.1442,2.4128 C10.0802,2.4128 10.0262,2.4358 9.9792,2.4808 C9.7802,2.6728 9.7532,3.2158 9.7622,3.5298 C10.0492,3.2868 10.3772,2.7628 10.3272,2.5268 C10.3182,2.4818 10.2922,2.4288 10.1802,2.4148 C10.1682,2.4138 10.1562,2.4128 10.1442,2.4128 M9.6932,3.7508 C9.6812,3.7508 9.6692,3.7478 9.6582,3.7428 C9.6342,3.7298 9.6192,3.7068 9.6172,3.6808 C9.6132,3.6398 9.5392,2.6908 9.8722,2.3698 C9.9622,2.2828 10.0722,2.2458 10.1982,2.2628 C10.3502,2.2808 10.4492,2.3638 10.4772,2.4958 C10.5532,2.8558 10.0612,3.5448 9.7322,3.7398 C9.7202,3.7468 9.7072,3.7508 9.6932,3.7508" id="Fill-153"></path>
                    <path d="M1.0814,1.3514 C1.7934,1.7414 2.3544,1.9124 2.6054,1.8074 C2.6804,1.7764 2.7284,1.7194 2.7504,1.6344 C2.7594,1.6014 2.7534,1.5774 2.7324,1.5514 C2.5694,1.3554 1.7194,1.3244 1.0814,1.3514 M2.4254,1.9904 C1.9404,1.9904 1.2114,1.6104 0.7784,1.3554 C0.7494,1.3384 0.7344,1.3044 0.7424,1.2724 C0.7494,1.2394 0.7774,1.2154 0.8114,1.2134 C0.9884,1.1994 2.5514,1.0944 2.8504,1.4534 C2.9034,1.5174 2.9204,1.5934 2.8994,1.6734 C2.8644,1.8064 2.7854,1.8994 2.6634,1.9494 C2.5954,1.9784 2.5144,1.9904 2.4254,1.9904" id="Fill-155"></path>
                    <path d="M1.8468,0.4457 C1.4388,0.4457 1.0918,0.9607 0.9518,1.2017 C1.4268,1.1407 2.1478,0.8457 2.1928,0.6367 C2.2028,0.5897 2.1598,0.5427 2.0638,0.4957 C1.9898,0.4617 1.9178,0.4457 1.8468,0.4457 L1.8468,0.4457 Z M0.8168,1.3667 C0.7908,1.3667 0.7668,1.3527 0.7528,1.3317 C0.7378,1.3087 0.7358,1.2807 0.7478,1.2557 C0.7728,1.2047 1.3698,-0.0053 2.1298,0.3577 C2.3398,0.4577 2.3618,0.5827 2.3428,0.6687 C2.2668,1.0267 1.2738,1.3557 0.8188,1.3667 L0.8168,1.3667 Z" id="Fill-157"></path>
                </g>
                <g id="Group-162" transform="translate(71.000000, 69.983000)">
                    <mask id="mask-72" fill="white">
                        <use xlink:href="#path-71"></use>
                    </mask>
                    <g id="Clip-161"></g>
                    <path d="M1.681,1.212 L0.419,2.88 C0.282,4.426 3.282,4.444 3.282,4.444 L3.282,4.444 L5.876,5.625 L7.42,2.551 L4.968,0.64 L1.681,1.212 Z" id="Fill-160" mask="url(#mask-72)"></path>
                </g>
                <g id="Group-233" transform="translate(48.000000, 16.983000)">
                    <path d="M84.2049,65.8421 L84.2049,65.8421 C84.9739,63.9071 86.9249,62.5361 88.9109,62.5361 L128.1629,62.5361 C130.5169,62.5361 132.1049,64.4441 131.7109,66.7971 L119.3079,140.9301 C118.9149,143.2831 116.6879,145.1911 114.3339,145.1911 L15.9109,145.1911 C13.5579,145.1911 11.9699,143.2831 12.3629,140.9301 L22.9219,77.8231 C23.3149,75.4701 25.5419,73.5621 27.8959,73.5621 L73.2149,73.5621 C77.8519,73.5621 82.4089,70.3601 84.2049,65.8421" id="Fill-163" fill="#9DC4FD"></path>
                    <polygon id="Fill-165" fill="#E5E5E5" points="68.5811 0.019 38.8841 103.224 106.8241 122.774 136.5211 19.569"></polygon>
                    <path d="M78.7126,36.2305 C72.2126,34.3605 68.4586,27.5735 70.3296,21.0735 C72.2006,14.5715 78.9866,10.8195 85.4866,12.6905 C91.9886,14.5605 95.7406,21.3455 93.8696,27.8475 C91.9996,34.3465 85.2146,38.1015 78.7126,36.2305" id="Fill-167" fill="#F5F5F5"></path>
                    <path d="M79.416,33.786 C74.266,32.304 71.292,26.927 72.774,21.777 C74.256,16.625 79.633,13.653 84.783,15.135 C89.935,16.617 92.908,21.992 91.425,27.144 C89.943,32.294 84.568,35.268 79.416,33.786" id="Fill-169" fill="#FFFFFF"></path>
                    <polygon id="Fill-171" fill="#AEAEAE" points="85.4211 48.8684 63.7971 42.6464 65.1961 37.7864 86.8191 44.0094"></polygon>
                    <polygon id="Fill-173" fill="#417BFD" points="59.9097 101.0135 47.9897 97.5835 53.4257 78.6905 65.3457 82.1205"></polygon>
                    <polygon id="Fill-175" fill="#417BFD" points="102.0903 113.151 90.1703 109.721 95.6063 90.828 107.5263 94.258"></polygon>
                    <polygon id="Fill-177" fill="#417BFD" points="81 107.0823 69.08 103.6523 74.516 84.7593 86.436 88.1893"></polygon>
                    <polygon id="Fill-179" fill="#AEAEAE" points="102.8961 53.8969 88.2671 49.6869 89.6651 44.8279 104.2941 49.0379"></polygon>
                    <polygon id="Fill-181" fill="#FFFFFF" points="115.1109 65.7469 61.5829 50.3439 62.1589 48.3419 115.6869 63.7449"></polygon>
                    <polygon id="Fill-183" fill="#FFFFFF" points="86.9748 62.2588 60.3578 54.5998 60.9338 52.5978 87.5508 60.2568"></polygon>
                    <polygon id="Fill-185" fill="#FFFFFF" points="109.3343 68.6927 91.5293 63.5697 92.1053 61.5677 109.9103 66.6907"></polygon>
                    <polygon id="Fill-187" fill="#FFFFFF" points="101.924 71.1686 59.133 58.8556 59.709 56.8536 102.5 69.1666"></polygon>
                    <polygon id="Fill-189" fill="#FFFFFF" points="107.0946 77.2646 57.9086 63.1116 58.4846 61.1096 107.6706 75.2626"></polygon>
                    <polygon id="Fill-191" fill="#FFFFFF" points="62.3682 69.0027 56.6842 67.3667 57.2602 65.3657 62.9442 67.0007"></polygon>
                    <polygon id="Fill-193" fill="#FFFFFF" points="92.0282 77.5374 66.9232 70.3134 67.4992 68.3114 92.6042 75.5354"></polygon>
                    <polygon id="Fill-195" fill="#FFFFFF" points="108.988 87.0257 55.46 71.6227 56.036 69.6207 109.564 85.0237"></polygon>
                    <polygon id="Fill-197" fill="#D3D3D3" points="67.2654 4.5913 38.8844 103.2243 104.5134 122.1083 131.1144 20.0263"></polygon>
                    <polygon id="Fill-199" fill="#F6F6F6" points="60.6759 3.6148 34.5649 107.7848 103.1409 124.9738 129.2509 20.8038"></polygon>
                    <path d="M72.0535,39.4543 C65.4935,37.8103 61.5065,31.1563 63.1515,24.5963 C64.7965,18.0333 71.4485,14.0493 78.0095,15.6933 C84.5715,17.3383 88.5565,23.9893 86.9115,30.5523 C85.2675,37.1123 78.6165,41.0993 72.0535,39.4543" id="Fill-201" fill="#0069B2"></path>
                    <path d="M72.672,36.9869 C67.474,35.6839 64.316,30.4129 65.618,25.2149 C66.922,20.0149 72.193,16.8579 77.391,18.1609 C82.591,19.4639 85.748,24.7339 84.444,29.9329 C83.141,35.1309 77.872,38.2899 72.672,36.9869" id="Fill-203" fill="#FFFFFF"></path>
                    <polygon id="Fill-205" fill="#0069B2" points="79.195 51.8526 57.369 46.3816 58.599 41.4766 80.424 46.9476"></polygon>
                    <polygon id="Fill-207" fill="#0069B2" points="55.5021 104.8488 43.4701 101.8328 48.2501 82.7638 60.2821 85.7788"></polygon>
                    <polygon id="Fill-209" fill="#0069B2" points="98.0772 115.5204 86.0452 112.5044 90.8252 93.4354 102.8572 96.4504"></polygon>
                    <polygon id="Fill-211" fill="#0069B2" points="76.7896 110.1846 64.7576 107.1686 69.5376 88.0996 81.5696 91.1146"></polygon>
                    <polygon id="Fill-213" fill="#0069B2" points="96.8334 56.2738 82.0674 52.5728 83.2964 47.6678 98.0624 51.3688"></polygon>
                    <polygon id="Fill-215" fill="#FFFFFF" points="109.4507 67.6943 55.4217 54.1513 55.9277 52.1313 109.9567 65.6743"></polygon>
                    <polygon id="Fill-217" fill="#FFFFFF" points="81.2108 65.1813 54.3448 58.4473 54.8518 56.4263 81.7168 63.1613"></polygon>
                    <polygon id="Fill-219" fill="#FFFFFF" points="103.7794 70.8382 85.8084 66.3332 86.3144 64.3132 104.2854 68.8172"></polygon>
                    <polygon id="Fill-221" fill="#FFFFFF" points="96.4592 73.5688 53.2682 62.7428 53.7752 60.7228 96.9652 71.5488"></polygon>
                    <polygon id="Fill-223" fill="#FFFFFF" points="101.8375 79.4824 52.1915 67.0384 52.6985 65.0184 102.3435 77.4614"></polygon>
                    <polygon id="Fill-225" fill="#FFFFFF" points="56.8522 72.7721 51.1152 71.3341 51.6212 69.3131 57.3582 70.7521"></polygon>
                    <polygon id="Fill-227" fill="#FFFFFF" points="86.7895 80.276 61.4495 73.924 61.9555 71.904 87.2955 78.255"></polygon>
                    <polygon id="Fill-229" fill="#FFFFFF" points="104.0673 89.1721 50.0383 75.6291 50.5443 73.6091 104.5733 87.1521"></polygon>
                    <path d="M57.9932,81.3176 L57.9932,81.3176 C58.0742,79.6486 59.5382,78.4656 61.5232,78.4656 L100.7762,78.4656 C103.1292,78.4656 105.3962,80.1116 105.8392,82.1416 L117.6142,141.5146 C118.0572,143.5456 116.5082,145.1916 114.1552,145.1916 L15.7322,145.1916 C13.3792,145.1916 11.1122,143.5456 10.6692,141.5146 L0.9712,91.6546 C0.5272,89.6246 2.0762,87.9786 4.4292,87.9786 L49.7492,87.9786 C54.3852,87.9786 57.8042,85.2156 57.9932,81.3176" id="Fill-231" fill="#9DC4FD"></path>
                </g>
            </g>
        </g>
    </g>
</svg>