<?xml version="1.0" encoding="UTF-8"?>
<svg width="221px" height="164px" viewBox="0 0 221 164" version="1.1" xmlns="http://www.w3.org/2000/svg" xmlns:xlink="http://www.w3.org/1999/xlink">
    <!-- Generator: Sketch 57.1 (83088) - https://sketch.com -->
    <title>Group 297</title>
    <desc>Created with Sketch.</desc>
    <defs>
        <polygon id="path-1" points="0.0002 0.930124998 220.268 0.930124998 220.268 115.999875 0.0002 115.999875"></polygon>
        <path d="M0.361,0.245 L0.361,36.57 C0.363,38.012 1.316,39.453 3.221,40.553 L3.221,40.553 C7.034,42.754 13.216,42.754 17.029,40.553 L17.029,40.553 C18.934,39.453 19.887,38.012 19.889,36.57 L19.889,36.57 L19.889,36.568 L19.889,36.565 L19.889,0.245 L0.361,0.245 Z" id="path-3"></path>
        <linearGradient x1="0.00218814011%" y1="49.9997857%" x2="99.9991791%" y2="49.9997857%" id="linearGradient-5">
            <stop stop-color="#023366" offset="0%"></stop>
            <stop stop-color="#1562B0" offset="100%"></stop>
        </linearGradient>
        <path d="M0.796,0.662 L0.796,27.1 C0.797,28.541 1.75,29.982 3.655,31.081 L3.655,31.081 C7.468,33.283 13.65,33.283 17.463,31.081 L17.463,31.081 C19.368,29.982 20.321,28.541 20.322,27.1 L20.322,27.1 L20.323,27.1 L20.323,27.097 L20.323,27.094 L20.323,0.662 L0.796,0.662 Z" id="path-6"></path>
        <linearGradient x1="-0.00470067087%" y1="50.0008101%" x2="99.9976556%" y2="50.0008101%" id="linearGradient-8">
            <stop stop-color="#023366" offset="0%"></stop>
            <stop stop-color="#1562B0" offset="100%"></stop>
        </linearGradient>
        <path d="M0.229,0.088 L0.229,20.628 C0.232,22.07 1.185,23.511 3.089,24.611 L3.089,24.611 C6.901,26.812 13.083,26.812 16.897,24.611 L16.897,24.611 C18.801,23.511 19.754,22.07 19.756,20.628 L19.756,20.628 L19.756,20.627 L19.756,20.623 L19.756,0.088 L0.229,0.088 Z" id="path-9"></path>
        <linearGradient x1="-0.000136221642%" y1="50.0003507%" x2="100.00222%" y2="50.0003507%" id="linearGradient-11">
            <stop stop-color="#023366" offset="0%"></stop>
            <stop stop-color="#1562B0" offset="100%"></stop>
        </linearGradient>
        <path d="M8.49,0.797 L1.224,4.992 C0.535,5.391 0.535,6.036 1.224,6.435 L1.224,6.435 L14.349,14.012 C15.038,14.41 16.157,14.41 16.847,14.012 L16.847,14.012 L24.113,9.817 C24.802,9.418 24.802,8.773 24.113,8.375 L24.113,8.375 L19.503,5.713 L22.057,2.406 C22.381,1.985 22.228,1.752 21.714,1.884 L21.714,1.884 L15.598,3.458 L10.988,0.797 C10.644,0.598 10.192,0.499 9.739,0.499 L9.739,0.499 C9.287,0.499 8.835,0.598 8.49,0.797" id="path-12"></path>
        <linearGradient x1="1.04504128e-05%" y1="49.9974927%" x2="100.001289%" y2="49.9974927%" id="linearGradient-14">
            <stop stop-color="#FDC900" offset="0%"></stop>
            <stop stop-color="#FC9600" offset="100%"></stop>
        </linearGradient>
        <path d="M7.885,0.449 L0.62,4.644 C-0.071,5.042 -0.071,5.687 0.62,6.086 L0.62,6.086 L13.743,13.664 C14.434,14.062 15.551,14.062 16.242,13.664 L16.242,13.664 L23.507,9.469 C24.198,9.07 24.198,8.425 23.507,8.026 L23.507,8.026 L18.898,5.365 L21.452,2.057 C21.777,1.637 21.623,1.404 21.109,1.536 L21.109,1.536 L14.993,3.111 L10.384,0.449 C10.038,0.25 9.586,0.15 9.134,0.15 L9.134,0.15 C8.682,0.15 8.23,0.25 7.885,0.449" id="path-15"></path>
        <linearGradient x1="0.000970175769%" y1="49.9990306%" x2="99.9986662%" y2="49.9990306%" id="linearGradient-17">
            <stop stop-color="#FDC900" offset="0%"></stop>
            <stop stop-color="#FC9600" offset="100%"></stop>
        </linearGradient>
        <path d="M23.962,0.952 C21.629,1.769 20.01,6.148 18.133,11.22 L18.133,11.22 C18.002,11.575 17.868,11.942 17.732,12.318 L17.732,12.318 C16.555,15.555 15.088,19.585 13.303,20.245 L13.303,20.245 C12.87,20.405 12.439,20.359 11.983,20.103 L11.983,20.103 C10.208,19.101 9.883,16.276 9.54,13.284 L9.54,13.284 C9.189,10.231 8.827,7.073 6.758,5.832 L6.758,5.832 C6.277,5.545 5.771,5.501 5.252,5.704 L5.252,5.704 C2.709,6.695 0.645,13.579 0.558,13.872 L0.558,13.872 L1.019,14.009 C1.039,13.939 3.1,7.058 5.427,6.151 L5.427,6.151 C5.805,6.003 6.159,6.034 6.51,6.245 L6.51,6.245 C8.376,7.363 8.725,10.401 9.062,13.339 L9.062,13.339 C9.404,16.319 9.758,19.4 11.748,20.521 L11.748,20.521 C12.325,20.847 12.904,20.906 13.47,20.696 L13.47,20.696 C15.464,19.959 16.909,15.986 18.184,12.481 L18.184,12.481 C18.319,12.108 18.453,11.741 18.584,11.386 L18.584,11.386 C20.342,6.635 22.001,2.148 24.121,1.406 L24.121,1.406 C24.725,1.195 25.349,1.292 26.03,1.703 L26.03,1.703 C28.826,3.392 29.286,6.695 30.048,12.17 L30.048,12.17 C30.183,13.139 30.328,14.174 30.496,15.281 L30.496,15.281 C30.604,15.996 30.703,16.674 30.797,17.315 L30.797,17.315 C31.557,22.527 31.974,25.398 34.453,26.823 L34.453,26.823 C35.857,27.628 37.111,26.674 38.325,25.749 L38.325,25.749 C39.667,24.725 40.936,23.758 42.521,24.705 L42.521,24.705 C45.823,26.681 46.208,31.471 46.789,38.724 L46.789,38.724 L46.842,39.382 C47.465,47.103 48.378,48.107 49.94,49.219 L49.94,49.219 L50.219,48.827 C48.906,47.892 47.956,47.216 47.321,39.343 L47.321,39.343 L47.269,38.685 C46.675,31.284 46.283,26.395 42.768,24.293 L42.768,24.293 C40.905,23.179 39.379,24.341 38.033,25.367 L38.033,25.367 C36.845,26.272 35.821,27.054 34.692,26.406 L34.692,26.406 C32.417,25.098 32.01,22.309 31.273,17.246 L31.273,17.246 C31.179,16.604 31.08,15.925 30.972,15.209 L30.972,15.209 C30.804,14.104 30.659,13.07 30.525,12.104 L30.525,12.104 C29.742,6.488 29.271,3.098 26.278,1.291 L26.278,1.291 C25.756,0.976 25.243,0.818 24.744,0.818 L24.744,0.818 C24.479,0.818 24.218,0.863 23.962,0.952" id="path-18"></path>
        <linearGradient x1="0.000642556533%" y1="49.9999554%" x2="100.000495%" y2="49.9999554%" id="linearGradient-20">
            <stop stop-color="#023366" offset="0%"></stop>
            <stop stop-color="#1562B0" offset="100%"></stop>
        </linearGradient>
        <path d="M49.94,49.219 C48.379,48.107 47.465,47.102 46.843,39.382 L46.789,38.723 C46.208,31.471 45.823,26.68 42.521,24.705 C40.936,23.757 39.668,24.725 38.324,25.749 C37.111,26.674 35.857,27.629 34.453,26.823 C31.975,25.398 31.556,22.527 30.797,17.315 C30.703,16.673 30.604,15.996 30.496,15.282 C30.328,14.174 30.183,13.138 30.049,12.17 C29.286,6.696 28.826,3.391 26.03,1.703 C25.35,1.292 24.725,1.195 24.121,1.406 C22.001,2.148 20.342,6.635 18.584,11.386 C18.453,11.741 18.32,12.108 18.184,12.482 C16.909,15.986 15.464,19.959 13.47,20.696 C12.904,20.905 12.325,20.847 11.748,20.521 C9.758,19.399 9.404,16.319 9.062,13.339 C8.725,10.401 8.376,7.363 6.51,6.245 C6.159,6.034 5.805,6.003 5.427,6.151 C3.101,7.058 1.04,13.939 1.019,14.009 L0.558,13.872 C0.645,13.58 2.709,6.695 5.252,5.703 C5.771,5.501 6.277,5.545 6.758,5.833 C8.827,7.072 9.189,10.23 9.54,13.284 C9.883,16.276 10.208,19.101 11.984,20.102 C12.439,20.359 12.87,20.405 13.303,20.245 C15.088,19.585 16.554,15.555 17.732,12.317 C17.868,11.943 18.002,11.575 18.133,11.219 C20.009,6.148 21.629,1.769 23.962,0.952 C24.699,0.694 25.479,0.808 26.278,1.291 C29.27,3.098 29.743,6.488 30.525,12.103 C30.659,13.07 30.804,14.104 30.971,15.21 C31.08,15.925 31.179,16.603 31.273,17.246 C32.01,22.309 32.417,25.098 34.693,26.406 C35.82,27.054 36.845,26.272 38.033,25.367 C39.379,24.341 40.905,23.179 42.768,24.293 C46.283,26.395 46.675,31.284 47.269,38.685 L47.321,39.343 C47.956,47.217 48.906,47.892 50.219,48.827 L49.94,49.219 Z" id="path-21"></path>
        <linearGradient x1="0.000642556533%" y1="50.0002932%" x2="100.000495%" y2="50.0002932%" id="linearGradient-23">
            <stop stop-color="#023366" offset="0%"></stop>
            <stop stop-color="#1562B0" offset="100%"></stop>
        </linearGradient>
        <path d="M0.054,0.931 L0.054,27.028 C0.054,27.293 0.24,27.615 0.471,27.749 L0.471,27.749 L5.496,30.65 C5.726,30.783 5.913,30.675 5.913,30.41 L5.913,30.41 L5.913,4.314 C5.913,4.048 5.726,3.725 5.496,3.592 L5.496,3.592 L0.471,0.69 C0.404,0.652 0.341,0.633 0.285,0.633 L0.285,0.633 C0.148,0.633 0.054,0.742 0.054,0.931" id="path-24"></path>
        <linearGradient x1="0.00144734596%" y1="50.0012871%" x2="99.9932804%" y2="50.0012871%" id="linearGradient-26">
            <stop stop-color="#FDC900" offset="0%"></stop>
            <stop stop-color="#FC9600" offset="100%"></stop>
        </linearGradient>
        <linearGradient x1="-0.000334624868%" y1="49.9955999%" x2="99.9794188%" y2="49.9955999%" id="linearGradient-27">
            <stop stop-color="#F7A977" offset="0%"></stop>
            <stop stop-color="#FCCEAC" offset="100%"></stop>
        </linearGradient>
        <polygon id="path-28" points="0.827 0.753 0.969 4.884 3.806 4.786 3.664 0.654"></polygon>
        <linearGradient x1="0.00293387043%" y1="50.0097636%" x2="99.9962538%" y2="50.0097636%" id="linearGradient-30">
            <stop stop-color="#F7A977" offset="0%"></stop>
            <stop stop-color="#FCCEAC" offset="100%"></stop>
        </linearGradient>
        <path d="M5.286,3.512 C3.718,5.842 0.971,9.831 0.971,9.831 L0.971,9.831 L6.142,11.472 L10.363,0.56 C8.607,0.699 6.856,1.182 5.286,3.512" id="path-31"></path>
        <path d="M2.186,0.419 C2.186,0.419 -0.103,18.185 0.189,19.871 L0.189,19.871 C0.482,21.558 2.762,37.315 2.762,37.315 L2.762,37.315 C4.409,38.194 5.851,37.197 5.851,37.197 L5.851,37.197 C5.851,37.197 6.434,26.412 6.333,24.545 L6.333,24.545 C6.231,22.677 5.768,20.032 5.768,20.032 L5.768,20.032 L8.398,8.778 C8.398,8.778 9.152,18.339 9.595,21.858 L9.595,21.858 C10.104,25.89 12.674,41.251 12.674,41.251 L12.674,41.251 C14.553,42.57 15.884,41.251 15.884,41.251 L15.884,41.251 C15.884,41.251 16.235,29.946 16.451,25.877 L16.451,25.877 C16.609,22.882 15.878,21.443 15.812,20.663 L15.812,20.663 C15.812,20.663 15.462,3.129 15.462,0.419 L15.462,0.419 L2.186,0.419 Z" id="path-33"></path>
        <linearGradient x1="0.000225208412%" y1="49.9995067%" x2="99.9984003%" y2="49.9995067%" id="linearGradient-35">
            <stop stop-color="#101519" offset="0%"></stop>
            <stop stop-color="#223137" offset="100%"></stop>
        </linearGradient>
        <path d="M0.186,5.582 L0.186,19.419 C4.532,22.593 11.471,21.584 13.462,19.419 L13.462,19.419 L13.462,11.02 L14.755,13.271 L18.969,10.78 C18.969,10.78 17.223,6.979 16.093,4.632 L16.093,4.632 C14.963,2.287 11.733,1.259 9.188,0.647 L9.188,0.647 L4.805,0.519 C1.413,0.716 0.186,3.372 0.186,5.582" id="path-36"></path>
        <linearGradient x1="-0.003468562%" y1="49.9985232%" x2="99.9992781%" y2="49.9985232%" id="linearGradient-38">
            <stop stop-color="#023366" offset="0%"></stop>
            <stop stop-color="#1562B0" offset="100%"></stop>
        </linearGradient>
        <path d="M1.144,0.332 L0.734,4.868 L2.394,4.677 C2.821,2.339 2.933,1.322 2.395,0.772 L2.395,0.772 C2.012,0.38 1.553,0.321 1.312,0.321 L1.312,0.321 C1.208,0.321 1.144,0.332 1.144,0.332" id="path-39"></path>
        <linearGradient x1="-0.0274658042%" y1="49.9930702%" x2="100.006783%" y2="49.9930702%" id="linearGradient-41">
            <stop stop-color="#101519" offset="0%"></stop>
            <stop stop-color="#223137" offset="100%"></stop>
        </linearGradient>
        <path d="M0.822,3.625 C0.024,7.013 0.921,9.018 1.459,10.146 L1.459,10.146 C1.939,11.152 2.681,12.05 2.994,12.133 L2.994,12.133 C3.575,12.287 4.809,12.039 4.809,12.039 L4.809,12.039 L4.805,13.519 C4.02,14.483 3.529,16.453 5.918,16.129 L5.918,16.129 C8.306,15.805 9.188,13.647 9.188,13.647 L9.188,13.647 L9.365,9.579 C9.365,9.579 9.946,10.015 10.745,9.46 L10.745,9.46 C11.419,8.992 12.564,7.578 12.059,6.515 L12.059,6.515 C11.564,5.471 10.571,5.906 10.267,6.224 L10.267,6.224 C9.963,6.542 9.611,7.016 9.365,6.868 L9.365,6.868 C9.365,6.868 10.254,2.809 7.922,1.341 L7.922,1.341 C7.042,0.787 5.939,0.458 4.859,0.458 L4.859,0.458 C3.075,0.459 1.356,1.357 0.822,3.625" id="path-42"></path>
        <linearGradient x1="0.00207594348%" y1="50.0009461%" x2="100.001776%" y2="50.0009461%" id="linearGradient-44">
            <stop stop-color="#FCCEAC" offset="0%"></stop>
            <stop stop-color="#F7A977" offset="100%"></stop>
        </linearGradient>
        <path d="M0.748,2.389 C0.86,2.949 1.085,3.521 1.505,3.996 L1.505,3.996 L2.346,4.306 C2.346,4.306 2.799,4.708 4.377,4.9 L4.377,4.9 C5.956,5.092 8.413,4.863 8.749,4.817 L8.749,4.817 C9.206,4.754 9.304,5.197 9.551,6.41 L9.551,6.41 C9.768,7.473 9.947,9.275 10.365,9.2830086 L10.365,9.2830086 C10.488,9.286 10.96,8.503 11.267,8.224 L11.267,8.224 C11.692,7.837 11.144,4.332 11.144,4.332 L11.144,4.332 C11.144,4.332 11.574,3.002 10.734,2.12 L10.734,2.12 C9.893,1.238 8.263,1.388 7.072,1.344 L7.072,1.344 C6.139,1.311 5.156,1.26 4.005,0.923 L4.005,0.923 C3.143,1.655 2.058,2.177 0.748,2.389" id="path-45"></path>
        <linearGradient x1="-0.885754845%" y1="50.0053864%" x2="100.002753%" y2="50.0053864%" id="linearGradient-47">
            <stop stop-color="#101519" offset="0%"></stop>
            <stop stop-color="#223137" offset="100%"></stop>
        </linearGradient>
        <path d="M0.504,0.431 C0.092,0.651 -0.07,1.177 0.141,1.604 L0.141,1.604 L1.633,0.803 C1.485,0.505 1.192,0.333 0.889,0.333 L0.889,0.333 C0.759,0.333 0.627,0.364 0.504,0.431" id="path-48"></path>
        <linearGradient x1="0.000635934677%" y1="49.9968607%" x2="99.9653144%" y2="49.9968607%" id="linearGradient-50">
            <stop stop-color="#101519" offset="0%"></stop>
            <stop stop-color="#223137" offset="100%"></stop>
        </linearGradient>
        <path d="M3.794,1.183 C3.021,1.593 0.809,2.039 0.809,2.039 L0.809,2.039 L0.809,2.628 C0.809,2.628 3.69,2.096 4.256,1.373 L4.256,1.373 C4.718,0.782 4.863,0.126 4.863,0.126 L4.863,0.126 C4.737,0.431 4.312,0.908 3.794,1.183" id="path-51"></path>
        <path d="M0.363,0.7 C0.462,0.991 0.77,1.14 1.049,1.036 L1.049,1.036 C1.329,0.931 1.474,0.611 1.374,0.321 L1.374,0.321 L0.363,0.7 Z" id="path-53"></path>
        <polygon id="path-55" points="0.375 2.96 1.767 3.434 1.912 0.77"></polygon>
        <polygon id="path-57" points="4.236 14.752 15.016 17.883 11.669 3.813 0.331 0.826"></polygon>
        <linearGradient x1="0.000580183861%" y1="50.0005359%" x2="99.9978229%" y2="50.0005359%" id="linearGradient-59">
            <stop stop-color="#FDC900" offset="0%"></stop>
            <stop stop-color="#FC9600" offset="100%"></stop>
        </linearGradient>
        <path d="M5.278,0.73 C5.278,0.73 5.545,1.853 5.631,2.211 L5.631,2.211 C5.715,2.57 3.638,2.859 2.438,2.453 L2.438,2.453 C1.24,2.047 -0.496,2.637 0.58,4.269 L0.58,4.269 C1.654,5.902 3.745,6.09 5.198,6.09102333 L5.198,6.09102333 C5.599,6.092 6.312,6.061 7.014,5.97 L7.014,5.97 C7.484,5.909 7.951,5.861 8.423,5.828 L8.423,5.828 C11.396,5.616 19.601,5.001 20.953,4.577 L20.953,4.577 L17.143,1.632 C17.143,1.632 9.165,3.134 8.263,3.205 L8.263,3.205 C7.36,3.277 6.656,2.386 6.312,1.501 L6.312,1.501 C6.039,0.798 5.548,0.726 5.357,0.726 L5.357,0.726 C5.307,0.726 5.278,0.73 5.278,0.73" id="path-60"></path>
        <linearGradient x1="0.000544975732%" y1="50.0010743%" x2="99.9994891%" y2="50.0010743%" id="linearGradient-62">
            <stop stop-color="#FCCEAC" offset="0%"></stop>
            <stop stop-color="#F7A977" offset="100%"></stop>
        </linearGradient>
        <path d="M0.711,1.479 C0.902,2.281 0.643,3.746 1.123,5.118 L1.123,5.118 C1.499,6.194 2.455,6.861 3.154,6.891 L3.154,6.891 C3.852,6.922 5.224,6.677 5.586,5.602 L5.586,5.602 C5.981,4.437 5.07,4.165 4.236,3.936 L4.236,3.936 C3.403,3.708 2.085,3.08 1.988,2.734 L1.988,2.734 C1.891,2.389 1.484,0.939 1.484,0.939 L1.484,0.939 C1.337,0.77 1.173,0.688 1.031,0.688 L1.031,0.688 C0.772,0.688 0.587,0.961 0.711,1.479" id="path-63"></path>
        <linearGradient x1="0.0027523561%" y1="50.0052199%" x2="100.01037%" y2="50.0052199%" id="linearGradient-65">
            <stop stop-color="#FCCEAC" offset="0%"></stop>
            <stop stop-color="#F7A977" offset="100%"></stop>
        </linearGradient>
        <path d="M7.648,0.098 C7.647,0.159 7.648,0.407 7.648,0.407 L7.648,0.407 C7.442,0.636 6.871,0.863 6.229,0.887 L6.229,0.887 C5.814,0.903 4.806,0.82 4.809,0.503 L4.809,0.503 L4.809,0.098 C4.537,0.215 3.906,2.624 2.78,3.651 L2.78,3.651 C1.885,4.467 0.664,5.41 0.352,6.321 L0.352,6.321 C0.03,7.268 2.053,7.791 2.89,7.642 L2.89,7.642 C3.862,7.47 5.546,6.786 5.969,6.151 L5.969,6.151 C6.392,5.517 6.59,4.581 6.934,4.116 L6.934,4.116 C7.278,3.652 8.07,3.132 8.255,2.594 L8.255,2.594 C8.358,2.299 8.236,1.652 8.093,1.104 L8.093,1.104 C7.967,0.622 7.83,0.095 7.668,0.095 L7.668,0.095 C7.661,0.095 7.655,0.096 7.648,0.098" id="path-66"></path>
        <linearGradient x1="0.00745352644%" y1="49.9983146%" x2="100.000791%" y2="49.9983146%" id="linearGradient-68">
            <stop stop-color="#101519" offset="0%"></stop>
            <stop stop-color="#223137" offset="100%"></stop>
        </linearGradient>
        <path d="M9.774,0.848 L9.782,1.1 C9.441,1.615 7.704,1.827 6.954,1.446 L6.954,1.446 L6.939,1.008 C6.792,1.013 6.672,1.221 6.347,1.574 L6.347,1.574 C5.954,1.999 5.311,2.458 4.677,2.775 L4.677,2.775 C3.614,3.307 1.548,4.126 0.613,4.547 L0.613,4.547 C0.029,4.809 0.056,5.515 0.66,5.917 L0.66,5.917 C1.263,6.319 2.721,6.609 4.472,6.217 L4.472,6.217 C5.426,6.003 6.667,5.123 7.454,5.169 L7.454,5.169 C8.239,5.217 9.71,5.206 10.29,4.807 L10.29,4.807 C10.87,4.406 10.638,3.552 10.474,2.819 L10.474,2.819 C10.299,2.036 10.05,0.846 9.791,0.846 L9.791,0.846 C9.785,0.846 9.78,0.846 9.774,0.848" id="path-69"></path>
        <linearGradient x1="-0.00379815827%" y1="49.9906704%" x2="99.9981383%" y2="49.9906704%" id="linearGradient-71">
            <stop stop-color="#101519" offset="0%"></stop>
            <stop stop-color="#223137" offset="100%"></stop>
        </linearGradient>
        <path d="M0.149,2.713 C0.207,2.838 0.644,3.36 2.232,3.298 L2.232,3.298 C3.989,3.232 4.812,2.75 4.812,2.75 L4.812,2.75 L3.036,0.283 L0.414,0.208 C0.299,1.1 -0.12,2.137 0.149,2.713" id="path-72"></path>
        <linearGradient x1="-0.00281493469%" y1="50.0020781%" x2="99.9837063%" y2="50.0020781%" id="linearGradient-74">
            <stop stop-color="#101519" offset="0%"></stop>
            <stop stop-color="#223137" offset="100%"></stop>
        </linearGradient>
        <path d="M0.149,0.804 C0.149,0.804 0.418,3.045 0.438,3.527 L0.438,3.527 C0.459,4.007 2.624,4.161 3.036,3.283 L3.036,3.283 L3.102,0.543 L0.149,0.804 Z" id="path-75"></path>
        <linearGradient x1="-0.0187910599%" y1="50.0035761%" x2="100.027917%" y2="50.0035761%" id="linearGradient-77">
            <stop stop-color="#F7A977" offset="0%"></stop>
            <stop stop-color="#FCCEAC" offset="100%"></stop>
        </linearGradient>
        <path d="M0.956,7.599 C0.322,13.074 2.405,19.334 2.846,23.383 L2.846,23.383 C2.846,23.383 1.448,25.202 1.449,27.339 L1.449,27.339 C1.449,29.012 4.149,44.804 4.149,44.804 L4.149,44.804 C4.149,44.804 6.111,45.402 7.102,44.543 L7.102,44.543 L8.957,15.491 L7.981,11.954 L4.149,0.667 C2.666,2.974 1.257,5.006 0.956,7.599" id="path-78"></path>
        <linearGradient x1="0.00356357775%" y1="50.0001376%" x2="100.008688%" y2="50.0001376%" id="linearGradient-80">
            <stop stop-color="#101519" offset="0%"></stop>
            <stop stop-color="#223137" offset="100%"></stop>
        </linearGradient>
        <polygon id="path-81" points="0.636 13.456 9.739 18.707 15.597 5.531 5.833 0.844"></polygon>
        <linearGradient x1="0.000189158479%" y1="49.9987046%" x2="100.000963%" y2="49.9987046%" id="linearGradient-83">
            <stop stop-color="#FDC900" offset="0%"></stop>
            <stop stop-color="#FC9600" offset="100%"></stop>
        </linearGradient>
        <polygon id="path-84" points="0.383 11.966 7.392 16.001 12.452 4.773 4.359 0.909"></polygon>
        <linearGradient x1="0.00505261414%" y1="50.0019328%" x2="99.9930359%" y2="50.0019328%" id="linearGradient-86">
            <stop stop-color="#FDC900" offset="0%"></stop>
            <stop stop-color="#FC9600" offset="100%"></stop>
        </linearGradient>
        <path d="M1.837,1.557 C1.123,3.586 -0.284,6.807 0.17,7.453 L0.17,7.453 C0.624,8.1 3.331,7.964 4.843,7.907 L4.843,7.907 C6.76,7.835 8.358,7.758 8.358,7.758 L8.358,7.758 L8.038,4.4 L5.309,4.4 L6.511,0.996 L1.837,1.557 Z" id="path-87"></path>
        <linearGradient x1="0.00267207743%" y1="50.0022301%" x2="99.9970941%" y2="50.0022301%" id="linearGradient-89">
            <stop stop-color="#FCCEAC" offset="0%"></stop>
            <stop stop-color="#F7A977" offset="100%"></stop>
        </linearGradient>
        <path d="M0.568,7.773 C0.568,7.773 1.282,8.696 2.686,9.047 L2.686,9.047 C4.091,9.398 4.897,9.131 4.897,9.131 L4.897,9.131 L7.118,3.605 L3.574,0.369 C2.578,2.006 0.568,7.773 0.568,7.773" id="path-90"></path>
        <linearGradient x1="-0.00292824427%" y1="50.0014901%" x2="99.9980504%" y2="50.0014901%" id="linearGradient-92">
            <stop stop-color="#023366" offset="0%"></stop>
            <stop stop-color="#1562B0" offset="100%"></stop>
        </linearGradient>
        <path d="M2.88,9.175 C2.88,9.175 6.546,13.766 8.396,15.389 L8.396,15.389 C10.309,17.067 11.674,17.436 12.143,16.593 L12.143,16.593 C12.645,15.69 12.394,14.519 11.813,13.536 L11.813,13.536 C11.394,12.829 7.171,6.947 5.243,3.981 L5.243,3.981 C3.317,1.016 2.254,0.92 0.509,0.397 L0.509,0.397 C-0.882,4.94 2.88,9.175 2.88,9.175" id="path-93"></path>
        <linearGradient x1="0.000259860669%" y1="50.0013915%" x2="99.9989075%" y2="50.0013915%" id="linearGradient-95">
            <stop stop-color="#FCCEAC" offset="0%"></stop>
            <stop stop-color="#F7A977" offset="100%"></stop>
        </linearGradient>
        <polygon id="path-96" points="0.53 6.196 4.641 5.721 5.115 1.55 1.123 0.662"></polygon>
        <linearGradient x1="0.00122137405%" y1="49.9997398%" x2="100.00325%" y2="49.9997398%" id="linearGradient-98">
            <stop stop-color="#FCCEAC" offset="0%"></stop>
            <stop stop-color="#F7A977" offset="100%"></stop>
        </linearGradient>
        <path d="M0.144,2.69 C0.144,2.69 0.746,2.565 0.876,2.422 L0.876,2.422 C1.007,2.28 0.155,0.815 0.155,0.815 L0.155,0.815 L0.144,2.69 Z" id="path-99"></path>
        <path d="M1.268,1.589 C-0.261,2.593 -0.158,5.386 0.993,7.543 L0.993,7.543 C1.971,9.377 4.315,10.452 5.36,10.843 L5.36,10.843 C6.195,11.156 7.896,11.252 8.23,10.967 L8.23,10.967 C8.724,10.544 9.386,9.479 9.169,6.023 L9.169,6.023 C8.958,2.656 7.439,1.699 6.558,1.178 L6.558,1.178 C6.171,0.949 5.337,0.686 4.324,0.686 L4.324,0.686 C3.389,0.686 2.301,0.91 1.268,1.589" id="path-101"></path>
        <linearGradient x1="-0.00393077289%" y1="50.0006249%" x2="100.001067%" y2="50.0006249%" id="linearGradient-103">
            <stop stop-color="#F7A977" offset="0%"></stop>
            <stop stop-color="#FCCEAC" offset="100%"></stop>
        </linearGradient>
        <path d="M7.35,0.241 C5.863,0.428 3.712,0.566 3.712,0.566 L3.712,0.566 L0.707,1.086 C0.707,1.086 0.172,2.817 0.11,3.354 L0.11,3.354 C0.047,3.891 0.364,4.187 1.102,4.441 L1.102,4.441 C1.763,4.669 2.512,4.269 3.68,3.919 L3.68,3.919 C4.82,3.577 6.13,3.31 7.222,2.943 L7.222,2.943 C8.497,2.514 9.315,2.004 9.664,1.392 L9.664,1.392 C9.977,0.846 9.078,0.211 7.827,0.211 L7.827,0.211 C7.673,0.211 7.513,0.22 7.35,0.241" id="path-104"></path>
        <linearGradient x1="-0.00554470729%" y1="49.9996434%" x2="100.002019%" y2="49.9996434%" id="linearGradient-106">
            <stop stop-color="#101519" offset="0%"></stop>
            <stop stop-color="#223137" offset="100%"></stop>
        </linearGradient>
        <path d="M0.558,3.582 C0.558,3.582 0.484,3.997 2.256,4.261 L2.256,4.261 C4.027,4.525 6.803,3.335 7.276,3.092 L7.276,3.092 C7.749,2.85 7.805,2.37 6.066,2.465 L6.066,2.465 C4.327,2.562 3.712,2.566 3.712,2.566 L3.712,2.566 L4.276,1.059 L1.333,0.183 L0.558,3.582 Z" id="path-107"></path>
        <linearGradient x1="-0.00226483506%" y1="49.9998299%" x2="99.9983438%" y2="49.9998299%" id="linearGradient-109">
            <stop stop-color="#F7A977" offset="0%"></stop>
            <stop stop-color="#FCCEAC" offset="100%"></stop>
        </linearGradient>
        <path d="M0.863,6.303 C1.351,8.88 2.738,10.692 6.981,11.954 L6.981,11.954 L10.96,26.364 C10.96,26.364 8.888,28.303 8.254,30.147 L8.254,30.147 C7.622,31.992 5.333,46.183 5.333,46.183 L5.333,46.183 C5.333,46.183 6.04,47.338 8.276,47.059 L8.276,47.059 C8.276,47.059 16.068,29.259 16.619,28.113 L16.619,28.113 C17.169,26.968 17.526,26.111 17.279,24.244 L17.279,24.244 C17.031,22.378 14.376,1.961 14.376,1.961 L14.376,1.961 L3.149,0.667 C2.356,1.961 0.459,4.175 0.863,6.303" id="path-110"></path>
        <linearGradient x1="-0.000877379033%" y1="49.9996618%" x2="99.9990122%" y2="49.9996618%" id="linearGradient-112">
            <stop stop-color="#101519" offset="0%"></stop>
            <stop stop-color="#223137" offset="100%"></stop>
        </linearGradient>
        <path d="M0.426,1.667 C0.115,2.486 -0.156,4.511 0.243,5.762 L0.243,5.762 C1.087,8.406 2.391,11.251 2.731,12.089 L2.731,12.089 L1.149,14.667 C1.149,14.667 2.21,15.988 5.372,16.905 L5.372,16.905 C8.535,17.822 12.376,15.961 12.376,15.961 L12.376,15.961 C12.376,15.961 13.187,11.702 13.337,10.511 L13.337,10.511 C10.141,8.625 10.509,2.397 10.509,2.397 L10.509,2.397 L10.508,2.397 C9.689,2.155 5.373,1.163 2.599,0.408 L2.599,0.408 C2.477,0.374 2.353,0.359 2.229,0.359 L2.229,0.359 C1.459,0.359 0.693,0.962 0.426,1.667" id="path-113"></path>
        <linearGradient x1="-0.000537321169%" y1="50.0001595%" x2="99.9988942%" y2="50.0001595%" id="linearGradient-115">
            <stop stop-color="#023366" offset="0%"></stop>
            <stop stop-color="#1562B0" offset="100%"></stop>
        </linearGradient>
        <path d="M0.731,1.089 C1.721,1.691 2.944,2.036 4.416,2.11 L4.416,2.11 C3.483,1.852 0.339,0.167 0.299,0.074 L0.299,0.074 L0.731,1.089 Z" id="path-116"></path>
        <linearGradient x1="0.00342239495%" y1="50.0035118%" x2="100.009203%" y2="50.0035118%" id="linearGradient-118">
            <stop stop-color="#023366" offset="0%"></stop>
            <stop stop-color="#1562B0" offset="100%"></stop>
        </linearGradient>
        <path d="M2.516,9.074 L4.546,11.595 C7.92,10.628 8.215,8.192 8.215,8.192 L8.215,8.192 C8.215,8.192 4.092,1.715 3.031,1.196 L3.031,1.196 C2.065,0.723 0.509,0.397 0.509,0.397 L0.509,0.397 C-0.388,4.695 2.516,9.074 2.516,9.074" id="path-119"></path>
        <linearGradient x1="0.000819728405%" y1="50.0034944%" x2="100.001884%" y2="50.0034944%" id="linearGradient-121">
            <stop stop-color="#023366" offset="0%"></stop>
            <stop stop-color="#1562B0" offset="100%"></stop>
        </linearGradient>
        <path d="M2.003,4.55 L2.128,3.834 C2.128,3.834 0.749,2.316 0.16099975,0.305 L0.16099975,0.305 C0.16099975,0.305 0.155,3.101 2.003,4.55" id="path-122"></path>
        <linearGradient x1="0.00657090612%" y1="50.0092956%" x2="100.032811%" y2="50.0092956%" id="linearGradient-124">
            <stop stop-color="#023366" offset="0%"></stop>
            <stop stop-color="#1562B0" offset="100%"></stop>
        </linearGradient>
        <path d="M0.758,6.465 L13.984,7.838 C14.363,4.185 11.709,0.917 8.057,0.538 L8.057,0.538 C7.824,0.514 7.592,0.502 7.363,0.502 L7.363,0.502 C4,0.503 1.113,3.045 0.758,6.465" id="path-125"></path>
        <path d="M6.943,0.394 C5.001,0.591 3.242,1.47 1.992,2.869 L1.992,2.869 C1.132,3.831 0.591,4.961 0.384,6.153 L0.384,6.153 C0.78,6.262 1.149,6.398 1.496,6.557 L1.496,6.557 C1.636,5.501 2.1,4.496 2.859,3.645 L2.859,3.645 C3.916,2.463 5.407,1.72 7.06,1.554 L7.06,1.554 C7.379,1.521 7.612,1.235 7.581,0.915 L7.581,0.915 C7.55,0.615 7.296,0.392 6.999,0.392 L6.999,0.392 C6.981,0.392 6.962,0.393 6.943,0.394" id="path-127"></path>
        <path d="M0.443,1.224 C0.408,1.56 0.655,1.865 0.992,1.9 L0.992,1.9 L16.548,3.515 C16.885,3.549 17.188,3.303 17.223,2.967 L17.223,2.967 C17.258,2.63 17.011,2.326 16.675,2.291 L16.675,2.291 L1.118,0.676 C1.097,0.673 1.077,0.672 1.056,0.672 L1.056,0.672 C0.745,0.672 0.475,0.909 0.443,1.224" id="path-129"></path>
        <path d="M6.078,0.69 C2.276,1.508 -0.142,5.253 0.676,9.055 L0.676,9.055 L14.442,6.092 C13.731,2.789 10.812,0.531 7.566,0.531 L7.566,0.531 C7.075,0.531 6.577,0.582 6.078,0.69" id="path-131"></path>
        <linearGradient x1="100.246971%" y1="51.7166868%" x2="0.759763231%" y2="49.4037952%" id="linearGradient-133">
            <stop stop-color="#FDC900" offset="0%"></stop>
            <stop stop-color="#FC9600" offset="100%"></stop>
        </linearGradient>
        <path d="M6.574,0.022 C4.553,0.457 2.806,1.588 1.654,3.209 L1.654,3.209 C0.492,4.846 0.074,6.785 0.479,8.667 L0.479,8.667 C0.539,8.947 0.783,9.143 1.058,9.153 L1.058,9.153 C1.108,9.155 1.159,9.151 1.212,9.139 L1.212,9.139 C1.544,9.068 1.756,8.74 1.684,8.407 L1.684,8.407 C1.353,6.868 1.699,5.275 2.66,3.923 L2.66,3.923 C3.632,2.555 5.114,1.597 6.834,1.227 L6.834,1.227 C7.166,1.155 7.377,0.828 7.306,0.495 L7.306,0.495 C7.244,0.205 6.988,0.008 6.704,0.008 L6.704,0.008 C6.661,0.008 6.617,0.013 6.574,0.022" id="path-134"></path>
        <path d="M17.078,0.073 L0.886,3.559 C0.536,3.634 0.311,3.982 0.387,4.332 L0.387,4.332 C0.462,4.682 0.809,4.907 1.161,4.832 L1.161,4.832 L17.352,1.346 C17.702,1.271 17.927,0.923 17.851,0.572 L17.851,0.572 C17.785,0.268 17.514,0.059 17.214,0.059 L17.214,0.059 C17.169,0.059 17.123,0.063 17.078,0.073" id="path-136"></path>
    </defs>
    <g id="Page-1-Copy-2" stroke="none" stroke-width="1" fill="none" fill-rule="evenodd">
        <g id="1-copy-21" transform="translate(-42.000000, -307.000000)">
            <g id="Group-297" transform="translate(42.000000, 306.000000)">
                <g id="Group-10" transform="translate(0.000000, 48.386000)">
                    <g id="Group-3">
                        <mask id="mask-2" fill="white">
                            <use xlink:href="#path-1"></use>
                        </mask>
                        <g id="Clip-2"></g>
                        <path d="M32.2577,99.148 C75.2677,121.617 145.0007,121.617 188.0107,99.149 C231.0207,76.68 231.0207,40.25 188.0107,17.782 C144.9997,-4.687 75.2667,-4.687 32.2577,17.781 C-10.7523,40.25 -10.7523,76.68 32.2577,99.148" id="Fill-1" fill="#E8E8E8" mask="url(#mask-2)"></path>
                    </g>
                    <path d="M37.6223,60.0007 C33.3083,62.0567 26.3143,62.0567 22.0003,60.0007 C17.6863,57.9447 17.6863,54.6107 22.0003,52.5547 C26.3143,50.4987 33.3083,50.4987 37.6223,52.5547 C41.9363,54.6107 41.9363,57.9447 37.6223,60.0007" id="Fill-4" fill="#E8E8E8"></path>
                    <path d="M166.3093,66.5123 C160.5513,69.2563 151.2153,69.2563 145.4573,66.5123 C139.6983,63.7683 139.6983,59.3183 145.4573,56.5733 C151.2153,53.8293 160.5513,53.8293 166.3093,56.5733 C172.0683,59.3183 172.0683,63.7683 166.3093,66.5123" id="Fill-6" fill="#E8E8E8"></path>
                    <path d="M78.8888,68.5681 L78.8888,68.5651 L78.8888,32.2451 L59.3618,32.2451 L59.3618,68.5701 L59.3618,68.5701 C59.3638,70.0121 60.3158,71.4531 62.2208,72.5521 C66.0338,74.7541 72.2158,74.7541 76.0288,72.5521 C77.9338,71.4531 78.8868,70.0121 78.8888,68.5701 L78.8888,68.5701 L78.8888,68.5681 Z" id="Fill-8" fill="#2B454E"></path>
                </g>
                <g id="Group-13" transform="translate(59.000000, 80.386000)">
                    <mask id="mask-4" fill="white">
                        <use xlink:href="#path-3"></use>
                    </mask>
                    <g id="Clip-12"></g>
                    <path d="M0.361,0.245 L0.361,36.57 C0.363,38.012 1.316,39.453 3.221,40.553 L3.221,40.553 C7.034,42.754 13.216,42.754 17.029,40.553 L17.029,40.553 C18.934,39.453 19.887,38.012 19.889,36.57 L19.889,36.57 L19.889,36.568 L19.889,36.565 L19.889,0.245 L0.361,0.245 Z" id="Fill-11" fill="url(#linearGradient-5)" mask="url(#mask-4)"></path>
                </g>
                <g id="Group-18" transform="translate(59.000000, 74.386000)">
                    <path d="M3.2214,10.4745 C-0.5916,8.2735 -0.5916,4.7035 3.2214,2.5025 C7.0344,0.3015 13.2164,0.3015 17.0294,2.5025 C20.8424,4.7035 20.8424,8.2735 17.0294,10.4745 C13.2164,12.6755 7.0344,12.6755 3.2214,10.4745" id="Fill-14" fill="#5691BA"></path>
                    <path d="M43.3225,56.0973 L43.3225,56.0943 L43.3225,29.6623 L23.7955,29.6623 L23.7955,56.0993 L23.7955,56.0993 C23.7975,57.5413 24.7505,58.9823 26.6545,60.0813 C30.4675,62.2833 36.6495,62.2833 40.4625,60.0813 C42.3675,58.9823 43.3205,57.5413 43.3225,56.0993 L43.3225,56.0993 L43.3225,56.0973 Z" id="Fill-16" fill="#2B454E"></path>
                </g>
                <g id="Group-21" transform="translate(82.000000, 103.386000)">
                    <mask id="mask-7" fill="white">
                        <use xlink:href="#path-6"></use>
                    </mask>
                    <g id="Clip-20"></g>
                    <path d="M0.796,0.662 L0.796,27.1 C0.797,28.541 1.75,29.982 3.655,31.081 L3.655,31.081 C7.468,33.283 13.65,33.283 17.463,31.081 L17.463,31.081 C19.368,29.982 20.321,28.541 20.322,27.1 L20.322,27.1 L20.323,27.1 L20.323,27.097 L20.323,27.094 L20.323,0.662 L0.796,0.662 Z" id="Fill-19" fill="url(#linearGradient-8)" mask="url(#mask-7)"></path>
                </g>
                <g id="Group-26" transform="translate(82.000000, 98.386000)">
                    <path d="M3.6553,9.8918 C-0.1577,7.6908 -0.1577,4.1218 3.6553,1.9198 C7.4683,-0.2812 13.6503,-0.2812 17.4633,1.9198 C21.2763,4.1218 21.2763,7.6908 17.4633,9.8918 C13.6503,12.0938 7.4683,12.0938 3.6553,9.8918" id="Fill-22" fill="#5691BA"></path>
                    <path d="M43.7564,45.627 L43.7564,45.623 L43.7564,25.088 L24.2294,25.088 L24.2294,45.629 L24.2294,45.629 C24.2314,47.071 25.1844,48.511 27.0884,49.611 C30.9014,51.813 37.0834,51.813 40.8964,49.611 C42.8014,48.511 43.7544,47.071 43.7564,45.629 L43.7564,45.629 L43.7564,45.627 Z" id="Fill-24" fill="#2B454E"></path>
                </g>
                <g id="Group-29" transform="translate(106.000000, 123.386000)">
                    <mask id="mask-10" fill="white">
                        <use xlink:href="#path-9"></use>
                    </mask>
                    <g id="Clip-28"></g>
                    <path d="M0.229,0.088 L0.229,20.628 C0.232,22.07 1.185,23.511 3.089,24.611 L3.089,24.611 C6.901,26.812 13.083,26.812 16.897,24.611 L16.897,24.611 C18.801,23.511 19.754,22.07 19.756,20.628 L19.756,20.628 L19.756,20.627 L19.756,20.623 L19.756,0.088 L0.229,0.088 Z" id="Fill-27" fill="url(#linearGradient-11)" mask="url(#mask-10)"></path>
                </g>
                <path d="M109.0892,127.7031 C105.2762,125.5021 105.2762,121.9321 109.0892,119.7311 C112.9022,117.5301 119.0842,117.5301 122.8972,119.7311 C126.7102,121.9321 126.7102,125.5021 122.8972,127.7031 C119.0842,129.9041 112.9022,129.9041 109.0892,127.7031" id="Fill-30" fill="#5691BA"></path>
                <g id="Group-34" transform="translate(34.000000, 121.386000)">
                    <mask id="mask-13" fill="white">
                        <use xlink:href="#path-12"></use>
                    </mask>
                    <g id="Clip-33"></g>
                    <path d="M8.49,0.797 L1.224,4.992 C0.535,5.391 0.535,6.036 1.224,6.435 L1.224,6.435 L14.349,14.012 C15.038,14.41 16.157,14.41 16.847,14.012 L16.847,14.012 L24.113,9.817 C24.802,9.418 24.802,8.773 24.113,8.375 L24.113,8.375 L19.503,5.713 L22.057,2.406 C22.381,1.985 22.228,1.752 21.714,1.884 L21.714,1.884 L15.598,3.458 L10.988,0.797 C10.644,0.598 10.192,0.499 9.739,0.499 L9.739,0.499 C9.287,0.499 8.835,0.598 8.49,0.797" id="Fill-32" fill="url(#linearGradient-14)" mask="url(#mask-13)"></path>
                </g>
                <path d="M46.5552,130.6922 C46.4272,130.7782 46.3512,130.8542 46.3262,130.9212 C46.3032,130.9872 46.3502,131.0542 46.4672,131.1222 C46.5842,131.1892 46.7002,131.2162 46.8152,131.2022 C46.9302,131.1892 47.0612,131.1452 47.2112,131.0712 C47.4022,130.9782 47.5782,130.8772 47.7392,130.7662 C47.8662,130.6802 47.9422,130.6042 47.9662,130.5382 C47.9912,130.4712 47.9442,130.4052 47.8262,130.3372 C47.7092,130.2692 47.5932,130.2422 47.4782,130.2562 C47.3642,130.2702 47.2322,130.3142 47.0832,130.3872 C46.8912,130.4802 46.7152,130.5822 46.5552,130.6922 L46.5552,130.6922 Z M45.6432,126.9342 C45.5152,127.0202 45.4392,127.0962 45.4152,127.1632 C45.3912,127.2292 45.4382,127.2952 45.5562,127.3632 C45.6722,127.4312 45.7882,127.4582 45.9032,127.4442 C46.0172,127.4302 46.1492,127.3862 46.2992,127.3122 C46.4912,127.2202 46.6672,127.1192 46.8272,127.0082 C46.9552,126.9222 47.0312,126.8452 47.0552,126.7792 C47.0782,126.7132 47.0322,126.6462 46.9152,126.5782 C46.7972,126.5102 46.6812,126.4842 46.5672,126.4982 C46.4522,126.5112 46.3202,126.5552 46.1712,126.6292 C45.9792,126.7222 45.8032,126.8232 45.6432,126.9342 L45.6432,126.9342 Z M48.7062,131.2782 C48.5092,131.4112 48.3062,131.5282 48.0982,131.6302 C47.9282,131.7152 47.7492,131.7842 47.5632,131.8332 C47.3752,131.8822 47.1792,131.9062 46.9702,131.9062 C46.7632,131.9062 46.5522,131.8792 46.3392,131.8232 C46.1252,131.7682 45.9152,131.6802 45.7072,131.5602 C45.5002,131.4402 45.3472,131.3182 45.2512,131.1952 C45.1552,131.0722 45.1092,130.9522 45.1112,130.8332 C45.1142,130.7152 45.1562,130.6002 45.2392,130.4912 C45.3222,130.3822 45.4382,130.2782 45.5872,130.1802 C45.6832,130.1122 45.7782,130.0512 45.8712,129.9972 C45.9642,129.9442 46.0722,129.8872 46.1952,129.8292 C46.3652,129.7432 46.5462,129.6762 46.7352,129.6282 C46.9242,129.5802 47.1222,129.5562 47.3272,129.5542 C47.5322,129.5532 47.7402,129.5792 47.9552,129.6352 C48.1672,129.6902 48.3782,129.7782 48.5862,129.8982 C48.7942,130.0182 48.9462,130.1392 49.0422,130.2632 C49.1382,130.3862 49.1852,130.5072 49.1822,130.6252 C49.1792,130.7442 49.1372,130.8582 49.0542,130.9672 C48.9712,131.0762 48.8552,131.1802 48.7062,131.2782 L48.7062,131.2782 Z M47.7942,127.5202 C47.5972,127.6532 47.3942,127.7702 47.1862,127.8712 C47.0162,127.9572 46.8372,128.0252 46.6512,128.0742 C46.4642,128.1242 46.2672,128.1482 46.0592,128.1482 C45.8512,128.1482 45.6412,128.1212 45.4272,128.0652 C45.2142,128.0102 45.0032,127.9222 44.7962,127.8022 C44.5872,127.6822 44.4352,127.5602 44.3402,127.4372 C44.2442,127.3142 44.1972,127.1932 44.2002,127.0752 C44.2032,126.9562 44.2452,126.8422 44.3282,126.7332 C44.4102,126.6242 44.5262,126.5202 44.6752,126.4222 C44.7722,126.3542 44.8662,126.2932 44.9592,126.2392 C45.0532,126.1852 45.1602,126.1292 45.2832,126.0712 C45.4542,125.9842 45.6342,125.9172 45.8232,125.8702 C46.0122,125.8222 46.2102,125.7972 46.4152,125.7962 C46.6202,125.7942 46.8302,125.8212 47.0422,125.8772 C47.2552,125.9322 47.4662,126.0202 47.6752,126.1402 C47.8822,126.2602 48.0342,126.3812 48.1302,126.5042 C48.2272,126.6282 48.2732,126.7482 48.2702,126.8672 C48.2672,126.9862 48.2252,127.1002 48.1422,127.2092 C48.0602,127.3182 47.9432,127.4222 47.7942,127.5202 L47.7942,127.5202 Z M50.7372,128.1302 C50.8232,128.1242 50.8982,128.1242 50.9652,128.1322 C51.0322,128.1402 51.1032,128.1652 51.1772,128.2082 L51.8322,128.5872 C51.8912,128.6212 51.9232,128.6562 51.9292,128.6932 C51.9352,128.7302 51.9132,128.7622 51.8652,128.7902 C51.8542,128.7962 51.8382,128.8022 51.8172,128.8082 C51.7952,128.8152 51.7722,128.8192 51.7452,128.8232 L42.5962,129.5432 C42.5112,129.5492 42.4352,129.5482 42.3692,129.5402 C42.3022,129.5322 42.2312,129.5072 42.1572,129.4642 L41.5012,129.0852 C41.4422,129.0522 41.4102,129.0162 41.4042,128.9792 C41.3992,128.9422 41.4212,128.9102 41.4692,128.8822 C41.4802,128.8762 41.4962,128.8702 41.5172,128.8642 C41.5382,128.8582 41.5622,128.8532 41.5892,128.8502 L50.7372,128.1302 Z" id="Fill-35" fill="#FFFFFF"></path>
                <g id="Group-39" transform="translate(60.000000, 136.386000)">
                    <mask id="mask-16" fill="white">
                        <use xlink:href="#path-15"></use>
                    </mask>
                    <g id="Clip-38"></g>
                    <path d="M7.885,0.449 L0.62,4.644 C-0.071,5.042 -0.071,5.687 0.62,6.086 L0.62,6.086 L13.743,13.664 C14.434,14.062 15.551,14.062 16.242,13.664 L16.242,13.664 L23.507,9.469 C24.198,9.07 24.198,8.425 23.507,8.026 L23.507,8.026 L18.898,5.365 L21.452,2.057 C21.777,1.637 21.623,1.404 21.109,1.536 L21.109,1.536 L14.993,3.111 L10.384,0.449 C10.038,0.25 9.586,0.15 9.134,0.15 L9.134,0.15 C8.682,0.15 8.23,0.25 7.885,0.449" id="Fill-37" fill="url(#linearGradient-17)" mask="url(#mask-16)"></path>
                </g>
                <g id="Group-70" transform="translate(66.000000, 0.386000)">
                    <path d="M5.9501,144.9579 C5.8221,145.0439 5.7461,145.1199 5.7211,145.1869 C5.6981,145.2529 5.7451,145.3199 5.8621,145.3879 C5.9791,145.4549 6.0951,145.4819 6.2101,145.4679 C6.3251,145.4549 6.4561,145.4109 6.6061,145.3369 C6.7971,145.2439 6.9731,145.1429 7.1341,145.0319 C7.2611,144.9459 7.3371,144.8699 7.3611,144.8039 C7.3861,144.7369 7.3391,144.6709 7.2211,144.6029 C7.1041,144.5349 6.9881,144.5079 6.8731,144.5219 C6.7591,144.5359 6.6271,144.5799 6.4781,144.6529 C6.2861,144.7459 6.1101,144.8479 5.9501,144.9579 L5.9501,144.9579 Z M5.0381,141.1999 C4.9101,141.2859 4.8341,141.3619 4.8101,141.4289 C4.7861,141.4949 4.8331,141.5609 4.9501,141.6289 C5.0671,141.6969 5.1831,141.7239 5.2981,141.7099 C5.4121,141.6959 5.5441,141.6519 5.6941,141.5779 C5.8861,141.4859 6.0621,141.3849 6.2221,141.2739 C6.3491,141.1879 6.4261,141.1109 6.4491,141.0449 C6.4731,140.9789 6.4271,140.9119 6.3101,140.8449 C6.1921,140.7759 6.0761,140.7499 5.9621,140.7639 C5.8471,140.7769 5.7151,140.8209 5.5661,140.8949 C5.3741,140.9879 5.1981,141.0889 5.0381,141.1999 L5.0381,141.1999 Z M8.1011,145.5439 C7.9041,145.6769 7.7011,145.7939 7.4931,145.8959 C7.3231,145.9809 7.1441,146.0499 6.9571,146.0989 C6.7701,146.1479 6.5741,146.1729 6.3651,146.1729 C6.1571,146.1729 5.9471,146.1449 5.7341,146.0889 C5.5201,146.0339 5.3101,145.9459 5.1021,145.8259 C4.8951,145.7059 4.7421,145.5839 4.6461,145.4609 C4.5501,145.3379 4.5041,145.2179 4.5061,145.0989 C4.5091,144.9809 4.5511,144.8659 4.6341,144.7569 C4.7171,144.6479 4.8331,144.5439 4.9821,144.4459 C5.0781,144.3779 5.1731,144.3169 5.2661,144.2629 C5.3591,144.2099 5.4671,144.1529 5.5901,144.0949 C5.7601,144.0089 5.9411,143.9419 6.1301,143.8939 C6.3191,143.8459 6.5171,143.8219 6.7221,143.8199 C6.9271,143.8189 7.1351,143.8449 7.3491,143.9009 C7.5621,143.9559 7.7731,144.0439 7.9811,144.1639 C8.1891,144.2839 8.3411,144.4049 8.4371,144.5289 C8.5331,144.6519 8.5801,144.7729 8.5771,144.8909 C8.5741,145.0099 8.5321,145.1239 8.4491,145.2329 C8.3661,145.3419 8.2501,145.4459 8.1011,145.5439 L8.1011,145.5439 Z M7.1891,141.7859 C6.9921,141.9189 6.7891,142.0359 6.5811,142.1369 C6.4111,142.2229 6.2321,142.2909 6.0461,142.3399 C5.8591,142.3899 5.6621,142.4139 5.4541,142.4139 C5.2461,142.4139 5.0361,142.3869 4.8221,142.3309 C4.6091,142.2759 4.3981,142.1879 4.1911,142.0679 C3.9821,141.9479 3.8301,141.8259 3.7351,141.7029 C3.6391,141.5799 3.5921,141.4589 3.5951,141.3409 C3.5971,141.2219 3.6401,141.1079 3.7231,140.9989 C3.8051,140.8899 3.9211,140.7859 4.0701,140.6879 C4.1661,140.6199 4.2611,140.5589 4.3541,140.5049 C4.4481,140.4509 4.5551,140.3949 4.6781,140.3369 C4.8491,140.2499 5.0291,140.1829 5.2181,140.1359 C5.4071,140.0879 5.6051,140.0629 5.8101,140.0619 C6.0151,140.0599 6.2251,140.0869 6.4371,140.1429 C6.6501,140.1979 6.8611,140.2859 7.0701,140.4059 C7.2771,140.5259 7.4291,140.6469 7.5251,140.7699 C7.6221,140.8939 7.6681,141.0139 7.6651,141.1329 C7.6621,141.2519 7.6201,141.3659 7.5371,141.4749 C7.4551,141.5839 7.3381,141.6879 7.1891,141.7859 L7.1891,141.7859 Z M10.1321,142.3959 C10.2171,142.3899 10.2931,142.3899 10.3601,142.3979 C10.4271,142.4059 10.4981,142.4309 10.5721,142.4739 L11.2271,142.8529 C11.2861,142.8869 11.3181,142.9219 11.3241,142.9589 C11.3301,142.9959 11.3081,143.0279 11.2601,143.0559 C11.2491,143.0619 11.2331,143.0679 11.2121,143.0739 C11.1901,143.0809 11.1671,143.0849 11.1401,143.0889 L1.9911,143.8089 C1.9061,143.8149 1.8291,143.8139 1.7641,143.8059 C1.6971,143.7979 1.6261,143.7729 1.5511,143.7299 L0.8961,143.3509 C0.8371,143.3179 0.8051,143.2819 0.7991,143.2449 C0.7941,143.2079 0.8161,143.1759 0.8641,143.1479 C0.8741,143.1419 0.8901,143.1359 0.9121,143.1299 C0.9331,143.1239 0.9571,143.1189 0.9841,143.1159 L10.1321,142.3959 Z" id="Fill-40" fill="#FFFFFF"></path>
                    <polygon id="Fill-42" fill="#D3D3D3" points="108.5758 79.3613 100.7648 74.8513 100.7638 52.3023 108.5758 56.8123"></polygon>
                    <polygon id="Fill-44" fill="#E2E2E2" points="108.5753 79.3613 116.3873 74.8513 116.3873 52.3023 108.5753 56.8123"></polygon>
                    <polygon id="Fill-46" fill="#F5F5F5" points="100.7643 52.3026 108.5753 56.8126 116.3873 52.3026 108.5763 47.7926"></polygon>
                    <polygon id="Fill-48" fill="#D3D3D3" points="91.0007 69.2141 83.1897 64.7041 83.1887 19.6071 91.0007 24.1171"></polygon>
                    <polygon id="Fill-50" fill="#E2E2E2" points="91.0002 69.2141 98.8122 64.7041 98.8122 19.6071 91.0002 24.1171"></polygon>
                    <polygon id="Fill-52" fill="#F5F5F5" points="83.1891 19.607 91.0001 24.117 98.8121 19.607 91.0001 15.097"></polygon>
                    <polygon id="Fill-54" fill="#D3D3D3" points="73.4251 59.067 65.6141 54.557 65.6131 38.773 73.4251 43.283"></polygon>
                    <polygon id="Fill-56" fill="#E2E2E2" points="73.4246 59.067 81.2366 54.557 81.2366 38.773 73.4246 43.283"></polygon>
                    <polygon id="Fill-58" fill="#F5F5F5" points="65.6136 38.7731 73.4246 43.2831 81.2366 38.7731 73.4246 34.2631"></polygon>
                    <polygon id="Fill-60" fill="#D3D3D3" points="126.1505 89.5082 118.3395 84.9982 118.3395 42.1552 126.1505 46.6652"></polygon>
                    <polygon id="Fill-62" fill="#E2E2E2" points="126.15 89.5082 133.962 84.9982 133.962 42.1552 126.15 46.6652"></polygon>
                    <polygon id="Fill-64" fill="#F5F5F5" points="118.3394 42.1557 126.1504 46.6657 133.9624 42.1557 126.1504 37.6457"></polygon>
                    <path d="M71.541002,86.2375 L71.46,36.2975 C71.459,35.7675 71.085,35.1215 70.625,34.8575 L11.7,0.9675 C11.239,0.7025 10.867,0.9175 10.867998,1.4495 L10.948,51.3885 C10.949,51.9195 11.323,52.5645 11.783,52.8295 L70.709,86.7195 C71.169,86.9845 71.542,86.7685 71.541002,86.2375" id="Fill-66" fill="#FFFFFF"></path>
                    <path d="M11.3286,1.0942 C11.2906,1.0942 11.2586,1.1022 11.2316,1.1172 C11.1526,1.1632 11.1076,1.2832 11.1076,1.4492 L11.1886,51.3882 C11.1896,51.8342 11.5166,52.3982 11.9036,52.6202 L70.8286,86.5112 C70.9716,86.5928574 71.0986,86.6152 71.1776,86.5692 C71.2556,86.5242 71.3006,86.4032 71.3006,86.2382 L71.2196,36.2982 C71.2186,35.8522 70.8916,35.2872 70.5046,35.0652 L11.5796,1.1752 C11.4866,1.1212 11.3996,1.0942 11.3286,1.0942 M71.0836,87.072215 C70.9256,87.0732 70.7566,87.0242 70.5886,86.9282 L11.6636,53.0372 C11.1286,52.7302 10.7086,52.0052 10.7076,51.3882 L10.6275944,1.4492 C10.6266,1.1082 10.7586,0.8362 10.9906,0.7022 C11.2206,0.5672 11.5226,0.5882 11.8196,0.7582 L70.7446,34.6492 C71.2796,34.9562 71.6996,35.6802 71.7006,36.2972 L71.7816,86.2372 C71.7816,86.5832 71.6536,86.8492 71.4186,86.9852 C71.3176,87.0432 71.2046,87.072215 71.0836,87.072215" id="Fill-68" fill="#D3D3D3"></path>
                </g>
                <g id="Group-73" transform="translate(82.000000, 26.386000)">
                    <mask id="mask-19" fill="white">
                        <use xlink:href="#path-18"></use>
                    </mask>
                    <g id="Clip-72"></g>
                    <path d="M23.962,0.952 C21.629,1.769 20.01,6.148 18.133,11.22 L18.133,11.22 C18.002,11.575 17.868,11.942 17.732,12.318 L17.732,12.318 C16.555,15.555 15.088,19.585 13.303,20.245 L13.303,20.245 C12.87,20.405 12.439,20.359 11.983,20.103 L11.983,20.103 C10.208,19.101 9.883,16.276 9.54,13.284 L9.54,13.284 C9.189,10.231 8.827,7.073 6.758,5.832 L6.758,5.832 C6.277,5.545 5.771,5.501 5.252,5.704 L5.252,5.704 C2.709,6.695 0.645,13.579 0.558,13.872 L0.558,13.872 L1.019,14.009 C1.039,13.939 3.1,7.058 5.427,6.151 L5.427,6.151 C5.805,6.003 6.159,6.034 6.51,6.245 L6.51,6.245 C8.376,7.363 8.725,10.401 9.062,13.339 L9.062,13.339 C9.404,16.319 9.758,19.4 11.748,20.521 L11.748,20.521 C12.325,20.847 12.904,20.906 13.47,20.696 L13.47,20.696 C15.464,19.959 16.909,15.986 18.184,12.481 L18.184,12.481 C18.319,12.108 18.453,11.741 18.584,11.386 L18.584,11.386 C20.342,6.635 22.001,2.148 24.121,1.406 L24.121,1.406 C24.725,1.195 25.349,1.292 26.03,1.703 L26.03,1.703 C28.826,3.392 29.286,6.695 30.048,12.17 L30.048,12.17 C30.183,13.139 30.328,14.174 30.496,15.281 L30.496,15.281 C30.604,15.996 30.703,16.674 30.797,17.315 L30.797,17.315 C31.557,22.527 31.974,25.398 34.453,26.823 L34.453,26.823 C35.857,27.628 37.111,26.674 38.325,25.749 L38.325,25.749 C39.667,24.725 40.936,23.758 42.521,24.705 L42.521,24.705 C45.823,26.681 46.208,31.471 46.789,38.724 L46.789,38.724 L46.842,39.382 C47.465,47.103 48.378,48.107 49.94,49.219 L49.94,49.219 L50.219,48.827 C48.906,47.892 47.956,47.216 47.321,39.343 L47.321,39.343 L47.269,38.685 C46.675,31.284 46.283,26.395 42.768,24.293 L42.768,24.293 C40.905,23.179 39.379,24.341 38.033,25.367 L38.033,25.367 C36.845,26.272 35.821,27.054 34.692,26.406 L34.692,26.406 C32.417,25.098 32.01,22.309 31.273,17.246 L31.273,17.246 C31.179,16.604 31.08,15.925 30.972,15.209 L30.972,15.209 C30.804,14.104 30.659,13.07 30.525,12.104 L30.525,12.104 C29.742,6.488 29.271,3.098 26.278,1.291 L26.278,1.291 C25.756,0.976 25.243,0.818 24.744,0.818 L24.744,0.818 C24.479,0.818 24.218,0.863 23.962,0.952" id="Fill-71" fill="url(#linearGradient-20)" mask="url(#mask-19)"></path>
                </g>
                <g id="Group-99" transform="translate(53.000000, 2.386000)">
                    <g id="Group-76" transform="translate(29.000000, 24.000000)">
                        <mask id="mask-22" fill="white">
                            <use xlink:href="#path-21"></use>
                        </mask>
                        <g id="Clip-75"></g>
                        <path d="M49.94,49.219 C48.379,48.107 47.465,47.102 46.843,39.382 L46.789,38.723 C46.208,31.471 45.823,26.68 42.521,24.705 C40.936,23.757 39.668,24.725 38.324,25.749 C37.111,26.674 35.857,27.629 34.453,26.823 C31.975,25.398 31.556,22.527 30.797,17.315 C30.703,16.673 30.604,15.996 30.496,15.282 C30.328,14.174 30.183,13.138 30.049,12.17 C29.286,6.696 28.826,3.391 26.03,1.703 C25.35,1.292 24.725,1.195 24.121,1.406 C22.001,2.148 20.342,6.635 18.584,11.386 C18.453,11.741 18.32,12.108 18.184,12.482 C16.909,15.986 15.464,19.959 13.47,20.696 C12.904,20.905 12.325,20.847 11.748,20.521 C9.758,19.399 9.404,16.319 9.062,13.339 C8.725,10.401 8.376,7.363 6.51,6.245 C6.159,6.034 5.805,6.003 5.427,6.151 C3.101,7.058 1.04,13.939 1.019,14.009 L0.558,13.872 C0.645,13.58 2.709,6.695 5.252,5.703 C5.771,5.501 6.277,5.545 6.758,5.833 C8.827,7.072 9.189,10.23 9.54,13.284 C9.883,16.276 10.208,19.101 11.984,20.102 C12.439,20.359 12.87,20.405 13.303,20.245 C15.088,19.585 16.554,15.555 17.732,12.317 C17.868,11.943 18.002,11.575 18.133,11.219 C20.009,6.148 21.629,1.769 23.962,0.952 C24.699,0.694 25.479,0.808 26.278,1.291 C29.27,3.098 29.743,6.488 30.525,12.103 C30.659,13.07 30.804,14.104 30.971,15.21 C31.08,15.925 31.179,16.603 31.273,17.246 C32.01,22.309 32.417,25.098 34.693,26.406 C35.82,27.054 36.845,26.272 38.033,25.367 C39.379,24.341 40.905,23.179 42.768,24.293 C46.283,26.395 46.675,31.284 47.269,38.685 L47.321,39.343 C47.956,47.217 48.906,47.892 50.219,48.827 L49.94,49.219 Z" id="Fill-74" fill="url(#linearGradient-23)" mask="url(#mask-22)"></path>
                    </g>
                    <path d="M70.8107,46.5999 C71.4907,46.9909 72.0427,47.9439 72.0437054,48.7289 C72.0457,49.5139 71.4957,49.8319 70.8157,49.4409 C70.1347,49.0499 69.5827,48.0969 69.5816946,47.3119 C69.5797,46.5279 70.1307,46.2089 70.8107,46.5999" id="Fill-77" fill="#00DFBF"></path>
                    <path d="M70.8107,46.5999 C71.4907,46.9909 72.0427,47.9439 72.0437054,48.7289 C72.0457,49.5139 71.4957,49.8319 70.8157,49.4409 C70.1347,49.0499 69.5827,48.0969 69.5816946,47.3119 C69.5797,46.5279 70.1307,46.2089 70.8107,46.5999" id="Fill-79" fill="#5181C0"></path>
                    <path d="M55.1517,24.0767 C55.8317,24.4677 56.3837,25.4207 56.3857014,26.2057 C56.3867,26.9897 55.8367,27.3087 55.1567,26.9177 C54.4757,26.5267 53.9237,25.5737 53.9226986,24.7887 C53.9217,24.0047 54.4717,23.6857 55.1517,24.0767" id="Fill-81" fill="#99B3D9"></path>
                    <path d="M55.1517,24.0767 C55.8317,24.4677 56.3837,25.4207 56.3857014,26.2057 C56.3867,26.9897 55.8367,27.3087 55.1567,26.9177 C54.4757,26.5267 53.9237,25.5737 53.9226986,24.7887 C53.9217,24.0047 54.4717,23.6857 55.1517,24.0767" id="Fill-83" fill="#99B3D9"></path>
                    <path d="M35.6317,28.618 C36.3117,29.009 36.8637,29.962 36.8657014,30.747 C36.8667,31.531 36.3167,31.85 35.6367,31.459 C34.9557,31.068 34.4037,30.115 34.4026986,29.33 C34.4017,28.546 34.9517,28.227 35.6317,28.618" id="Fill-85" fill="#5181C0"></path>
                    <path d="M53.2276,82.037 L53.2276,32.097 C53.2276,31.566 52.8546,30.921 52.3946,30.655 L1.3356,1.176 C0.8756,0.91 0.5036,1.126 0.5036,1.657 L0.5026,51.596 C0.5026,52.127 0.8756,52.773 1.3356,53.038 L52.3946,82.518 C52.8546,82.783 53.2276,82.568 53.2276,82.037" id="Fill-87" fill="#FFFFFF"></path>
                    <path d="M0.9646,1.3025 C0.9276,1.3025 0.8946,1.3105 0.8676,1.3255 C0.7886,1.3715 0.7436,1.4915 0.7436,1.6565 L0.7426,51.5955 C0.7426,52.0415 1.0696,52.6075 1.4556,52.8295 L52.5156,82.3095 C52.6576,82.390996 52.7846,82.4125 52.8636,82.3685 C52.9426,82.3225 52.9876,82.2015 52.9876,82.0375 L52.9876,32.0975 C52.9876,31.6515 52.6606,31.0865 52.2746,30.8635 L1.2156,1.3845 C1.1226,1.3305 1.0356,1.3025 0.9646,1.3025 M52.7686,82.8715 C52.6106,82.8715 52.4416,82.8225 52.2746,82.7255 L1.2156,53.2465 C0.6806,52.9375 0.2626,52.2125 0.2626,51.5955 L0.2626,1.6565 C0.2626,1.3155 0.3956,1.0435 0.6266,0.9095 C0.8586,0.7755 1.1606,0.7975 1.4556,0.9675 L52.5156,30.4475 C53.0496,30.7555 53.4676,31.4805 53.4676,32.0975 L53.4676,82.0375 C53.4676,82.3785 53.3346,82.6505 53.1036,82.7845 C53.0036,82.8425 52.8896,82.8715 52.7686,82.8715" id="Fill-89" fill="#D3D3D3"></path>
                    <path d="M44.4403,70.6845 L44.4403,37.8225 C44.4403,37.5565 44.2543,37.2345 44.0243,37.1015 L38.9983,34.1995 C38.7683,34.0675 38.5813,34.1745 38.5813,34.4405 L38.5813,67.3025 C38.5813,67.5675 38.7683,67.8905 38.9983,68.0235 L44.0243,70.9245 C44.2543,71.0575 44.4403,70.9505 44.4403,70.6845" id="Fill-91" fill="#00DFBF"></path>
                    <path d="M44.4403,70.6845 L44.4403,37.8225 C44.4403,37.5565 44.2543,37.2345 44.0243,37.1015 L38.9983,34.1995 C38.7683,34.0675 38.5813,34.1745 38.5813,34.4405 L38.5813,67.3025 C38.5813,67.5675 38.7683,67.8905 38.9983,68.0235 L44.0243,70.9245 C44.2543,71.0575 44.4403,70.9505 44.4403,70.6845" id="Fill-93" fill="#FFBE00"></path>
                    <path d="M34.6764,65.0471 L34.6764,47.9701 C34.6764,47.7041 34.4904,47.3811 34.2604,47.2491 L29.2344,44.3471 C29.0044,44.2141 28.8174,44.3221 28.8174,44.5871 L28.8174,61.6651 C28.8174,61.9301 29.0044,62.2531 29.2344,62.3861 L34.2604,65.2881 C34.4904,65.4201 34.6764,65.3131 34.6764,65.0471" id="Fill-95" fill="#00DFBF"></path>
                    <path d="M34.6764,65.0471 L34.6764,47.9701 C34.6764,47.7041 34.4904,47.3811 34.2604,47.2491 L29.2344,44.3471 C29.0044,44.2141 28.8174,44.3221 28.8174,44.5871 L28.8174,61.6651 C28.8174,61.9301 29.0044,62.2531 29.2344,62.3861 L34.2604,65.2881 C34.4904,65.4201 34.6764,65.3131 34.6764,65.0471" id="Fill-97" fill="#FFDB40"></path>
                </g>
                <g id="Group-102" transform="translate(72.000000, 31.386000)">
                    <mask id="mask-25" fill="white">
                        <use xlink:href="#path-24"></use>
                    </mask>
                    <g id="Clip-101"></g>
                    <path d="M0.054,0.931 L0.054,27.028 C0.054,27.293 0.24,27.615 0.471,27.749 L0.471,27.749 L5.496,30.65 C5.726,30.783 5.913,30.675 5.913,30.41 L5.913,30.41 L5.913,4.314 C5.913,4.048 5.726,3.725 5.496,3.592 L5.496,3.592 L0.471,0.69 C0.404,0.652 0.341,0.633 0.285,0.633 L0.285,0.633 C0.148,0.633 0.054,0.742 0.054,0.931" id="Fill-100" fill="url(#linearGradient-26)" mask="url(#mask-25)"></path>
                </g>
                <g id="Group-109" transform="translate(62.000000, 14.386000)">
                    <path d="M15.9126,47.4099 L15.9126,21.3129 C15.9126,21.0479 15.7266,20.7249 15.4966,20.5919 L10.4706,17.6909 C10.2406,17.5579 10.0536,17.6649 10.0536,17.9309 L10.0536,44.0279 C10.0536,44.2929 10.2406,44.6159 10.4706,44.7489 L15.4966,47.6499 C15.7266,47.7829 15.9126,47.6749 15.9126,47.4099" id="Fill-103" fill="#FFCA2A"></path>
                    <path d="M6.1485,41.7725 L6.1485,4.4015 C6.1485,4.1355 5.9625,3.8125 5.7325,3.6805 L0.7065,0.7785 C0.4765,0.6455 0.2895,0.7535 0.2895,1.0185 L0.2895,38.3905 C0.2895,38.6555 0.4765,38.9785 0.7065,39.1115 L5.7325,42.0125 C5.9625,42.1455 6.1485,42.0385 6.1485,41.7725" id="Fill-105" fill="#FFBE00"></path>
                    <path d="M109.9712,47.7653 C109.9062,47.4073 108.1392,43.3013 107.4122,41.6843 L103.7352,43.4063 L105.1422,46.6323 L108.9532,49.5773 C110.1222,49.2103 110.0362,48.1233 109.9712,47.7653" id="Fill-107" fill="#FFAAA8"></path>
                </g>
                <polygon id="Fill-110" fill="url(#linearGradient-27)" points="161.809 109.291 164.648 109.291 164.648 105.157 161.809 105.157"></polygon>
                <g id="Group-114" transform="translate(151.000000, 99.386000)">
                    <mask id="mask-29" fill="white">
                        <use xlink:href="#path-28"></use>
                    </mask>
                    <g id="Clip-113"></g>
                    <polygon id="Fill-112" fill="url(#linearGradient-30)" mask="url(#mask-29)" points="0.827 0.753 0.969 4.884 3.806 4.786 3.664 0.654"></polygon>
                </g>
                <path d="M155.3622,45.9456 C153.6072,46.0846 151.8552,46.5676 150.2862,48.8976 C148.7182,51.2286 145.9712,55.2166 145.9712,55.2166 L151.1422,56.8576 L155.3622,45.9456 Z" id="Fill-115" fill="#00DFBF"></path>
                <g id="Group-119" transform="translate(145.000000, 45.386000)">
                    <mask id="mask-32" fill="white">
                        <use xlink:href="#path-31"></use>
                    </mask>
                    <g id="Clip-118"></g>
                    <path d="M5.286,3.512 C3.718,5.842 0.971,9.831 0.971,9.831 L0.971,9.831 L6.142,11.472 L10.363,0.56 C8.607,0.699 6.856,1.182 5.286,3.512" id="Fill-117" mask="url(#mask-32)"></path>
                </g>
                <path d="M164.461,64.805 C164.461,67.515 164.812,85.049 164.812,85.049 C164.878,85.83 165.609,87.268 165.451,90.263 C165.236,94.332 164.884,105.637 164.884,105.637 C164.884,105.637 163.553,106.956 161.674,105.637 C161.674,105.637 159.104,90.277 158.595,86.245 C158.151,82.725 157.398,73.164 157.398,73.164 L154.768,84.418 C154.768,84.418 155.231,87.064 155.333,88.931 C155.434,90.798 154.851,101.583 154.851,101.583 C154.851,101.583 153.408,102.58 151.762,101.701 C151.762,101.701 149.482,85.944 149.189,84.257 C148.897,82.571 151.185,64.805 151.185,64.805 L164.461,64.805 Z" id="Fill-120" fill="#00DFBF"></path>
                <g id="Group-124" transform="translate(149.000000, 64.386000)">
                    <mask id="mask-34" fill="white">
                        <use xlink:href="#path-33"></use>
                    </mask>
                    <g id="Clip-123"></g>
                    <path d="M2.186,0.419 C2.186,0.419 -0.103,18.185 0.189,19.871 L0.189,19.871 C0.482,21.558 2.762,37.315 2.762,37.315 L2.762,37.315 C4.409,38.194 5.851,37.197 5.851,37.197 L5.851,37.197 C5.851,37.197 6.434,26.412 6.333,24.545 L6.333,24.545 C6.231,22.677 5.768,20.032 5.768,20.032 L5.768,20.032 L8.398,8.778 C8.398,8.778 9.152,18.339 9.595,21.858 L9.595,21.858 C10.104,25.89 12.674,41.251 12.674,41.251 L12.674,41.251 C14.553,42.57 15.884,41.251 15.884,41.251 L15.884,41.251 C15.884,41.251 16.235,29.946 16.451,25.877 L16.451,25.877 C16.609,22.882 15.878,21.443 15.812,20.663 L15.812,20.663 C15.812,20.663 15.462,3.129 15.462,0.419 L15.462,0.419 L2.186,0.419 Z" id="Fill-122" fill="url(#linearGradient-35)" mask="url(#mask-34)"></path>
                </g>
                <path d="M160.1884,46.0329 C162.7334,46.6449 165.9624,47.6729 167.0934,50.0189 C168.2244,52.3649 169.9684,56.1669 169.9684,56.1669 L165.7554,58.6569 L164.4614,56.4059 L164.4614,64.8049 C162.4704,66.9699 155.5314,67.9789 151.1854,64.8049 L151.1854,50.9689 C151.1854,48.7579 152.4134,46.1019 155.8054,45.9039 L160.1884,46.0329 Z" id="Fill-125" fill="#00DFBF"></path>
                <g id="Group-129" transform="translate(151.000000, 45.386000)">
                    <mask id="mask-37" fill="white">
                        <use xlink:href="#path-36"></use>
                    </mask>
                    <g id="Clip-128"></g>
                    <path d="M0.186,5.582 L0.186,19.419 C4.532,22.593 11.471,21.584 13.462,19.419 L13.462,19.419 L13.462,11.02 L14.755,13.271 L18.969,10.78 C18.969,10.78 17.223,6.979 16.093,4.632 L16.093,4.632 C14.963,2.287 11.733,1.259 9.188,0.647 L9.188,0.647 L4.805,0.519 C1.413,0.716 0.186,3.372 0.186,5.582" id="Fill-127" fill="url(#linearGradient-38)" mask="url(#mask-37)"></path>
                </g>
                <g id="Group-132" transform="translate(160.000000, 34.386000)">
                    <mask id="mask-40" fill="white">
                        <use xlink:href="#path-39"></use>
                    </mask>
                    <g id="Clip-131"></g>
                    <path d="M1.144,0.332 L0.734,4.868 L2.394,4.677 C2.821,2.339 2.933,1.322 2.395,0.772 L2.395,0.772 C2.012,0.38 1.553,0.321 1.312,0.321 L1.312,0.321 C1.208,0.321 1.144,0.332 1.144,0.332" id="Fill-130" fill="url(#linearGradient-41)" mask="url(#mask-40)"></path>
                </g>
                <path d="M151.4576,34.0412 C151.4576,34.0412 150.7866,34.0412 150.4186,33.8302 C149.9086,33.5372 149.7746,34.1172 150.0546,34.6202 C150.3346,35.1242 150.8566,35.7802 151.9816,35.9042 C151.9966,35.8322 152.4586,34.6062 152.4586,34.6062 L151.4576,34.0412 Z" id="Fill-133" fill="#1A2E35"></path>
                <g id="Group-137" transform="translate(151.000000, 32.386000)">
                    <mask id="mask-43" fill="white">
                        <use xlink:href="#path-42"></use>
                    </mask>
                    <g id="Clip-136"></g>
                    <path d="M0.822,3.625 C0.024,7.013 0.921,9.018 1.459,10.146 L1.459,10.146 C1.939,11.152 2.681,12.05 2.994,12.133 L2.994,12.133 C3.575,12.287 4.809,12.039 4.809,12.039 L4.809,12.039 L4.805,13.519 C4.02,14.483 3.529,16.453 5.918,16.129 L5.918,16.129 C8.306,15.805 9.188,13.647 9.188,13.647 L9.188,13.647 L9.365,9.579 C9.365,9.579 9.946,10.015 10.745,9.46 L10.745,9.46 C11.419,8.992 12.564,7.578 12.059,6.515 L12.059,6.515 C11.564,5.471 10.571,5.906 10.267,6.224 L10.267,6.224 C9.963,6.542 9.611,7.016 9.365,6.868 L9.365,6.868 C9.365,6.868 10.254,2.809 7.922,1.341 L7.922,1.341 C7.042,0.787 5.939,0.458 4.859,0.458 L4.859,0.458 C3.075,0.459 1.356,1.357 0.822,3.625" id="Fill-135" fill="url(#linearGradient-44)" mask="url(#mask-43)"></path>
                </g>
                <g id="Group-140" transform="translate(150.000000, 30.386000)">
                    <mask id="mask-46" fill="white">
                        <use xlink:href="#path-45"></use>
                    </mask>
                    <g id="Clip-139"></g>
                    <path d="M0.748,2.389 C0.86,2.949 1.085,3.521 1.505,3.996 L1.505,3.996 L2.346,4.306 C2.346,4.306 2.799,4.708 4.377,4.9 L4.377,4.9 C5.956,5.092 8.413,4.863 8.749,4.817 L8.749,4.817 C9.206,4.754 9.304,5.197 9.551,6.41 L9.551,6.41 C9.768,7.473 9.947,9.275 10.365,9.2830086 L10.365,9.2830086 C10.488,9.286 10.96,8.503 11.267,8.224 L11.267,8.224 C11.692,7.837 11.144,4.332 11.144,4.332 L11.144,4.332 C11.144,4.332 11.574,3.002 10.734,2.12 L10.734,2.12 C9.893,1.238 8.263,1.388 7.072,1.344 L7.072,1.344 C6.139,1.311 5.156,1.26 4.005,0.923 L4.005,0.923 C3.143,1.655 2.058,2.177 0.748,2.389" id="Fill-138" fill="url(#linearGradient-47)" mask="url(#mask-46)"></path>
                </g>
                <g id="Group-143" transform="translate(161.000000, 33.386000)">
                    <mask id="mask-49" fill="white">
                        <use xlink:href="#path-48"></use>
                    </mask>
                    <g id="Clip-142"></g>
                    <path d="M0.504,0.431 C0.092,0.651 -0.07,1.177 0.141,1.604 L0.141,1.604 L1.633,0.803 C1.485,0.505 1.192,0.333 0.889,0.333 L0.889,0.333 C0.759,0.333 0.627,0.364 0.504,0.431" id="Fill-141" fill="url(#linearGradient-50)" mask="url(#mask-49)"></path>
                </g>
                <g id="Group-146" transform="translate(155.000000, 42.386000)">
                    <mask id="mask-52" fill="white">
                        <use xlink:href="#path-51"></use>
                    </mask>
                    <g id="Clip-145"></g>
                    <path d="M3.794,1.183 C3.021,1.593 0.809,2.039 0.809,2.039 L0.809,2.039 L0.809,2.628 C0.809,2.628 3.69,2.096 4.256,1.373 L4.256,1.373 C4.718,0.782 4.863,0.126 4.863,0.126 L4.863,0.126 C4.737,0.431 4.312,0.908 3.794,1.183" id="Fill-144" mask="url(#mask-52)"></path>
                </g>
                <g id="Group-151" transform="translate(156.000000, 36.386000)" fill="#1A2E35">
                    <path d="M0.3406,2.3156 C0.3406,2.5696 0.5396,2.7756 0.7836,2.7746 C1.0286,2.7746 1.2266,2.5676 1.2266,2.3136 C1.2266,2.0586 1.0286,1.8536 0.7836,1.8546 C0.5396,1.8546 0.3406,2.0616 0.3406,2.3156" id="Fill-147"></path>
                    <path d="M0.8106,0.6425 L1.7586,1.1655 C1.8986,0.8935 1.7996,0.5555 1.5376,0.4115 C1.2766,0.2665 0.9506,0.3705 0.8106,0.6425" id="Fill-149"></path>
                </g>
                <g id="Group-154" transform="translate(155.000000, 41.386000)">
                    <mask id="mask-54" fill="white">
                        <use xlink:href="#path-53"></use>
                    </mask>
                    <g id="Clip-153"></g>
                    <path d="M0.363,0.7 C0.462,0.991 0.77,1.14 1.049,1.036 L1.049,1.036 C1.329,0.931 1.474,0.611 1.374,0.321 L1.374,0.321 L0.363,0.7 Z" id="Fill-152" mask="url(#mask-54)"></path>
                </g>
                <g id="Group-159" transform="translate(152.000000, 36.386000)" fill="#1A2E35">
                    <path d="M0.3886,1.0114 L1.2526,0.3454 C1.0766,0.0984 0.7406,0.0464 0.5016,0.2304 C0.2626,0.4144 0.2116,0.7644 0.3886,1.0114" id="Fill-155"></path>
                    <path d="M0.6548,2.1896 C0.6548,2.4436 0.8538,2.6496 1.0978,2.6486 C1.3428,2.6476 1.5408,2.4416 1.5408,2.1866 C1.5408,1.9326 1.3428,1.7276 1.0978,1.7276 C0.8538,1.7286 0.6548,1.9356 0.6548,2.1896" id="Fill-157"></path>
                </g>
                <g id="Group-162" transform="translate(153.000000, 37.386000)">
                    <mask id="mask-56" fill="white">
                        <use xlink:href="#path-55"></use>
                    </mask>
                    <g id="Clip-161"></g>
                    <polygon id="Fill-160" mask="url(#mask-56)" points="0.375 2.96 1.767 3.434 1.912 0.77"></polygon>
                </g>
                <g id="Group-165" transform="translate(143.000000, 53.386000)">
                    <mask id="mask-58" fill="white">
                        <use xlink:href="#path-57"></use>
                    </mask>
                    <g id="Clip-164"></g>
                    <polygon id="Fill-163" fill="url(#linearGradient-59)" mask="url(#mask-58)" points="4.236 14.752 15.016 17.883 11.669 3.813 0.331 0.826"></polygon>
                </g>
                <g id="Group-178" transform="translate(145.000000, 53.386000)">
                    <path d="M3.2741,10.1366 C3.1691,10.4246 2.5491,11.2216 1.2291,11.1586 L1.0651,10.5766 L3.2741,10.1366 Z" id="Fill-166" fill="#D37E00"></path>
                    <path d="M5.8079,10.577 C5.8579,10.952 6.6289,11.647 7.9319,12.081 C9.4149,12.575 11.6909,12.314 11.6909,12.314 L11.4869,11.614 L5.8079,10.577 Z" id="Fill-168" fill="#D37E00"></path>
                    <path d="M1.6503,2.8638 C1.6503,2.8638 1.6083,2.6698 1.5573,2.4318 C1.5053,2.1928 2.1703,2.1828 3.0433,2.4088 L4.7133,2.8418 C5.5863,3.0678 6.3353,3.4448 6.3863,3.6838 L6.4803,4.1168 L1.6503,2.8638 Z" id="Fill-170" fill="#375A64"></path>
                    <path d="M0.8643,1.2326 C0.8313,1.0836 1.1013,1.0436 1.4663,1.1446 L2.1283,1.3276 C2.1283,1.3276 1.9313,0.3926 3.3983,0.7196 C4.8663,1.0466 5.1873,2.1086 5.1873,2.1086 C5.1873,2.1086 5.5033,2.1976 5.8933,2.3086 C6.2843,2.4196 6.6373,2.6296 6.6833,2.7786 L6.7673,3.0476 L0.9263,1.5096 C0.9263,1.5096 0.8973,1.3816 0.8643,1.2326" id="Fill-172" fill="#41545A"></path>
                    <path d="M1.669,1.6995 C2.204,1.8285 2.426,1.8995 2.507,2.2675 C2.598,2.6885 2.635,2.9965 2.635,2.9965 L5.22,3.6795 C5.22,3.6795 5.095,3.1475 5.055,2.9405 C5.015,2.7325 5.103,2.6075 5.514,2.7165 L5.549,2.5515 L1.499,1.5205 L1.669,1.6995 Z" id="Fill-174" fill="#2B454E"></path>
                    <path d="M1.5798,2.9044 C1.5798,2.9044 1.5378,2.7114 1.4868,2.4724 C1.4348,2.2334 2.0998,2.2234 2.9728,2.4494 L4.6428,2.8824 C5.5158,3.1084 6.2648,3.4854 6.3158,3.7244 L6.4098,4.1574 L1.5798,2.9044 Z" id="Fill-176" fill="#41545A"></path>
                </g>
                <g id="Group-181" transform="translate(150.000000, 59.386000)">
                    <mask id="mask-61" fill="white">
                        <use xlink:href="#path-60"></use>
                    </mask>
                    <g id="Clip-180"></g>
                    <path d="M5.278,0.73 C5.278,0.73 5.545,1.853 5.631,2.211 L5.631,2.211 C5.715,2.57 3.638,2.859 2.438,2.453 L2.438,2.453 C1.24,2.047 -0.496,2.637 0.58,4.269 L0.58,4.269 C1.654,5.902 3.745,6.09 5.198,6.09102333 L5.198,6.09102333 C5.599,6.092 6.312,6.061 7.014,5.97 L7.014,5.97 C7.484,5.909 7.951,5.861 8.423,5.828 L8.423,5.828 C11.396,5.616 19.601,5.001 20.953,4.577 L20.953,4.577 L17.143,1.632 C17.143,1.632 9.165,3.134 8.263,3.205 L8.263,3.205 C7.36,3.277 6.656,2.386 6.312,1.501 L6.312,1.501 C6.039,0.798 5.548,0.726 5.357,0.726 L5.357,0.726 C5.307,0.726 5.278,0.73 5.278,0.73" id="Fill-179" fill="url(#linearGradient-62)" mask="url(#mask-61)"></path>
                </g>
                <g id="Group-184" transform="translate(143.000000, 57.386000)">
                    <mask id="mask-64" fill="white">
                        <use xlink:href="#path-63"></use>
                    </mask>
                    <g id="Clip-183"></g>
                    <path d="M0.711,1.479 C0.902,2.281 0.643,3.746 1.123,5.118 L1.123,5.118 C1.499,6.194 2.455,6.861 3.154,6.891 L3.154,6.891 C3.852,6.922 5.224,6.677 5.586,5.602 L5.586,5.602 C5.981,4.437 5.07,4.165 4.236,3.936 L4.236,3.936 C3.403,3.708 2.085,3.08 1.988,2.734 L1.988,2.734 C1.891,2.389 1.484,0.939 1.484,0.939 L1.484,0.939 C1.337,0.77 1.173,0.688 1.031,0.688 L1.031,0.688 C0.772,0.688 0.587,0.961 0.711,1.479" id="Fill-182" fill="url(#linearGradient-65)" mask="url(#mask-64)"></path>
                </g>
                <g id="Group-187" transform="translate(157.000000, 107.386000)">
                    <mask id="mask-67" fill="white">
                        <use xlink:href="#path-66"></use>
                    </mask>
                    <g id="Clip-186"></g>
                    <path d="M7.648,0.098 C7.647,0.159 7.648,0.407 7.648,0.407 L7.648,0.407 C7.442,0.636 6.871,0.863 6.229,0.887 L6.229,0.887 C5.814,0.903 4.806,0.82 4.809,0.503 L4.809,0.503 L4.809,0.098 C4.537,0.215 3.906,2.624 2.78,3.651 L2.78,3.651 C1.885,4.467 0.664,5.41 0.352,6.321 L0.352,6.321 C0.03,7.268 2.053,7.791 2.89,7.642 L2.89,7.642 C3.862,7.47 5.546,6.786 5.969,6.151 L5.969,6.151 C6.392,5.517 6.59,4.581 6.934,4.116 L6.934,4.116 C7.278,3.652 8.07,3.132 8.255,2.594 L8.255,2.594 C8.358,2.299 8.236,1.652 8.093,1.104 L8.093,1.104 C7.967,0.622 7.83,0.095 7.668,0.095 L7.668,0.095 C7.661,0.095 7.655,0.096 7.648,0.098" id="Fill-185" fill="url(#linearGradient-68)" mask="url(#mask-67)"></path>
                </g>
                <g id="Group-190" transform="translate(145.000000, 102.386000)">
                    <mask id="mask-70" fill="white">
                        <use xlink:href="#path-69"></use>
                    </mask>
                    <g id="Clip-189"></g>
                    <path d="M9.774,0.848 L9.782,1.1 C9.441,1.615 7.704,1.827 6.954,1.446 L6.954,1.446 L6.939,1.008 C6.792,1.013 6.672,1.221 6.347,1.574 L6.347,1.574 C5.954,1.999 5.311,2.458 4.677,2.775 L4.677,2.775 C3.614,3.307 1.548,4.126 0.613,4.547 L0.613,4.547 C0.029,4.809 0.056,5.515 0.66,5.917 L0.66,5.917 C1.263,6.319 2.721,6.609 4.472,6.217 L4.472,6.217 C5.426,6.003 6.667,5.123 7.454,5.169 L7.454,5.169 C8.239,5.217 9.71,5.206 10.29,4.807 L10.29,4.807 C10.87,4.406 10.638,3.552 10.474,2.819 L10.474,2.819 C10.299,2.036 10.05,0.846 9.791,0.846 L9.791,0.846 C9.785,0.846 9.78,0.846 9.774,0.848" id="Fill-188" fill="url(#linearGradient-71)" mask="url(#mask-70)"></path>
                </g>
                <g id="Group-193" transform="translate(26.000000, 101.386000)">
                    <mask id="mask-73" fill="white">
                        <use xlink:href="#path-72"></use>
                    </mask>
                    <g id="Clip-192"></g>
                    <path d="M0.149,2.713 C0.207,2.838 0.644,3.36 2.232,3.298 L2.232,3.298 C3.989,3.232 4.812,2.75 4.812,2.75 L4.812,2.75 L3.036,0.283 L0.414,0.208 C0.299,1.1 -0.12,2.137 0.149,2.713" id="Fill-191" fill="url(#linearGradient-74)" mask="url(#mask-73)"></path>
                </g>
                <g id="Group-196" transform="translate(26.000000, 98.386000)">
                    <mask id="mask-76" fill="white">
                        <use xlink:href="#path-75"></use>
                    </mask>
                    <g id="Clip-195"></g>
                    <path d="M0.149,0.804 C0.149,0.804 0.418,3.045 0.438,3.527 L0.438,3.527 C0.459,4.007 2.624,4.161 3.036,3.283 L3.036,3.283 L3.102,0.543 L0.149,0.804 Z" id="Fill-194" fill="url(#linearGradient-77)" mask="url(#mask-76)"></path>
                </g>
                <path d="M26.1489,55.0529 C24.6659,57.3599 23.2569,59.3919 22.9569,61.9849 C22.3219,67.4599 24.4049,73.7199 24.8469,77.7689 C24.8469,77.7689 23.4479,79.5879 23.4489,81.7249 C23.4499,83.3979 26.1489,99.1899 26.1489,99.1899 C26.1489,99.1899 28.1109,99.7879 29.1029,98.9289 L30.9579,69.8769 L29.9809,66.3399 L26.1489,55.0529 Z" id="Fill-197" fill="#00DFBF"></path>
                <g id="Group-201" transform="translate(22.000000, 54.386000)">
                    <mask id="mask-79" fill="white">
                        <use xlink:href="#path-78"></use>
                    </mask>
                    <g id="Clip-200"></g>
                    <path d="M0.956,7.599 C0.322,13.074 2.405,19.334 2.846,23.383 L2.846,23.383 C2.846,23.383 1.448,25.202 1.449,27.339 L1.449,27.339 C1.449,29.012 4.149,44.804 4.149,44.804 L4.149,44.804 C4.149,44.804 6.111,45.402 7.102,44.543 L7.102,44.543 L8.957,15.491 L7.981,11.954 L4.149,0.667 C2.666,2.974 1.257,5.006 0.956,7.599" id="Fill-199" fill="url(#linearGradient-80)" mask="url(#mask-79)"></path>
                </g>
                <g id="Group-204" transform="translate(34.000000, 43.386000)">
                    <mask id="mask-82" fill="white">
                        <use xlink:href="#path-81"></use>
                    </mask>
                    <g id="Clip-203"></g>
                    <polygon id="Fill-202" fill="url(#linearGradient-83)" mask="url(#mask-82)" points="0.636 13.456 9.739 18.707 15.597 5.531 5.833 0.844"></polygon>
                </g>
                <g id="Group-207" transform="translate(36.000000, 44.386000)">
                    <mask id="mask-85" fill="white">
                        <use xlink:href="#path-84"></use>
                    </mask>
                    <g id="Clip-206"></g>
                    <polygon id="Fill-205" fill="url(#linearGradient-86)" mask="url(#mask-85)" points="0.383 11.966 7.392 16.001 12.452 4.773 4.359 0.909"></polygon>
                </g>
                <g id="Group-212" transform="translate(35.000000, 44.386000)">
                    <polygon id="Fill-208" fill="#FFFFFF" points="5.3586 0.9096 13.4516 4.7726 7.9886 16.1246 0.3376 11.7546"></polygon>
                    <path d="M7.1166,2.5375 C7.1166,2.5375 7.2016,2.3565 7.3076,2.1335 C7.4126,1.9105 8.0826,2.0055 8.8026,2.3455 L10.1816,2.9975 C10.9016,3.3375 11.3996,3.7945 11.2946,4.0175 L11.1036,4.4215 L7.1166,2.5375 Z" id="Fill-210" fill="#E1E1E1"></path>
                </g>
                <g id="Group-215" transform="translate(21.000000, 47.386000)">
                    <mask id="mask-88" fill="white">
                        <use xlink:href="#path-87"></use>
                    </mask>
                    <g id="Clip-214"></g>
                    <path d="M1.837,1.557 C1.123,3.586 -0.284,6.807 0.17,7.453 L0.17,7.453 C0.624,8.1 3.331,7.964 4.843,7.907 L4.843,7.907 C6.76,7.835 8.358,7.758 8.358,7.758 L8.358,7.758 L8.038,4.4 L5.309,4.4 L6.511,0.996 L1.837,1.557 Z" id="Fill-213" fill="url(#linearGradient-89)" mask="url(#mask-88)"></path>
                </g>
                <path d="M25.5733,41.7549 C24.5783,43.3919 22.5673,49.1589 22.5673,49.1589 C22.5673,49.1589 23.2823,50.0829 24.6863,50.4339 C26.0913,50.7849 26.8973,50.5169 26.8973,50.5169 L29.1183,44.9909 L25.5733,41.7549 Z" id="Fill-216" fill="#00DFBF"></path>
                <g id="Group-220" transform="translate(22.000000, 41.386000)">
                    <mask id="mask-91" fill="white">
                        <use xlink:href="#path-90"></use>
                    </mask>
                    <g id="Clip-219"></g>
                    <path d="M0.568,7.773 C0.568,7.773 1.282,8.696 2.686,9.047 L2.686,9.047 C4.091,9.398 4.897,9.131 4.897,9.131 L4.897,9.131 L7.118,3.605 L3.574,0.369 C2.578,2.006 0.568,7.773 0.568,7.773" id="Fill-218" fill="url(#linearGradient-92)" mask="url(#mask-91)"></path>
                </g>
                <g id="Group-223" transform="translate(35.000000, 42.386000)">
                    <mask id="mask-94" fill="white">
                        <use xlink:href="#path-93"></use>
                    </mask>
                    <g id="Clip-222"></g>
                    <path d="M2.88,9.175 C2.88,9.175 6.546,13.766 8.396,15.389 L8.396,15.389 C10.309,17.067 11.674,17.436 12.143,16.593 L12.143,16.593 C12.645,15.69 12.394,14.519 11.813,13.536 L11.813,13.536 C11.394,12.829 7.171,6.947 5.243,3.981 L5.243,3.981 C3.317,1.016 2.254,0.92 0.509,0.397 L0.509,0.397 C-0.882,4.94 2.88,9.175 2.88,9.175" id="Fill-221" fill="url(#linearGradient-95)" mask="url(#mask-94)"></path>
                </g>
                <g id="Group-226" transform="translate(29.000000, 37.386000)">
                    <mask id="mask-97" fill="white">
                        <use xlink:href="#path-96"></use>
                    </mask>
                    <g id="Clip-225"></g>
                    <polygon id="Fill-224" fill="url(#linearGradient-98)" mask="url(#mask-97)" points="0.53 6.196 4.641 5.721 5.115 1.55 1.123 0.662"></polygon>
                </g>
                <path d="M25.3121,32.8469 C25.6511,28.9959 27.7391,27.4099 29.3531,27.0289 C32.6111,26.2619 35.5151,27.4439 36.8311,29.7249 C37.1781,30.3269 37.7581,32.5759 36.5981,33.9039 C35.4381,35.2329 25.3121,32.8469 25.3121,32.8469" id="Fill-227" fill="#1A2E35"></path>
                <g id="Group-231" transform="translate(37.000000, 33.386000)">
                    <mask id="mask-100" fill="white">
                        <use xlink:href="#path-99"></use>
                    </mask>
                    <g id="Clip-230"></g>
                    <path d="M0.144,2.69 C0.144,2.69 0.746,2.565 0.876,2.422 L0.876,2.422 C1.007,2.28 0.155,0.815 0.155,0.815 L0.155,0.815 L0.144,2.69 Z" id="Fill-229" mask="url(#mask-100)"></path>
                </g>
                <g id="Group-234" transform="translate(28.000000, 28.386000)">
                    <mask id="mask-102" fill="white">
                        <use xlink:href="#path-101"></use>
                    </mask>
                    <g id="Clip-233"></g>
                    <path d="M1.268,1.589 C-0.261,2.593 -0.158,5.386 0.993,7.543 L0.993,7.543 C1.971,9.377 4.315,10.452 5.36,10.843 L5.36,10.843 C6.195,11.156 7.896,11.252 8.23,10.967 L8.23,10.967 C8.724,10.544 9.386,9.479 9.169,6.023 L9.169,6.023 C8.958,2.656 7.439,1.699 6.558,1.178 L6.558,1.178 C6.171,0.949 5.337,0.686 4.324,0.686 L4.324,0.686 C3.389,0.686 2.301,0.91 1.268,1.589" id="Fill-232" fill="url(#linearGradient-103)" mask="url(#mask-102)"></path>
                </g>
                <path d="M34.8184,29.7228 C34.8184,29.7228 35.4294,32.8998 34.3674,34.8238 C34.3674,34.8238 33.8834,33.5698 32.8124,33.8598 C31.7344,34.1528 31.7504,35.5678 32.5414,36.3358 C33.3324,37.1048 34.1604,36.7788 34.1604,36.7788 C34.1604,36.7788 33.9664,38.3788 32.8434,39.3958 C32.8434,39.3958 29.3294,40.4138 26.7034,37.2618 C24.3214,34.4018 24.9284,29.5588 28.7414,28.5288 C32.5554,27.4988 34.8184,29.7228 34.8184,29.7228" id="Fill-235" fill="#1A2E35"></path>
                <g id="Group-239" transform="translate(27.000000, 102.386000)">
                    <mask id="mask-105" fill="white">
                        <use xlink:href="#path-104"></use>
                    </mask>
                    <g id="Clip-238"></g>
                    <path d="M7.35,0.241 C5.863,0.428 3.712,0.566 3.712,0.566 L3.712,0.566 L0.707,1.086 C0.707,1.086 0.172,2.817 0.11,3.354 L0.11,3.354 C0.047,3.891 0.364,4.187 1.102,4.441 L1.102,4.441 C1.763,4.669 2.512,4.269 3.68,3.919 L3.68,3.919 C4.82,3.577 6.13,3.31 7.222,2.943 L7.222,2.943 C8.497,2.514 9.315,2.004 9.664,1.392 L9.664,1.392 C9.977,0.846 9.078,0.211 7.827,0.211 L7.827,0.211 C7.673,0.211 7.513,0.22 7.35,0.241" id="Fill-237" fill="url(#linearGradient-106)" mask="url(#mask-105)"></path>
                </g>
                <g id="Group-242" transform="translate(27.000000, 100.386000)">
                    <mask id="mask-108" fill="white">
                        <use xlink:href="#path-107"></use>
                    </mask>
                    <g id="Clip-241"></g>
                    <path d="M0.558,3.582 C0.558,3.582 0.484,3.997 2.256,4.261 L2.256,4.261 C4.027,4.525 6.803,3.335 7.276,3.092 L7.276,3.092 C7.749,2.85 7.805,2.37 6.066,2.465 L6.066,2.465 C4.327,2.562 3.712,2.566 3.712,2.566 L3.712,2.566 L4.276,1.059 L1.333,0.183 L0.558,3.582 Z" id="Fill-240" fill="url(#linearGradient-109)" mask="url(#mask-108)"></path>
                </g>
                <g id="Group-247" transform="translate(23.000000, 54.386000)">
                    <path d="M7.9577,15.4907 L6.9807,11.9537 C6.9807,11.9537 4.2727,11.2987 1.6867,9.8537 C1.6867,9.8537 2.6887,11.6737 5.5597,12.6717 L7.0547,17.2187 L7.1827,27.6237 L7.9577,15.4907 Z" id="Fill-243" fill="#2E3435"></path>
                    <path d="M3.1489,0.6669 C2.3559,1.9619 0.4599,4.1759 0.8629,6.3029 C1.3509,8.8809 2.7379,10.6919 6.9809,11.9539 L10.9599,26.3639 C10.9599,26.3639 8.8879,28.3029 8.2539,30.1469 C7.6219,31.9919 5.3329,46.1829 5.3329,46.1829 C5.3329,46.1829 6.0399,47.3389 8.2759,47.0589 C8.2759,47.0589 16.0679,29.2599 16.6189,28.1139 C17.1689,26.9679 17.5259,26.1109 17.2789,24.2449 C17.0309,22.3779 14.3759,1.9619 14.3759,1.9619 L3.1489,0.6669 Z" id="Fill-245" fill="#00DFBF"></path>
                </g>
                <g id="Group-250" transform="translate(23.000000, 54.386000)">
                    <mask id="mask-111" fill="white">
                        <use xlink:href="#path-110"></use>
                    </mask>
                    <g id="Clip-249"></g>
                    <path d="M0.863,6.303 C1.351,8.88 2.738,10.692 6.981,11.954 L6.981,11.954 L10.96,26.364 C10.96,26.364 8.888,28.303 8.254,30.147 L8.254,30.147 C7.622,31.992 5.333,46.183 5.333,46.183 L5.333,46.183 C5.333,46.183 6.04,47.338 8.276,47.059 L8.276,47.059 C8.276,47.059 16.068,29.259 16.619,28.113 L16.619,28.113 C17.169,26.968 17.526,26.111 17.279,24.244 L17.279,24.244 C17.031,22.378 14.376,1.961 14.376,1.961 L14.376,1.961 L3.149,0.667 C2.356,1.961 0.459,4.175 0.863,6.303" id="Fill-248" fill="url(#linearGradient-112)" mask="url(#mask-111)"></path>
                </g>
                <path d="M25.4255,42.0534 C25.7355,41.2344 26.7175,40.5534 27.5995,40.7934 C30.3735,41.5484 34.6885,42.5414 35.5085,42.7834 L35.5095,42.7834 C35.5095,42.7834 35.1415,49.0114 38.3365,50.8974 C38.1865,52.0874 37.3755,56.3474 37.3755,56.3474 C37.3755,56.3474 33.5345,58.2084 30.3725,57.2914 C27.2095,56.3744 26.1485,55.0524 26.1485,55.0524 L27.7315,52.4744 C27.3915,51.6364 26.0875,48.7914 25.2435,46.1474 C24.8435,44.8974 25.1155,42.8724 25.4255,42.0534" id="Fill-251" fill="#00DFBF"></path>
                <g id="Group-255" transform="translate(25.000000, 40.386000)">
                    <mask id="mask-114" fill="white">
                        <use xlink:href="#path-113"></use>
                    </mask>
                    <g id="Clip-254"></g>
                    <path d="M0.426,1.667 C0.115,2.486 -0.156,4.511 0.243,5.762 L0.243,5.762 C1.087,8.406 2.391,11.251 2.731,12.089 L2.731,12.089 L1.149,14.667 C1.149,14.667 2.21,15.988 5.372,16.905 L5.372,16.905 C8.535,17.822 12.376,15.961 12.376,15.961 L12.376,15.961 C12.376,15.961 13.187,11.702 13.337,10.511 L13.337,10.511 C10.141,8.625 10.509,2.397 10.509,2.397 L10.509,2.397 L10.508,2.397 C9.689,2.155 5.373,1.163 2.599,0.408 L2.599,0.408 C2.477,0.374 2.353,0.359 2.229,0.359 L2.229,0.359 C1.459,0.359 0.693,0.962 0.426,1.667" id="Fill-253" fill="url(#linearGradient-115)" mask="url(#mask-114)"></path>
                </g>
                <g id="Group-258" transform="translate(27.000000, 51.386000)">
                    <mask id="mask-117" fill="white">
                        <use xlink:href="#path-116"></use>
                    </mask>
                    <g id="Clip-257"></g>
                    <path d="M0.731,1.089 C1.721,1.691 2.944,2.036 4.416,2.11 L4.416,2.11 C3.483,1.852 0.339,0.167 0.299,0.074 L0.299,0.074 L0.731,1.089 Z" id="Fill-256" fill="url(#linearGradient-118)" mask="url(#mask-117)"></path>
                </g>
                <g id="Group-263" transform="translate(19.000000, 33.386000)">
                    <path d="M8.192,1.6053 C8.192,1.6053 7.229,-0.0317 4.88,0.3923 C2.532,0.8153 1.574,3.3123 1.609,4.8933 C1.645,6.4733 2.173,7.5773 0.756,9.4473 C-0.404,10.9783 0.005,13.2453 1.763,14.2253 C3.653,15.2783 4.112,13.4443 3.673,11.8823 C3.17,10.0903 5.045,9.7803 5.544,8.4223 C6.043,7.0643 5.061,4.2103 5.691,3.2493 C6.378,2.2033 7.338,2.3463 7.801,2.7013 L8.192,1.6053 Z" id="Fill-259" fill="#1A2E35"></path>
                    <path d="M16.509,9.3972 C16.509,9.3972 18.065,9.7232 19.031,10.1962 C20.092,10.7152 24.215,17.1922 24.215,17.1922 C24.215,17.1922 23.92,19.6272 20.546,20.5952 L18.517,18.0742 C18.517,18.0742 15.612,13.6942 16.509,9.3972" id="Fill-261" fill="#00DFBF"></path>
                </g>
                <g id="Group-266" transform="translate(35.000000, 42.386000)">
                    <mask id="mask-120" fill="white">
                        <use xlink:href="#path-119"></use>
                    </mask>
                    <g id="Clip-265"></g>
                    <path d="M2.516,9.074 L4.546,11.595 C7.92,10.628 8.215,8.192 8.215,8.192 L8.215,8.192 C8.215,8.192 4.092,1.715 3.031,1.196 L3.031,1.196 C2.065,0.723 0.509,0.397 0.509,0.397 L0.509,0.397 C-0.388,4.695 2.516,9.074 2.516,9.074" id="Fill-264" fill="url(#linearGradient-121)" mask="url(#mask-120)"></path>
                </g>
                <path d="M38.1286,52.2203 C38.1286,52.2203 36.7486,50.7023 36.1605998,48.6913 C36.1605998,48.6913 36.1546,51.4873 38.0036,52.9363 L38.1286,52.2203 Z" id="Fill-267" fill="#00DFBF"></path>
                <g id="Group-271" transform="translate(36.000000, 48.386000)">
                    <mask id="mask-123" fill="white">
                        <use xlink:href="#path-122"></use>
                    </mask>
                    <g id="Clip-270"></g>
                    <path d="M2.003,4.55 L2.128,3.834 C2.128,3.834 0.749,2.316 0.16099975,0.305 L0.16099975,0.305 C0.16099975,0.305 0.155,3.101 2.003,4.55" id="Fill-269" fill="url(#linearGradient-124)" mask="url(#mask-123)"></path>
                </g>
                <g id="Group-278" transform="translate(42.000000, 44.386000)">
                    <path d="M0.9614,1.3453 C1.4094,1.5453 1.5844,1.6443 1.4224,1.9883 C1.2364,2.3813 1.0714,2.6653 1.0714,2.6653 L3.1964,3.6853 C3.1964,3.6853 3.4214,3.1863 3.5184,2.9933 C3.6154,2.7993 3.7844,2.7013 4.1234,2.8633 L4.2654,2.7203 L0.9104,1.1573 L0.9614,1.3453 Z" id="Fill-272" fill="#41545A"></path>
                    <path d="M0.0811,2.4169 C0.0811,2.4169 0.1661,2.2359 0.2721,2.0129 C0.3781,1.7899 1.0471,1.8839 1.7671,2.2249 L3.1461,2.8769 C3.8661,3.2169 4.3641,3.6739 4.2591,3.8969 L4.0681,4.3009 L0.0811,2.4169 Z" id="Fill-274" fill="#69787C"></path>
                    <path d="M0.4675,0.7986 C0.5325,0.6596 0.8265,0.6656 1.1245,0.8136 L1.6635,1.0826 C1.6635,1.0826 2.0815,0.2086 3.3285,0.7336 C4.5755,1.2576 4.1965,2.2646 4.1965,2.2646 C4.1965,2.2646 4.4525,2.3946 4.7685,2.5556 C5.0845,2.7166 5.2975,2.9606 5.2465,3.1026 L5.1525,3.3576 L0.3495,1.0516 C0.3495,1.0516 0.4025,0.9386 0.4675,0.7986" id="Fill-276" fill="#69787C"></path>
                </g>
                <g id="Group-281" transform="translate(149.000000, 27.386000)">
                    <mask id="mask-126" fill="white">
                        <use xlink:href="#path-125"></use>
                    </mask>
                    <g id="Clip-280"></g>
                    <path d="M0.758,6.465 L13.984,7.838 C14.363,4.185 11.709,0.917 8.057,0.538 L8.057,0.538 C7.824,0.514 7.592,0.502 7.363,0.502 L7.363,0.502 C4,0.503 1.113,3.045 0.758,6.465" id="Fill-279" mask="url(#mask-126)"></path>
                </g>
                <g id="Group-284" transform="translate(151.000000, 27.386000)">
                    <mask id="mask-128" fill="white">
                        <use xlink:href="#path-127"></use>
                    </mask>
                    <g id="Clip-283"></g>
                    <path d="M6.943,0.394 C5.001,0.591 3.242,1.47 1.992,2.869 L1.992,2.869 C1.132,3.831 0.591,4.961 0.384,6.153 L0.384,6.153 C0.78,6.262 1.149,6.398 1.496,6.557 L1.496,6.557 C1.636,5.501 2.1,4.496 2.859,3.645 L2.859,3.645 C3.916,2.463 5.407,1.72 7.06,1.554 L7.06,1.554 C7.379,1.521 7.612,1.235 7.581,0.915 L7.581,0.915 C7.55,0.615 7.296,0.392 6.999,0.392 L6.999,0.392 C6.981,0.392 6.962,0.393 6.943,0.394" id="Fill-282" mask="url(#mask-128)"></path>
                </g>
                <g id="Group-287" transform="translate(147.000000, 32.386000)">
                    <mask id="mask-130" fill="white">
                        <use xlink:href="#path-129"></use>
                    </mask>
                    <g id="Clip-286"></g>
                    <path d="M0.443,1.224 C0.408,1.56 0.655,1.865 0.992,1.9 L0.992,1.9 L16.548,3.515 C16.885,3.549 17.188,3.303 17.223,2.967 L17.223,2.967 C17.258,2.63 17.011,2.326 16.675,2.291 L16.675,2.291 L1.118,0.676 C1.097,0.673 1.077,0.672 1.056,0.672 L1.056,0.672 C0.745,0.672 0.475,0.909 0.443,1.224" id="Fill-285" mask="url(#mask-130)"></path>
                </g>
                <g id="Group-290" transform="translate(24.000000, 24.386000)">
                    <mask id="mask-132" fill="white">
                        <use xlink:href="#path-131"></use>
                    </mask>
                    <g id="Clip-289"></g>
                    <path d="M6.078,0.69 C2.276,1.508 -0.142,5.253 0.676,9.055 L0.676,9.055 L14.442,6.092 C13.731,2.789 10.812,0.531 7.566,0.531 L7.566,0.531 C7.075,0.531 6.577,0.582 6.078,0.69" id="Fill-288" fill="url(#linearGradient-133)" mask="url(#mask-132)"></path>
                </g>
                <g id="Group-293" transform="translate(26.000000, 24.386000)">
                    <mask id="mask-135" fill="white">
                        <use xlink:href="#path-134"></use>
                    </mask>
                    <g id="Clip-292"></g>
                    <path d="M6.574,0.022 C4.553,0.457 2.806,1.588 1.654,3.209 L1.654,3.209 C0.492,4.846 0.074,6.785 0.479,8.667 L0.479,8.667 C0.539,8.947 0.783,9.143 1.058,9.153 L1.058,9.153 C1.108,9.155 1.159,9.151 1.212,9.139 L1.212,9.139 C1.544,9.068 1.756,8.74 1.684,8.407 L1.684,8.407 C1.353,6.868 1.699,5.275 2.66,3.923 L2.66,3.923 C3.632,2.555 5.114,1.597 6.834,1.227 L6.834,1.227 C7.166,1.155 7.377,0.828 7.306,0.495 L7.306,0.495 C7.244,0.205 6.988,0.008 6.704,0.008 L6.704,0.008 C6.661,0.008 6.617,0.013 6.574,0.022" id="Fill-291" mask="url(#mask-135)"></path>
                </g>
                <g id="Group-296" transform="translate(23.000000, 29.386000)">
                    <mask id="mask-137" fill="white">
                        <use xlink:href="#path-136"></use>
                    </mask>
                    <g id="Clip-295"></g>
                    <path d="M17.078,0.073 L0.886,3.559 C0.536,3.634 0.311,3.982 0.387,4.332 L0.387,4.332 C0.462,4.682 0.809,4.907 1.161,4.832 L1.161,4.832 L17.352,1.346 C17.702,1.271 17.927,0.923 17.851,0.572 L17.851,0.572 C17.785,0.268 17.514,0.059 17.214,0.059 L17.214,0.059 C17.169,0.059 17.123,0.063 17.078,0.073" id="Fill-294" mask="url(#mask-137)"></path>
                </g>
            </g>
        </g>
    </g>
</svg>